<svg width="256" height="236" viewBox="0 0 256 236" fill="none" xmlns="http://www.w3.org/2000/svg">
<path d="M231.516 171.42C220.023 191.724 200.476 212.057 177.925 214.2C143.84 217.446 134.634 245.34 77.6424 229.386C69.3136 227.102 61.2328 223.817 53.5426 219.589C49.7843 217.508 46.1493 215.162 42.6601 212.565C11.8854 189.676 0.604883 152.327 5.65617 117.143C12.294 70.8755 45.1167 55.6713 66.1868 47.2015C87.2568 38.7318 119.029 -5.62952 175.161 9.55697C183.737 11.8349 192.049 15.2016 199.935 19.5908C217.885 29.7132 234.858 46.8474 242.637 67.9893C243.221 69.577 243.757 71.1824 244.261 72.8114C253.997 104.66 247.195 143.739 231.516 171.42Z" fill="#C5B9AC"/>
<path opacity="0.8" d="M231.516 171.42C220.023 191.724 200.476 212.057 177.925 214.2C143.84 217.446 134.634 245.34 77.6424 229.386C69.3136 227.102 61.2328 223.817 53.5426 219.589C49.7843 217.508 46.1493 215.162 42.6601 212.565C11.8854 189.676 0.604883 152.327 5.65617 117.143C12.294 70.8755 45.1167 55.6713 66.1868 47.2015C87.2568 38.7318 119.029 -5.62952 175.161 9.55697C183.737 11.8349 192.049 15.2016 199.935 19.5908C217.885 29.7132 234.858 46.8474 242.637 67.9893C243.221 69.577 243.757 71.1824 244.261 72.8114C253.997 104.66 247.195 143.739 231.516 171.42Z" fill="#C5B9AC"/>
<path opacity="0.3" d="M197.743 7.90437C197.743 7.90437 193.737 0.609183 187.545 1.01644C181.353 1.42369 179.172 5.87399 177.352 9.11433C175.532 12.3547 174.805 10.3302 170.073 8.71298C165.34 7.09576 163.175 9.92884 162.061 12.7619C160.946 15.595 161.334 13.5705 156.967 12.7619C152.6 11.9533 152.483 14.8513 149.682 16.4036C147.4 17.6726 146.912 17.7316 144.376 16.9938C141.229 16.0436 140.2 16.8345 139.473 18.4576H213.343C213.343 18.4576 211.942 11.9651 208.663 10.3538C205.384 8.74249 201.017 11.9533 197.743 7.90437Z" stroke="white" stroke-width="0.511871" stroke-miterlimit="10"/>
<path opacity="0.3" d="M87.5699 26.8329C87.5699 26.8329 85.3414 22.7721 81.8925 22.9964C78.4436 23.2207 77.2338 25.7056 76.2204 27.5057C75.2069 29.3059 74.8037 28.1845 72.1507 27.2814C69.4977 26.3784 68.3039 27.9602 67.6937 29.5361C67.0835 31.112 67.2904 29.9847 64.8603 29.5361C62.4301 29.0875 62.3665 30.7166 60.8065 31.5665C59.5384 32.2689 59.2625 32.2984 57.8617 31.8793C56.1107 31.3481 55.5377 31.7908 55.1344 32.6879H96.2345C96.2345 32.6879 95.4546 29.0816 93.6293 28.1845C91.804 27.2874 89.3898 29.0816 87.5699 26.8329Z" stroke="white" stroke-width="0.511871" stroke-miterlimit="10"/>
<path opacity="0.3" d="M209.278 26.4906C209.278 26.4906 208.116 24.3776 206.323 24.4897C204.53 24.6018 203.893 25.9003 203.368 26.8506C202.842 27.8009 202.625 27.2047 201.245 26.7326C201.024 26.6259 200.786 26.5721 200.545 26.5747C200.304 26.5772 200.066 26.6361 199.847 26.7474C199.628 26.8587 199.432 27.02 199.273 27.2208C199.113 27.4216 198.993 27.6574 198.921 27.913C198.603 28.7393 198.709 28.1491 197.446 27.913C196.183 27.6769 196.146 28.5032 195.324 28.9695C195.102 29.1392 194.844 29.2433 194.576 29.2722C194.308 29.3011 194.038 29.2538 193.79 29.1348C192.878 28.8633 192.581 29.0875 192.368 29.5597H213.82C213.82 29.5597 213.417 27.6828 212.462 27.1988C211.507 26.7148 210.228 27.6651 209.278 26.4906Z" stroke="white" stroke-width="0.511871" stroke-miterlimit="10"/>
<g opacity="0.3">
<path d="M0 210.877H4.74885V76.7482H23.1394V22.4003H52.6937V122.485H63.8575V82.6682H88.8115V91.433H110.152V209.779H118.689V188.23H142.004V209.413H153.168V102.759H190.93V202.838H201.765V63.3088H214.903V37.7403H221.466V23.1322H231.977V117.733H249.052V207.955H254.31" stroke="white" stroke-width="0.511871" stroke-miterlimit="10"/>
<path d="M23.1394 76.7482H4.63743V79.1505H23.1394V76.7482Z" stroke="white" stroke-width="0.511871" stroke-miterlimit="10"/>
<path d="M52.6884 22.4003H23.0492V24.7376H52.6884V22.4003Z" stroke="white" stroke-width="0.511871" stroke-miterlimit="10"/>
<path d="M70.5218 77.7044H66.208V82.6623H70.5218V77.7044Z" stroke="white" stroke-width="0.511871" stroke-miterlimit="10"/>
<path d="M81.7439 79.7879H79.5844V82.6682H81.7439V79.7879Z" stroke="white" stroke-width="0.511871" stroke-miterlimit="10"/>
<path d="M110.226 91.433H88.8115V94.3429H110.226V91.433Z" stroke="white" stroke-width="0.511871" stroke-miterlimit="10"/>
<path d="M190.925 100.587H153.168V102.759H190.925V100.587Z" stroke="white" stroke-width="0.511871" stroke-miterlimit="10"/>
<path d="M177.835 96.2669H162.872V100.587H177.835V96.2669Z" stroke="white" stroke-width="0.511871" stroke-miterlimit="10"/>
<path d="M174.667 96.4263V92.4246H185.603V100.428" stroke="white" stroke-width="0.511871" stroke-miterlimit="10"/>
<path d="M102.612 90.2407V57.9023H137.218V84.6985H149.119V39.1213H187.328V94.2425H199.229" stroke="white" stroke-width="0.511871" stroke-miterlimit="10"/>
<path d="M77.6954 74.228V38.5075H54.1687" stroke="white" stroke-width="0.511871" stroke-miterlimit="10"/>
<path d="M3.50194 83.1581H0.689774" stroke="white" stroke-width="0.511871" stroke-miterlimit="10"/>
<path d="M210.854 58.5221V46.8179H214.181" stroke="white" stroke-width="0.511871" stroke-miterlimit="10"/>
<path d="M233.283 47.1248H245.184V96.0899H255" stroke="white" stroke-width="0.511871" stroke-miterlimit="10"/>
<path d="M28.3445 29.2646H25.3732V35.7335H28.3445V29.2646Z" stroke="white" stroke-width="0.511871" stroke-miterlimit="10"/>
<path d="M33.693 29.2646H30.7216V35.7335H33.693V29.2646Z" stroke="white" stroke-width="0.511871" stroke-miterlimit="10"/>
<path d="M39.0414 29.2646H36.07V35.7335H39.0414V29.2646Z" stroke="white" stroke-width="0.511871" stroke-miterlimit="10"/>
<path d="M44.3898 29.2646H41.4185V35.7335H44.3898V29.2646Z" stroke="white" stroke-width="0.511871" stroke-miterlimit="10"/>
<path d="M49.7383 29.2646H46.7669V35.7335H49.7383V29.2646Z" stroke="white" stroke-width="0.511871" stroke-miterlimit="10"/>
<path d="M28.3445 40.1956H25.3732V46.6644H28.3445V40.1956Z" stroke="white" stroke-width="0.511871" stroke-miterlimit="10"/>
<path d="M33.693 40.1956H30.7216V46.6644H33.693V40.1956Z" stroke="white" stroke-width="0.511871" stroke-miterlimit="10"/>
<path d="M39.0414 40.1956H36.07V46.6644H39.0414V40.1956Z" stroke="white" stroke-width="0.511871" stroke-miterlimit="10"/>
<path d="M44.3898 40.1956H41.4185V46.6644H44.3898V40.1956Z" stroke="white" stroke-width="0.511871" stroke-miterlimit="10"/>
<path d="M49.7383 40.1956H46.7669V46.6644H49.7383V40.1956Z" stroke="white" stroke-width="0.511871" stroke-miterlimit="10"/>
<path d="M28.3445 51.1324H25.3732V57.6013H28.3445V51.1324Z" stroke="white" stroke-width="0.511871" stroke-miterlimit="10"/>
<path d="M33.693 51.1324H30.7216V57.6013H33.693V51.1324Z" stroke="white" stroke-width="0.511871" stroke-miterlimit="10"/>
<path d="M39.0414 51.1324H36.07V57.6013H39.0414V51.1324Z" stroke="white" stroke-width="0.511871" stroke-miterlimit="10"/>
<path d="M44.3898 51.1324H41.4185V57.6013H44.3898V51.1324Z" stroke="white" stroke-width="0.511871" stroke-miterlimit="10"/>
<path d="M49.7383 51.1324H46.7669V57.6013H49.7383V51.1324Z" stroke="white" stroke-width="0.511871" stroke-miterlimit="10"/>
<path d="M28.3445 62.0634H25.3732V68.5323H28.3445V62.0634Z" stroke="white" stroke-width="0.511871" stroke-miterlimit="10"/>
<path d="M33.693 62.0634H30.7216V68.5323H33.693V62.0634Z" stroke="white" stroke-width="0.511871" stroke-miterlimit="10"/>
<path d="M39.0414 62.0634H36.07V68.5323H39.0414V62.0634Z" stroke="white" stroke-width="0.511871" stroke-miterlimit="10"/>
<path d="M44.3898 62.0634H41.4185V68.5323H44.3898V62.0634Z" stroke="white" stroke-width="0.511871" stroke-miterlimit="10"/>
<path d="M49.7383 62.0634H46.7669V68.5323H49.7383V62.0634Z" stroke="white" stroke-width="0.511871" stroke-miterlimit="10"/>
<path d="M28.3445 72.9944H25.3732V79.4633H28.3445V72.9944Z" stroke="white" stroke-width="0.511871" stroke-miterlimit="10"/>
<path d="M33.693 72.9944H30.7216V79.4633H33.693V72.9944Z" stroke="white" stroke-width="0.511871" stroke-miterlimit="10"/>
<path d="M39.0414 72.9944H36.07V79.4633H39.0414V72.9944Z" stroke="white" stroke-width="0.511871" stroke-miterlimit="10"/>
<path d="M44.3898 72.9944H41.4185V79.4633H44.3898V72.9944Z" stroke="white" stroke-width="0.511871" stroke-miterlimit="10"/>
<path d="M49.7383 72.9944H46.7669V79.4633H49.7383V72.9944Z" stroke="white" stroke-width="0.511871" stroke-miterlimit="10"/>
<path d="M28.3445 83.9254H25.3732V90.3942H28.3445V83.9254Z" stroke="white" stroke-width="0.511871" stroke-miterlimit="10"/>
<path d="M33.693 83.9254H30.7216V90.3942H33.693V83.9254Z" stroke="white" stroke-width="0.511871" stroke-miterlimit="10"/>
<path d="M39.0414 83.9254H36.07V90.3942H39.0414V83.9254Z" stroke="white" stroke-width="0.511871" stroke-miterlimit="10"/>
<path d="M44.3898 83.9254H41.4185V90.3942H44.3898V83.9254Z" stroke="white" stroke-width="0.511871" stroke-miterlimit="10"/>
<path d="M49.7383 83.9254H46.7669V90.3942H49.7383V83.9254Z" stroke="white" stroke-width="0.511871" stroke-miterlimit="10"/>
<path d="M10.1132 83.9254H7.14185V90.3942H10.1132V83.9254Z" stroke="white" stroke-width="0.511871" stroke-miterlimit="10"/>
<path d="M15.4616 83.9254H12.4903V90.3942H15.4616V83.9254Z" stroke="white" stroke-width="0.511871" stroke-miterlimit="10"/>
<path d="M20.81 83.9254H17.8387V90.3942H20.81V83.9254Z" stroke="white" stroke-width="0.511871" stroke-miterlimit="10"/>
<path d="M10.1132 94.5494H7.14185V101.018H10.1132V94.5494Z" stroke="white" stroke-width="0.511871" stroke-miterlimit="10"/>
<path d="M15.4616 94.5494H12.4903V101.018H15.4616V94.5494Z" stroke="white" stroke-width="0.511871" stroke-miterlimit="10"/>
<path d="M20.81 94.5494H17.8387V101.018H20.81V94.5494Z" stroke="white" stroke-width="0.511871" stroke-miterlimit="10"/>
<path d="M10.1132 105.173H7.14185V111.642H10.1132V105.173Z" stroke="white" stroke-width="0.511871" stroke-miterlimit="10"/>
<path d="M15.4616 105.173H12.4903V111.642H15.4616V105.173Z" stroke="white" stroke-width="0.511871" stroke-miterlimit="10"/>
<path d="M20.81 105.173H17.8387V111.642H20.81V105.173Z" stroke="white" stroke-width="0.511871" stroke-miterlimit="10"/>
<path d="M10.1132 115.797H7.14185V122.266H10.1132V115.797Z" stroke="white" stroke-width="0.511871" stroke-miterlimit="10"/>
<path d="M15.4616 115.797H12.4903V122.266H15.4616V115.797Z" stroke="white" stroke-width="0.511871" stroke-miterlimit="10"/>
<path d="M20.81 115.797H17.8387V122.266H20.81V115.797Z" stroke="white" stroke-width="0.511871" stroke-miterlimit="10"/>
<path d="M10.1132 126.422H7.14185V132.89H10.1132V126.422Z" stroke="white" stroke-width="0.511871" stroke-miterlimit="10"/>
<path d="M15.4616 126.422H12.4903V132.89H15.4616V126.422Z" stroke="white" stroke-width="0.511871" stroke-miterlimit="10"/>
<path d="M20.81 126.422H17.8387V132.89H20.81V126.422Z" stroke="white" stroke-width="0.511871" stroke-miterlimit="10"/>
<path d="M10.1132 137.046H7.14185V143.514H10.1132V137.046Z" stroke="white" stroke-width="0.511871" stroke-miterlimit="10"/>
<path d="M15.4616 137.046H12.4903V143.514H15.4616V137.046Z" stroke="white" stroke-width="0.511871" stroke-miterlimit="10"/>
<path d="M20.81 137.046H17.8387V143.514H20.81V137.046Z" stroke="white" stroke-width="0.511871" stroke-miterlimit="10"/>
<path d="M10.1132 147.676H7.14185V154.144H10.1132V147.676Z" stroke="white" stroke-width="0.511871" stroke-miterlimit="10"/>
<path d="M15.4616 147.676H12.4903V154.144H15.4616V147.676Z" stroke="white" stroke-width="0.511871" stroke-miterlimit="10"/>
<path d="M20.81 147.676H17.8387V154.144H20.81V147.676Z" stroke="white" stroke-width="0.511871" stroke-miterlimit="10"/>
<path d="M10.1132 158.3H7.14185V164.768H10.1132V158.3Z" stroke="white" stroke-width="0.511871" stroke-miterlimit="10"/>
<path d="M15.4616 158.3H12.4903V164.768H15.4616V158.3Z" stroke="white" stroke-width="0.511871" stroke-miterlimit="10"/>
<path d="M20.81 158.3H17.8387V164.768H20.81V158.3Z" stroke="white" stroke-width="0.511871" stroke-miterlimit="10"/>
<path d="M10.1132 168.924H7.14185V175.393H10.1132V168.924Z" stroke="white" stroke-width="0.511871" stroke-miterlimit="10"/>
<path d="M15.4616 168.924H12.4903V175.393H15.4616V168.924Z" stroke="white" stroke-width="0.511871" stroke-miterlimit="10"/>
<path d="M20.81 168.924H17.8387V175.393H20.81V168.924Z" stroke="white" stroke-width="0.511871" stroke-miterlimit="10"/>
<path d="M10.1132 179.548H7.14185V186.017H10.1132V179.548Z" stroke="white" stroke-width="0.511871" stroke-miterlimit="10"/>
<path d="M15.4616 179.548H12.4903V186.017H15.4616V179.548Z" stroke="white" stroke-width="0.511871" stroke-miterlimit="10"/>
<path d="M20.81 179.548H17.8387V186.017H20.81V179.548Z" stroke="white" stroke-width="0.511871" stroke-miterlimit="10"/>
<path d="M10.1132 190.172H7.14185V196.641H10.1132V190.172Z" stroke="white" stroke-width="0.511871" stroke-miterlimit="10"/>
<path d="M15.4616 190.172H12.4903V196.641H15.4616V190.172Z" stroke="white" stroke-width="0.511871" stroke-miterlimit="10"/>
<path d="M20.81 190.172H17.8387V196.641H20.81V190.172Z" stroke="white" stroke-width="0.511871" stroke-miterlimit="10"/>
<path d="M57.798 127.655H54.8267V134.124H57.798V127.655Z" stroke="white" stroke-width="0.511871" stroke-miterlimit="10"/>
<path d="M63.1411 127.655H60.1698V134.124H63.1411V127.655Z" stroke="white" stroke-width="0.511871" stroke-miterlimit="10"/>
<path d="M57.798 138.279H54.8267V144.748H57.798V138.279Z" stroke="white" stroke-width="0.511871" stroke-miterlimit="10"/>
<path d="M63.1411 138.279H60.1698V144.748H63.1411V138.279Z" stroke="white" stroke-width="0.511871" stroke-miterlimit="10"/>
<path d="M57.798 148.903H54.8267V155.372H57.798V148.903Z" stroke="white" stroke-width="0.511871" stroke-miterlimit="10"/>
<path d="M63.1411 148.903H60.1698V155.372H63.1411V148.903Z" stroke="white" stroke-width="0.511871" stroke-miterlimit="10"/>
<path d="M57.798 159.527H54.8267V165.996H57.798V159.527Z" stroke="white" stroke-width="0.511871" stroke-miterlimit="10"/>
<path d="M63.1411 159.527H60.1698V165.996H63.1411V159.527Z" stroke="white" stroke-width="0.511871" stroke-miterlimit="10"/>
<path d="M57.798 170.151H54.8267V176.62H57.798V170.151Z" stroke="white" stroke-width="0.511871" stroke-miterlimit="10"/>
<path d="M63.1411 170.151H60.1698V176.62H63.1411V170.151Z" stroke="white" stroke-width="0.511871" stroke-miterlimit="10"/>
<path d="M57.798 180.775H54.8267V187.244H57.798V180.775Z" stroke="white" stroke-width="0.511871" stroke-miterlimit="10"/>
<path d="M63.1411 180.775H60.1698V187.244H63.1411V180.775Z" stroke="white" stroke-width="0.511871" stroke-miterlimit="10"/>
<path d="M57.798 191.399H54.8267V197.868H57.798V191.399Z" stroke="white" stroke-width="0.511871" stroke-miterlimit="10"/>
<path d="M63.1411 191.399H60.1698V197.868H63.1411V191.399Z" stroke="white" stroke-width="0.511871" stroke-miterlimit="10"/>
<path d="M28.3445 94.8622H25.3732V101.331H28.3445V94.8622Z" stroke="white" stroke-width="0.511871" stroke-miterlimit="10"/>
<path d="M33.693 94.8622H30.7216V101.331H33.693V94.8622Z" stroke="white" stroke-width="0.511871" stroke-miterlimit="10"/>
<path d="M39.0414 94.8622H36.07V101.331H39.0414V94.8622Z" stroke="white" stroke-width="0.511871" stroke-miterlimit="10"/>
<path d="M44.3898 94.8622H41.4185V101.331H44.3898V94.8622Z" stroke="white" stroke-width="0.511871" stroke-miterlimit="10"/>
<path d="M49.7383 94.8622H46.7669V101.331H49.7383V94.8622Z" stroke="white" stroke-width="0.511871" stroke-miterlimit="10"/>
<path d="M28.3445 105.793H25.3732V112.262H28.3445V105.793Z" stroke="white" stroke-width="0.511871" stroke-miterlimit="10"/>
<path d="M33.693 105.793H30.7216V112.262H33.693V105.793Z" stroke="white" stroke-width="0.511871" stroke-miterlimit="10"/>
<path d="M39.0414 105.793H36.07V112.262H39.0414V105.793Z" stroke="white" stroke-width="0.511871" stroke-miterlimit="10"/>
<path d="M44.3898 105.793H41.4185V112.262H44.3898V105.793Z" stroke="white" stroke-width="0.511871" stroke-miterlimit="10"/>
<path d="M49.7383 105.793H46.7669V112.262H49.7383V105.793Z" stroke="white" stroke-width="0.511871" stroke-miterlimit="10"/>
<path d="M28.3445 116.724H25.3732V123.193H28.3445V116.724Z" stroke="white" stroke-width="0.511871" stroke-miterlimit="10"/>
<path d="M33.693 116.724H30.7216V123.193H33.693V116.724Z" stroke="white" stroke-width="0.511871" stroke-miterlimit="10"/>
<path d="M39.0414 116.724H36.07V123.193H39.0414V116.724Z" stroke="white" stroke-width="0.511871" stroke-miterlimit="10"/>
<path d="M44.3898 116.724H41.4185V123.193H44.3898V116.724Z" stroke="white" stroke-width="0.511871" stroke-miterlimit="10"/>
<path d="M49.7383 116.724H46.7669V123.193H49.7383V116.724Z" stroke="white" stroke-width="0.511871" stroke-miterlimit="10"/>
<path d="M28.3445 127.655H25.3732V134.124H28.3445V127.655Z" stroke="white" stroke-width="0.511871" stroke-miterlimit="10"/>
<path d="M33.693 127.655H30.7216V134.124H33.693V127.655Z" stroke="white" stroke-width="0.511871" stroke-miterlimit="10"/>
<path d="M39.0414 127.655H36.07V134.124H39.0414V127.655Z" stroke="white" stroke-width="0.511871" stroke-miterlimit="10"/>
<path d="M44.3898 127.655H41.4185V134.124H44.3898V127.655Z" stroke="white" stroke-width="0.511871" stroke-miterlimit="10"/>
<path d="M49.7383 127.655H46.7669V134.124H49.7383V127.655Z" stroke="white" stroke-width="0.511871" stroke-miterlimit="10"/>
<path d="M28.3445 138.586H25.3732V145.055H28.3445V138.586Z" stroke="white" stroke-width="0.511871" stroke-miterlimit="10"/>
<path d="M33.693 138.586H30.7216V145.055H33.693V138.586Z" stroke="white" stroke-width="0.511871" stroke-miterlimit="10"/>
<path d="M39.0414 138.586H36.07V145.055H39.0414V138.586Z" stroke="white" stroke-width="0.511871" stroke-miterlimit="10"/>
<path d="M44.3898 138.586H41.4185V145.055H44.3898V138.586Z" stroke="white" stroke-width="0.511871" stroke-miterlimit="10"/>
<path d="M49.7383 138.586H46.7669V145.055H49.7383V138.586Z" stroke="white" stroke-width="0.511871" stroke-miterlimit="10"/>
<path d="M28.3445 149.523H25.3732V155.992H28.3445V149.523Z" stroke="white" stroke-width="0.511871" stroke-miterlimit="10"/>
<path d="M33.693 149.523H30.7216V155.992H33.693V149.523Z" stroke="white" stroke-width="0.511871" stroke-miterlimit="10"/>
<path d="M39.0414 149.523H36.07V155.992H39.0414V149.523Z" stroke="white" stroke-width="0.511871" stroke-miterlimit="10"/>
<path d="M44.3898 149.523H41.4185V155.992H44.3898V149.523Z" stroke="white" stroke-width="0.511871" stroke-miterlimit="10"/>
<path d="M49.7383 149.523H46.7669V155.992H49.7383V149.523Z" stroke="white" stroke-width="0.511871" stroke-miterlimit="10"/>
<path d="M28.3445 160.454H25.3732V166.923H28.3445V160.454Z" stroke="white" stroke-width="0.511871" stroke-miterlimit="10"/>
<path d="M33.693 160.454H30.7216V166.923H33.693V160.454Z" stroke="white" stroke-width="0.511871" stroke-miterlimit="10"/>
<path d="M39.0414 160.454H36.07V166.923H39.0414V160.454Z" stroke="white" stroke-width="0.511871" stroke-miterlimit="10"/>
<path d="M44.3898 160.454H41.4185V166.923H44.3898V160.454Z" stroke="white" stroke-width="0.511871" stroke-miterlimit="10"/>
<path d="M49.7383 160.454H46.7669V166.923H49.7383V160.454Z" stroke="white" stroke-width="0.511871" stroke-miterlimit="10"/>
<path d="M28.3445 171.385H25.3732V177.854H28.3445V171.385Z" stroke="white" stroke-width="0.511871" stroke-miterlimit="10"/>
<path d="M33.693 171.385H30.7216V177.854H33.693V171.385Z" stroke="white" stroke-width="0.511871" stroke-miterlimit="10"/>
<path d="M39.0414 171.385H36.07V177.854H39.0414V171.385Z" stroke="white" stroke-width="0.511871" stroke-miterlimit="10"/>
<path d="M44.3898 171.385H41.4185V177.854H44.3898V171.385Z" stroke="white" stroke-width="0.511871" stroke-miterlimit="10"/>
<path d="M49.7383 171.385H46.7669V177.854H49.7383V171.385Z" stroke="white" stroke-width="0.511871" stroke-miterlimit="10"/>
<path d="M28.3445 182.316H25.3732V188.785H28.3445V182.316Z" stroke="white" stroke-width="0.511871" stroke-miterlimit="10"/>
<path d="M33.693 182.316H30.7216V188.785H33.693V182.316Z" stroke="white" stroke-width="0.511871" stroke-miterlimit="10"/>
<path d="M39.0414 182.316H36.07V188.785H39.0414V182.316Z" stroke="white" stroke-width="0.511871" stroke-miterlimit="10"/>
<path d="M44.3898 182.316H41.4185V188.785H44.3898V182.316Z" stroke="white" stroke-width="0.511871" stroke-miterlimit="10"/>
<path d="M49.7383 182.316H46.7669V188.785H49.7383V182.316Z" stroke="white" stroke-width="0.511871" stroke-miterlimit="10"/>
<path d="M28.3445 193.56H25.3732V200.029H28.3445V193.56Z" stroke="white" stroke-width="0.511871" stroke-miterlimit="10"/>
<path d="M33.693 193.56H30.7216V200.029H33.693V193.56Z" stroke="white" stroke-width="0.511871" stroke-miterlimit="10"/>
<path d="M39.0414 193.56H36.07V200.029H39.0414V193.56Z" stroke="white" stroke-width="0.511871" stroke-miterlimit="10"/>
<path d="M44.3898 193.56H41.4185V200.029H44.3898V193.56Z" stroke="white" stroke-width="0.511871" stroke-miterlimit="10"/>
<path d="M49.7383 193.56H46.7669V200.029H49.7383V193.56Z" stroke="white" stroke-width="0.511871" stroke-miterlimit="10"/>
<path d="M23.1394 79.1563V210.954" stroke="white" stroke-width="0.511871" stroke-miterlimit="10"/>
<path d="M68.5638 85.3124V209.106" stroke="white" stroke-width="0.511871" stroke-miterlimit="10"/>
<path d="M74.3739 85.3124V209.106" stroke="white" stroke-width="0.511871" stroke-miterlimit="10"/>
<path d="M80.1892 85.3124V209.106" stroke="white" stroke-width="0.511871" stroke-miterlimit="10"/>
<path d="M86.0046 85.3124V209.106" stroke="white" stroke-width="0.511871" stroke-miterlimit="10"/>
<path d="M91.8146 97.6304V209.106" stroke="white" stroke-width="0.511871" stroke-miterlimit="10"/>
<path d="M97.63 97.6304V209.106" stroke="white" stroke-width="0.511871" stroke-miterlimit="10"/>
<path d="M103.445 97.6304V209.106" stroke="white" stroke-width="0.511871" stroke-miterlimit="10"/>
<path d="M201.999 77.9228H210.027V82.2314H201.999" stroke="white" stroke-width="0.511871" stroke-miterlimit="10"/>
<path d="M248.781 126.268H239.65V130.583H248.781" stroke="white" stroke-width="0.511871" stroke-miterlimit="10"/>
<path d="M248.781 136.432H239.65V140.746H248.781" stroke="white" stroke-width="0.511871" stroke-miterlimit="10"/>
<path d="M248.781 146.595H239.65V150.904H248.781" stroke="white" stroke-width="0.511871" stroke-miterlimit="10"/>
<path d="M248.781 156.759H239.65V161.068H248.781" stroke="white" stroke-width="0.511871" stroke-miterlimit="10"/>
<path d="M248.781 166.917H239.65V171.231H248.781" stroke="white" stroke-width="0.511871" stroke-miterlimit="10"/>
<path d="M248.781 177.081H239.65V181.395H248.781" stroke="white" stroke-width="0.511871" stroke-miterlimit="10"/>
<path d="M248.781 187.244H239.65V191.553H248.781" stroke="white" stroke-width="0.511871" stroke-miterlimit="10"/>
<path d="M248.781 197.408H239.65V201.717H248.781" stroke="white" stroke-width="0.511871" stroke-miterlimit="10"/>
<path d="M201.999 89.6269H210.027V93.9356H201.999" stroke="white" stroke-width="0.511871" stroke-miterlimit="10"/>
<path d="M201.999 101.325H210.027V105.64H201.999" stroke="white" stroke-width="0.511871" stroke-miterlimit="10"/>
<path d="M201.999 113.029H210.027V117.338H201.999" stroke="white" stroke-width="0.511871" stroke-miterlimit="10"/>
<path d="M201.999 124.728H210.027V129.042H201.999" stroke="white" stroke-width="0.511871" stroke-miterlimit="10"/>
<path d="M201.999 136.432H210.027V140.746H201.999" stroke="white" stroke-width="0.511871" stroke-miterlimit="10"/>
<path d="M201.999 148.136H210.027V152.445H201.999" stroke="white" stroke-width="0.511871" stroke-miterlimit="10"/>
<path d="M201.999 159.834H210.027V164.149H201.999" stroke="white" stroke-width="0.511871" stroke-miterlimit="10"/>
<path d="M201.999 171.538H210.027V175.853H201.999" stroke="white" stroke-width="0.511871" stroke-miterlimit="10"/>
<path d="M201.999 183.243H210.027V187.551H201.999" stroke="white" stroke-width="0.511871" stroke-miterlimit="10"/>
<path d="M189.264 105.947H154.383V109.641H189.264V105.947Z" stroke="white" stroke-width="0.511871" stroke-miterlimit="10"/>
<path d="M189.264 112.41H154.383V116.104H189.264V112.41Z" stroke="white" stroke-width="0.511871" stroke-miterlimit="10"/>
<path d="M189.264 118.879H154.383V122.573H189.264V118.879Z" stroke="white" stroke-width="0.511871" stroke-miterlimit="10"/>
<path d="M189.264 125.347H154.383V129.042H189.264V125.347Z" stroke="white" stroke-width="0.511871" stroke-miterlimit="10"/>
<path d="M189.264 131.816H154.383V135.511H189.264V131.816Z" stroke="white" stroke-width="0.511871" stroke-miterlimit="10"/>
<path d="M189.264 138.279H154.383V141.974H189.264V138.279Z" stroke="white" stroke-width="0.511871" stroke-miterlimit="10"/>
<path d="M189.264 144.748H154.383V148.443H189.264V144.748Z" stroke="white" stroke-width="0.511871" stroke-miterlimit="10"/>
<path d="M189.264 151.217H154.383V154.912H189.264V151.217Z" stroke="white" stroke-width="0.511871" stroke-miterlimit="10"/>
<path d="M189.264 157.68H154.383V161.375H189.264V157.68Z" stroke="white" stroke-width="0.511871" stroke-miterlimit="10"/>
<path d="M189.264 164.149H154.383V167.844H189.264V164.149Z" stroke="white" stroke-width="0.511871" stroke-miterlimit="10"/>
<path d="M189.264 170.618H154.383V174.312H189.264V170.618Z" stroke="white" stroke-width="0.511871" stroke-miterlimit="10"/>
<path d="M189.264 177.081H154.383V180.775H189.264V177.081Z" stroke="white" stroke-width="0.511871" stroke-miterlimit="10"/>
<path d="M189.264 183.549H154.383V187.244H189.264V183.549Z" stroke="white" stroke-width="0.511871" stroke-miterlimit="10"/>
<path d="M189.264 190.018H154.383V193.713H189.264V190.018Z" stroke="white" stroke-width="0.511871" stroke-miterlimit="10"/>
<path d="M189.264 196.481H154.383V200.176H189.264V196.481Z" stroke="white" stroke-width="0.511871" stroke-miterlimit="10"/>
<path d="M189.264 202.95H154.383V206.645H189.264V202.95Z" stroke="white" stroke-width="0.511871" stroke-miterlimit="10"/>
<path d="M189.264 209.419H154.383V213.114H189.264V209.419Z" stroke="white" stroke-width="0.511871" stroke-miterlimit="10"/>
<path d="M215.009 67.7591V210.647" stroke="white" stroke-width="0.511871" stroke-miterlimit="10"/>
<path d="M222.209 40.6619V210.647" stroke="white" stroke-width="0.511871" stroke-miterlimit="10"/>
<path d="M139.43 178.007H121.99V188.171H139.43V178.007Z" stroke="white" stroke-width="0.511871" stroke-miterlimit="10"/>
<path d="M135.281 160.147H126.144V178.007H135.281V160.147Z" stroke="white" stroke-width="0.511871" stroke-miterlimit="10"/>
<path d="M52.6937 122.485V210.712" stroke="white" stroke-width="0.511871" stroke-miterlimit="10"/>
<path d="M152.865 112.811H110.518" stroke="white" stroke-width="0.511871" stroke-miterlimit="10"/>
<path d="M152.865 118.076H110.518" stroke="white" stroke-width="0.511871" stroke-miterlimit="10"/>
<path d="M118.865 122.024H112.407V127.289H118.865V122.024Z" stroke="white" stroke-width="0.511871" stroke-miterlimit="10"/>
<path d="M126.834 122.024H120.377V127.289H126.834V122.024Z" stroke="white" stroke-width="0.511871" stroke-miterlimit="10"/>
<path d="M134.798 122.024H128.341V127.289H134.798V122.024Z" stroke="white" stroke-width="0.511871" stroke-miterlimit="10"/>
<path d="M142.768 122.024H136.311V127.289H142.768V122.024Z" stroke="white" stroke-width="0.511871" stroke-miterlimit="10"/>
<path d="M150.732 122.024H144.275V127.289H150.732V122.024Z" stroke="white" stroke-width="0.511871" stroke-miterlimit="10"/>
<path d="M118.865 130.181H112.407V135.446H118.865V130.181Z" stroke="white" stroke-width="0.511871" stroke-miterlimit="10"/>
<path d="M126.834 130.181H120.377V135.446H126.834V130.181Z" stroke="white" stroke-width="0.511871" stroke-miterlimit="10"/>
<path d="M134.798 130.181H128.341V135.446H134.798V130.181Z" stroke="white" stroke-width="0.511871" stroke-miterlimit="10"/>
<path d="M142.768 130.181H136.311V135.446H142.768V130.181Z" stroke="white" stroke-width="0.511871" stroke-miterlimit="10"/>
<path d="M150.732 130.181H144.275V135.446H150.732V130.181Z" stroke="white" stroke-width="0.511871" stroke-miterlimit="10"/>
<path d="M118.865 138.338H112.407V143.603H118.865V138.338Z" stroke="white" stroke-width="0.511871" stroke-miterlimit="10"/>
<path d="M126.834 138.338H120.377V143.603H126.834V138.338Z" stroke="white" stroke-width="0.511871" stroke-miterlimit="10"/>
<path d="M134.798 138.338H128.341V143.603H134.798V138.338Z" stroke="white" stroke-width="0.511871" stroke-miterlimit="10"/>
<path d="M142.768 138.338H136.311V143.603H142.768V138.338Z" stroke="white" stroke-width="0.511871" stroke-miterlimit="10"/>
<path d="M150.732 138.338H144.275V143.603H150.732V138.338Z" stroke="white" stroke-width="0.511871" stroke-miterlimit="10"/>
<path d="M118.865 153.076H112.407V158.341H118.865V153.076Z" stroke="white" stroke-width="0.511871" stroke-miterlimit="10"/>
<path d="M126.834 153.076H120.377V158.341H126.834V153.076Z" stroke="white" stroke-width="0.511871" stroke-miterlimit="10"/>
<path d="M134.798 153.076H128.341V158.341H134.798V153.076Z" stroke="white" stroke-width="0.511871" stroke-miterlimit="10"/>
<path d="M142.768 153.076H136.311V158.341H142.768V153.076Z" stroke="white" stroke-width="0.511871" stroke-miterlimit="10"/>
<path d="M150.732 153.076H144.275V158.341H150.732V153.076Z" stroke="white" stroke-width="0.511871" stroke-miterlimit="10"/>
</g>
<path d="M227.987 211.721C228.62 211.872 229.269 211.918 229.913 211.857C229.913 211.857 229.579 210.877 229.553 210.818C229.224 210.139 228.231 209.047 227.467 209.201C227.342 209.231 227.223 209.29 227.119 209.374C227.015 209.459 226.928 209.567 226.864 209.691C226.8 209.815 226.76 209.952 226.747 210.095C226.734 210.237 226.748 210.381 226.788 210.517C226.897 210.803 227.061 211.058 227.268 211.266C227.475 211.474 227.721 211.63 227.987 211.721Z" fill="#263238"/>
<path d="M245.587 205.63C244.813 205.583 243.948 206.81 243.698 207.519C243.698 207.583 243.433 208.599 243.449 208.599L243.009 209.23C242.727 209.661 242.409 210.145 242.096 210.7C241.753 211.293 241.441 211.908 241.162 212.541C240.847 213.251 240.587 213.989 240.387 214.749C240.391 214.758 240.391 214.769 240.387 214.778C240.387 214.525 240.345 213.822 240.334 213.763C240.212 213.008 239.576 211.621 238.806 211.503C238.678 211.488 238.549 211.503 238.427 211.547C238.304 211.591 238.192 211.664 238.096 211.759C238.001 211.855 237.924 211.972 237.872 212.103C237.82 212.233 237.793 212.375 237.793 212.518C237.817 212.827 237.901 213.126 238.039 213.395C238.177 213.664 238.367 213.896 238.594 214.076C239.147 214.438 239.746 214.705 240.371 214.867C240.186 215.643 240.048 216.431 239.958 217.228C239.905 217.688 239.862 218.16 239.825 218.633C239.825 218.414 239.825 218.219 239.825 218.196C239.703 217.434 239.066 216.047 238.297 215.929C238.169 215.914 238.04 215.93 237.917 215.974C237.795 216.018 237.683 216.09 237.587 216.186C237.491 216.282 237.415 216.399 237.363 216.529C237.31 216.66 237.283 216.801 237.283 216.944C237.307 217.253 237.391 217.553 237.53 217.822C237.668 218.091 237.857 218.323 238.085 218.503C238.623 218.863 239.208 219.128 239.82 219.288C239.82 219.465 239.793 219.648 239.782 219.831C239.724 220.698 239.671 221.566 239.597 222.416C239.597 222.717 239.533 223.006 239.501 223.307C239.501 223.112 239.501 222.947 239.475 222.923C239.353 222.168 238.716 220.781 237.947 220.663C237.819 220.648 237.689 220.663 237.567 220.707C237.445 220.752 237.332 220.824 237.237 220.92C237.141 221.015 237.065 221.132 237.013 221.263C236.96 221.394 236.933 221.535 236.933 221.678C236.956 221.987 237.04 222.287 237.179 222.556C237.317 222.825 237.507 223.057 237.734 223.236C238.254 223.582 238.818 223.838 239.406 223.998C239.363 224.299 239.321 224.588 239.268 224.889C239.225 225.084 239.199 225.273 239.146 225.479L239.008 226.069C238.902 226.429 238.801 226.807 238.695 227.155L238.477 227.864C238.504 227.569 238.551 226.984 238.551 226.931C238.514 226.254 238.32 225.6 237.989 225.031C237.997 224.956 237.997 224.881 237.989 224.806C237.967 224.665 237.919 224.53 237.847 224.411C237.775 224.292 237.682 224.191 237.573 224.115C237.464 224.039 237.341 223.989 237.214 223.969C237.086 223.948 236.956 223.958 236.832 223.998C236.09 224.257 235.681 225.768 235.676 226.518C235.676 226.565 235.723 227.055 235.761 227.368C235.713 227.191 235.67 227.014 235.623 226.831C235.527 226.465 235.426 226.105 235.315 225.715C235.256 225.532 235.193 225.343 235.134 225.155C235.076 224.966 234.996 224.777 234.927 224.564C234.763 224.122 234.572 223.679 234.397 223.242C234.996 223.07 235.569 222.797 236.095 222.434C236.318 222.248 236.503 222.012 236.637 221.74C236.771 221.468 236.85 221.167 236.869 220.858C236.867 220.714 236.837 220.573 236.782 220.444C236.727 220.314 236.648 220.199 236.551 220.105C236.453 220.012 236.339 219.942 236.216 219.901C236.092 219.86 235.963 219.848 235.835 219.866C235.065 219.996 234.455 221.401 234.349 222.162C234.349 222.209 234.317 222.752 234.312 223.071C234.19 222.805 234.073 222.546 233.941 222.286C233.564 221.531 233.161 220.781 232.763 220.031C232.641 219.801 232.519 219.571 232.402 219.341C233.022 219.164 233.614 218.883 234.158 218.509C234.383 218.324 234.569 218.088 234.704 217.816C234.839 217.544 234.919 217.243 234.938 216.933C234.935 216.787 234.904 216.643 234.847 216.512C234.791 216.38 234.709 216.264 234.609 216.17C234.509 216.076 234.391 216.007 234.265 215.968C234.139 215.928 234.007 215.919 233.877 215.941C233.113 216.077 232.503 217.476 232.397 218.237C232.397 218.296 232.354 219.093 232.354 219.299C232.094 218.792 231.824 218.284 231.595 217.771C231.272 217.081 230.988 216.37 230.746 215.64C231.371 215.459 231.968 215.177 232.519 214.802C232.742 214.617 232.927 214.38 233.061 214.108C233.194 213.836 233.274 213.535 233.293 213.226C233.291 213.083 233.261 212.942 233.206 212.812C233.151 212.683 233.072 212.567 232.975 212.474C232.877 212.38 232.763 212.311 232.64 212.269C232.516 212.228 232.386 212.216 232.259 212.234C231.489 212.37 230.879 213.769 230.773 214.53C230.773 214.589 230.73 215.451 230.736 215.611L230.688 215.481C230.466 214.74 230.303 213.98 230.2 213.208C230.136 212.783 230.099 212.37 230.073 211.969C230.695 211.873 231.302 211.674 231.871 211.379C232.112 211.221 232.32 211.008 232.48 210.754C232.641 210.499 232.75 210.209 232.8 209.903C232.811 209.76 232.795 209.616 232.753 209.481C232.711 209.345 232.644 209.221 232.555 209.116C232.467 209.012 232.36 208.929 232.242 208.873C232.123 208.818 231.995 208.79 231.866 208.793C231.091 208.835 230.348 210.151 230.163 210.895C230.163 210.936 230.094 211.355 230.057 211.668C230.057 211.485 230.03 211.296 230.025 211.125C229.998 210.47 230.025 209.874 230.025 209.354C230.025 209.053 230.051 208.764 230.067 208.528C230.576 208.122 231.027 207.632 231.404 207.076C231.552 206.815 231.648 206.522 231.684 206.216C231.721 205.911 231.698 205.6 231.617 205.305C231.567 205.172 231.494 205.053 231.4 204.954C231.307 204.855 231.196 204.779 231.074 204.731C230.952 204.683 230.823 204.664 230.694 204.676C230.565 204.687 230.44 204.729 230.327 204.798C229.659 205.229 229.542 206.781 229.69 207.53C229.69 207.595 230.004 208.587 230.014 208.581C230.014 208.823 229.972 209.089 229.956 209.378C229.956 209.909 229.908 210.505 229.924 211.148C229.931 211.855 229.976 212.561 230.057 213.261C230.147 214.046 230.297 214.82 230.508 215.575C230.375 215.369 229.977 214.802 229.977 214.761C229.499 214.206 228.279 213.439 227.584 213.81C227.469 213.877 227.369 213.969 227.288 214.081C227.208 214.194 227.149 214.324 227.117 214.463C227.084 214.602 227.078 214.747 227.099 214.889C227.121 215.031 227.168 215.166 227.239 215.286C227.412 215.53 227.631 215.728 227.88 215.867C228.13 216.006 228.404 216.081 228.682 216.089C229.323 216.054 229.955 215.908 230.555 215.658C230.786 216.422 231.064 217.168 231.388 217.889C231.569 218.308 231.77 218.727 231.972 219.146L231.733 218.792C231.25 218.237 230.035 217.47 229.335 217.842C229.221 217.907 229.12 217.999 229.039 218.111C228.959 218.223 228.901 218.352 228.868 218.491C228.836 218.63 228.83 218.774 228.851 218.916C228.872 219.057 228.919 219.192 228.99 219.311C229.162 219.556 229.381 219.755 229.631 219.895C229.88 220.035 230.154 220.111 230.433 220.12C231.057 220.089 231.673 219.952 232.259 219.713C232.338 219.872 232.412 220.031 232.492 220.185C232.879 220.946 233.267 221.708 233.622 222.457C233.75 222.729 233.866 222.994 233.983 223.26L233.771 222.959C233.293 222.369 232.078 221.631 231.378 222.009C231.263 222.074 231.163 222.166 231.082 222.278C231.002 222.39 230.943 222.519 230.911 222.658C230.878 222.797 230.872 222.941 230.893 223.083C230.914 223.224 230.962 223.359 231.033 223.478C231.206 223.721 231.425 223.919 231.675 224.057C231.924 224.196 232.197 224.272 232.476 224.281C233.082 224.256 233.68 224.125 234.248 223.891C234.36 224.169 234.476 224.446 234.572 224.724C234.667 225.001 234.705 225.09 234.763 225.278C234.821 225.467 234.874 225.662 234.927 225.869C235.023 226.235 235.124 226.612 235.209 226.966C235.267 227.214 235.325 227.456 235.379 227.692C235.256 227.427 235.002 226.913 234.975 226.872C234.583 226.241 233.484 225.273 232.741 225.526C232.62 225.574 232.509 225.649 232.416 225.747C232.322 225.845 232.248 225.964 232.198 226.095C232.148 226.227 232.124 226.369 232.126 226.512C232.128 226.655 232.157 226.795 232.211 226.925C232.349 227.195 232.538 227.427 232.765 227.607C232.993 227.786 233.253 227.908 233.527 227.964C234.161 228.034 234.801 227.998 235.426 227.858C235.516 228.253 235.601 228.643 235.67 229.009C235.707 229.192 235.745 229.375 235.776 229.546H236.265C236.219 229.333 236.171 229.115 236.121 228.891C236.031 228.489 235.93 228.058 235.819 227.616C236.175 227.444 236.521 227.247 236.854 227.026C237.339 227.447 237.875 227.793 238.445 228.053C238.323 228.436 238.201 228.814 238.085 229.162C238.028 229.3 237.964 229.434 237.894 229.563H238.424C238.465 229.492 238.501 229.417 238.53 229.339C238.658 228.95 238.785 228.531 238.907 228.094C239.535 228.225 240.178 228.247 240.812 228.159C241.085 228.096 241.342 227.968 241.565 227.784C241.789 227.599 241.974 227.363 242.106 227.09C242.159 226.96 242.185 226.818 242.185 226.675C242.185 226.531 242.157 226.39 242.104 226.26C242.051 226.129 241.973 226.013 241.877 225.918C241.78 225.823 241.667 225.752 241.544 225.709C240.796 225.473 239.713 226.459 239.331 227.096C239.331 227.138 239.103 227.58 238.976 227.858C239.029 227.681 239.082 227.509 239.13 227.327C239.231 226.966 239.326 226.601 239.427 226.211L239.554 225.621C239.602 225.426 239.629 225.214 239.666 225.031C239.745 224.558 239.809 224.074 239.857 223.59C240.444 223.812 241.057 223.935 241.677 223.956C241.955 223.94 242.227 223.856 242.473 223.712C242.72 223.567 242.935 223.364 243.104 223.118C243.173 222.997 243.218 222.861 243.237 222.719C243.256 222.577 243.247 222.432 243.212 222.294C243.177 222.156 243.116 222.028 243.034 221.917C242.951 221.807 242.848 221.718 242.733 221.654C242.027 221.294 240.822 222.085 240.356 222.658C240.329 222.693 240.032 223.142 239.878 223.396C239.904 223.101 239.936 222.805 239.958 222.51C240.016 221.649 240.053 220.775 240.09 219.907C240.09 219.642 240.117 219.376 240.133 219.111C240.738 219.343 241.371 219.472 242.011 219.494C242.29 219.48 242.562 219.398 242.809 219.253C243.056 219.108 243.271 218.904 243.438 218.656C243.507 218.535 243.553 218.4 243.571 218.258C243.59 218.117 243.581 217.972 243.546 217.835C243.511 217.697 243.45 217.569 243.368 217.459C243.285 217.35 243.183 217.261 243.067 217.198C242.361 216.838 241.157 217.629 240.69 218.202C240.658 218.243 240.233 218.892 240.159 219.063C240.191 218.473 240.223 217.883 240.281 217.322C240.353 216.547 240.47 215.778 240.631 215.02C241.24 215.253 241.877 215.385 242.52 215.41C242.799 215.395 243.071 215.312 243.317 215.167C243.564 215.022 243.779 214.819 243.948 214.572C244.017 214.451 244.063 214.315 244.082 214.173C244.101 214.032 244.093 213.887 244.058 213.749C244.023 213.611 243.963 213.483 243.881 213.372C243.799 213.262 243.697 213.172 243.582 213.108C242.876 212.748 241.671 213.545 241.204 214.111C241.167 214.159 240.711 214.855 240.637 214.991C240.637 214.944 240.637 214.896 240.663 214.855C240.843 214.101 241.083 213.366 241.38 212.659C241.544 212.264 241.714 211.898 241.91 211.55C242.48 211.845 243.086 212.044 243.709 212.14C243.987 212.158 244.265 212.109 244.524 211.996C244.784 211.883 245.018 211.708 245.21 211.485C245.292 211.373 245.351 211.244 245.384 211.105C245.417 210.966 245.423 210.821 245.402 210.68C245.381 210.538 245.333 210.403 245.262 210.283C245.19 210.164 245.097 210.062 244.988 209.986C244.324 209.537 243.046 210.18 242.526 210.688L242.053 211.278C242.133 211.119 242.213 210.96 242.298 210.806C242.595 210.251 242.902 209.756 243.178 209.325C243.337 209.077 243.486 208.858 243.624 208.658C244.25 208.632 244.869 208.501 245.46 208.268C245.714 208.14 245.941 207.953 246.124 207.719C246.307 207.484 246.443 207.209 246.521 206.911C246.557 206.755 246.559 206.593 246.529 206.436C246.498 206.28 246.434 206.133 246.344 206.009C246.253 205.885 246.137 205.785 246.006 205.72C245.875 205.654 245.731 205.623 245.587 205.63Z" fill="#263238"/>
<path d="M241.762 211.331C241.762 211.331 241.969 210.31 241.974 210.245C242.032 209.478 241.751 207.949 241.035 207.613C240.915 207.561 240.787 207.537 240.658 207.543C240.53 207.55 240.404 207.586 240.289 207.65C240.174 207.714 240.072 207.804 239.99 207.915C239.908 208.025 239.849 208.154 239.814 208.292C239.76 208.602 239.768 208.922 239.839 209.228C239.909 209.535 240.041 209.82 240.223 210.062C240.678 210.565 241.197 210.993 241.762 211.331Z" fill="#263238"/>
<path d="M7.49735 221.076C7.79717 221.146 8.10455 221.168 8.40998 221.141C8.40998 221.141 8.2508 220.675 8.24019 220.651C8.08631 220.326 7.61408 219.807 7.25328 219.878C7.19333 219.892 7.13671 219.92 7.08713 219.96C7.03756 220 6.99614 220.051 6.96559 220.11C6.93503 220.169 6.91603 220.235 6.90983 220.303C6.90363 220.37 6.91037 220.439 6.92961 220.504C6.98127 220.639 7.05881 220.76 7.15684 220.859C7.25488 220.958 7.37106 221.032 7.49735 221.076Z" fill="#263238"/>
<path d="M15.8437 218.166C15.4775 218.166 15.069 218.721 14.9469 219.058C14.9469 219.087 14.8249 219.571 14.8302 219.571C14.7612 219.66 14.6923 219.76 14.618 219.866C14.4853 220.073 14.3368 220.303 14.1882 220.563C14.0224 220.845 13.8735 221.138 13.7425 221.442C13.5933 221.778 13.4708 222.127 13.3764 222.487C13.3764 222.369 13.3764 222.032 13.3764 222.009C13.318 221.649 13.0156 220.988 12.6495 220.934C12.5886 220.928 12.5272 220.935 12.4691 220.957C12.4111 220.978 12.3576 221.013 12.3122 221.058C12.2668 221.104 12.2304 221.159 12.2053 221.221C12.1802 221.283 12.1671 221.35 12.1666 221.418C12.1795 221.565 12.2202 221.706 12.2861 221.833C12.352 221.96 12.4415 222.07 12.5486 222.156C12.811 222.328 13.0955 222.453 13.3923 222.528C13.304 222.898 13.2384 223.275 13.196 223.655C13.1694 223.874 13.1535 224.098 13.1323 224.322C13.1323 224.216 13.1323 224.128 13.1323 224.11C13.0739 223.75 12.7715 223.095 12.4054 223.042C12.3448 223.034 12.2835 223.041 12.2254 223.061C12.1674 223.082 12.1139 223.116 12.0683 223.161C12.0228 223.206 11.9863 223.261 11.9612 223.323C11.9361 223.385 11.9229 223.452 11.9225 223.52C11.9347 223.666 11.9752 223.808 12.0411 223.935C12.1071 224.062 12.1969 224.172 12.3046 224.257C12.5588 224.426 12.8342 224.551 13.1217 224.629V224.883C13.0952 225.296 13.0686 225.709 13.0315 226.111C13.0315 226.252 13.005 226.394 12.989 226.536C12.993 226.475 12.993 226.414 12.989 226.353C12.936 225.993 12.6335 225.337 12.2674 225.278C12.2066 225.272 12.1452 225.28 12.0871 225.301C12.029 225.322 11.9756 225.357 11.9302 225.402C11.8847 225.448 11.8483 225.503 11.8233 225.565C11.7982 225.627 11.785 225.694 11.7846 225.762C11.7957 225.909 11.8357 226.051 11.9018 226.179C11.9678 226.306 12.0582 226.416 12.1666 226.5C12.4137 226.665 12.6821 226.787 12.9625 226.86C12.9625 227.002 12.9201 227.144 12.8935 227.285C12.867 227.427 12.8617 227.468 12.8352 227.563C12.8086 227.657 12.7927 227.74 12.7662 227.834L12.6229 228.348L12.5168 228.684C12.5168 228.542 12.5539 228.265 12.5539 228.241C12.5352 227.92 12.444 227.61 12.2886 227.338C12.2913 227.303 12.2913 227.267 12.2886 227.232C12.2773 227.168 12.2545 227.106 12.2215 227.052C12.1884 226.998 12.1459 226.951 12.0964 226.915C12.0469 226.879 11.9915 226.855 11.9333 226.844C11.8752 226.832 11.8156 226.834 11.7581 226.848C11.4079 226.972 11.2275 227.681 11.2275 228.029C11.2275 228.029 11.2275 228.283 11.2646 228.43C11.2646 228.348 11.2275 228.265 11.2009 228.176C11.1744 228.088 11.1107 227.834 11.0577 227.651C11.0258 227.563 10.9993 227.474 10.9728 227.38C10.9462 227.285 10.9038 227.203 10.872 227.108C10.7924 226.902 10.7022 226.689 10.612 226.483C10.8955 226.402 11.1659 226.273 11.4132 226.099C11.5201 226.011 11.6088 225.899 11.6729 225.769C11.737 225.64 11.7751 225.497 11.7846 225.349C11.7829 225.281 11.7684 225.215 11.742 225.153C11.7156 225.092 11.6779 225.038 11.6313 224.994C11.5848 224.95 11.5304 224.917 11.4718 224.898C11.4132 224.879 11.3516 224.874 11.2911 224.883C10.9303 224.942 10.6385 225.609 10.5854 225.969C10.5854 225.969 10.5854 226.258 10.5854 226.4C10.5271 226.276 10.474 226.152 10.4103 226.028C10.2299 225.674 10.0389 225.314 9.85321 224.96L9.67811 224.635C9.97278 224.547 10.255 224.414 10.5165 224.24C10.6227 224.152 10.7105 224.039 10.7737 223.91C10.8369 223.78 10.8741 223.637 10.8826 223.49C10.8809 223.422 10.8664 223.355 10.84 223.294C10.8136 223.233 10.7759 223.179 10.7293 223.135C10.6828 223.091 10.6284 223.058 10.5698 223.039C10.5112 223.02 10.4496 223.015 10.3891 223.024C10.0283 223.083 9.73647 223.75 9.68872 224.11C9.68872 224.11 9.68872 224.517 9.68872 224.612C9.56668 224.375 9.43934 224.133 9.32791 223.891C9.17489 223.563 9.04021 223.224 8.92466 222.876C9.22277 222.794 9.50747 222.661 9.76831 222.481C9.87392 222.394 9.96131 222.282 10.0245 222.154C10.0877 222.025 10.1252 221.883 10.1344 221.737C10.1335 221.669 10.1195 221.601 10.0934 221.539C10.0673 221.477 10.0297 221.422 9.98312 221.378C9.93649 221.333 9.88188 221.3 9.82291 221.28C9.76393 221.261 9.70192 221.256 9.64097 221.265C9.28016 221.33 8.98833 221.991 8.94058 222.351C8.94058 222.38 8.94058 222.788 8.94058 222.864C8.94355 222.845 8.94355 222.825 8.94058 222.805C8.83626 222.454 8.75992 222.092 8.71242 221.725C8.68058 221.525 8.66467 221.33 8.64875 221.135C8.94535 221.092 9.23381 220.997 9.50301 220.852C9.61692 220.777 9.71518 220.677 9.79116 220.557C9.86713 220.437 9.91905 220.3 9.94341 220.155C9.9494 220.087 9.94242 220.019 9.92291 219.954C9.90341 219.889 9.87183 219.83 9.83024 219.78C9.78865 219.73 9.738 219.69 9.6816 219.663C9.62521 219.636 9.56435 219.623 9.50301 219.624C9.13159 219.624 8.7814 220.267 8.6912 220.622C8.6912 220.622 8.65936 220.84 8.64344 220.988V220.734C8.64344 220.421 8.64344 220.144 8.64344 219.884C8.64344 219.742 8.64344 219.612 8.64344 219.494C8.88363 219.3 9.09645 219.068 9.27485 218.804C9.34559 218.68 9.39124 218.54 9.40865 218.394C9.42606 218.248 9.4148 218.1 9.37567 217.96C9.35251 217.897 9.3177 217.84 9.2735 217.793C9.22929 217.746 9.1767 217.71 9.11913 217.687C9.06156 217.664 9.00032 217.655 8.93938 217.661C8.87845 217.666 8.8192 217.685 8.76548 217.718C8.44712 217.924 8.39406 218.656 8.46304 219.016C8.46304 219.046 8.61161 219.518 8.61691 219.512C8.61691 219.63 8.61691 219.754 8.59038 219.89C8.59038 220.144 8.59038 220.427 8.59038 220.74C8.59458 221.073 8.61584 221.406 8.65405 221.737C8.69774 222.109 8.77053 222.477 8.8716 222.835L8.61161 222.445C8.38345 222.186 7.8051 221.82 7.47613 221.997C7.42183 222.028 7.37401 222.071 7.33579 222.124C7.29757 222.177 7.2698 222.239 7.25429 222.304C7.23877 222.37 7.23586 222.439 7.24574 222.506C7.25562 222.573 7.27808 222.637 7.31164 222.693C7.3939 222.809 7.49772 222.903 7.61592 222.969C7.73411 223.035 7.86384 223.072 7.99611 223.077C8.29923 223.059 8.59807 222.989 8.88221 222.87C8.99346 223.232 9.1264 223.585 9.28016 223.927C9.36506 224.128 9.46056 224.328 9.55607 224.517L9.43934 224.352C9.21649 224.086 8.63814 223.726 8.30386 223.903C8.22447 223.902 8.14636 223.925 8.07818 223.971C8.00999 224.016 7.95441 224.081 7.91759 224.16C7.88077 224.238 7.86416 224.326 7.86959 224.414C7.87502 224.502 7.90228 224.587 7.94836 224.659C8.03062 224.774 8.13444 224.868 8.25263 224.934C8.37083 225.001 8.50056 225.037 8.63283 225.042C8.92641 225.025 9.21605 224.959 9.4924 224.848C9.52954 224.924 9.56668 225.001 9.60913 225.072C9.78953 225.432 9.97524 225.792 10.1397 226.152L10.3095 226.53L10.2087 226.388C9.98055 226.122 9.4022 225.757 9.07323 225.934C9.01876 225.965 8.97086 226.009 8.9326 226.063C8.89435 226.116 8.86658 226.178 8.85109 226.244C8.83559 226.31 8.83272 226.379 8.84265 226.447C8.85258 226.514 8.87509 226.579 8.90874 226.636C8.99151 226.75 9.09556 226.843 9.21373 226.908C9.33189 226.974 9.46136 227.01 9.59321 227.014C9.87962 227.003 10.1626 226.941 10.4316 226.831C10.4895 226.957 10.5409 227.087 10.5854 227.22C10.6173 227.315 10.6491 227.397 10.6756 227.486L10.7552 227.757C10.803 227.929 10.8507 228.106 10.8879 228.277C10.925 228.448 10.9409 228.507 10.9675 228.619L10.7818 228.23C10.5907 227.934 10.0708 227.474 9.72056 227.592C9.66221 227.614 9.60864 227.649 9.56331 227.696C9.51798 227.742 9.4819 227.799 9.4574 227.861C9.4329 227.924 9.42052 227.992 9.42107 228.061C9.42161 228.129 9.43507 228.197 9.46056 228.259C9.52625 228.387 9.61638 228.497 9.72458 228.582C9.83278 228.666 9.9564 228.723 10.0867 228.749C10.3878 228.783 10.6918 228.768 10.9887 228.702C11.0311 228.885 11.0683 229.074 11.1054 229.245L11.1532 229.499H11.3813L11.3177 229.192C11.2752 228.997 11.2275 228.796 11.1744 228.601C11.3434 228.519 11.5066 228.422 11.6625 228.312C11.8942 228.513 12.1495 228.678 12.4213 228.802C12.3629 228.985 12.3046 229.162 12.2462 229.327C12.2201 229.393 12.19 229.456 12.156 229.516H12.4001C12.4205 229.483 12.4382 229.447 12.4531 229.41C12.5115 229.227 12.5699 229.026 12.6335 228.82C12.9324 228.872 13.2367 228.872 13.5356 228.82C13.6646 228.791 13.7865 228.731 13.8927 228.644C13.9989 228.557 14.0871 228.446 14.151 228.318C14.1746 228.255 14.1863 228.188 14.1853 228.119C14.1843 228.051 14.1706 227.984 14.1452 227.922C14.1199 227.86 14.0832 227.804 14.0377 227.759C13.9921 227.713 13.9386 227.679 13.8804 227.657C13.5249 227.545 13.0156 228.017 12.8192 228.318L12.6548 228.678C12.6548 228.596 12.7025 228.513 12.7237 228.424C12.745 228.336 12.8192 228.082 12.867 227.899C12.867 227.805 12.9041 227.716 12.9254 227.622C12.9466 227.527 12.9625 227.433 12.9784 227.338C13.0192 227.112 13.0494 226.884 13.0686 226.654C13.3471 226.761 13.6389 226.819 13.9335 226.825C14.0657 226.818 14.1949 226.779 14.3122 226.71C14.4295 226.642 14.532 226.546 14.6127 226.429C14.6457 226.372 14.6673 226.307 14.676 226.239C14.6848 226.171 14.6805 226.102 14.6634 226.036C14.6464 225.97 14.617 225.909 14.5771 225.857C14.5373 225.805 14.4879 225.762 14.4323 225.733C14.098 225.562 13.5302 225.94 13.3074 226.211C13.3074 226.211 13.1535 226.441 13.0792 226.559C13.0792 226.418 13.1058 226.282 13.1164 226.14C13.1429 225.733 13.1641 225.32 13.1801 224.907C13.1801 224.777 13.1801 224.653 13.1801 224.529C13.4672 224.639 13.7677 224.701 14.0715 224.712C14.2031 224.705 14.3318 224.667 14.4483 224.598C14.5648 224.53 14.6662 224.434 14.7453 224.316C14.7794 224.259 14.802 224.195 14.8116 224.127C14.8211 224.059 14.8175 223.99 14.8009 223.924C14.7843 223.858 14.7551 223.796 14.7153 223.744C14.6755 223.691 14.626 223.649 14.5702 223.62C14.2359 223.449 13.6682 223.827 13.4454 224.098C13.4454 224.098 13.2278 224.423 13.1801 224.505C13.1801 224.228 13.2119 223.95 13.2384 223.679C13.273 223.312 13.3279 222.947 13.4029 222.587C13.6913 222.701 13.9938 222.765 14.2996 222.776C14.4322 222.768 14.5616 222.727 14.6788 222.658C14.7961 222.589 14.8984 222.492 14.9788 222.375C15.0405 222.266 15.0611 222.136 15.0363 222.011C15.0114 221.886 14.943 221.777 14.8461 221.708C14.5119 221.536 13.9388 221.914 13.716 222.18C13.716 222.18 13.4825 222.534 13.4507 222.599C13.4188 222.664 13.4507 222.552 13.4507 222.534C13.5357 222.175 13.6494 221.826 13.7902 221.489C13.8698 221.306 13.9494 221.129 14.0343 220.964C14.3019 221.108 14.5885 221.204 14.8833 221.247C15.0161 221.258 15.1494 221.235 15.2733 221.181C15.3973 221.127 15.5088 221.043 15.5996 220.934C15.6374 220.881 15.6648 220.82 15.68 220.755C15.6952 220.689 15.6979 220.621 15.6879 220.554C15.6779 220.487 15.6554 220.424 15.6219 220.367C15.5884 220.311 15.5447 220.263 15.4935 220.226C15.1751 220.014 14.5702 220.321 14.3261 220.563C14.3261 220.563 14.1882 220.722 14.098 220.834C14.1404 220.763 14.1776 220.681 14.2147 220.61C14.358 220.344 14.5012 220.114 14.6339 219.907C14.7082 219.789 14.7772 219.689 14.8461 219.595C15.1429 219.579 15.4361 219.516 15.7163 219.406C15.8379 219.347 15.9462 219.258 16.0333 219.147C16.1205 219.036 16.1844 218.904 16.2204 218.762C16.2351 218.695 16.2368 218.626 16.2253 218.558C16.2137 218.49 16.1893 218.426 16.1537 218.369C16.118 218.313 16.0719 218.265 16.0184 218.23C15.9649 218.195 15.9053 218.174 15.8437 218.166Z" fill="#263238"/>
<path d="M14.029 220.887C14.029 220.887 14.1245 220.409 14.1298 220.374C14.1617 220.014 14.0237 219.288 13.6841 219.128C13.6273 219.103 13.5661 219.091 13.5048 219.093C13.4435 219.096 13.3834 219.114 13.3286 219.144C13.2738 219.175 13.2256 219.219 13.1871 219.272C13.1487 219.325 13.1209 219.387 13.1058 219.453C13.0836 219.597 13.0892 219.745 13.1221 219.886C13.1551 220.027 13.2146 220.159 13.2968 220.273C13.513 220.516 13.7596 220.723 14.029 220.887Z" fill="#263238"/>
<path d="M249.975 96.9752C249.975 126.014 236.769 137.606 220.485 137.606C204.201 137.606 191.005 126.014 191.005 96.9752C191.005 67.9361 204.195 25.2747 220.485 25.2747C236.774 25.2747 249.975 67.9361 249.975 96.9752Z" fill="white"/>
<path opacity="0.5" d="M249.975 96.9752C249.975 126.014 236.769 137.606 220.485 137.606C204.201 137.606 191.005 126.014 191.005 96.9752C191.005 67.9361 204.195 25.2747 220.485 25.2747C236.774 25.2747 249.975 67.9361 249.975 96.9752Z" fill="#746E6E" fill-opacity="0.64"/>
<path d="M216.07 230.413H224.321L221.116 102.836L221.376 106.625L237.167 85.4186L221.1 102.293L220.532 79.717L227.335 70.8341L220.453 76.577L220.187 65.8644L219.673 86.3748L211.841 80.7794L219.609 88.8006L216.07 230.413Z" fill="#BABABA"/>
<path d="M218.696 120.543L204.991 110.267L218.696 124.185V120.543Z" fill="#BABABA"/>
<path d="M37.7414 152.138C37.7414 169.172 29.9947 175.971 20.4386 175.971C10.8826 175.971 3.14114 169.177 3.14114 152.138C3.14114 135.098 10.8826 110.072 20.4386 110.072C29.9947 110.072 37.7414 135.104 37.7414 152.138Z" fill="white"/>
<path opacity="0.5" d="M37.7414 152.138C37.7414 169.172 29.9947 175.971 20.4386 175.971C10.8826 175.971 3.14114 169.177 3.14114 152.138C3.14114 135.098 10.8826 110.072 20.4386 110.072C29.9947 110.072 37.7414 135.104 37.7414 152.138Z" fill="white"/>
<path d="M17.8493 230.413H22.6884L20.81 155.573L20.9639 157.798L30.2229 145.356L20.7994 155.254L20.4705 142.015L24.4606 136.804L20.4227 140.168L20.2635 133.888L19.9611 145.917L15.3714 142.635L19.9293 147.339L17.8493 230.413Z" fill="#BABABA"/>
<path d="M19.388 165.961L11.3495 159.935L19.388 168.097V165.961Z" fill="#BABABA"/>
<path d="M54.4553 171.78H56.4238C57.3117 171.78 58.0315 170.98 58.0315 169.992V162.797C58.0315 161.81 57.3117 161.009 56.4238 161.009H54.4553C53.5673 161.009 52.8475 161.81 52.8475 162.797V169.992C52.8475 170.98 53.5673 171.78 54.4553 171.78Z" fill="#263238" stroke="#263238" stroke-width="0.511871" stroke-linecap="round" stroke-linejoin="round"/>
<path d="M54.4553 183.673H56.4238C57.3117 183.673 58.0315 182.873 58.0315 181.885V174.69C58.0315 173.703 57.3117 172.902 56.4238 172.902H54.4553C53.5673 172.902 52.8475 173.703 52.8475 174.69V181.885C52.8475 182.873 53.5673 183.673 54.4553 183.673Z" fill="#263238" stroke="#263238" stroke-width="0.511871" stroke-linecap="round" stroke-linejoin="round"/>
<path d="M66.5741 159.462H56.4238V183.673H67.7998" stroke="#263238" stroke-width="0.511871" stroke-linecap="round" stroke-linejoin="round"/>
<path d="M233.585 187.77H53.2402V219.53H233.585V187.77Z" fill="#263238" stroke="#263238" stroke-width="0.511871" stroke-linecap="round" stroke-linejoin="round"/>
<path d="M169.346 216.897C169.34 213.318 168.058 209.888 165.781 207.359C163.504 204.831 160.418 203.411 157.2 203.411H153.067C149.889 203.484 146.864 204.941 144.64 207.467C142.416 209.993 141.17 213.388 141.17 216.924C141.17 220.46 142.416 223.855 144.64 226.381C146.864 228.907 149.889 230.363 153.067 230.437H157.2C158.797 230.437 160.379 230.087 161.854 229.406C163.329 228.725 164.67 227.727 165.798 226.469C166.926 225.212 167.82 223.719 168.429 222.076C169.038 220.434 169.349 218.674 169.346 216.897Z" fill="#263238" stroke="#263238" stroke-width="0.511871" stroke-linecap="round" stroke-linejoin="round"/>
<path d="M136.778 129.916H83.6434V219.524H136.778V129.916Z" fill="#F0F01F" stroke="#263238" stroke-width="0.511871" stroke-linecap="round" stroke-linejoin="round"/>
<path d="M136.778 129.916H83.6434V132.07H136.778V129.916Z" fill="#F0F01F" stroke="#263238" stroke-width="0.511871" stroke-linecap="round" stroke-linejoin="round"/>
<path d="M136.507 129.916V219.524H178.297C178.26 219.016 178.238 218.503 178.238 217.977C178.238 207.778 185.46 199.515 194.374 199.515C203.288 199.515 210.515 207.778 210.515 217.977C210.515 218.503 210.515 219.016 210.456 219.524H233.585V129.916H136.507Z" fill="#F0F01F" stroke="#263238" stroke-width="0.511871" stroke-linecap="round" stroke-linejoin="round"/>
<path d="M233.299 183.561H77.1914L68.9353 187.569V194.073H233.299V183.561Z" fill="#FA2D10"/>
<path d="M136.502 195.726V180.356" stroke="#263238" stroke-width="0.511871" stroke-linecap="round" stroke-linejoin="round"/>
<path d="M233.585 129.916H136.507V132.188H233.585V129.916Z" fill="#F0F01F" stroke="#263238" stroke-width="0.511871" stroke-linecap="round" stroke-linejoin="round"/>
<path d="M61.9155 216.897C61.9098 213.318 60.6278 209.888 58.3507 207.359C56.0736 204.831 52.9876 203.411 49.7701 203.411H45.6208C42.4429 203.484 39.4176 204.941 37.1936 207.467C34.9696 209.993 33.724 213.388 33.724 216.924C33.724 220.46 34.9696 223.855 37.1936 226.381C39.4176 228.907 42.4429 230.363 45.6208 230.437H49.7542C51.3527 230.439 52.9359 230.091 54.413 229.411C55.8901 228.731 57.2321 227.734 58.3619 226.476C59.4918 225.218 60.3873 223.724 60.9971 222.081C61.6069 220.437 61.919 218.675 61.9155 216.897Z" fill="#263238" stroke="#263238" stroke-width="0.511871" stroke-linecap="round" stroke-linejoin="round"/>
<path d="M107.584 154.617H69.8161L54.9965 173.545C54.2376 174.518 53.2755 175.267 52.1949 175.729L29.7771 185.344C29.0968 185.634 28.5039 186.132 28.0665 186.78C27.6291 187.429 27.365 188.201 27.3046 189.009L26.445 205.901H62.4354L65.0566 210.222H108.035V156.24L107.584 154.617Z" fill="#F0F01F" stroke="#263238" stroke-width="0.511871" stroke-linecap="round" stroke-linejoin="round"/>
<path d="M98.3092 216.897C98.3095 214.119 97.5399 211.409 96.1052 209.135C94.6705 206.861 92.6406 205.134 90.2918 204.19V203.411H86.1585C82.9806 203.484 79.9552 204.941 77.7312 207.467C75.5072 209.993 74.2617 213.388 74.2617 216.924C74.2617 220.46 75.5072 223.855 77.7312 226.381C79.9552 228.907 82.9806 230.363 86.1585 230.437H90.2918V229.634C92.6435 228.686 94.6752 226.954 96.1099 224.675C97.5447 222.396 98.3126 219.68 98.3092 216.897Z" fill="#263238" stroke="#263238" stroke-width="0.511871" stroke-linecap="round" stroke-linejoin="round"/>
<path d="M98.8791 226.447C103.622 221.171 103.622 212.616 98.8791 207.34C94.136 202.064 86.446 202.064 81.7029 207.34C76.9598 212.616 76.9598 221.171 81.7029 226.447C86.446 231.723 94.136 231.723 98.8791 226.447Z" fill="#757575" stroke="#263238" stroke-width="0.511871" stroke-linecap="round" stroke-linejoin="round"/>
<path d="M90.2918 224.063C93.8493 224.063 96.7333 220.855 96.7333 216.897C96.7333 212.94 93.8493 209.732 90.2918 209.732C86.7343 209.732 83.8504 212.94 83.8504 216.897C83.8504 220.855 86.7343 224.063 90.2918 224.063Z" fill="#F0F01F" stroke="#263238" stroke-width="0.511871" stroke-linecap="round" stroke-linejoin="round"/>
<path d="M204.073 216.897C204.075 214.12 203.306 211.409 201.872 209.135C200.439 206.861 198.409 205.134 196.061 204.19V203.411H191.928C188.75 203.484 185.725 204.941 183.501 207.467C181.277 209.993 180.031 213.388 180.031 216.924C180.031 220.46 181.277 223.855 183.501 226.381C185.725 228.907 188.75 230.363 191.928 230.437H196.061V229.634C198.412 228.686 200.443 226.954 201.877 224.675C203.311 222.395 204.078 219.679 204.073 216.897Z" fill="#263238" stroke="#263238" stroke-width="0.511871" stroke-linecap="round" stroke-linejoin="round"/>
<path d="M207.879 220.051C209.436 212.793 205.409 205.506 198.884 203.774C192.36 202.042 185.808 206.522 184.252 213.78C182.695 221.037 186.722 228.325 193.247 230.057C199.771 231.788 206.322 227.309 207.879 220.051Z" fill="#757575" stroke="#263238" stroke-width="0.511871" stroke-linecap="round" stroke-linejoin="round"/>
<path d="M196.061 224.063C199.619 224.063 202.503 220.855 202.503 216.897C202.503 212.94 199.619 209.732 196.061 209.732C192.504 209.732 189.62 212.94 189.62 216.897C189.62 220.855 192.504 224.063 196.061 224.063Z" fill="#F0F01F" stroke="#263238" stroke-width="0.511871" stroke-linecap="round" stroke-linejoin="round"/>
<path d="M107.584 154.617L92.7644 173.545C92.0066 174.519 91.0442 175.269 89.9629 175.729L67.5451 185.344C66.8658 185.636 66.2739 186.134 65.8367 186.782C65.3996 187.43 65.1348 188.202 65.0725 189.009L64.1917 205.901H75.1963L75.4298 205.541C76.4262 204.019 77.7319 202.78 79.2404 201.926C80.7489 201.071 82.4176 200.626 84.1104 200.625H91.2787C94.8444 200.625 98.8345 201.864 100.83 205.152L101.413 206.492C103.032 210.213 104.22 214.147 104.947 218.202V219.417H130.612V157.373C130.612 156.638 130.35 155.934 129.883 155.414C129.417 154.893 128.784 154.601 128.123 154.599L107.584 154.617Z" fill="#F0F01F" stroke="#263238" stroke-width="0.511871" stroke-linecap="round" stroke-linejoin="round"/>
<path d="M130.198 183.561H77.1277L68.9353 187.569V194.073H130.198V183.561Z" fill="#FA2D10"/>
<path d="M109.08 159.462L100.697 170.299C100.451 170.618 100.316 171.024 100.315 171.444V180.646C100.299 181.133 100.458 181.608 100.756 181.965C101.055 182.322 101.468 182.534 101.907 182.552H125.396V159.462H109.08Z" fill="#D4D4D4" stroke="#263238" stroke-width="0.511871" stroke-linecap="round" stroke-linejoin="round"/>
<path d="M92.7644 173.545L106.486 156.021H68.7177L54.9965 173.545C54.2376 174.518 53.2755 175.267 52.1949 175.729H89.9629C91.0442 175.269 92.0066 174.519 92.7644 173.545Z" fill="#D4D4D4" stroke="#263238" stroke-width="0.511871" stroke-linecap="round" stroke-linejoin="round"/>
<path d="M89.1776 160.395L63.7991 172.117" stroke="#263238" stroke-width="0.511871" stroke-linecap="round" stroke-linejoin="round"/>
<path d="M92.2391 158.978L90.7747 159.657" stroke="#263238" stroke-width="0.511871" stroke-linecap="round" stroke-linejoin="round"/>
<path d="M70.5483 166.882L59.22 172.117" stroke="#263238" stroke-width="0.511871" stroke-linecap="round" stroke-linejoin="round"/>
<path d="M67.9059 190.308H54.9169L53.1075 201.227H67.0835C67.3374 201.226 67.5851 201.139 67.7942 200.979C68.0034 200.819 68.1644 200.593 68.2561 200.33L69.0998 192.196C69.1714 191.983 69.1952 191.754 69.1692 191.528C69.1432 191.303 69.0682 191.088 68.9506 190.902C68.833 190.716 68.6764 190.564 68.4944 190.461C68.3123 190.357 68.1103 190.305 67.9059 190.308Z" fill="#F0F01F" stroke="#263238" stroke-width="0.511871" stroke-linecap="round" stroke-linejoin="round"/>
<path d="M26.8005 201.227H33.173L31.3636 190.308H27.2038L26.8005 201.227Z" fill="#F0F01F" stroke="#263238" stroke-width="0.511871" stroke-linecap="round" stroke-linejoin="round"/>
<path d="M31.3636 190.308H56.7315L54.832 203.44H33.3799L31.3636 190.308Z" fill="#263238" stroke="#263238" stroke-width="0.511871" stroke-linecap="round" stroke-linejoin="round"/>
<path d="M38.6275 191.919H34.4676V195.413H38.6275V191.919Z" fill="#FA2D10" stroke="#263238" stroke-width="0.511871" stroke-linecap="round" stroke-linejoin="round"/>
<path d="M51.9296 191.919H47.7697V195.413H51.9296V191.919Z" fill="#FA2D10" stroke="#263238" stroke-width="0.511871" stroke-linecap="round" stroke-linejoin="round"/>
<path d="M75.2175 205.907L71.2593 219.252H25.283L23.4312 208.268L26.445 205.907H75.2175Z" fill="#757575" stroke="#263238" stroke-width="0.511871" stroke-linecap="round" stroke-linejoin="round"/>
<path d="M75.2175 205.907H26.445L23.4312 208.268H74.5118L75.2175 205.907Z" fill="#9C9C9C" stroke="#263238" stroke-width="0.511871" stroke-linecap="round" stroke-linejoin="round"/>
<path d="M130.946 218.461H104.013V220.48H130.946V218.461Z" fill="#F0F01F" stroke="#263238" stroke-width="0.511871" stroke-linecap="round" stroke-linejoin="round"/>
<path d="M119.172 161.003H117.204C116.316 161.003 115.596 161.804 115.596 162.791V169.986C115.596 170.974 116.316 171.775 117.204 171.775H119.172C120.06 171.775 120.78 170.974 120.78 169.986V162.791C120.78 161.804 120.06 161.003 119.172 161.003Z" fill="#263238" stroke="#263238" stroke-width="0.511871" stroke-linecap="round" stroke-linejoin="round"/>
<path d="M119.172 172.902H117.204C116.316 172.902 115.596 173.703 115.596 174.69V181.885C115.596 182.873 116.316 183.673 117.204 183.673H119.172C120.06 183.673 120.78 182.873 120.78 181.885V174.69C120.78 173.703 120.06 172.902 119.172 172.902Z" fill="#263238" stroke="#263238" stroke-width="0.511871" stroke-linecap="round" stroke-linejoin="round"/>
<path d="M109.08 159.462H117.204V183.673H105.828" stroke="#263238" stroke-width="0.511871" stroke-linecap="round" stroke-linejoin="round"/>
<path d="M112.487 159.51V183.756" stroke="#263238" stroke-width="0.511871" stroke-linecap="round" stroke-linejoin="round"/>
<path d="M132.443 135.688H87.6282V140.764H132.443V135.688Z" fill="#FA2D10" stroke="#263238" stroke-width="0.511871" stroke-linecap="round" stroke-linejoin="round"/>
<path d="M130.607 135.688H85.7924V140.764H130.607V135.688Z" fill="#FA2D10" stroke="#263238" stroke-width="0.511871" stroke-linecap="round" stroke-linejoin="round"/>
<path d="M111.017 135.688H105.377V140.764H111.017V135.688Z" fill="#F0F01F" stroke="#263238" stroke-width="0.511871" stroke-linecap="round" stroke-linejoin="round"/>
<path d="M149.231 135.924H141.824V144.164H149.231V135.924Z" fill="#FA2D10" stroke="#263238" stroke-width="0.511871" stroke-linecap="round" stroke-linejoin="round"/>
<path d="M159.1 135.924H151.693V144.164H159.1V135.924Z" fill="#F0F01F" stroke="#263238" stroke-width="0.511871" stroke-linecap="round" stroke-linejoin="round"/>
<path d="M220.623 135.924H213.215V144.164H220.623V135.924Z" fill="#F0F01F" stroke="#263238" stroke-width="0.511871" stroke-linecap="round" stroke-linejoin="round"/>
<path d="M230.497 135.924H223.09V144.164H230.497V135.924Z" fill="#FA2D10" stroke="#263238" stroke-width="0.511871" stroke-linecap="round" stroke-linejoin="round"/>
<path d="M151.141 149.352H139.733V217.316H151.141V149.352Z" fill="#F0F01F" stroke="#263238" stroke-width="0.511871" stroke-linecap="round" stroke-linejoin="round"/>
<path d="M163.971 183.107H152.563V217.31H163.971V183.107Z" fill="#F0F01F" stroke="#263238" stroke-width="0.511871" stroke-linecap="round" stroke-linejoin="round"/>
<path d="M176.806 183.107H165.398V217.31H176.806V183.107Z" fill="#F0F01F" stroke="#263238" stroke-width="0.511871" stroke-linecap="round" stroke-linejoin="round"/>
<path d="M231.346 183.107H211.677V217.31H231.346V183.107Z" fill="#F0F01F" stroke="#263238" stroke-width="0.511871" stroke-linecap="round" stroke-linejoin="round"/>
<path d="M90.6049 154.569C89.4853 153.979 87.1879 152.87 86.4768 153.094C86.1809 153.227 85.913 153.426 85.6902 153.68C85.4673 153.934 85.2943 154.237 85.1822 154.569H90.6049Z" fill="#F0F01F" stroke="#263238" stroke-width="0.511871" stroke-linecap="round" stroke-linejoin="round"/>
<path d="M96.4786 154.569C95.3538 153.979 93.0616 152.87 92.3506 153.094C92.0546 153.227 91.7867 153.426 91.5639 153.68C91.341 153.934 91.168 154.237 91.0559 154.569H96.4786Z" fill="#F0F01F" stroke="#263238" stroke-width="0.511871" stroke-linecap="round" stroke-linejoin="round"/>
<path d="M102.347 154.569C101.227 153.979 98.93 152.87 98.219 153.094C97.9231 153.227 97.6552 153.426 97.4323 153.68C97.2094 153.934 97.0364 154.237 96.9243 154.569H102.347Z" fill="#F0F01F" stroke="#263238" stroke-width="0.511871" stroke-linecap="round" stroke-linejoin="round"/>
<path d="M67.9059 190.308H64.6109L64.0803 201.227H67.0516C67.3055 201.226 67.5532 201.139 67.7624 200.979C67.9716 200.819 68.1325 200.593 68.2243 200.33L69.0997 192.196C69.1714 191.983 69.1952 191.754 69.1692 191.528C69.1432 191.303 69.0682 191.088 68.9506 190.902C68.833 190.716 68.6764 190.564 68.4944 190.461C68.3123 190.357 68.1103 190.305 67.9059 190.308Z" fill="#F0F01F" stroke="#263238" stroke-width="0.511871" stroke-linecap="round" stroke-linejoin="round"/>
<path d="M77.5044 190.455H70.6491V195.378H77.5044V190.455Z" fill="#FA2D10" stroke="#263238" stroke-width="0.511871" stroke-linecap="round" stroke-linejoin="round"/>
<path d="M127.264 188.974H125.937V196.847H127.264V188.974Z" fill="#263238" stroke="#263238" stroke-width="0.511871" stroke-linecap="round" stroke-linejoin="round"/>
<path d="M123.815 215.463H127.455" stroke="#263238" stroke-width="0.511871" stroke-linecap="round" stroke-linejoin="round"/>
<path d="M108.046 156.24L95.948 172.554V199.279C95.948 199.279 100.999 200.855 102.814 203.098C104.629 205.341 106.449 215.457 106.449 215.457H120.679" stroke="#263238" stroke-width="0.511871" stroke-linecap="round" stroke-linejoin="round"/>
<path d="M33.5975 189.08L35.8896 184.358H36.7227L36.1337 189.08H35.4121L35.5766 187.988H34.8338L34.3032 189.08H33.5975ZM35.0778 187.433H35.6615L35.9745 185.444L35.0778 187.433Z" fill="#263238"/>
<path d="M36.5476 189.08L38.0651 184.358H38.8716L38.4736 187.64L40.1079 184.358H40.8826L39.5189 189.08H38.9406L39.8797 185.786L38.2879 189.08H37.821L38.2137 185.775L37.1525 189.08H36.5476Z" fill="#263238"/>
<path d="M40.1185 189.08L41.5617 184.358H42.6229C42.7907 184.354 42.9583 184.374 43.1217 184.417C43.2475 184.445 43.3635 184.513 43.456 184.612C43.5391 184.715 43.5894 184.846 43.5992 184.984C43.6029 185.186 43.5704 185.386 43.5037 185.574C43.4573 185.75 43.3837 185.916 43.2862 186.064C43.2057 186.195 43.1007 186.306 42.9784 186.388C42.8587 186.472 42.7252 186.528 42.5858 186.554C42.7227 186.57 42.8502 186.639 42.9466 186.749C43.03 186.857 43.0752 186.995 43.0739 187.138C43.0747 187.34 43.0424 187.54 42.9784 187.728C42.9143 187.935 42.8288 188.133 42.7237 188.319C42.6259 188.484 42.504 188.629 42.3629 188.749C42.228 188.866 42.0752 188.954 41.9119 189.009C41.7399 189.068 41.5611 189.097 41.3813 189.098L40.1185 189.08ZM41.0842 188.49H41.376C41.5679 188.503 41.7574 188.436 41.9066 188.301C42.0523 188.136 42.1582 187.933 42.2144 187.711C42.266 187.562 42.2929 187.404 42.294 187.244C42.2962 187.193 42.2866 187.141 42.2662 187.095C42.2458 187.048 42.2152 187.008 42.1772 186.979C42.0729 186.911 41.9527 186.88 41.8323 186.89H41.5617L41.0842 188.49ZM41.7527 186.294H42.0127C42.1436 186.3 42.274 186.274 42.3948 186.217C42.4946 186.166 42.5806 186.087 42.6441 185.987C42.7163 185.862 42.7734 185.727 42.8139 185.586C42.8614 185.463 42.8761 185.328 42.8564 185.196C42.8453 185.152 42.8237 185.111 42.7938 185.079C42.764 185.047 42.727 185.024 42.6866 185.013C42.5643 184.973 42.4372 184.956 42.3099 184.96H42.156L41.7527 186.294Z" fill="#263238"/>
<path d="M44.1988 189.145C43.9521 189.173 43.7042 189.104 43.4984 188.95C43.4293 188.882 43.3756 188.797 43.3415 188.702C43.3074 188.606 43.2939 188.503 43.3021 188.401C43.3171 188.109 43.3708 187.82 43.4613 187.545L44.4376 184.34H45.1963L44.1882 187.646C44.1457 187.793 44.1139 187.935 44.0874 188.065C44.0638 188.172 44.0751 188.285 44.1192 188.383C44.1564 188.46 44.2413 188.501 44.3739 188.501C44.4941 188.505 44.612 188.464 44.7082 188.383C44.7971 188.292 44.8708 188.184 44.9257 188.065C44.9866 187.93 45.038 187.79 45.0796 187.646L46.0877 184.34H46.8412L45.8649 187.545C45.7744 187.845 45.6534 188.132 45.5041 188.401C45.3697 188.629 45.1876 188.817 44.9735 188.95C44.7336 189.085 44.4675 189.152 44.1988 189.145Z" fill="#263238"/>
<path d="M46.024 189.08L47.4726 184.358H48.2738L47.0163 188.49H48.0456L47.8652 189.08H46.024Z" fill="#263238"/>
<path d="M48.0244 189.08L50.3219 184.358H51.1549L50.5607 189.08H49.8656L50.0301 187.988H49.266L48.7354 189.08H48.0244ZM49.5101 187.433H50.0884L50.4068 185.444L49.5101 187.433Z" fill="#263238"/>
<path d="M50.9692 189.08L52.4125 184.358H52.9431L53.1553 187.061L53.9777 184.358H54.641L53.1977 189.08H52.6671L52.4867 186.247L51.6272 189.08H50.9692Z" fill="#263238"/>
<path d="M54.9593 189.145C54.7212 189.169 54.4834 189.096 54.2908 188.938C54.2222 188.868 54.1685 188.782 54.1336 188.686C54.0988 188.59 54.0836 188.487 54.0891 188.383C54.0963 188.103 54.1447 187.826 54.2324 187.563L54.763 185.875C54.85 185.577 54.9712 185.294 55.1238 185.031C55.2579 184.803 55.44 184.614 55.6544 184.482C55.899 184.344 56.1709 184.277 56.445 184.287C56.6693 184.265 56.8942 184.323 57.087 184.453C57.1527 184.509 57.2056 184.581 57.2415 184.664C57.2774 184.747 57.2954 184.839 57.2939 184.931C57.2989 185.176 57.2611 185.421 57.1825 185.651L57.0605 186.046H56.3123L56.4397 185.639C56.4768 185.521 56.507 185.401 56.5299 185.279C56.5609 185.194 56.5609 185.098 56.5299 185.013C56.498 184.954 56.4132 184.919 56.2805 184.919C56.1657 184.912 56.0521 184.948 55.9568 185.019C55.8718 185.094 55.8029 185.188 55.7552 185.297C55.6983 185.422 55.6504 185.552 55.612 185.686L54.9805 187.746C54.9362 187.883 54.9059 188.026 54.8903 188.171C54.883 188.215 54.8844 188.261 54.8945 188.305C54.9046 188.349 54.9231 188.39 54.9487 188.425C55.0154 188.486 55.1012 188.516 55.1875 188.507C55.2972 188.513 55.4055 188.478 55.4952 188.407C55.575 188.331 55.6385 188.236 55.6809 188.13C55.7338 188.007 55.7799 187.881 55.8189 187.752L55.9462 187.327H56.6944L56.5776 187.705C56.4993 187.97 56.3887 188.222 56.2487 188.454C56.1136 188.671 55.931 188.846 55.7181 188.962C55.4831 189.093 55.2221 189.156 54.9593 189.145Z" fill="#263238"/>
<path d="M56.6732 189.08L58.1164 184.358H59.9045L59.7241 184.948H58.7107L58.2968 186.312H59.0927L58.907 186.902H58.1111L57.6335 188.472H58.6576L58.4719 189.062L56.6732 189.08Z" fill="#263238"/>
<path d="M230.444 197.255H227.122V202.083H230.444V197.255Z" fill="#263238" stroke="#263238" stroke-width="0.511871" stroke-linecap="round" stroke-linejoin="round"/>
<path d="M162.501 197.255H159.179V202.083H162.501V197.255Z" fill="#263238" stroke="#263238" stroke-width="0.511871" stroke-linecap="round" stroke-linejoin="round"/>
<path d="M169.781 197.255H166.459V202.083H169.781V197.255Z" fill="#263238" stroke="#263238" stroke-width="0.511871" stroke-linecap="round" stroke-linejoin="round"/>
<path d="M149.347 174.1H146.026V178.928H149.347V174.1Z" fill="#263238" stroke="#263238" stroke-width="0.511871" stroke-linecap="round" stroke-linejoin="round"/>
<path d="M4.84436 230.413H255" stroke="#263238" stroke-width="0.511871" stroke-linecap="round" stroke-linejoin="round"/>
<path d="M181.765 148.52H185.607L179.613 155.634L185.607 162.749H181.765L175.617 155.634L181.765 148.52Z" fill="#2A2929"/>
<path d="M191.755 148.52H187.912L193.906 155.634L187.912 162.749H191.755L197.902 155.634L191.755 148.52Z" fill="#2A2929"/>
</svg>
