<svg width="255" height="235" viewBox="0 0 255 235" fill="none" xmlns="http://www.w3.org/2000/svg">
<path opacity="0.8" d="M236.98 168.983C224.983 189.776 204.578 210.6 181.038 212.794C145.457 216.119 135.848 244.685 76.3557 228.347C67.6615 226.007 59.2262 222.643 51.1986 218.313C47.2754 216.182 43.481 213.779 39.8386 211.12C7.71372 187.679 -4.0617 149.429 1.21121 113.397C8.14021 66.0139 42.403 50.4431 64.3975 41.7692C86.392 33.0952 119.558 -12.3357 178.153 3.21694C187.105 5.54983 195.782 8.9977 204.013 13.4927C222.751 23.8591 240.469 41.4065 248.589 63.0581C249.199 64.6841 249.758 66.3283 250.284 67.9966C260.448 100.613 253.347 140.634 236.98 168.983Z" fill="#C5B9AC"/>
<path d="M211.705 223.221H197.762V223.325H211.705V223.221Z" fill="#EBEBEB"/>
<path d="M161.744 224.345H158.086V224.448H161.744V224.345Z" fill="#EBEBEB"/>
<path d="M197.341 219.389H189.263V219.492H197.341V219.389Z" fill="#EBEBEB"/>
<path d="M62.5769 220.083H44.3953V220.186H62.5769V220.083Z" fill="#EBEBEB"/>
<path d="M68.9924 220.083H66.3276V220.186H68.9924V220.083Z" fill="#EBEBEB"/>
<path d="M117.092 221.825H77.656V221.929H117.092V221.825Z" fill="#EBEBEB"/>
<path d="M232.795 216.576H22.3113V216.679H232.795V216.576Z" fill="#EBEBEB"/>
<path d="M86.7277 215.783H104.501V164.654H86.7277V215.783Z" fill="#EBEBEB"/>
<path d="M102.266 215.779H120.039L120.039 116.779H102.266L102.266 215.779Z" fill="#F5F5F5"/>
<path d="M115.093 128.773H116.911V126.501H115.093V128.773Z" fill="white"/>
<path d="M105.385 128.773H107.204V126.501H105.385V128.773Z" fill="white"/>
<path d="M115.093 136.124H116.911V133.853H115.093V136.124Z" fill="white"/>
<path d="M110.239 136.124H112.057V133.853H110.239V136.124Z" fill="white"/>
<path d="M105.385 143.48H107.204V141.208H105.385V143.48Z" fill="white"/>
<path d="M115.093 150.835H116.911V148.564H115.093V150.835Z" fill="white"/>
<path d="M110.239 150.835H112.057V148.564H110.239V150.835Z" fill="white"/>
<path d="M110.239 158.191H112.057V155.919H110.239V158.191Z" fill="white"/>
<path d="M105.385 158.191H107.204V155.919H105.385V158.191Z" fill="white"/>
<path d="M110.239 165.546H112.057V163.275H110.239V165.546Z" fill="white"/>
<path d="M105.385 165.546H107.204V163.275H105.385V165.546Z" fill="white"/>
<path d="M105.385 172.902H107.204V170.63H105.385V172.902Z" fill="white"/>
<path d="M110.239 180.253H112.057V177.982H110.239V180.253Z" fill="white"/>
<path d="M68.5084 215.783H88.2476L88.2476 123.85H68.5084L68.5084 215.783Z" fill="#F5F5F5"/>
<path d="M88.2516 128.773H68.5125V130.664H88.2516V128.773Z" fill="#E6E6E6"/>
<path d="M88.2516 134.047H68.5125V135.938H88.2516V134.047Z" fill="#E6E6E6"/>
<path d="M88.2516 139.321H68.5125V141.212H88.2516V139.321Z" fill="#E6E6E6"/>
<path d="M88.2516 144.591H68.5125V146.482H88.2516V144.591Z" fill="#E6E6E6"/>
<path d="M88.2516 149.865H68.5125V151.756H88.2516V149.865Z" fill="#E6E6E6"/>
<path d="M88.2516 155.139H68.5125V157.03H88.2516V155.139Z" fill="#E6E6E6"/>
<path d="M88.2516 160.413H68.5125V162.304H88.2516V160.413Z" fill="#E6E6E6"/>
<path d="M88.2516 165.687H68.5125V167.578H88.2516V165.687Z" fill="#E6E6E6"/>
<path d="M88.2516 170.961H68.5125V172.852H88.2516V170.961Z" fill="#E6E6E6"/>
<path d="M88.2516 176.235H68.5125V178.126H88.2516V176.235Z" fill="#E6E6E6"/>
<path d="M88.2516 181.509H68.5125V183.4H88.2516V181.509Z" fill="#E6E6E6"/>
<path d="M88.2516 186.783H68.5125V188.674H88.2516V186.783Z" fill="#E6E6E6"/>
<path d="M88.2516 192.057H68.5125V193.948H88.2516V192.057Z" fill="#E6E6E6"/>
<path d="M88.2516 197.33H68.5125V199.222H88.2516V197.33Z" fill="#E6E6E6"/>
<path d="M88.2516 202.604H68.5125V204.496H88.2516V202.604Z" fill="#E6E6E6"/>
<path d="M88.2516 207.878H68.5125V209.77H88.2516V207.878Z" fill="#E6E6E6"/>
<path d="M51.7455 215.783H71.4846L71.4846 151.847H51.7455L51.7455 215.783Z" fill="#F0F0F0"/>
<path d="M57.6684 155.919H55.8499V158.191H57.6684V155.919Z" fill="white"/>
<path d="M67.376 155.919H65.5574V158.191H67.376V155.919Z" fill="white"/>
<path d="M57.6684 163.275H55.8499V165.546H57.6684V163.275Z" fill="white"/>
<path d="M62.5221 163.275H60.7035V165.546H62.5221V163.275Z" fill="white"/>
<path d="M67.376 170.63H65.5574V172.902H67.376V170.63Z" fill="white"/>
<path d="M57.6684 177.986H55.8499V180.257H57.6684V177.986Z" fill="white"/>
<path d="M62.5221 177.986H60.7035V180.257H62.5221V177.986Z" fill="white"/>
<path d="M62.5221 185.341H60.7035V187.613H62.5221V185.341Z" fill="white"/>
<path d="M67.376 185.341H65.5574V187.613H67.376V185.341Z" fill="white"/>
<path d="M62.5221 192.693H60.7035V194.964H62.5221V192.693Z" fill="white"/>
<path d="M67.376 192.693H65.5574V194.964H67.376V192.693Z" fill="white"/>
<path d="M67.376 200.048H65.5574V202.319H67.376V200.048Z" fill="white"/>
<path d="M62.5221 207.404H60.7035V209.675H62.5221V207.404Z" fill="white"/>
<path d="M161.222 215.783H179.298V159.719H161.222V215.783Z" fill="#E0E0E0"/>
<path d="M194.1 215.783H210.379V184.602H194.1V215.783Z" fill="#EBEBEB"/>
<path d="M179.299 215.783H195.577V155.411H179.299V215.783Z" fill="#F5F5F5"/>
<path d="M191.048 162.721H192.715V161.338H191.048V162.721Z" fill="white"/>
<path d="M182.161 162.721H183.828V161.338H182.161V162.721Z" fill="white"/>
<path d="M191.048 167.206H192.715V165.823H191.048V167.206Z" fill="white"/>
<path d="M186.607 167.206H188.274V165.823H186.607V167.206Z" fill="white"/>
<path d="M182.161 171.692H183.828V170.308H182.161V171.692Z" fill="white"/>
<path d="M191.048 176.177H192.715V174.793H191.048V176.177Z" fill="white"/>
<path d="M186.607 176.177H188.274V174.793H186.607V176.177Z" fill="white"/>
<path d="M186.607 180.662H188.274V179.278H186.607V180.662Z" fill="white"/>
<path d="M182.161 180.662H183.828V179.278H182.161V180.662Z" fill="white"/>
<path d="M186.607 185.147H188.274V183.763H186.607V185.147Z" fill="white"/>
<path d="M182.161 185.147H183.828V183.763H182.161V185.147Z" fill="white"/>
<path d="M182.161 189.632H183.828V188.249H182.161V189.632Z" fill="white"/>
<path d="M186.607 194.117H188.274V192.734H186.607V194.117Z" fill="white"/>
<path d="M173.868 167.206H175.535V165.823H173.868V167.206Z" fill="white"/>
<path d="M164.977 167.206H166.644V165.823H164.977V167.206Z" fill="white"/>
<path d="M173.868 171.692H175.535V170.308H173.868V171.692Z" fill="white"/>
<path d="M169.423 171.692H171.09V170.308H169.423V171.692Z" fill="white"/>
<path d="M164.977 176.177H166.644V174.793H164.977V176.177Z" fill="white"/>
<path d="M173.868 180.662H175.535V179.278H173.868V180.662Z" fill="white"/>
<path d="M169.423 180.662H171.09V179.278H169.423V180.662Z" fill="white"/>
<path d="M169.423 185.147H171.09V183.763H169.423V185.147Z" fill="white"/>
<path d="M164.977 185.147H166.644V183.763H164.977V185.147Z" fill="white"/>
<path d="M169.423 189.632H171.09V188.249H169.423V189.632Z" fill="white"/>
<path d="M164.977 189.632H166.644V188.249H164.977V189.632Z" fill="white"/>
<path d="M164.977 194.117H166.644V192.734H164.977V194.117Z" fill="white"/>
<path d="M169.423 198.603H171.09V197.219H169.423V198.603Z" fill="white"/>
<path d="M145.865 215.783H163.942V176.792H145.865V215.783Z" fill="#F0F0F0"/>
<path d="M151.292 179.278H149.625V180.662H151.292V179.278Z" fill="white"/>
<path d="M160.182 179.278H158.515V180.662H160.182V179.278Z" fill="white"/>
<path d="M151.292 183.763H149.625V185.147H151.292V183.763Z" fill="white"/>
<path d="M155.737 183.763H154.07V185.147H155.737V183.763Z" fill="white"/>
<path d="M160.182 188.249H158.515V189.632H160.182V188.249Z" fill="white"/>
<path d="M151.292 192.734H149.625V194.117H151.292V192.734Z" fill="white"/>
<path d="M155.737 192.734H154.07V194.117H155.737V192.734Z" fill="white"/>
<path d="M155.737 197.219H154.07V198.603H155.737V197.219Z" fill="white"/>
<path d="M160.182 197.219H158.515V198.603H160.182V197.219Z" fill="white"/>
<path d="M155.737 201.704H154.07V203.088H155.737V201.704Z" fill="white"/>
<path d="M160.182 201.704H158.515V203.088H160.182V201.704Z" fill="white"/>
<path d="M160.182 206.189H158.515V207.573H160.182V206.189Z" fill="white"/>
<path d="M155.737 210.674H154.07V212.058H155.737V210.674Z" fill="white"/>
<path d="M139.947 135.141H138.599C138.041 135.141 137.589 135.585 137.589 136.132V214.792C137.589 215.339 138.041 215.783 138.599 215.783H139.947C140.505 215.783 140.957 215.339 140.957 214.792V136.132C140.957 135.585 140.505 135.141 139.947 135.141Z" fill="#EBEBEB"/>
<path d="M195.485 110.803H148.749C147.063 110.803 145.697 112.144 145.697 113.797V130.243C145.697 131.897 147.063 133.237 148.749 133.237H195.485C197.17 133.237 198.537 131.897 198.537 130.243V113.797C198.537 112.144 197.17 110.803 195.485 110.803Z" fill="#E0E0E0"/>
<path d="M195.485 112.042H148.749C147.761 112.042 146.96 112.828 146.96 113.797V130.243C146.96 131.212 147.761 131.998 148.749 131.998H195.485C196.473 131.998 197.274 131.212 197.274 130.243V113.797C197.274 112.828 196.473 112.042 195.485 112.042Z" fill="#F5F5F5"/>
<path d="M140.325 139.354H138.22V113.042C138.222 111.202 138.967 109.439 140.293 108.138C141.62 106.838 143.418 106.107 145.293 106.107H196.752C197.031 106.107 197.299 106.216 197.496 106.41C197.693 106.604 197.804 106.866 197.804 107.14C197.804 107.414 197.693 107.676 197.496 107.87C197.299 108.064 197.031 108.172 196.752 108.172H145.293C144.641 108.172 143.995 108.297 143.392 108.542C142.789 108.786 142.242 109.145 141.78 109.597C141.319 110.049 140.953 110.586 140.703 111.177C140.454 111.768 140.325 112.402 140.325 113.042V139.354Z" fill="#EBEBEB"/>
<path d="M173.161 107.14H172.096V112.046H173.161V107.14Z" fill="#EBEBEB"/>
<path d="M150.302 107.14H149.237V112.046H150.302V107.14Z" fill="#EBEBEB"/>
<path d="M196.019 107.14H194.954V112.046H196.019V107.14Z" fill="#EBEBEB"/>
<path d="M158.01 127.616H156.145V123.354C156.145 122.91 155.965 122.484 155.644 122.169L152.879 119.456L154.196 118.163L156.962 120.876C157.295 121.201 157.559 121.587 157.739 122.012C157.919 122.438 158.011 122.894 158.01 123.354V127.616Z" fill="#E0E0E0"/>
<path d="M152.256 121.31L151.338 116.437L156.305 117.341L152.256 121.31Z" fill="#E0E0E0"/>
<path d="M185.453 127.616H187.331V123.354C187.331 122.91 187.511 122.484 187.832 122.169L190.597 119.456L189.28 118.163L186.489 120.876C186.155 121.2 185.89 121.586 185.71 122.012C185.53 122.437 185.439 122.894 185.44 123.354L185.453 127.616Z" fill="#E0E0E0"/>
<path d="M191.208 121.31L192.125 116.437L187.162 117.341L191.208 121.31Z" fill="#E0E0E0"/>
<path d="M174.592 120.686L171.73 116.602L168.871 120.686H170.799V127.588H172.664V120.686H174.592Z" fill="#E0E0E0"/>
<path d="M40.5981 213.797H48.5586C48.9594 213.797 49.3438 213.953 49.6273 214.231C49.9107 214.509 50.0699 214.886 50.0699 215.279V216.894H39.0826V215.279C39.0826 215.084 39.1219 214.891 39.1981 214.711C39.2743 214.531 39.386 214.367 39.5268 214.23C39.6676 214.092 39.8347 213.983 40.0185 213.908C40.2023 213.834 40.3993 213.796 40.5981 213.797Z" fill="#E0E0E0"/>
<path d="M51.5854 213.797H59.5459C59.9438 213.801 60.3239 213.959 60.6037 214.237C60.8835 214.514 61.0404 214.889 61.0404 215.279V216.894H50.0699V215.279C50.0699 215.084 50.1092 214.891 50.1854 214.711C50.2616 214.531 50.3733 214.367 50.5141 214.23C50.6549 214.092 50.822 213.983 51.0058 213.908C51.1896 213.834 51.3866 213.796 51.5854 213.797Z" fill="#F5F5F5"/>
<path d="M62.5726 213.797H70.5331C70.9339 213.797 71.3183 213.953 71.6017 214.231C71.8852 214.509 72.0444 214.886 72.0444 215.279V216.894H61.0403V215.279C61.0403 215.083 61.08 214.888 61.1573 214.707C61.2346 214.526 61.3478 214.362 61.4903 214.224C61.6329 214.086 61.802 213.977 61.9878 213.904C62.1736 213.83 62.3724 213.794 62.5726 213.797Z" fill="#E0E0E0"/>
<path d="M73.5599 213.797H81.5204C81.9212 213.797 82.3056 213.953 82.589 214.231C82.8725 214.509 83.0317 214.886 83.0317 215.279V216.894H72.0444V215.279C72.0444 215.084 72.0837 214.891 72.1599 214.711C72.2361 214.531 72.3478 214.367 72.4886 214.23C72.6293 214.092 72.7964 213.983 72.9803 213.908C73.1641 213.834 73.3611 213.796 73.5599 213.797Z" fill="#F5F5F5"/>
<path d="M84.5471 213.797H92.5076C92.9084 213.797 93.2928 213.953 93.5762 214.231C93.8596 214.509 94.0189 214.886 94.0189 215.279V216.894H83.0316V215.279C83.0316 215.084 83.0708 214.891 83.1471 214.711C83.2233 214.531 83.335 214.367 83.4757 214.23C83.6165 214.092 83.7836 213.983 83.9675 213.908C84.1513 213.834 84.3483 213.796 84.5471 213.797Z" fill="#E0E0E0"/>
<path d="M95.5301 213.797H103.491C103.891 213.797 104.276 213.953 104.559 214.231C104.843 214.509 105.002 214.886 105.002 215.279V216.894H94.0146V215.279C94.0146 215.084 94.0539 214.891 94.1301 214.711C94.2063 214.531 94.318 214.367 94.4588 214.23C94.5996 214.092 94.7667 213.983 94.9505 213.908C95.1343 213.834 95.3313 213.796 95.5301 213.797Z" fill="#F5F5F5"/>
<path d="M106.505 213.797H114.465C114.866 213.797 115.251 213.953 115.534 214.231C115.817 214.509 115.977 214.886 115.977 215.279V216.894H104.989V215.279C104.989 215.084 105.029 214.891 105.105 214.711C105.181 214.531 105.293 214.367 105.434 214.23C105.574 214.092 105.741 213.983 105.925 213.908C106.109 213.834 106.306 213.796 106.505 213.797Z" fill="#E0E0E0"/>
<path d="M117.505 213.797H125.448C125.849 213.797 126.234 213.953 126.517 214.231C126.8 214.509 126.96 214.886 126.96 215.279V216.894H115.972V215.279C115.972 215.083 116.012 214.888 116.089 214.707C116.167 214.526 116.28 214.362 116.422 214.224C116.565 214.086 116.734 213.977 116.92 213.904C117.106 213.83 117.305 213.794 117.505 213.797Z" fill="#F5F5F5"/>
<path d="M128.492 213.797H136.452C136.853 213.797 137.238 213.953 137.521 214.231C137.804 214.509 137.964 214.886 137.964 215.279V216.894H126.976V215.279C126.976 215.084 127.016 214.891 127.092 214.711C127.168 214.531 127.28 214.367 127.421 214.23C127.561 214.092 127.728 213.983 127.912 213.908C128.096 213.834 128.293 213.796 128.492 213.797Z" fill="#E0E0E0"/>
<path d="M139.479 213.797H147.44C147.841 213.797 148.225 213.953 148.508 214.231C148.792 214.509 148.951 214.886 148.951 215.279V216.894H137.964V215.279C137.964 215.084 138.003 214.891 138.079 214.711C138.155 214.531 138.267 214.367 138.408 214.23C138.549 214.092 138.716 213.983 138.9 213.908C139.083 213.834 139.28 213.796 139.479 213.797Z" fill="#F5F5F5"/>
<path d="M150.466 213.797H158.427C158.828 213.797 159.212 213.953 159.496 214.231C159.779 214.509 159.938 214.886 159.938 215.279V216.894H148.951V215.279C148.951 215.084 148.99 214.891 149.066 214.711C149.143 214.531 149.254 214.367 149.395 214.23C149.536 214.092 149.703 213.983 149.887 213.908C150.071 213.834 150.268 213.796 150.466 213.797Z" fill="#E0E0E0"/>
<path d="M161.454 213.797H169.414C169.815 213.797 170.199 213.953 170.483 214.231C170.766 214.509 170.925 214.886 170.925 215.279V216.894H159.938V215.279C159.938 215.084 159.977 214.891 160.054 214.711C160.13 214.531 160.242 214.367 160.382 214.23C160.523 214.092 160.69 213.983 160.874 213.908C161.058 213.834 161.255 213.796 161.454 213.797Z" fill="#F5F5F5"/>
<path d="M172.441 213.797H180.401C180.802 213.797 181.187 213.953 181.47 214.231C181.754 214.509 181.913 214.886 181.913 215.279V216.894H170.913V215.279C170.913 215.083 170.952 214.889 171.029 214.708C171.106 214.527 171.219 214.363 171.361 214.225C171.504 214.087 171.672 213.978 171.857 213.905C172.043 213.831 172.241 213.795 172.441 213.797Z" fill="#E0E0E0"/>
<path d="M183.428 213.797H191.389C191.79 213.797 192.174 213.953 192.457 214.231C192.741 214.509 192.9 214.886 192.9 215.279V216.894H181.913V215.279C181.913 215.084 181.952 214.891 182.028 214.711C182.104 214.531 182.216 214.367 182.357 214.23C182.498 214.092 182.665 213.983 182.849 213.908C183.032 213.834 183.229 213.796 183.428 213.797Z" fill="#F5F5F5"/>
<path d="M194.415 213.797H202.376C202.777 213.797 203.161 213.953 203.445 214.231C203.728 214.509 203.887 214.886 203.887 215.279V216.894H192.9V215.279C192.9 215.084 192.939 214.891 193.015 214.711C193.092 214.531 193.203 214.367 193.344 214.23C193.485 214.092 193.652 213.983 193.836 213.908C194.02 213.834 194.217 213.796 194.415 213.797Z" fill="#E0E0E0"/>
<path d="M205.403 213.797H213.363C213.764 213.797 214.148 213.953 214.432 214.231C214.715 214.509 214.874 214.886 214.874 215.279V216.894H203.887V215.279C203.887 215.084 203.926 214.891 204.003 214.711C204.079 214.531 204.191 214.367 204.331 214.23C204.472 214.092 204.639 213.983 204.823 213.908C205.007 213.834 205.204 213.796 205.403 213.797Z" fill="#F5F5F5"/>
<path d="M166.602 102.011C166.602 103.064 174.996 102.011 184.607 102.011C194.218 102.011 192.016 95.9477 190.37 94.9895C188.619 93.9901 186.341 94.9895 186.341 94.9895C186.341 94.9895 187.12 91.4749 184.043 90.7852C181.517 90.2153 180.119 93.4119 180.119 93.4119C180.119 93.4119 178.823 91.2684 176.512 92.0118C174.112 92.7841 174.912 95.5471 173.952 96.3855C172.993 97.2239 168.682 97.0545 168.682 97.6906C168.682 98.595 172.294 98.3927 172.294 98.9626C172.294 100.057 163.192 98.9626 163.192 100.235C163.192 101.325 171.372 100.185 171.372 100.974C171.372 101.544 166.602 101.325 166.602 102.011Z" fill="#F5F5F5"/>
<path d="M83.8105 108.734C83.8105 110.072 94.4484 108.734 106.627 108.734C118.806 108.734 116.015 101.052 113.931 99.8588C111.712 98.5909 108.829 99.8588 108.829 99.8588C108.829 99.8588 109.814 95.4067 105.911 94.5311C102.687 93.8125 100.94 97.8805 100.94 97.8805C100.94 97.8805 99.2937 95.1589 96.368 96.1047C93.3286 97.0835 94.3431 100.582 93.1265 101.647C91.9099 102.713 86.4458 102.424 86.4458 103.25C86.4458 104.394 91.0217 104.137 91.0217 104.86C91.0217 106.248 79.4872 104.86 79.4872 106.475C79.4872 107.854 89.8556 106.413 89.8556 107.413C89.8556 108.127 83.8105 107.85 83.8105 108.734Z" fill="#F5F5F5"/>
<path d="M53.1641 108.903C53.1641 109.862 60.7794 108.903 69.4976 108.903C78.2158 108.903 76.2331 103.406 74.726 102.552C73.1348 101.643 71.072 102.552 71.072 102.552C71.072 102.552 71.7792 99.3632 68.9672 98.7355C66.6603 98.2192 65.41 101.123 65.41 101.123C65.41 101.123 64.2313 99.1732 62.1391 99.8505C59.9627 100.553 60.6867 103.055 59.8153 103.819C58.9439 104.584 55.0331 104.377 55.0331 104.976C55.0331 105.802 58.3125 105.608 58.3125 106.124C58.3125 107.119 50.0531 106.124 50.0531 107.28C50.0531 108.272 57.479 107.239 57.479 107.954C57.4958 108.47 53.1641 108.272 53.1641 108.903Z" fill="#F5F5F5"/>
<path d="M127.553 235C172.631 235 209.175 232.907 209.175 230.325C209.175 227.743 172.631 225.65 127.553 225.65C82.4749 225.65 45.9318 227.743 45.9318 230.325C45.9318 232.907 82.4749 235 127.553 235Z" fill="#F5F5F5"/>
<path d="M105.503 200.614L75.0248 159.636L109.704 181.252L103.453 125.076L125.633 173.174L138.62 131.247L141.453 175.02L174.028 147.358L153.278 185.283L191.056 173.88L144.8 204.661L126.724 207.61L105.503 200.614Z" fill="#5B6F80"/>
<path opacity="0.6" d="M105.503 200.614L75.0248 159.636L109.704 181.252L103.453 125.076L125.633 173.174L138.62 131.247L141.453 175.02L174.028 147.358L153.278 185.283L191.056 173.88L144.8 204.661L126.724 207.61L105.503 200.614Z" fill="white"/>
<path d="M145.836 191.284L161.412 162.82L138.267 182.475L136.246 151.261L126.307 183.346L109.582 147.081L114.171 188.294L89.3756 172.84L107.776 197.57L127.023 203.918L143.407 201.25L168.791 184.358L145.836 191.284Z" fill="#5B6F80"/>
<path d="M206.799 196.642L211.184 195.291C211.283 195.26 211.391 195.269 211.483 195.317C211.575 195.364 211.644 195.445 211.675 195.542L211.741 195.747C211.772 195.844 211.762 195.949 211.714 196.04C211.666 196.13 211.584 196.198 211.485 196.228L208.019 197.297C207.774 197.372 207.508 197.349 207.281 197.232C207.053 197.116 206.882 196.915 206.805 196.675L206.793 196.64L206.799 196.642Z" fill="#263238"/>
<path d="M132.272 220.223L151.578 215.205L147.398 209.328L139.521 206.701L135.173 208.044L131.813 212.665L131.86 217.452L132.272 220.223Z" fill="#263238"/>
<path d="M184.607 205.025L202.751 198.499L203.626 196.889L201.332 192.94L194.205 190.161L188.042 191.16L183.744 197.892L183.782 203.947L184.607 205.025Z" fill="#263238"/>
<path d="M132.272 220.223L151.578 215.205L147.398 209.328L139.521 206.701L135.173 208.044L131.813 212.665L131.86 217.452L132.272 220.223Z" fill="black"/>
<path d="M184.607 205.025L202.751 198.499L203.626 196.889L201.332 192.94L194.205 190.161L188.042 191.16L183.744 197.892L183.782 203.947L184.607 205.025Z" fill="black"/>
<path d="M126.467 212.818L129.039 216.233L129.431 219.756L128.862 223.267L129.725 222.998L131.708 221.26L131.022 214.842L128.488 212.198L126.467 212.818Z" fill="#5B6F80"/>
<path opacity="0.6" d="M126.467 212.818L129.039 216.233L129.431 219.756L128.862 223.267L129.725 222.998L131.708 221.26L131.022 214.842L128.488 212.198L126.467 212.818Z" fill="black"/>
<path d="M208.455 189.591L204.498 185.791C203.635 184.96 202.548 184.387 201.366 184.139L186.67 175.937C184.708 174.84 182.536 174.152 180.29 173.916C178.045 173.681 175.774 173.904 173.62 174.57L152.685 181.021C151.342 181.436 150.111 182.142 149.084 183.087C148.057 184.032 147.261 185.192 146.753 186.481L142.906 196.265L133.224 200.292C130.981 201.225 129.07 202.788 127.731 204.785C126.393 206.782 125.686 209.123 125.701 211.513L126.442 212.83L129.944 214.866L130.5 219.43L129.742 222.998L132.121 222.267C132.341 222.199 132.544 222.088 132.719 221.94C132.894 221.793 133.037 221.613 133.139 221.41C133.241 221.207 133.301 220.986 133.314 220.76C133.327 220.534 133.293 220.308 133.215 220.095C133.139 219.897 133.072 219.682 133.013 219.484C132.423 217.333 132.713 215.041 133.82 213.096C134.928 211.152 136.765 209.708 138.941 209.073C141.118 208.439 143.461 208.662 145.471 209.697C147.481 210.732 149.001 212.497 149.704 214.614V214.635C149.877 215.165 150.257 215.605 150.761 215.861C151.264 216.116 151.85 216.165 152.39 215.998L184.733 206.032C184.996 205.953 185.239 205.824 185.451 205.652C185.662 205.48 185.836 205.269 185.964 205.03C186.091 204.792 186.17 204.531 186.194 204.263C186.218 203.995 186.188 203.724 186.106 203.468C186.069 203.357 186.035 203.246 186.005 203.133C185.382 200.973 185.652 198.659 186.755 196.692C187.858 194.725 189.707 193.263 191.9 192.623C194.093 191.983 196.455 192.216 198.475 193.272C200.495 194.328 202.01 196.121 202.692 198.264C202.717 198.338 202.734 198.408 202.755 198.483L208.333 196.765C208.826 196.614 209.26 196.319 209.577 195.919C209.894 195.518 210.078 195.032 210.105 194.526V194.254C210.125 193.91 210.08 193.566 209.974 193.238L209.179 190.76C209.038 190.318 208.789 189.917 208.455 189.591Z" fill="#5B6F80"/>
<path opacity="0.3" d="M208.455 189.591L204.498 185.791C203.635 184.96 202.548 184.387 201.366 184.139L186.67 175.937C184.708 174.84 182.536 174.152 180.29 173.916C178.045 173.681 175.774 173.904 173.62 174.57L152.685 181.021C151.342 181.436 150.111 182.142 149.084 183.087C148.057 184.032 147.261 185.192 146.753 186.481L142.906 196.265L133.224 200.292C130.981 201.225 129.07 202.788 127.731 204.785C126.393 206.782 125.686 209.123 125.701 211.513L126.442 212.83L129.944 214.866L130.5 219.43L129.742 222.998L132.121 222.267C132.341 222.199 132.544 222.088 132.719 221.94C132.894 221.793 133.037 221.613 133.139 221.41C133.241 221.207 133.301 220.986 133.314 220.76C133.327 220.534 133.293 220.308 133.215 220.095C133.139 219.897 133.072 219.682 133.013 219.484C132.423 217.333 132.713 215.041 133.82 213.096C134.928 211.152 136.765 209.708 138.941 209.073C141.118 208.439 143.461 208.662 145.471 209.697C147.481 210.732 149.001 212.497 149.704 214.614V214.635C149.877 215.165 150.257 215.605 150.761 215.861C151.264 216.116 151.85 216.165 152.39 215.998L184.733 206.032C184.996 205.953 185.239 205.824 185.451 205.652C185.662 205.48 185.836 205.269 185.964 205.03C186.091 204.792 186.17 204.531 186.194 204.263C186.218 203.995 186.188 203.724 186.106 203.468C186.069 203.357 186.035 203.246 186.005 203.133C185.382 200.973 185.652 198.659 186.755 196.692C187.858 194.725 189.707 193.263 191.9 192.623C194.093 191.983 196.455 192.216 198.475 193.272C200.495 194.328 202.01 196.121 202.692 198.264C202.717 198.338 202.734 198.408 202.755 198.483L208.333 196.765C208.826 196.614 209.26 196.319 209.577 195.919C209.894 195.518 210.078 195.032 210.105 194.526V194.254C210.125 193.91 210.08 193.566 209.974 193.238L209.179 190.76C209.038 190.318 208.789 189.917 208.455 189.591Z" fill="black"/>
<g opacity="0.2">
<path d="M151.426 214.082C151.313 214.115 151.191 214.103 151.086 214.05C150.981 213.997 150.901 213.906 150.862 213.797C149.98 211.426 148.2 209.479 145.893 208.362C143.586 207.244 140.929 207.042 138.473 207.796C137.684 208.037 136.929 208.374 136.225 208.799C135.919 208.988 135.562 209.083 135.201 209.072C134.84 209.061 134.49 208.945 134.196 208.737C134.196 208.948 134.251 209.233 134.284 209.431C134.407 210.187 134.545 211.042 133.864 211.273C133.333 211.455 133.022 210.939 132.79 210.534C132.846 211.126 132.966 211.71 133.148 212.277C133.181 212.388 133.17 212.507 133.116 212.609C133.061 212.711 132.969 212.789 132.857 212.826C132.8 212.846 132.739 212.854 132.678 212.85C132.618 212.846 132.558 212.83 132.504 212.803C132.45 212.776 132.401 212.739 132.362 212.693C132.323 212.647 132.294 212.594 132.276 212.537C131.856 211.174 131.599 209.646 132.428 209.299C132.899 209.093 133.219 209.493 133.443 209.861C133.443 209.753 133.409 209.654 133.396 209.568C133.278 208.824 133.139 207.973 133.817 207.717C133.972 207.672 134.138 207.672 134.293 207.717C134.448 207.762 134.587 207.849 134.693 207.969C134.843 208.093 135.029 208.166 135.224 208.178C135.419 208.191 135.614 208.142 135.779 208.04C136.546 207.579 137.368 207.212 138.225 206.945C140.904 206.123 143.803 206.345 146.32 207.564C148.838 208.784 150.779 210.908 151.742 213.495C151.763 213.554 151.771 213.616 151.766 213.678C151.761 213.74 151.743 213.801 151.714 213.856C151.684 213.911 151.643 213.959 151.594 213.998C151.544 214.037 151.487 214.065 151.426 214.082Z" fill="white"/>
</g>
<path opacity="0.6" d="M125.726 211.5L126.854 212.099C126.854 212.099 129.801 202.79 134.377 200.878L144.059 196.851L142.935 196.253L133.253 200.279C131.01 201.212 129.098 202.775 127.758 204.772C126.419 206.769 125.712 209.11 125.726 211.5Z" fill="black"/>
<path d="M120.523 197.153L121.024 198.309C121.024 198.309 129.237 192.808 134.023 194.109L144.152 196.856L143.651 195.695L133.523 192.953C131.175 192.316 128.688 192.376 126.375 193.123C124.062 193.871 122.026 195.273 120.523 197.153Z" fill="#5B6F80"/>
<path opacity="0.3" d="M120.523 197.153L121.024 198.309C121.024 198.309 129.237 192.808 134.023 194.109L144.152 196.856L143.651 195.695L133.523 192.953C131.175 192.316 128.688 192.376 126.375 193.123C124.062 193.871 122.026 195.273 120.523 197.153Z" fill="black"/>
<path opacity="0.6" d="M131.481 208.589C131.864 209.786 131.696 210.902 131.102 211.067C130.508 211.232 129.721 210.431 129.338 209.237C128.955 208.044 129.128 206.924 129.717 206.759C130.306 206.594 131.102 207.395 131.481 208.589Z" fill="black"/>
<path opacity="0.5" d="M129.915 206.739C129.712 206.919 129.581 207.165 129.549 207.432L130.26 207.808L130.386 208.56L131.035 209.241L130.193 208.717L129.957 207.973L129.49 207.953C129.498 208.355 129.566 208.755 129.692 209.138C130.033 210.204 130.698 210.968 131.262 210.992C131.708 210.658 131.809 209.658 131.464 208.589C131.119 207.519 130.475 206.759 129.915 206.739Z" fill="white"/>
<path d="M209.634 191.395L204.774 192.893C204.257 193.052 203.97 193.592 204.132 194.099L204.276 194.549C204.438 195.056 204.989 195.337 205.506 195.178L210.365 193.68C210.882 193.521 211.169 192.981 211.007 192.474L210.863 192.025C210.701 191.518 210.15 191.236 209.634 191.395Z" fill="#263238"/>
<path opacity="0.4" d="M209.634 191.395L204.774 192.893C204.257 193.052 203.97 193.592 204.132 194.099L204.276 194.549C204.438 195.056 204.989 195.337 205.506 195.178L210.365 193.68C210.882 193.521 211.169 192.981 211.007 192.474L210.863 192.025C210.701 191.518 210.15 191.236 209.634 191.395Z" fill="white"/>
<g opacity="0.2">
<path d="M184.051 202.262C183.99 202.27 183.927 202.265 183.868 202.248C183.808 202.232 183.753 202.203 183.705 202.164C183.657 202.125 183.618 202.077 183.59 202.023C183.562 201.969 183.546 201.909 183.542 201.849C183.306 199.446 183.905 197.035 185.242 195.009C186.579 192.982 188.575 191.459 190.906 190.687C193.237 189.914 195.766 189.938 198.082 190.755C200.397 191.571 202.363 193.132 203.66 195.183C203.69 195.233 203.709 195.289 203.717 195.347C203.725 195.405 203.721 195.464 203.705 195.521C203.69 195.577 203.663 195.63 203.626 195.676C203.589 195.723 203.544 195.761 203.492 195.79C203.389 195.846 203.268 195.86 203.155 195.83C203.042 195.8 202.945 195.728 202.885 195.629C201.692 193.753 199.889 192.328 197.767 191.585C195.645 190.841 193.329 190.823 191.195 191.532C189.061 192.242 187.233 193.638 186.009 195.494C184.785 197.35 184.236 199.557 184.451 201.758C184.461 201.817 184.458 201.877 184.443 201.935C184.427 201.993 184.4 202.047 184.363 202.095C184.325 202.142 184.278 202.181 184.225 202.21C184.171 202.239 184.112 202.256 184.051 202.262Z" fill="white"/>
</g>
<path d="M174.041 188.525L189.705 183.697C189.887 183.641 190.049 183.533 190.17 183.388C190.291 183.243 190.367 183.066 190.387 182.88C190.408 182.693 190.372 182.505 190.286 182.338C190.199 182.17 190.064 182.031 189.899 181.938L184.632 178.993C183.142 178.16 181.493 177.638 179.788 177.459C178.083 177.28 176.358 177.448 174.723 177.953L170.446 179.27C170.316 179.31 170.197 179.375 170.095 179.462C169.993 179.549 169.91 179.655 169.852 179.775C169.794 179.895 169.761 180.026 169.757 180.158C169.753 180.291 169.777 180.423 169.827 180.546L172.832 187.98C172.927 188.203 173.104 188.383 173.328 188.484C173.552 188.585 173.806 188.6 174.041 188.525Z" fill="#263238"/>
<path d="M166.236 180.567L153.792 184.404C153.011 184.643 152.295 185.053 151.698 185.603C151.101 186.152 150.639 186.826 150.344 187.575L147.398 195.1C147.332 195.27 147.316 195.454 147.351 195.632C147.387 195.81 147.473 195.974 147.599 196.106C147.726 196.239 147.888 196.333 148.066 196.38C148.245 196.426 148.434 196.422 148.61 196.368L169.267 190C169.516 189.923 169.723 189.752 169.844 189.525C169.965 189.298 169.989 189.034 169.911 188.79L167.482 181.199C167.443 181.077 167.379 180.964 167.295 180.866C167.211 180.768 167.109 180.687 166.993 180.629C166.877 180.57 166.751 180.534 166.621 180.524C166.491 180.513 166.36 180.528 166.236 180.567Z" fill="#263238"/>
<path opacity="0.2" d="M147.082 199.759L147.621 200.709L147.423 202.22L148.109 203.302L147.734 205.665L151.767 212.025C152.007 212.404 152.369 212.693 152.795 212.848C153.221 213.003 153.687 213.014 154.121 212.88L175.299 206.354C175.736 206.22 176.1 205.92 176.311 205.522C176.523 205.124 176.565 204.66 176.428 204.232L172.479 191.9C172.343 191.475 172.042 191.12 171.641 190.912C171.239 190.704 170.77 190.659 170.336 190.789L148.059 197.397C147.822 197.47 147.604 197.593 147.421 197.758C147.239 197.923 147.096 198.126 147.002 198.352C146.909 198.578 146.868 198.821 146.882 199.064C146.895 199.307 146.964 199.545 147.082 199.759Z" fill="black"/>
<path opacity="0.2" d="M131.763 205.599L136.145 201.758L144.767 199.102L135.964 203.059L131.763 205.599Z" fill="white"/>
<path opacity="0.2" d="M135.59 204.987L140.633 204.31L146.097 203.253L141.007 205.491L135.59 204.987Z" fill="white"/>
<path opacity="0.2" d="M133.114 205.751L136.448 206.433L134.815 206.937L133.114 205.751Z" fill="black"/>
<path opacity="0.3" d="M149.797 199.581L148.475 200.444L149.953 200.771C150.035 200.789 150.122 200.78 150.199 200.747C150.276 200.713 150.341 200.656 150.382 200.584C150.424 200.512 150.442 200.429 150.432 200.346C150.422 200.264 150.385 200.187 150.328 200.126L149.797 199.581Z" fill="black"/>
<path opacity="0.3" d="M148.711 203.121L150.193 202.344C150.246 202.315 150.307 202.302 150.367 202.308C150.428 202.313 150.485 202.337 150.531 202.376C150.577 202.415 150.61 202.467 150.625 202.525C150.64 202.583 150.636 202.644 150.614 202.699L150.429 203.178L151.01 204.298C151.039 204.357 151.047 204.424 151.032 204.488C151.017 204.552 150.98 204.61 150.928 204.65C150.875 204.691 150.81 204.713 150.743 204.713C150.676 204.713 150.611 204.69 150.559 204.649L148.711 203.121Z" fill="black"/>
<path d="M171.944 191.97C172.045 192.284 171.645 192.688 171.048 192.87C170.45 193.052 167.288 193.75 167.187 193.436C167.086 193.122 170.084 191.916 170.681 191.734C171.279 191.553 171.847 191.656 171.944 191.97Z" fill="#263238"/>
<path opacity="0.4" d="M171.944 191.97C172.045 192.284 171.645 192.688 171.048 192.87C170.45 193.052 167.288 193.75 167.187 193.436C167.086 193.122 170.084 191.916 170.681 191.734C171.279 191.553 171.847 191.656 171.944 191.97Z" fill="white"/>
<path d="M148.29 187.195C148.36 187.032 148.393 186.856 148.388 186.679C148.382 186.502 148.338 186.328 148.258 186.169C148.179 186.01 148.065 185.87 147.925 185.758C147.785 185.645 147.623 185.564 147.448 185.519L147.246 185.465C147.07 185.79 146.914 186.125 146.779 186.469L143.247 195.451L143.765 195.592C144.069 195.677 144.395 195.647 144.678 195.508C144.961 195.369 145.181 195.13 145.293 194.84L148.294 187.208L148.29 187.195Z" fill="#263238"/>
<path opacity="0.2" d="M145.209 193.242L144.67 192.395L145.865 192.288L144.872 192.028L146.493 190.487L145.263 191.28L146.665 189.632L146.244 189.554L147.381 188.244L145.785 189.694L146.076 189.839L145.12 190.661L143.912 193.733L144.287 194.898L144.139 193.543L144.636 192.949L145.019 193.481L145.23 194.142L145.209 193.242Z" fill="white"/>
<path opacity="0.4" d="M203.534 187.621L205.639 189.777C205.773 189.913 205.87 190.081 205.919 190.265C205.969 190.449 205.97 190.642 205.922 190.826C205.875 191.01 205.78 191.179 205.647 191.317C205.514 191.455 205.347 191.557 205.163 191.615L204.595 191.792L200.717 187.84L202.363 187.332C202.566 187.266 202.784 187.259 202.991 187.31C203.198 187.361 203.387 187.469 203.534 187.621Z" fill="black"/>
<path opacity="0.4" d="M203.302 190.462L205.622 189.748L204.279 188.377L201.959 189.091L203.302 190.462Z" fill="white"/>
<path opacity="0.2" d="M174.1 191.4L174.651 193.122C174.712 193.312 174.847 193.47 175.027 193.563C175.207 193.655 175.417 193.673 175.611 193.613L196.171 187.282C196.427 187.207 196.657 187.063 196.834 186.867C197.011 186.671 197.128 186.43 197.173 186.171C197.213 185.906 197.169 185.636 197.048 185.396C196.927 185.156 196.734 184.958 196.495 184.829L195.098 184.048C194.69 183.818 194.237 183.675 193.769 183.629C193.301 183.584 192.828 183.637 192.382 183.784L175.194 189.289C174.767 189.431 174.413 189.731 174.208 190.126C174.004 190.52 173.965 190.977 174.1 191.4Z" fill="black"/>
<path opacity="0.2" d="M149.128 194.857L149.044 193.432L150.669 193.675L149.831 192.073L154.348 193.089L152.963 192.469L154.133 191.681L152.222 192.143L150.21 191.259L150.698 190.231L153.662 189.963L153.43 189.232L155.08 189.186L153.001 188.633L153.085 189.645L151.212 189.24L153.022 186.972L149.646 189.355L148.05 193.407L149.128 194.857Z" fill="white"/>
<path d="M197.81 207.129C201.341 205.27 202.668 200.954 200.773 197.489C198.877 194.024 194.478 192.722 190.946 194.582C187.414 196.441 186.088 200.757 187.983 204.222C189.878 207.687 194.278 208.989 197.81 207.129Z" fill="#263238"/>
<path opacity="0.5" d="M197.807 202.574C198.903 200.324 197.932 197.629 195.639 196.554C193.345 195.479 190.598 196.432 189.502 198.681C188.407 200.931 189.377 203.627 191.671 204.702C193.964 205.777 196.711 204.824 197.807 202.574Z" fill="white"/>
<path d="M195.405 200.527C195.469 200.726 195.471 200.939 195.411 201.139C195.351 201.339 195.233 201.517 195.07 201.651C194.907 201.785 194.707 201.868 194.496 201.89C194.284 201.912 194.071 201.873 193.883 201.776C193.695 201.679 193.54 201.53 193.438 201.347C193.337 201.164 193.293 200.956 193.312 200.748C193.331 200.54 193.412 200.343 193.546 200.181C193.68 200.019 193.859 199.899 194.062 199.837C194.196 199.796 194.338 199.781 194.478 199.793C194.618 199.805 194.755 199.844 194.88 199.908C195.004 199.973 195.115 200.06 195.205 200.166C195.295 200.272 195.363 200.395 195.405 200.527Z" fill="#263238"/>
<g opacity="0.4">
<path d="M192.955 198.92L192.837 197.19C192.077 197.497 191.431 198.026 190.989 198.706L192.706 199.119C192.786 199.048 192.868 198.982 192.955 198.92Z" fill="black"/>
<path d="M192.635 202.485C192.56 202.407 192.49 202.326 192.424 202.241L190.661 202.357C190.973 203.102 191.513 203.735 192.205 204.17L192.635 202.485Z" fill="black"/>
<path d="M194.331 203.216C194.223 203.212 194.115 203.203 194.007 203.187L192.841 204.496C193.601 204.807 194.441 204.879 195.245 204.702L194.331 203.216Z" fill="black"/>
<path d="M191.961 200.791C191.965 200.685 191.974 200.579 191.991 200.473L190.656 199.329C190.339 200.075 190.266 200.899 190.446 201.688L191.961 200.791Z" fill="black"/>
<path d="M196.802 200.891C196.799 200.997 196.789 201.103 196.773 201.209L198.107 202.369C198.424 201.623 198.498 200.799 198.318 200.011L196.802 200.891Z" fill="black"/>
<path d="M196.129 199.197C196.204 199.275 196.274 199.356 196.339 199.441L198.103 199.325C197.79 198.579 197.251 197.946 196.558 197.512L196.129 199.197Z" fill="black"/>
<path d="M196.057 202.555C195.978 202.628 195.896 202.697 195.809 202.761L195.927 204.492C196.687 204.185 197.332 203.656 197.775 202.976L196.057 202.555Z" fill="black"/>
<path d="M194.756 198.495L195.923 197.186C195.162 196.875 194.323 196.803 193.519 196.979L194.432 198.466C194.541 198.47 194.649 198.479 194.756 198.495Z" fill="black"/>
</g>
<path opacity="0.5" d="M194.971 200.659C195.01 200.809 194.988 200.968 194.911 201.104C194.834 201.239 194.707 201.34 194.557 201.386C194.406 201.433 194.243 201.421 194.101 201.353C193.959 201.286 193.849 201.167 193.793 201.023C193.691 200.705 194.054 200.928 194.378 200.829C194.702 200.729 194.87 200.341 194.971 200.659Z" fill="white"/>
<path d="M142.782 224.21C146.129 223.179 147.869 219.301 146.667 215.55C145.466 211.798 141.779 209.593 138.432 210.625C135.085 211.656 133.345 215.534 134.547 219.286C135.748 223.037 139.435 225.242 142.782 224.21Z" fill="#263238"/>
<path opacity="0.5" d="M144.464 216.225C145.225 218.612 144.118 221.078 141.992 221.73C139.867 222.383 137.518 220.987 136.756 218.604C135.994 216.221 137.097 213.751 139.227 213.095C141.357 212.438 143.702 213.842 144.464 216.225Z" fill="white"/>
<path d="M141.504 217.138C141.535 217.314 141.514 217.495 141.444 217.659C141.373 217.824 141.255 217.965 141.105 218.065C140.954 218.166 140.777 218.222 140.595 218.227C140.413 218.231 140.234 218.184 140.078 218.091C139.923 217.998 139.798 217.863 139.719 217.703C139.639 217.542 139.609 217.362 139.631 217.185C139.653 217.008 139.727 216.84 139.843 216.703C139.96 216.566 140.114 216.464 140.288 216.411C140.547 216.351 140.82 216.394 141.048 216.53C141.275 216.666 141.439 216.884 141.504 217.138Z" fill="#263238"/>
<g opacity="0.4">
<path d="M139.273 215.465L139.105 213.747C138.428 214.039 137.87 214.545 137.522 215.184L139.062 215.659C139.128 215.59 139.199 215.526 139.273 215.465Z" fill="black"/>
<path d="M139.117 218.976C139.048 218.898 138.984 218.817 138.924 218.732L137.362 218.782C137.657 219.518 138.155 220.159 138.802 220.632L139.117 218.976Z" fill="black"/>
<path d="M140.65 219.76C140.553 219.754 140.458 219.742 140.363 219.723L139.374 220.962C140.034 221.291 140.787 221.393 141.513 221.251L140.65 219.76Z" fill="black"/>
<path d="M138.461 217.278C138.461 217.176 138.461 217.073 138.461 216.969L137.236 215.791C136.984 216.541 136.949 217.345 137.135 218.113L138.461 217.278Z" fill="black"/>
<path d="M142.759 217.551C142.765 217.654 142.765 217.757 142.759 217.861L143.984 219.038C144.239 218.289 144.275 217.485 144.089 216.717L142.759 217.551Z" fill="black"/>
<path d="M142.102 215.849C142.17 215.928 142.233 216.011 142.291 216.097L143.857 216.043C143.561 215.309 143.063 214.67 142.418 214.197L142.102 215.849Z" fill="black"/>
<path d="M142.157 219.17C142.089 219.236 142.018 219.302 141.946 219.36L142.11 221.078C142.789 220.789 143.348 220.284 143.697 219.645L142.157 219.17Z" fill="black"/>
<path d="M140.856 215.106L141.845 213.867C141.185 213.538 140.432 213.437 139.707 213.578L140.57 215.081C140.665 215.083 140.761 215.092 140.856 215.106Z" fill="black"/>
</g>
<path opacity="0.5" d="M141.125 217.237C141.16 217.306 141.18 217.383 141.182 217.46C141.185 217.538 141.17 217.615 141.139 217.686C141.108 217.758 141.061 217.822 141.003 217.874C140.944 217.926 140.875 217.965 140.799 217.988C140.724 218.011 140.644 218.018 140.566 218.008C140.487 217.999 140.412 217.972 140.345 217.931C140.278 217.89 140.221 217.835 140.177 217.77C140.134 217.705 140.106 217.632 140.094 217.555C139.993 217.237 140.321 217.472 140.603 217.386C140.885 217.299 141.024 216.935 141.125 217.237Z" fill="white"/>
<path d="M190.084 181.616L184.805 178.671C183.269 177.816 181.57 177.28 179.814 177.095C178.058 176.91 176.282 177.081 174.596 177.597L170.319 178.915C170.142 178.972 169.979 179.065 169.839 179.186C169.7 179.308 169.587 179.456 169.508 179.622C169.429 179.788 169.386 179.968 169.381 180.151C169.375 180.334 169.408 180.517 169.477 180.687L172.487 188.1C172.616 188.415 172.861 188.67 173.173 188.815C173.485 188.96 173.842 188.983 174.171 188.881L189.835 184.053C190.089 183.976 190.315 183.827 190.483 183.626C190.652 183.425 190.757 183.179 190.785 182.92C190.814 182.661 190.764 182.399 190.642 182.167C190.52 181.936 190.332 181.744 190.101 181.616H190.084ZM190.012 182.855C190.003 182.971 189.958 183.082 189.882 183.172C189.807 183.262 189.706 183.327 189.591 183.359L173.923 188.187C173.777 188.232 173.619 188.221 173.481 188.157C173.343 188.092 173.234 187.979 173.178 187.84L170.172 180.426C170.139 180.352 170.122 180.271 170.122 180.189C170.122 180.107 170.139 180.026 170.172 179.952C170.208 179.878 170.258 179.812 170.322 179.758C170.385 179.705 170.458 179.665 170.538 179.642L174.815 178.32C176.402 177.834 178.073 177.673 179.726 177.847C181.378 178.021 182.977 178.527 184.422 179.332L189.692 182.277C189.797 182.328 189.883 182.409 189.94 182.509C189.997 182.61 190.022 182.724 190.012 182.838V182.855Z" fill="#263238"/>
<path d="M166.122 180.216L153.679 184.048C152.843 184.303 152.077 184.741 151.439 185.328C150.801 185.915 150.307 186.637 149.995 187.439L147.048 194.964C146.955 195.199 146.931 195.455 146.98 195.703C147.029 195.951 147.148 196.18 147.325 196.364C147.501 196.548 147.727 196.679 147.976 196.742C148.225 196.804 148.487 196.797 148.732 196.719L169.389 190.355C169.733 190.248 170.02 190.011 170.187 189.697C170.355 189.383 170.388 189.017 170.281 188.678L167.848 181.087C167.795 180.918 167.708 180.76 167.592 180.624C167.476 180.488 167.333 180.376 167.173 180.295C167.012 180.213 166.836 180.165 166.656 180.151C166.475 180.137 166.294 180.16 166.122 180.216ZM147.861 195.852C147.782 195.771 147.729 195.669 147.708 195.56C147.686 195.45 147.697 195.336 147.739 195.232L150.685 187.708C150.958 187.01 151.388 186.382 151.943 185.871C152.499 185.36 153.166 184.98 153.893 184.759L154.293 184.635L157.088 193.357L148.471 196.013C148.364 196.045 148.25 196.047 148.142 196.018C148.035 195.99 147.937 195.932 147.861 195.852ZM169.536 188.901C169.56 188.975 169.569 189.054 169.562 189.131C169.556 189.209 169.533 189.285 169.496 189.354C169.46 189.423 169.409 189.484 169.348 189.534C169.287 189.584 169.217 189.622 169.141 189.645L157.484 193.238L154.693 184.515L166.35 180.922C166.425 180.898 166.505 180.89 166.584 180.896C166.663 180.903 166.741 180.925 166.811 180.961C166.881 180.997 166.944 181.047 166.995 181.107C167.046 181.167 167.084 181.236 167.107 181.31L169.536 188.901Z" fill="#263238"/>
<g opacity="0.6">
<path d="M190.084 181.616L184.805 178.671C183.269 177.816 181.57 177.28 179.814 177.095C178.058 176.91 176.282 177.081 174.596 177.597L170.319 178.915C170.142 178.972 169.979 179.065 169.839 179.186C169.7 179.308 169.587 179.456 169.508 179.622C169.429 179.788 169.386 179.968 169.381 180.151C169.375 180.334 169.408 180.517 169.477 180.687L172.487 188.1C172.616 188.415 172.861 188.67 173.173 188.815C173.485 188.96 173.842 188.983 174.171 188.881L189.835 184.053C190.089 183.976 190.315 183.827 190.483 183.626C190.652 183.425 190.757 183.179 190.785 182.92C190.814 182.661 190.764 182.399 190.642 182.167C190.52 181.936 190.332 181.744 190.101 181.616H190.084ZM190.012 182.855C190.003 182.971 189.958 183.082 189.882 183.172C189.807 183.262 189.706 183.327 189.591 183.359L173.923 188.187C173.777 188.232 173.619 188.221 173.481 188.157C173.343 188.092 173.234 187.979 173.178 187.84L170.172 180.426C170.139 180.352 170.122 180.271 170.122 180.189C170.122 180.107 170.139 180.026 170.172 179.952C170.208 179.878 170.258 179.812 170.322 179.758C170.385 179.705 170.458 179.665 170.538 179.642L174.815 178.32C176.402 177.834 178.073 177.673 179.726 177.847C181.378 178.021 182.977 178.527 184.422 179.332L189.692 182.277C189.797 182.328 189.883 182.409 189.94 182.509C189.997 182.61 190.022 182.724 190.012 182.838V182.855Z" fill="black"/>
<path d="M166.122 180.216L153.679 184.049C152.843 184.303 152.077 184.741 151.439 185.328C150.801 185.916 150.307 186.637 149.995 187.439L147.048 194.964C146.955 195.199 146.931 195.455 146.98 195.703C147.029 195.951 147.148 196.18 147.325 196.364C147.501 196.548 147.727 196.679 147.976 196.742C148.225 196.805 148.487 196.797 148.732 196.719L169.389 190.355C169.733 190.248 170.02 190.011 170.187 189.697C170.355 189.383 170.388 189.017 170.281 188.678L167.848 181.087C167.795 180.918 167.708 180.76 167.592 180.624C167.476 180.488 167.333 180.376 167.173 180.295C167.012 180.213 166.836 180.165 166.656 180.151C166.475 180.138 166.294 180.16 166.122 180.216ZM147.861 195.852C147.782 195.771 147.729 195.669 147.708 195.56C147.686 195.45 147.697 195.336 147.739 195.233L150.685 187.708C150.958 187.01 151.388 186.382 151.943 185.871C152.499 185.36 153.166 184.98 153.893 184.759L154.293 184.635L157.088 193.357L148.471 196.013C148.364 196.045 148.25 196.047 148.142 196.018C148.035 195.99 147.937 195.932 147.861 195.852ZM169.536 188.901C169.56 188.976 169.569 189.054 169.562 189.131C169.556 189.209 169.533 189.285 169.496 189.354C169.46 189.423 169.409 189.484 169.348 189.534C169.287 189.584 169.217 189.622 169.141 189.645L157.484 193.238L154.693 184.515L166.35 180.922C166.425 180.898 166.505 180.89 166.584 180.896C166.663 180.903 166.741 180.925 166.811 180.961C166.881 180.997 166.944 181.047 166.995 181.107C167.046 181.167 167.084 181.236 167.107 181.31L169.536 188.901Z" fill="black"/>
</g>
<path opacity="0.2" d="M129.212 210.918L131.132 212.711L131.022 214.842L129.212 210.918Z" fill="black"/>
<path d="M135.299 194.964L137.433 190.809L135.792 189.859L135.505 190.016L134.205 194.526L135.013 195.125L135.299 194.964Z" fill="#5B6F80"/>
<path d="M135.505 190.016L137.147 190.97L135.013 195.125L134.205 194.53L135.505 190.016Z" fill="#5B6F80"/>
<path opacity="0.3" d="M135.505 190.016L137.147 190.97L135.013 195.125L134.205 194.53L135.505 190.016Z" fill="black"/>
<path d="M130.635 188.786L130.685 184.969L132.382 184.395L132.542 184.569L131.683 188.571L130.791 188.959L130.635 188.786Z" fill="#5B6F80"/>
<path d="M132.542 184.569L130.845 185.143L130.791 188.959L131.683 188.571L132.542 184.569Z" fill="#5B6F80"/>
<path opacity="0.3" d="M132.542 184.569L130.845 185.143L130.791 188.959L131.683 188.571L132.542 184.569Z" fill="black"/>
<path d="M46.6222 206.086L50.5498 209.803L65.5405 214.42L77.0708 216.824C77.2692 216.864 77.4742 216.863 77.6718 216.818C77.8693 216.774 78.0549 216.689 78.2158 216.568L78.2832 216.522C78.439 216.406 78.618 216.322 78.8087 216.277C78.9994 216.233 79.1975 216.227 79.3903 216.262L95.2481 219.095C95.5334 219.147 95.792 219.292 95.9806 219.508L97.5045 221.247C97.6918 221.465 97.951 221.611 98.237 221.66L107.919 223.395L125.221 222.862C125.441 222.857 125.649 222.767 125.803 222.613C125.956 222.459 126.042 222.251 126.042 222.036L126.076 218.042L125.537 210.522L106.092 206.66L95.3071 214.751L74.646 210.629L66.5129 199.131L52.0653 197.066L47.6115 203.096L46.6222 206.086Z" fill="#263238"/>
<path opacity="0.6" d="M46.6222 206.086L50.5498 209.803L65.5405 214.42L77.0708 216.824C77.2692 216.864 77.4742 216.863 77.6718 216.818C77.8693 216.774 78.0549 216.689 78.2158 216.568L78.2832 216.522C78.439 216.406 78.618 216.322 78.8087 216.277C78.9994 216.233 79.1975 216.227 79.3903 216.262L95.2481 219.095C95.5334 219.147 95.792 219.292 95.9806 219.508L97.5045 221.247C97.6918 221.465 97.951 221.611 98.237 221.66L107.919 223.395L125.221 222.862C125.441 222.857 125.649 222.767 125.803 222.613C125.956 222.459 126.042 222.251 126.042 222.036L126.076 218.042L125.537 210.522L106.092 206.66L95.3071 214.751L74.646 210.629L66.5129 199.131L52.0653 197.066L47.6115 203.096L46.6222 206.086Z" fill="black"/>
<path d="M130.5 203.274L129.296 202.885C129.296 202.885 128.542 201.419 128.075 201.171C127.393 200.812 125.671 201.423 124.981 201.081C124.371 200.779 123.895 199.239 123.259 198.987C122.497 198.689 120.771 199.693 120.014 199.4C119.664 199.259 119.416 198.351 119.054 198.247C118.536 198.103 117.016 198.916 117.016 198.916L106.753 195.592C106.753 195.592 106.016 192.907 105.646 192.056C105.225 191.098 104.101 189.306 103.832 188.302C103.655 187.65 103.739 186.287 103.634 185.622C103.455 184.91 103.236 184.208 102.977 183.52C102.823 183.025 102.556 182.57 102.196 182.191C101.837 181.812 101.394 181.518 100.902 181.331L98.9274 180.567C94.8244 179.009 90.5804 177.835 86.252 177.061L56.7296 171.807C56.3437 171.739 55.9457 171.807 55.6064 172C55.2672 172.193 55.0088 172.498 54.8773 172.86L49.3458 188.191C49.3151 188.271 49.2925 188.354 49.2785 188.439L46.0496 205.822C46.0202 205.983 46.0573 206.15 46.1528 206.284C46.2483 206.419 46.3944 206.511 46.559 206.54C46.6791 206.561 46.8027 206.547 46.9149 206.5C47.027 206.454 47.1228 206.376 47.1905 206.276L50.8276 201.002C51.2496 200.246 51.9038 199.639 52.6973 199.268C53.4909 198.898 54.3833 198.782 55.2478 198.937L64.5091 200.589C65.2934 200.73 66.0203 201.088 66.6043 201.621C67.1882 202.153 67.6049 202.838 67.8052 203.596L69.9774 211.765C70.0647 212.09 70.2444 212.383 70.4957 212.612C70.7469 212.84 71.0593 212.993 71.3961 213.053L101.23 218.381C101.567 218.441 101.914 218.405 102.23 218.279C102.547 218.152 102.821 217.94 103.019 217.667L107.987 210.769C108.449 210.134 109.087 209.64 109.825 209.348C110.563 209.055 111.371 208.975 112.154 209.117L121.415 210.769C122.281 210.923 123.075 211.341 123.684 211.963C124.293 212.585 124.687 213.38 124.808 214.234L125.709 220.508C125.723 220.597 125.769 220.678 125.838 220.737C125.908 220.796 125.996 220.828 126.088 220.828C126.18 220.828 126.269 220.796 126.338 220.737C126.408 220.678 126.454 220.597 126.467 220.508C126.467 220.508 127.225 210.918 128.151 207.87C128.563 206.644 130.5 203.274 130.5 203.274Z" fill="#5B6F80"/>
<path opacity="0.5" d="M130.5 203.274L129.296 202.885C129.296 202.885 128.542 201.419 128.075 201.171C127.393 200.812 125.671 201.423 124.981 201.081C124.371 200.779 123.895 199.239 123.259 198.987C122.497 198.689 120.771 199.693 120.014 199.4C119.664 199.259 119.416 198.351 119.054 198.247C118.536 198.103 117.016 198.916 117.016 198.916L106.753 195.592C106.753 195.592 106.016 192.907 105.646 192.056C105.225 191.098 104.101 189.306 103.832 188.302C103.655 187.65 103.739 186.287 103.634 185.622C103.455 184.91 103.236 184.208 102.977 183.52C102.823 183.025 102.556 182.57 102.196 182.191C101.837 181.812 101.394 181.518 100.902 181.331L98.9274 180.567C94.8244 179.009 90.5804 177.835 86.252 177.061L56.7296 171.807C56.3437 171.739 55.9457 171.807 55.6064 172C55.2672 172.193 55.0088 172.498 54.8773 172.86L49.3458 188.191C49.3151 188.271 49.2925 188.354 49.2785 188.439L46.0496 205.822C46.0202 205.983 46.0573 206.15 46.1528 206.284C46.2483 206.419 46.3944 206.511 46.559 206.54C46.6791 206.561 46.8027 206.547 46.9149 206.5C47.027 206.454 47.1228 206.376 47.1905 206.276L50.8276 201.002C51.2496 200.246 51.9038 199.639 52.6973 199.268C53.4909 198.898 54.3833 198.782 55.2478 198.937L64.5091 200.589C65.2934 200.73 66.0203 201.088 66.6043 201.621C67.1882 202.153 67.6049 202.838 67.8052 203.596L69.9774 211.765C70.0647 212.09 70.2444 212.383 70.4957 212.612C70.7469 212.84 71.0593 212.993 71.3961 213.053L101.23 218.381C101.567 218.441 101.914 218.405 102.23 218.279C102.547 218.152 102.821 217.94 103.019 217.667L107.987 210.769C108.449 210.134 109.087 209.64 109.825 209.348C110.563 209.055 111.371 208.975 112.154 209.117L121.415 210.769C122.281 210.923 123.075 211.341 123.684 211.963C124.293 212.585 124.687 213.38 124.808 214.234L125.709 220.508C125.723 220.597 125.769 220.678 125.838 220.737C125.908 220.796 125.996 220.828 126.088 220.828C126.18 220.828 126.269 220.796 126.338 220.737C126.408 220.678 126.454 220.597 126.467 220.508C126.467 220.508 127.225 210.918 128.151 207.87C128.563 206.644 130.5 203.274 130.5 203.274Z" fill="white"/>
<path opacity="0.2" d="M111.085 206.4L115.623 200.667C115.691 200.581 115.786 200.518 115.894 200.489C116.002 200.46 116.116 200.466 116.22 200.507C116.324 200.548 116.411 200.62 116.469 200.714C116.527 200.808 116.552 200.918 116.541 201.027L116.33 203.092C116.322 203.239 116.361 203.385 116.443 203.509C116.524 203.634 116.644 203.729 116.784 203.782C116.924 203.836 117.078 203.844 117.224 203.806C117.369 203.768 117.498 203.686 117.593 203.571L119.462 201.043C119.524 200.961 119.61 200.898 119.708 200.865C119.807 200.831 119.913 200.828 120.014 200.855C120.115 200.882 120.204 200.939 120.271 201.018C120.338 201.097 120.379 201.193 120.388 201.295L120.691 205.012C120.707 205.15 120.763 205.279 120.854 205.385C120.945 205.491 121.065 205.568 121.2 205.606C121.336 205.645 121.479 205.643 121.614 205.601C121.748 205.559 121.866 205.479 121.954 205.372L123.861 202.827C123.929 202.738 124.025 202.673 124.134 202.643C124.243 202.613 124.36 202.619 124.465 202.66C124.571 202.702 124.659 202.776 124.716 202.872C124.774 202.968 124.797 203.08 124.783 203.191L124.202 207.651L124.813 211.472L116.347 208.234L110.757 208.011L111.085 206.4Z" fill="black"/>
<path opacity="0.2" d="M127.625 204.694C127.625 204.694 126.038 206.111 125.722 206.73C125.537 207.098 125.086 208.106 125.423 208.357C125.76 208.609 126.766 207.87 127.073 207.531C127.536 207.011 127.999 204.917 127.999 204.917C128.018 204.87 128.018 204.817 128.001 204.769C127.984 204.721 127.95 204.68 127.906 204.654C127.862 204.627 127.809 204.617 127.758 204.624C127.707 204.632 127.66 204.656 127.625 204.694Z" fill="black"/>
<path opacity="0.2" d="M112.752 200.548L108.252 201.865C108.214 201.875 108.18 201.894 108.151 201.92C108.123 201.946 108.101 201.978 108.088 202.014L107.115 204.393C107.095 204.442 107.091 204.496 107.104 204.547C107.117 204.598 107.146 204.644 107.187 204.678C107.228 204.712 107.279 204.733 107.332 204.738C107.386 204.742 107.439 204.73 107.486 204.702L111.826 202.224C111.847 202.21 111.867 202.194 111.885 202.175L113.017 200.936C113.046 200.894 113.061 200.845 113.062 200.795C113.062 200.745 113.047 200.696 113.018 200.654C112.99 200.612 112.949 200.58 112.902 200.561C112.854 200.542 112.802 200.537 112.752 200.548Z" fill="black"/>
<path d="M56.1698 172.889C56.4206 173.252 56.7426 173.563 57.117 173.802C57.4914 174.042 57.9107 174.206 58.3504 174.285L102.089 182.095C101.75 181.766 101.346 181.507 100.902 181.335L98.9275 180.567C94.8245 179.009 90.5805 177.835 86.2521 177.061L56.7297 171.807C56.323 171.736 55.9037 171.817 55.5552 172.034L56.1698 172.889Z" fill="#5B6F80"/>
<path d="M73.6699 178.56L59.3442 176.001C58.6992 175.886 58.0811 176.306 57.9636 176.938L56.3098 185.849C56.1923 186.482 56.62 187.088 57.265 187.203L71.5907 189.763C72.2357 189.878 72.8539 189.458 72.9713 188.825L74.6251 179.915C74.7426 179.282 74.3149 178.676 73.6699 178.56Z" fill="#263238"/>
<path d="M101.112 195.03L79.2219 191.119C79.0957 191.097 78.9751 191.051 78.8672 190.983C78.7592 190.915 78.666 190.827 78.5928 190.724C78.5196 190.621 78.468 190.504 78.4409 190.382C78.4137 190.259 78.4116 190.132 78.4347 190.008L80.1648 180.691C80.211 180.441 80.3561 180.22 80.5683 180.075C80.7806 179.93 81.0427 179.874 81.2972 179.918L99.0158 183.082C99.2021 183.117 99.3743 183.203 99.5117 183.331C99.6491 183.46 99.7458 183.624 99.7903 183.805C99.7903 183.805 100.152 185.044 100.211 185.486C100.296 186.266 100.148 187.852 100.321 188.616C100.527 189.525 101.483 191.164 101.811 192.04C101.971 192.482 102.232 193.87 102.232 193.87C102.27 194.024 102.267 194.185 102.226 194.338C102.184 194.491 102.104 194.632 101.992 194.747C101.881 194.862 101.743 194.949 101.589 194.998C101.435 195.047 101.271 195.058 101.112 195.03Z" fill="#263238"/>
<path opacity="0.2" d="M100.704 189.702C100.531 189.353 100.39 188.99 100.283 188.616C100.191 187.709 100.163 186.797 100.199 185.886L98.0434 183.607L99.5 186.196L93.8759 182.859L98.9275 187.472H94.5284L91.67 186.262L88.1381 186.324L91.569 186.807L94.5157 188.282L96.5574 188.43L94.7178 190.004L92.7056 190.161L91.089 191.771L93.0213 190.607H94.9998L97.6982 188.629L99.0201 188.864L96.9152 191.123L94.7178 192.42L98.6959 191.144L98.0561 191.032L99.6768 189.422L98.8348 192.94L100.704 189.702Z" fill="white"/>
<path opacity="0.3" d="M104.318 198.034L51.4836 188.595C51.2275 188.55 50.982 188.716 50.9353 188.968L50.9285 189.004C50.8819 189.256 51.0517 189.496 51.3079 189.542L104.142 198.981C104.398 199.026 104.644 198.86 104.69 198.608L104.697 198.572C104.744 198.321 104.574 198.08 104.318 198.034Z" fill="white"/>
<path opacity="0.3" d="M100.209 208.862L72.8788 203.98C72.6226 203.934 72.3771 204.101 72.3305 204.352L72.3237 204.389C72.277 204.64 72.4469 204.881 72.7031 204.926L100.033 209.809C100.289 209.855 100.535 209.688 100.582 209.437L100.588 209.4C100.635 209.149 100.465 208.908 100.209 208.862Z" fill="white"/>
<path d="M80.8832 196.069L78.2616 195.601C78.0054 195.555 77.7599 195.722 77.7133 195.973L77.7065 196.01C77.6598 196.261 77.8297 196.502 78.0859 196.547L80.7075 197.016C80.9637 197.062 81.2092 196.895 81.2558 196.644L81.2626 196.607C81.3092 196.356 81.1394 196.115 80.8832 196.069Z" fill="#5B6F80"/>
<path d="M102.548 195.088L103.032 192.461C103.048 192.378 103.047 192.292 103.029 192.21C103.011 192.127 102.976 192.048 102.928 191.978C102.879 191.909 102.816 191.849 102.744 191.803C102.671 191.757 102.59 191.725 102.506 191.71L101.453 191.524C101.313 191.497 101.17 191.497 101.03 191.526C100.891 191.554 100.759 191.609 100.641 191.688C100.524 191.766 100.423 191.867 100.346 191.985C100.268 192.102 100.216 192.233 100.19 192.37L99.643 195.315C99.5872 195.589 99.6446 195.873 99.8025 196.106C99.9604 196.338 100.206 196.499 100.485 196.554L101.929 196.814L102.35 197.425L102.96 197.537L103.221 196.124L102.548 195.088Z" fill="#5B6F80"/>
<path d="M65.8104 216.394C68.1921 212.108 66.5816 206.74 62.2134 204.403C57.8451 202.067 52.3731 203.647 49.9915 207.932C47.6098 212.218 49.2203 217.586 53.5886 219.923C57.9569 222.259 63.4288 220.679 65.8104 216.394Z" fill="#263238"/>
<path opacity="0.4" d="M63.2378 213.772C63.3025 213.567 63.3559 213.359 63.3977 213.148C63.4352 212.936 63.4605 212.723 63.4735 212.508L61.4613 211.868C61.4362 211.578 61.374 211.292 61.2761 211.017L62.8463 209.609C62.6348 209.234 62.3806 208.883 62.0885 208.564L60.1984 209.489C59.9713 209.301 59.721 209.141 59.4533 209.014L59.5459 206.949C59.3382 206.882 59.1257 206.829 58.9102 206.792C58.6944 206.755 58.4765 206.73 58.2577 206.718L57.601 208.7C57.3037 208.726 57.0109 208.788 56.7296 208.886L55.2857 207.325C54.8991 207.527 54.5375 207.773 54.208 208.056L55.172 209.914C54.9813 210.139 54.8201 210.386 54.6921 210.65L52.5873 210.555C52.5231 210.761 52.4697 210.971 52.4273 211.182C52.3896 211.393 52.3643 211.605 52.3516 211.818L54.3764 212.467C54.4015 212.758 54.4638 213.045 54.5616 213.322L52.9914 214.73C53.1978 215.108 53.4478 215.461 53.7365 215.783L55.6309 214.842C55.8602 215.028 56.1119 215.186 56.3802 215.312L56.2876 217.377C56.496 217.441 56.7083 217.492 56.9233 217.53C57.1377 217.568 57.3541 217.594 57.5716 217.609L58.2325 215.622C58.5296 215.598 58.8224 215.537 59.1039 215.44L60.5394 216.977C60.9261 216.777 61.2866 216.531 61.6128 216.246L60.6194 214.412C60.811 214.188 60.9723 213.941 61.0993 213.677L63.2378 213.772Z" fill="white"/>
<path opacity="0.6" d="M59.0408 206.02C57.8013 205.799 56.5229 205.943 55.3672 206.435C54.2114 206.927 53.2303 207.744 52.5478 208.783C51.8654 209.821 51.5122 211.036 51.5331 212.271C51.554 213.507 51.9479 214.709 52.6651 215.725C53.3822 216.741 54.3904 217.526 55.5621 217.98C56.7338 218.434 58.0164 218.537 59.2477 218.275C60.479 218.014 61.6037 217.4 62.4795 216.512C63.3554 215.624 63.943 214.501 64.1682 213.285C64.3182 212.477 64.3046 211.649 64.128 210.847C63.9515 210.044 63.6155 209.284 63.1393 208.61C62.6631 207.935 62.056 207.359 61.3528 206.915C60.6495 206.47 59.8639 206.166 59.0408 206.02ZM56.9023 217.555C55.8164 217.36 54.8138 216.854 54.0211 216.1C53.2285 215.347 52.6814 214.379 52.449 213.321C52.2166 212.262 52.3094 211.16 52.7156 210.153C53.1218 209.146 53.8232 208.279 54.7311 207.664C55.639 207.048 56.7126 206.71 57.8163 206.692C58.92 206.675 60.0042 206.979 60.9318 207.566C61.8594 208.153 62.5887 208.997 63.0277 209.99C63.4666 210.984 63.5954 212.083 63.3978 213.148C63.2665 213.856 62.9943 214.532 62.5967 215.136C62.1992 215.741 61.684 216.263 61.0808 216.672C60.4776 217.081 59.7981 217.37 59.0811 217.521C58.3641 217.673 57.6237 217.684 56.9023 217.555Z" fill="white"/>
<path opacity="0.6" d="M60.8215 212.694C60.7154 213.26 60.4406 213.783 60.0319 214.196C59.6232 214.609 59.0988 214.894 58.5251 215.015C57.9513 215.135 57.354 215.087 56.8085 214.874C56.263 214.662 55.7939 214.296 55.4605 213.822C55.127 213.349 54.9442 212.789 54.9351 212.213C54.9259 211.637 55.0909 211.072 55.4092 210.588C55.7275 210.105 56.1848 209.725 56.7233 209.496C57.2618 209.267 57.8573 209.2 58.4346 209.303C58.8196 209.369 59.1875 209.51 59.5166 209.717C59.8458 209.924 60.1297 210.193 60.3518 210.508C60.574 210.824 60.7299 211.18 60.8105 211.555C60.8912 211.93 60.8949 212.317 60.8215 212.694Z" fill="white"/>
<path opacity="0.5" d="M59.4112 212.434C59.3572 212.726 59.2159 212.997 59.0052 213.211C58.7946 213.424 58.524 213.572 58.2278 213.635C57.9315 213.698 57.6229 213.673 57.3409 213.564C57.059 213.455 56.8164 213.266 56.6438 213.022C56.4712 212.777 56.3763 212.488 56.3713 212.191C56.3663 211.893 56.4512 211.601 56.6154 211.351C56.7796 211.101 57.0157 210.905 57.2938 210.787C57.5719 210.668 57.8795 210.634 58.1778 210.687C58.5774 210.758 58.9318 210.982 59.1631 211.31C59.3943 211.637 59.4836 212.042 59.4112 212.434Z" fill="white"/>
<path opacity="0.2" d="M109.952 198.483L112.823 199.243C112.888 199.256 112.945 199.291 112.986 199.341C113.027 199.391 113.05 199.453 113.05 199.517C113.05 199.582 113.027 199.644 112.986 199.694C112.945 199.744 112.888 199.778 112.823 199.792L110.298 200.288C110.225 200.301 110.15 200.288 110.088 200.25C110.025 200.211 109.98 200.151 109.961 200.081L109.633 198.842C109.619 198.796 109.618 198.748 109.629 198.702C109.639 198.656 109.662 198.613 109.693 198.577C109.725 198.542 109.765 198.514 109.811 198.498C109.856 198.481 109.905 198.476 109.952 198.483Z" fill="black"/>
<path d="M127.393 211.98C126.921 210.889 126.18 209.93 125.236 209.189C124.293 208.449 123.177 207.95 121.988 207.738L112.727 206.086C111.358 205.845 109.947 205.992 108.66 206.508C107.373 207.024 106.262 207.889 105.457 209.002L99.8198 216.824L73.2989 212.087L70.8404 202.827C70.4892 201.506 69.7605 200.311 68.7403 199.383C67.7201 198.454 66.4507 197.831 65.0816 197.587L55.8203 195.935C54.3102 195.664 52.7517 195.868 51.3664 196.517C49.9811 197.166 48.8395 198.226 48.104 199.548C48.0083 199.72 47.8601 199.858 47.6803 199.942C47.5006 200.027 47.2983 200.053 47.1021 200.019L46.2601 199.866C45.9984 199.82 45.7289 199.878 45.5104 200.027C45.2919 200.175 45.1422 200.403 45.0941 200.659L44.4331 204.236C44.4007 204.412 44.4177 204.593 44.4822 204.76C44.5467 204.928 44.6563 205.075 44.7994 205.186L46.117 206.198C46.1591 206.289 46.2232 206.369 46.3039 206.431C46.3845 206.493 46.4793 206.535 46.5801 206.553C46.7001 206.574 46.8238 206.56 46.9359 206.513C47.0481 206.466 47.1439 206.388 47.2115 206.288L50.8487 201.014C51.2707 200.258 51.9249 199.651 52.7184 199.281C53.5119 198.91 54.4043 198.794 55.2688 198.949L64.5301 200.601C65.3144 200.742 66.0414 201.1 66.6253 201.633C67.2093 202.166 67.626 202.851 67.8263 203.608L69.9985 211.777C70.0857 212.102 70.2655 212.396 70.5168 212.624C70.768 212.852 71.0803 213.005 71.4172 213.066L101.251 218.393C101.588 218.453 101.935 218.418 102.252 218.291C102.568 218.165 102.842 217.952 103.04 217.679L108.008 210.782C108.47 210.146 109.108 209.653 109.846 209.36C110.584 209.068 111.392 208.988 112.175 209.13L121.437 210.782C122.302 210.935 123.096 211.353 123.705 211.975C124.314 212.597 124.708 213.392 124.83 214.247L125.73 220.52C125.744 220.609 125.79 220.691 125.859 220.749C125.929 220.808 126.017 220.841 126.109 220.841C126.201 220.841 126.29 220.808 126.359 220.749C126.429 220.691 126.475 220.609 126.488 220.52C126.488 220.52 126.85 215.837 127.393 211.98Z" fill="#5B6F80"/>
<path d="M118.216 211.29C118.216 211.29 119.26 211.591 119.567 211.236C119.567 211.236 121.251 213.396 122.236 213.681C122.236 213.681 123.457 216.597 123.983 216.865C123.983 216.865 123.865 219.5 124.505 220.087C124.505 220.087 123.183 222.152 123.074 223.609C123.074 223.609 122.607 223.568 122.59 224.473C122.59 224.473 122.342 223.849 121.828 223.733L121.971 221.169L122.64 218.525L122.485 217.46L120.7 214.379L119.134 212.805L118.216 211.29Z" fill="#263238"/>
<path opacity="0.4" d="M118.216 211.29C118.216 211.29 119.26 211.591 119.567 211.236C119.567 211.236 121.251 213.396 122.236 213.681C122.236 213.681 123.457 216.597 123.983 216.865C123.983 216.865 123.865 219.5 124.505 220.087C124.505 220.087 123.183 222.152 123.074 223.609C123.074 223.609 122.607 223.568 122.59 224.473C122.59 224.473 122.342 223.849 121.828 223.733L121.971 221.169L122.64 218.525L122.485 217.46L120.7 214.379L119.134 212.805L118.216 211.29Z" fill="white"/>
<path d="M123.053 222.679C124.928 218.158 122.712 213.001 118.104 211.162C113.495 209.322 108.239 211.496 106.364 216.017C104.489 220.539 106.705 225.695 111.313 227.535C115.922 229.374 121.178 227.2 123.053 222.679Z" fill="#263238"/>
<path opacity="0.6" d="M120.599 219.244C120.544 215.796 117.829 213.049 114.541 213.095C111.253 213.14 108.647 215.986 108.69 219.434C108.732 222.883 111.46 225.629 114.747 225.588C118.035 225.546 120.658 222.697 120.599 219.244ZM114.735 224.82C111.851 224.865 109.473 222.449 109.422 219.422C109.372 216.394 111.67 213.908 114.554 213.863C117.437 213.817 119.816 216.229 119.866 219.257C119.917 222.284 117.618 224.774 114.735 224.82Z" fill="white"/>
<path opacity="0.4" d="M119.837 219.901C119.859 219.687 119.869 219.472 119.866 219.257C119.862 219.042 119.846 218.829 119.816 218.616L117.842 218.364C117.765 218.085 117.653 217.816 117.509 217.563L118.688 215.882C118.429 215.552 118.133 215.253 117.804 214.99L116.242 216.279C115.999 216.138 115.739 216.03 115.467 215.957L115.168 213.892C114.964 213.87 114.759 213.86 114.554 213.863C114.349 213.865 114.145 213.881 113.943 213.912L113.708 215.977C113.44 216.059 113.184 216.174 112.946 216.32L111.342 215.081C111.027 215.356 110.745 215.665 110.5 216.002L111.729 217.654C111.595 217.917 111.493 218.194 111.426 218.48L109.46 218.794C109.414 219.221 109.421 219.653 109.481 220.078L111.455 220.326C111.532 220.606 111.644 220.875 111.788 221.127L110.613 222.808C110.868 223.14 111.164 223.44 111.493 223.7L113.055 222.416C113.297 222.557 113.558 222.665 113.83 222.738L114.133 224.803C114.335 224.827 114.539 224.838 114.743 224.836C114.947 224.83 115.151 224.814 115.354 224.787L115.589 222.722C115.858 222.64 116.114 222.523 116.351 222.375L117.955 223.614C118.273 223.342 118.556 223.032 118.797 222.693L117.568 221.041C117.703 220.779 117.805 220.501 117.871 220.215L119.837 219.901Z" fill="white"/>
<path opacity="0.3" d="M117.913 211.096C118.239 211.755 118.327 212.504 118.161 213.218C118.161 213.218 121.007 213.033 120.687 215.928C120.687 215.928 124.118 218.067 121.643 220.058C121.643 220.058 122.371 222.779 120.881 224.155C121.345 224.048 121.827 224.048 122.291 224.155C123.019 223.049 123.486 221.797 123.658 220.491C123.83 219.185 123.702 217.858 123.284 216.607C122.866 215.355 122.169 214.212 121.242 213.259C120.316 212.306 119.184 211.568 117.93 211.1L117.913 211.096Z" fill="white"/>
<path opacity="0.9" d="M118.486 211.335C118.905 212.169 119.467 212.927 120.148 213.574C121.967 215.383 123.217 217.427 122.615 219.236C122.089 220.83 121.773 223.122 122.405 223.944C123.064 222.881 123.487 221.693 123.646 220.458C123.805 219.223 123.695 217.969 123.325 216.778C122.955 215.587 122.333 214.487 121.499 213.549C120.665 212.611 119.638 211.856 118.486 211.335Z" fill="black"/>
<path opacity="0.6" d="M117.42 219.302C117.393 219.833 117.208 220.346 116.888 220.775C116.568 221.205 116.127 221.534 115.62 221.721C115.112 221.908 114.559 221.945 114.03 221.828C113.501 221.712 113.018 221.445 112.641 221.063C112.264 220.68 112.009 220.198 111.908 219.675C111.806 219.152 111.863 218.612 112.071 218.12C112.279 217.628 112.628 217.207 113.077 216.908C113.525 216.609 114.053 216.444 114.596 216.436C115.357 216.45 116.082 216.759 116.611 217.297C117.141 217.834 117.432 218.555 117.42 219.302Z" fill="white"/>
<path opacity="0.5" d="M116.078 219.302C116.063 219.576 115.967 219.84 115.801 220.061C115.636 220.282 115.408 220.451 115.146 220.547C114.884 220.643 114.599 220.662 114.326 220.601C114.053 220.54 113.805 220.402 113.611 220.205C113.416 220.007 113.285 219.758 113.234 219.489C113.182 219.219 113.211 218.94 113.319 218.687C113.426 218.434 113.606 218.216 113.838 218.062C114.069 217.908 114.341 217.824 114.621 217.819C115.014 217.827 115.389 217.987 115.662 218.265C115.935 218.543 116.084 218.916 116.078 219.302Z" fill="white"/>
<path d="M116.633 195.435L112.735 190.603L110.268 191.759V192.164L115.253 196.331L116.633 195.84V195.435Z" fill="#5B6F80"/>
<path d="M110.268 192.164L112.735 191.003L116.633 195.839L115.253 196.331L110.268 192.164Z" fill="#5B6F80"/>
<path opacity="0.6" d="M110.268 192.164L112.735 191.003L116.633 195.839L115.253 196.331L110.268 192.164Z" fill="white"/>
<path d="M108.892 193.295L108.357 189.62L106.711 189.475L106.585 189.686L107.89 193.341L108.765 193.506L108.892 193.295Z" fill="#5B6F80"/>
<path d="M106.585 189.686L108.231 189.83L108.765 193.506L107.89 193.341L106.585 189.686Z" fill="#5B6F80"/>
<path opacity="0.6" d="M106.585 189.686L108.231 189.83L108.765 193.506L107.89 193.341L106.585 189.686Z" fill="white"/>
<path d="M122.948 193.304L129.288 190.718L128.673 187.91L128.231 187.798L122.333 191.66L122.502 193.188L122.948 193.304Z" fill="#5B6F80"/>
<path d="M128.231 187.798L128.846 190.607L122.502 193.188L122.333 191.66L128.231 187.798Z" fill="#5B6F80"/>
<path opacity="0.4" d="M128.231 187.798L128.846 190.607L122.502 193.188L122.333 191.66L128.231 187.798Z" fill="white"/>
<path d="M120.451 179.662L119.365 176.078L117.724 176.201L117.631 176.433L119.475 179.873L120.359 179.894L120.451 179.662Z" fill="#5B6F80"/>
<path d="M117.631 176.433L119.273 176.305L120.359 179.894L119.475 179.873L117.631 176.433Z" fill="#5B6F80"/>
<path opacity="0.4" d="M117.631 176.433L119.273 176.305L120.359 179.894L119.475 179.873L117.631 176.433Z" fill="white"/>
</svg>
