<svg width="27" height="25" viewBox="0 0 27 25" fill="none" xmlns="http://www.w3.org/2000/svg">
<path d="M8.61845 12.2667C7.13988 12.3123 5.93056 12.8964 4.99048 14.019H3.15595C2.40754 14.019 1.77778 13.8342 1.26667 13.4646C0.755556 13.0949 0.5 12.5542 0.5 11.8423C0.5 8.62044 1.06587 7.00952 2.19762 7.00952C2.25238 7.00952 2.45089 7.10536 2.79315 7.29702C3.13542 7.48869 3.58036 7.68264 4.12798 7.87887C4.6756 8.0751 5.21865 8.17321 5.75714 8.17321C6.36865 8.17321 6.9756 8.06825 7.57798 7.85833C7.53234 8.19603 7.50952 8.49722 7.50952 8.7619C7.50952 10.0306 7.87917 11.1988 8.61845 12.2667ZM23.281 20.9875C23.281 22.0827 22.9478 22.9475 22.2815 23.5818C21.6153 24.2162 20.73 24.5333 19.6256 24.5333H7.66012C6.55575 24.5333 5.67044 24.2162 5.00417 23.5818C4.3379 22.9475 4.00476 22.0827 4.00476 20.9875C4.00476 20.5038 4.02073 20.0314 4.05268 19.5705C4.08462 19.1096 4.14851 18.6122 4.24435 18.0783C4.34018 17.5443 4.46111 17.0492 4.60714 16.5929C4.75317 16.1365 4.9494 15.6916 5.19583 15.258C5.44226 14.8245 5.7252 14.4549 6.04464 14.1491C6.36409 13.8434 6.75427 13.5992 7.21518 13.4167C7.67609 13.2341 8.18492 13.1429 8.74167 13.1429C8.83294 13.1429 9.02917 13.241 9.33036 13.4372C9.63155 13.6334 9.96468 13.8525 10.3298 14.0943C10.6948 14.3362 11.1831 14.5553 11.7946 14.7515C12.4062 14.9477 13.0222 15.0458 13.6429 15.0458C14.2635 15.0458 14.8796 14.9477 15.4911 14.7515C16.1026 14.5553 16.5909 14.3362 16.956 14.0943C17.321 13.8525 17.6542 13.6334 17.9554 13.4372C18.2565 13.241 18.4528 13.1429 18.544 13.1429C19.1008 13.1429 19.6096 13.2341 20.0705 13.4167C20.5314 13.5992 20.9216 13.8434 21.2411 14.1491C21.5605 14.4549 21.8435 14.8245 22.0899 15.258C22.3363 15.6916 22.5325 16.1365 22.6786 16.5929C22.8246 17.0492 22.9455 17.5443 23.0414 18.0783C23.1372 18.6122 23.2011 19.1096 23.233 19.5705C23.265 20.0314 23.281 20.5038 23.281 20.9875ZM9.2619 3.50476C9.2619 4.47222 8.91964 5.29821 8.23512 5.98274C7.5506 6.66726 6.7246 7.00952 5.75714 7.00952C4.78968 7.00952 3.96369 6.66726 3.27917 5.98274C2.59464 5.29821 2.25238 4.47222 2.25238 3.50476C2.25238 2.5373 2.59464 1.71131 3.27917 1.02679C3.96369 0.342262 4.78968 0 5.75714 0C6.7246 0 7.5506 0.342262 8.23512 1.02679C8.91964 1.71131 9.2619 2.5373 9.2619 3.50476ZM18.9 8.7619C18.9 10.2131 18.3866 11.4521 17.3598 12.4789C16.333 13.5057 15.094 14.019 13.6429 14.019C12.1917 14.019 10.9527 13.5057 9.92589 12.4789C8.89911 11.4521 8.38571 10.2131 8.38571 8.7619C8.38571 7.31071 8.89911 6.07173 9.92589 5.04494C10.9527 4.01815 12.1917 3.50476 13.6429 3.50476C15.094 3.50476 16.333 4.01815 17.3598 5.04494C18.3866 6.07173 18.9 7.31071 18.9 8.7619ZM26.7857 11.8423C26.7857 12.5542 26.5302 13.0949 26.019 13.4646C25.5079 13.8342 24.8782 14.019 24.1298 14.019H22.2952C21.3552 12.8964 20.1458 12.3123 18.6673 12.2667C19.4065 11.1988 19.7762 10.0306 19.7762 8.7619C19.7762 8.49722 19.7534 8.19603 19.7077 7.85833C20.3101 8.06825 20.9171 8.17321 21.5286 8.17321C22.0671 8.17321 22.6101 8.0751 23.1577 7.87887C23.7054 7.68264 24.1503 7.48869 24.4926 7.29702C24.8348 7.10536 25.0333 7.00952 25.0881 7.00952C26.2198 7.00952 26.7857 8.62044 26.7857 11.8423ZM25.0333 3.50476C25.0333 4.47222 24.6911 5.29821 24.0065 5.98274C23.322 6.66726 22.496 7.00952 21.5286 7.00952C20.5611 7.00952 19.7351 6.66726 19.0506 5.98274C18.3661 5.29821 18.0238 4.47222 18.0238 3.50476C18.0238 2.5373 18.3661 1.71131 19.0506 1.02679C19.7351 0.342262 20.5611 0 21.5286 0C22.496 0 23.322 0.342262 24.0065 1.02679C24.6911 1.71131 25.0333 2.5373 25.0333 3.50476Z" fill="white"/>
</svg>
