<svg width="14" height="16" viewBox="0 0 14 16" fill="none" xmlns="http://www.w3.org/2000/svg">
<path d="M0 5.73687C0 4.24793 -4.17233e-08 3.50424 0.4102 3.04161C0.8204 2.57898 1.4798 2.57898 2.8 2.57898H11.2C12.5202 2.57898 13.1796 2.57898 13.5898 3.04161C14 3.50424 14 4.24793 14 5.73687C14 6.10872 14 6.29503 13.8978 6.41108C13.7949 6.52635 13.629 6.52635 13.3 6.52635H0.7C0.3703 6.52635 0.2051 6.52635 0.1022 6.41108C-6.25849e-08 6.29503 0 6.10793 0 5.73687ZM0 12.8421C0 14.3311 -4.17233e-08 15.0748 0.4102 15.5374C0.8204 16 1.4798 16 2.8 16H11.2C12.5202 16 13.1796 16 13.5898 15.5374C14 15.0748 14 14.3311 14 12.8421V8.89477C14 8.52293 14 8.33661 13.8978 8.22056C13.7949 8.1053 13.629 8.1053 13.3 8.1053H0.7C0.3703 8.1053 0.2051 8.1053 0.1022 8.22056C-6.25849e-08 8.33661 0 8.52372 0 8.89477V12.8421Z" fill="white"/>
<path d="M3.5 1V3.36842ZM10.5 1V3.36842Z" fill="white"/>
<path d="M3.5 1V3.36842M10.5 1V3.36842" stroke="white" stroke-width="2" stroke-linecap="round"/>
</svg>
