<svg width="19" height="19" viewBox="0 0 19 19" fill="none" xmlns="http://www.w3.org/2000/svg">
<path d="M13.9881 0.736555C14.2207 0.503176 14.497 0.317983 14.8013 0.19159C15.1055 0.0651979 15.4317 9.0606e-05 15.7612 9.45012e-08C16.0906 -9.0417e-05 16.4169 0.0648376 16.7212 0.191063C17.0255 0.317288 17.3019 0.502329 17.5346 0.73558L18.2654 1.46729C18.4982 1.69985 18.683 1.97603 18.809 2.28005C18.9351 2.58407 19 2.90996 19 3.23907C19 3.56818 18.9351 3.89407 18.809 4.19809C18.683 4.50211 18.4982 4.77829 18.2654 5.01085L10.8606 12.4195C10.628 12.6524 10.3517 12.8372 10.0476 12.9633C9.74351 13.0893 9.41753 13.1542 9.08833 13.1541H6.57656C6.38276 13.1541 6.19689 13.0772 6.05985 12.9401C5.92281 12.8031 5.84583 12.6172 5.84583 12.4234V9.92722C5.84583 9.26274 6.10889 8.62555 6.57851 8.15593L13.9881 0.736555Z" fill="white"/>
<path d="M9.44399 0.000976562H9.49953C9.69333 0.000976562 9.87919 0.0779642 10.0162 0.215003C10.1533 0.352042 10.2303 0.537907 10.2303 0.731709C10.2303 0.925512 10.1533 1.11138 10.0162 1.24842C9.87919 1.38545 9.69333 1.46244 9.49953 1.46244C7.41158 1.46244 5.91991 1.46439 4.78581 1.61638C3.67315 1.76643 3.01549 2.04898 2.53126 2.53223C2.048 3.01647 1.76545 3.67413 1.61541 4.78679C1.46341 5.92089 1.46147 7.41256 1.46147 9.5005C1.46147 11.5884 1.46341 13.0801 1.61541 14.2142C1.76545 15.3269 2.048 15.9845 2.53126 16.4688C3.01549 16.952 3.67315 17.2346 4.78581 17.3846C5.91991 17.5366 7.41158 17.5386 9.49953 17.5386C11.5875 17.5386 13.0791 17.5366 14.2132 17.3846C15.3259 17.2346 15.9836 16.952 16.4678 16.4688C16.9511 15.9845 17.2336 15.3269 17.3836 14.2142C17.5356 13.0801 17.5376 11.5875 17.5376 9.5005C17.5376 9.3067 17.6146 9.12084 17.7516 8.9838C17.8887 8.84676 18.0745 8.76977 18.2683 8.76977C18.4621 8.76977 18.648 8.84676 18.785 8.9838C18.9221 9.12084 18.9991 9.3067 18.9991 9.5005V9.55604C18.9991 11.5758 18.9991 13.1659 18.8324 14.4081C18.661 15.6845 18.3014 16.7016 17.5006 17.5015C16.7007 18.3024 15.6825 18.661 14.4081 18.8334C13.1649 19 11.5748 19 9.55506 19H9.44399C7.42424 19 5.83417 19 4.59192 18.8334C3.31558 18.6619 2.2984 18.3024 1.49849 17.5015C0.697606 16.7016 0.33906 15.6835 0.166607 14.4091C0 13.1659 0 11.5758 0 9.55604V9.44497C0 7.42522 0 5.83515 0.166607 4.5929C0.338086 3.31655 0.697606 2.29937 1.49849 1.49947C2.2984 0.698583 3.31655 0.340037 4.59095 0.167584C5.83417 0.000976562 7.42424 0.000976562 9.44399 0.000976562Z" fill="white"/>
</svg>
