<svg width="168" height="58" viewBox="0 0 168 58" fill="none" xmlns="http://www.w3.org/2000/svg">
<path d="M19.7859 1.02686C19.6734 1.08825 19.4585 1.2622 19.3152 1.40545C19.172 1.5487 18.8855 1.79427 18.6808 1.95799C18.4762 2.11147 18.2102 2.45937 18.0771 2.74587C17.8623 3.20633 17.8111 3.25748 17.4325 3.29842C15.7544 3.50306 14.3117 3.68724 14.0047 3.74863C13.708 3.82026 13.575 3.77933 13.1554 3.49283C12.8792 3.30865 12.4801 3.11423 12.2652 3.05284C12.0401 2.99145 11.8355 2.90959 11.815 2.85843C11.7127 2.69471 11.068 2.63332 10.802 2.75611C10.495 2.88913 9.70716 4.38303 9.70716 4.80256C9.70716 5.02766 9.61507 5.11975 9.14439 5.35509C8.08023 5.86671 6.68865 6.86947 5.89053 7.67781C4.97986 8.58849 5.13335 8.59872 4.42732 7.59596C4.14082 7.18667 4.05896 6.96156 4.04873 6.57273L4.02826 6.07135L3.25061 5.65183C2.83109 5.42672 2.23762 5.06859 1.93065 4.86395C1.62369 4.65931 1.36788 4.50582 1.34742 4.52628C1.32695 4.53652 1.44974 5.09929 1.62369 5.77462C1.7874 6.43972 1.95112 7.11504 1.98182 7.26853C2.02274 7.47317 2.12507 7.57549 2.41157 7.66758C2.62645 7.72898 2.90272 7.87223 3.03574 7.97455C3.27108 8.1485 4.28407 9.43776 4.28407 9.54008C4.28407 9.57078 4.13059 9.83682 3.93617 10.1336C1.8181 13.459 0.457211 18.7491 0.0786182 25.1954C-0.0748655 27.9172 0.00699245 34.6091 0.232102 36.6146C0.661856 40.4108 1.40881 43.4907 2.44227 45.6906C3.73153 48.4329 6.09518 50.8988 8.52022 52.0141C10.6485 52.9964 13.1452 53.3443 14.8744 52.8839C15.2735 52.7816 15.6009 52.7099 15.6112 52.7202C15.6214 52.7304 15.5702 52.9248 15.4884 53.1397C15.1712 54.0504 15.3963 54.9917 16.0205 55.3601C16.1842 55.4624 16.6856 55.6057 17.1358 55.6875C17.5758 55.7591 18.1078 55.8922 18.3022 55.974C18.8548 56.2094 19.6529 56.8949 20.0417 57.4679C20.2361 57.7544 20.4203 58 20.451 58C20.4817 58 20.6352 57.7954 20.7887 57.5395C21.1263 57.0075 21.8733 56.3219 22.4156 56.0456C22.6203 55.9433 23.1933 55.7898 23.6844 55.6977C24.7281 55.5136 25.1169 55.3192 25.3727 54.828C25.6081 54.3982 25.6183 53.9071 25.4137 53.242C25.3318 52.9657 25.2806 52.7304 25.3011 52.7099C25.3113 52.6895 25.5364 52.7509 25.782 52.8429C26.3755 53.0681 28.5243 53.1601 29.3838 52.9964C30.2535 52.8327 31.2256 52.5053 31.9623 52.1369C33.6097 51.3183 35.738 49.5072 36.751 48.0747C38.7565 45.2097 39.8718 41.3726 40.4244 35.4379C40.5676 33.811 40.5574 26.4949 40.4039 24.3564C39.9844 18.5752 38.7565 13.8479 36.8328 10.5633C36.5463 10.0824 36.311 9.66287 36.311 9.63218C36.311 9.52985 37.3035 8.23036 37.5593 7.99501C37.6924 7.862 37.9789 7.69828 38.204 7.62666C38.4188 7.5448 38.6337 7.42201 38.6746 7.34015C38.7156 7.25829 38.8691 6.66483 39.0123 6.02019C39.1658 5.37556 39.309 4.74116 39.35 4.60814C39.4011 4.39326 39.3295 4.42396 38.6542 4.86395C38.2347 5.12999 37.631 5.48812 37.3138 5.66206C36.7715 5.93834 36.7203 5.99973 36.7203 6.30669C36.7203 6.49088 36.6589 6.79784 36.577 6.99226C36.4338 7.32992 35.6152 8.47593 35.5231 8.47593C35.4924 8.47593 35.165 8.16896 34.7864 7.79037C33.9269 6.92063 32.7911 6.08158 31.7372 5.52905C30.9698 5.12999 30.9084 5.07883 30.847 4.7207C30.8163 4.50582 30.714 4.18862 30.6219 4.02491C30.5298 3.85096 30.3661 3.54399 30.2637 3.33934C30.0489 2.91982 29.7112 2.64355 29.4145 2.64355C29.3019 2.64355 29.0256 2.73564 28.8005 2.83796C28.5652 2.94029 28.2173 3.08354 28.0126 3.14493C27.8182 3.20633 27.501 3.39051 27.3066 3.54399C26.969 3.83049 26.969 3.83049 26.2936 3.70771C25.9253 3.63608 25.1169 3.52353 24.4928 3.46213C22.6203 3.26772 22.7123 3.29842 22.5282 2.83796C22.4258 2.5617 22.0882 2.1831 21.5152 1.67149C20.6147 0.873375 20.2873 0.750587 19.7859 1.02686ZM20.451 1.41568C20.5533 1.47708 20.9626 1.82497 21.3617 2.2138C21.9552 2.7868 22.0882 2.97098 22.1496 3.32911L22.211 3.74863L23.05 3.82026C24.1142 3.90212 26.5392 4.25002 26.9792 4.3728C27.2964 4.46489 27.3476 4.44443 27.6954 4.0863C27.9308 3.84072 28.2378 3.64631 28.5038 3.57468C28.7391 3.51329 28.9642 3.41097 28.9949 3.35981C29.0256 3.29842 29.1689 3.25748 29.3019 3.25748C29.6293 3.25748 30.1717 4.29094 30.1717 4.92534V5.35509L31.1539 5.85648C31.686 6.12252 32.4841 6.61366 32.9139 6.94109C33.7836 7.58573 35.0831 8.85453 35.0831 9.04894C35.0831 9.3866 34.8171 9.23312 34.0394 8.45547C32.8832 7.29922 31.3074 6.2453 29.8954 5.68253L29.4656 5.51881L29.527 5.01743C29.5782 4.58768 29.5475 4.48536 29.3326 4.22955C29.0768 3.94305 29.0666 3.93282 28.6777 4.0863C28.4322 4.17839 28.1866 4.3728 28.0433 4.59791L27.808 4.96627L26.969 4.78209C25.8229 4.52628 24.196 4.30117 22.8761 4.21932L21.7812 4.14769L21.7198 3.7691C21.6277 3.22679 21.2696 2.63332 20.891 2.38774C20.7068 2.27519 20.5329 2.10124 20.5022 1.99892C20.3999 1.72265 20.2771 1.78404 19.6427 2.41844C19.0799 2.97098 18.8139 3.46213 18.8139 3.98397C18.8139 4.117 18.6194 4.15792 17.6678 4.21932C16.0614 4.31141 13.841 4.64907 12.8792 4.94581C12.7768 4.97651 12.6745 4.88441 12.5824 4.67977C12.4494 4.38303 11.815 3.98397 11.4773 3.97374C11.2522 3.97374 11.0067 4.58768 11.0578 5.04813L11.109 5.47788L10.2699 5.85648C8.92951 6.46018 7.60955 7.38108 6.59656 8.39407C5.92123 9.0694 5.66542 9.27405 5.60403 9.17172C5.55287 9.1001 5.51194 9.00801 5.51194 8.95685C5.51194 8.91592 5.8803 8.51686 6.34075 8.06664C7.22073 7.18667 8.94998 5.97926 9.85041 5.60067L10.403 5.37556L10.3927 4.89465C10.3825 4.56721 10.4541 4.31141 10.5871 4.117C10.6895 3.95328 10.8327 3.69747 10.9043 3.53376C10.976 3.38027 11.0783 3.25748 11.1499 3.25748C11.508 3.25748 12.5517 3.75887 12.8587 4.0863L13.2168 4.44443L14.148 4.26025C14.9461 4.10676 17.6781 3.7691 18.1488 3.7691C18.2409 3.7691 18.3432 3.59515 18.4148 3.29842C18.5376 2.82773 18.7627 2.55146 19.7143 1.69195C20.185 1.27243 20.185 1.27243 20.451 1.41568ZM23.6332 5.09929C26.1913 5.35509 29.0256 6.11228 30.5707 6.95133C31.3279 7.37085 32.5967 8.24059 32.8116 8.50663C32.9037 8.60895 32.7502 8.83406 32.2079 9.45823C31.0312 10.7782 30.6833 11.2386 30.6833 11.5047V11.7503L30.2944 11.5047C28.6573 10.4815 26.7643 9.85728 24.0835 9.47869C22.651 9.27405 17.5348 9.30474 16.0512 9.52985C13.9228 9.84705 12.1322 10.4201 10.6997 11.2489C10.2904 11.4842 9.92204 11.6991 9.87088 11.7298C9.82995 11.7503 9.81972 11.6889 9.85041 11.5865C9.93227 11.3205 9.6867 10.9521 8.58161 9.72427L7.64025 8.66011L7.87559 8.4043C8.27465 7.98478 9.57414 7.14574 10.5667 6.67506C12.122 5.94857 14.0559 5.44719 16.4604 5.15045C17.7804 4.98674 22.2007 4.95604 23.6332 5.09929ZM36.9761 7.65735C36.045 8.89545 35.2571 9.90845 35.2264 9.90845C35.0524 9.90845 35.2878 9.48892 35.9222 8.67035C36.8124 7.5141 37.0273 7.11504 37.0273 6.63413C37.0273 6.29646 37.0784 6.25554 37.7742 5.85648C38.1733 5.62114 38.5519 5.42672 38.5928 5.41649C38.6337 5.40626 37.9072 6.41925 36.9761 7.65735ZM3.68037 6.76715C3.77246 7.35038 3.86455 7.52433 4.6729 8.57825C5.04126 9.05917 5.37892 9.49916 5.43008 9.57078C5.48124 9.63218 5.48124 9.71404 5.41985 9.74473C5.33799 9.79589 2.58552 6.28623 2.19669 5.62114C2.14553 5.54951 2.4525 5.67229 2.86179 5.90764C3.58828 6.30669 3.61898 6.33739 3.68037 6.76715ZM7.68118 9.50939C8.74533 10.6452 9.21601 11.2386 9.0523 11.2386C8.75556 11.2386 8.48952 11.6275 8.26441 12.3847C8.01884 13.2237 7.64025 13.9502 7.40491 14.032C7.25142 14.0934 7.23096 14.0423 7.10817 13.2851C7.06724 13.0907 6.94445 12.6916 6.82167 12.4153L6.59656 11.8935L5.64496 11.9344C4.65243 11.9856 4.52964 11.9242 4.90824 11.5865C5.03102 11.4842 5.28683 11.0647 5.48124 10.6759C5.67566 10.2768 5.95193 9.81636 6.07471 9.64241C6.29982 9.3559 6.85236 8.99778 7.08771 8.98755C7.1491 8.98755 7.41514 9.22289 7.68118 9.50939ZM33.8348 9.13079C34.2748 9.36614 34.6227 9.79589 35.0729 10.6963C35.298 11.1568 35.5845 11.5968 35.7073 11.6889C35.9119 11.8321 35.9222 11.8526 35.7585 11.914C35.6664 11.9549 35.2161 11.9549 34.7557 11.9344L33.9371 11.8833L33.6813 12.4563C33.5381 12.7735 33.405 13.2749 33.3743 13.5614C33.3436 13.8581 33.2823 14.1037 33.2311 14.1037C33.0162 14.1037 32.5251 13.2953 32.3204 12.5893C32.0544 11.6889 31.8804 11.3717 31.5939 11.2898C31.4814 11.2489 31.3995 11.1772 31.42 11.1261C31.4814 10.9624 33.3539 8.98755 33.4562 8.98755C33.5176 8.98755 33.6813 9.04894 33.8348 9.13079ZM4.84684 10.8191C4.6729 11.1772 3.91571 11.9549 3.75199 11.9549C3.70083 11.9549 3.87478 11.5456 4.15105 11.034C4.62174 10.1336 4.6422 10.1233 4.82638 10.3075C5.01056 10.4815 5.01056 10.5121 4.84684 10.8191ZM19.5301 10.5019L19.8064 10.8396L20.0724 10.5326C20.318 10.2359 20.3385 10.2256 20.3999 10.4201C20.4306 10.5326 20.5431 10.6656 20.6454 10.727C20.7887 10.7987 20.8501 10.768 20.9422 10.5838C21.1161 10.1847 21.6584 10.0722 23.0091 10.1438C26.1606 10.3177 28.9642 11.3717 31.2767 13.2646C31.686 13.6023 31.7065 13.633 31.5428 13.8069C31.3791 13.9911 31.3586 13.9809 30.8981 13.6023C29.6396 12.5688 27.6954 11.5251 26.2834 11.1465C24.4928 10.6554 21.9552 10.461 21.4947 10.7884C21.3719 10.8703 21.2696 11.034 21.2696 11.1465C21.2696 11.4024 21.065 11.3921 20.6454 11.1056C20.3078 10.8805 20.2873 10.8703 20.0417 11.0442C19.8985 11.1465 19.6836 11.2489 19.5608 11.2898C19.3664 11.341 19.3255 11.3103 19.3255 11.1465C19.3255 10.6042 18.1692 10.4712 16.0819 10.7884C13.8615 11.1159 11.7229 11.9754 10.0755 13.2237C9.25694 13.8479 9.19555 13.8683 9.04206 13.6944C8.88858 13.5204 8.92951 13.4693 9.77879 12.8349C11.375 11.6275 13.4931 10.727 15.5395 10.3791C16.9721 10.1438 17.0334 10.1336 18.1897 10.154L19.2436 10.1643L19.5301 10.5019ZM36.3622 11.0442C36.618 11.5047 36.8021 11.9037 36.7715 11.9344C36.6794 12.0265 35.5947 10.8396 35.5947 10.6452C35.5947 10.4917 35.7687 10.2154 35.8608 10.2154C35.8812 10.2154 36.0961 10.594 36.3622 11.0442ZM18.6297 11.1465C18.7934 11.2284 18.8241 11.3205 18.7729 11.5558C18.7218 11.8116 18.7422 11.8526 18.9469 11.8526C19.0799 11.8526 19.4483 11.7809 19.7757 11.6991C20.1952 11.5865 20.4203 11.5763 20.5636 11.6479C20.6659 11.7093 21.0036 11.7707 21.2901 11.7809C21.8221 11.8014 21.8324 11.7912 21.8017 11.5251C21.7505 11.0954 22.0575 10.9931 23.183 11.0749C25.782 11.2591 28.3298 12.1493 30.0898 13.4795C31.287 14.3902 31.3586 14.0627 29.3735 16.6413C28.4219 17.8691 27.3271 19.3221 26.9383 19.8644C26.1708 20.9286 25.8434 21.1741 25.4137 20.9797C25.0248 20.7956 24.7179 20.243 23.7356 17.9101C22.7021 15.4339 22.4975 15.0962 21.771 14.513C21.0854 13.9706 20.6352 13.8683 19.2743 13.9195C18.1181 13.9706 17.5246 14.1548 17.1869 14.5539C17.1051 14.646 16.8595 14.8097 16.6242 14.912C16.1535 15.1167 15.6828 15.5566 15.5805 15.8636C15.5088 16.1092 15.6112 16.7334 15.7442 16.8152C15.8056 16.8561 15.8465 16.805 15.8465 16.7129C15.8465 16.5901 15.8977 16.5594 16.0102 16.6003C16.1023 16.631 16.3581 16.6617 16.5832 16.6617C16.9414 16.6617 17.0539 16.7334 17.5962 17.2654C18.0567 17.7259 18.1795 17.9203 18.1283 18.0635C18.0464 18.2887 15.1507 21.1639 15.0177 21.1639C14.721 21.1639 14.3117 20.683 11.989 17.6133L9.46159 14.2776L9.81972 13.9706C10.2802 13.5716 11.3648 12.8656 12.0196 12.5381C13.9433 11.5661 17.8725 10.7373 18.6297 11.1465ZM5.22544 12.3335L6.20773 12.3949L6.43284 12.9679C6.55563 13.2851 6.67842 13.8479 6.70911 14.2367C6.77051 14.8813 6.78074 14.9222 6.98538 14.8609C7.10817 14.8302 7.36398 14.6869 7.57885 14.5539L7.94721 14.3185L8.36674 14.8711C8.60208 15.1781 8.78626 15.4543 8.78626 15.4748C8.78626 15.5055 8.48952 16.1399 8.1314 16.8868C7.31282 18.5854 6.71935 20.2123 6.27936 21.9313C5.75751 23.9778 5.40962 26.2903 5.40962 27.7637C5.40962 28.8586 5.37892 28.8586 4.23291 28.1628C3.6906 27.8353 2.66738 27.1293 1.96135 26.5972L0.682321 25.6456L0.753946 24.7043C1.10184 19.9156 2.00228 15.6999 3.32224 12.7735C3.59851 12.1595 3.61898 12.1391 3.91571 12.2107C4.08966 12.2414 4.68313 12.3028 5.22544 12.3335ZM37.457 13.3567C38.6951 16.4878 39.5444 20.6011 39.7593 24.4382L39.8207 25.6354L39.1146 26.1982C37.9584 27.1191 35.5333 28.7358 35.3082 28.7358C35.2673 28.7358 35.1752 27.9888 35.1036 27.0679C34.8273 23.3025 34.0292 20.2737 32.4534 16.9585L31.7883 15.5566L32.2181 14.9836C32.4534 14.6664 32.6683 14.4106 32.6786 14.4106C32.699 14.4106 32.9139 14.5232 33.1492 14.6664C33.3948 14.8097 33.6301 14.9222 33.6711 14.9222C33.7018 14.9222 33.7632 14.6357 33.8041 14.2776C33.845 13.9297 33.978 13.3669 34.1008 13.0293L34.3157 12.4153L35.3287 12.3437C35.8812 12.3028 36.3826 12.2516 36.4543 12.2209C36.8942 12.047 36.9761 12.1391 37.457 13.3567ZM10.2904 16.0273C11.5183 17.6952 11.9071 18.3603 11.1908 17.5315C10.3416 16.5594 8.28488 13.766 8.34627 13.6637C8.42813 13.5307 8.66347 13.8172 10.2904 16.0273ZM32.2181 13.8274C32.2181 14.0013 30.1717 16.7334 29.5577 17.378C29.1996 17.7566 29.1587 17.7873 29.3224 17.5212C29.6293 16.9892 32.0544 13.7046 32.1465 13.6944C32.1874 13.6944 32.2181 13.7558 32.2181 13.8274ZM20.8705 14.4413C21.065 14.5232 21.3105 14.6869 21.4128 14.8097C21.6073 15.0246 21.6073 15.0246 21.3617 15.0246C21.1468 15.0348 21.157 15.0553 21.4845 15.2292C21.6994 15.3418 22.0268 15.6283 22.2417 15.8636C22.5896 16.2831 22.5998 16.3036 22.3951 16.3548C22.1803 16.4059 22.1803 16.4059 22.4361 16.6515C22.743 16.938 22.7737 17.071 22.5384 17.071C22.4156 17.071 22.4361 17.1426 22.651 17.3882C22.9682 17.777 23.2854 18.391 23.6742 19.3937C23.8584 19.8849 24.0016 20.11 24.0937 20.0691C24.2369 20.0179 24.5337 20.5295 24.9327 21.563C25.1374 22.1257 25.1988 22.4634 25.2295 23.5685C25.2806 25.001 25.1476 26.6689 24.9634 26.7814C24.902 26.8223 24.7895 27.2419 24.6974 27.7228C24.5235 28.746 24.2983 29.4111 24.1449 29.3804C24.0937 29.3599 23.9914 29.5441 23.93 29.7897C23.6946 30.7106 23.5207 31.2734 23.357 31.652C23.2035 32.0203 23.183 32.0408 23.0602 31.8771C22.8965 31.652 22.8556 31.7236 22.7533 32.2659C22.7226 32.491 22.5998 32.8389 22.4975 33.0333L22.3031 33.3914L22.2928 32.9822L22.2826 32.5729L22.0984 33.1049C21.9961 33.3914 21.8324 33.7598 21.73 33.9133L21.5459 34.1998L21.4435 33.9747C21.3003 33.6473 21.198 33.6984 21.1161 34.1282C21.0343 34.5579 20.6659 35.3867 20.5636 35.3867C20.5226 35.3867 20.4203 35.1719 20.3385 34.9058C20.1441 34.2817 19.9394 34.21 19.9394 34.7626C19.9394 34.9979 19.8985 35.1821 19.8575 35.1821C19.7245 35.1821 19.2538 34.2714 19.172 33.8519L19.0901 33.4938L18.9673 33.8519L18.8343 34.21L18.6706 33.8212C18.5785 33.6166 18.4762 33.2277 18.4353 32.9719C18.3739 32.5217 18.3636 32.5115 18.2511 32.7264L18.1283 32.9617L17.9646 32.7161C17.8725 32.5831 17.7497 32.3478 17.6781 32.1943C17.586 31.9794 17.5246 31.9385 17.4223 32.0203C17.3097 32.1124 17.2279 32.0101 17.0334 31.5599C16.7265 30.8641 16.0921 28.9302 15.9386 28.2242C15.8772 27.9274 15.7749 27.7126 15.693 27.7126C15.4986 27.7126 15.1814 25.2364 15.1916 23.8243C15.2121 22.0848 15.4679 21.4811 16.7162 20.1509C16.9925 19.8542 17.453 19.4142 17.7292 19.1891C18.1692 18.8207 18.2204 18.8003 18.1488 19.0151C18.0771 19.23 18.1385 19.1993 18.5683 18.831C18.8753 18.5649 19.0901 18.4524 19.1311 18.524C19.2027 18.6366 19.6734 18.3603 19.9394 18.0431C20.011 17.9612 20.1747 17.8896 20.318 17.8896C20.451 17.8896 20.6659 17.8384 20.7887 17.7668L21.0138 17.644L20.758 17.5724C20.5022 17.5008 20.5022 17.5008 20.8398 17.378C21.2491 17.2245 21.2594 17.1222 20.8501 16.9789C20.584 16.8868 20.5431 16.8971 20.5943 17.0199C20.6864 17.2859 20.3999 17.1938 19.3869 16.6617C18.8548 16.3752 18.3841 16.1501 18.3329 16.1501C18.292 16.1501 18.5069 16.4059 18.8139 16.7231C19.3766 17.2961 19.3766 17.3064 19.0594 17.245C18.8753 17.2143 18.5581 17.0608 18.3534 16.9175C18.1385 16.7743 17.8623 16.6617 17.7292 16.6617C17.5962 16.6617 17.4837 16.6208 17.4837 16.5696C17.4837 16.5185 17.3813 16.4571 17.2586 16.4264L17.0232 16.3855L17.2688 16.2831L17.5246 16.1808L17.2381 16.1092C16.8697 16.0171 16.2865 16.1297 16.2149 16.3138C16.1842 16.3957 16.1125 16.4571 16.0512 16.4571C15.867 16.4571 15.9386 15.9864 16.1637 15.6999C16.3581 15.4441 16.399 15.4339 16.5525 15.5771C16.7572 15.7715 16.9721 15.8022 16.7879 15.618C16.5832 15.4134 16.6446 15.2599 17.0028 15.1269C17.1767 15.0553 17.4325 14.9018 17.5553 14.7892C17.9953 14.3902 18.7934 14.1958 19.6938 14.2469C20.1543 14.2776 20.6864 14.3595 20.8705 14.4413ZM30.7754 19.2914C32.5251 21.1946 33.6506 24.0801 33.6506 26.6279C33.6506 27.4363 33.5585 27.9172 33.405 27.9172C33.3334 27.9172 33.2413 28.2753 33.1595 28.8074C33.006 29.9432 32.7399 30.7822 32.6069 30.5367C32.5558 30.4446 32.4841 30.1376 32.4534 29.8511L32.392 29.319L32.2283 29.7181C32.1362 29.933 31.9725 30.2808 31.8702 30.4753L31.6656 30.8334L31.5939 30.5776C31.553 30.4343 31.5223 30.066 31.5121 29.759L31.5018 29.1962L31.1949 29.7283C31.0209 30.025 30.847 30.2706 30.7958 30.2706C30.6628 30.2706 30.5912 29.9227 30.5093 28.9404C30.4377 28.0911 30.4377 28.0809 30.3661 28.5721C30.2637 29.2167 30.2126 29.3497 30.0284 29.3497C29.8238 29.3497 29.7726 28.8279 29.8749 27.7228C29.9261 27.1907 29.9465 26.7405 29.9261 26.72C29.834 26.6279 29.5577 28.3367 29.5577 29.0223C29.5577 30.0046 29.66 30.2092 29.9875 29.892L30.2126 29.6567L30.3456 30.2808C30.4172 30.6287 30.4991 30.9357 30.5298 30.9664C30.5605 30.9971 30.714 30.8948 30.8674 30.7515C31.2051 30.4241 31.2972 30.4753 31.2972 30.9766C31.2972 31.611 31.4302 31.6622 31.7986 31.1813C31.9725 30.9357 32.1158 30.6901 32.126 30.639C32.126 30.5776 32.2079 30.8027 32.3 31.1301C32.392 31.4678 32.5251 31.7543 32.5967 31.7748C32.8013 31.8464 33.2925 30.1888 33.4767 28.7869C33.5074 28.5516 33.5176 28.5823 33.5381 28.9097C33.5892 30.4139 32.1362 44.5037 31.9009 44.739C31.8497 44.8004 31.8088 44.4218 31.8088 43.7976C31.8088 43.2349 31.7577 42.5288 31.6963 42.2526C31.6144 41.8433 31.6553 41.0042 31.9111 37.9857C32.0851 35.929 32.2079 34.2203 32.1874 34.1896C32.1362 34.1486 31.9214 35.4993 31.5939 37.8936C31.4405 39.0192 31.3688 40.0117 31.3791 41.0656C31.3791 41.9047 31.3893 42.9177 31.3893 43.3167C31.3995 44.1865 31.5735 45.4041 31.7167 45.5781C31.7883 45.6701 31.7883 45.885 31.7065 46.3045C31.5837 46.8673 31.5735 46.8775 31.4507 46.6422C31.246 46.2534 31.0926 45.2609 31.0926 44.3502C31.0926 43.8897 31.0209 43.2963 30.9391 43.02C30.7242 42.3242 30.7447 41.4749 31.0414 37.8629C31.1949 36.1439 31.2972 34.6193 31.2767 34.4761C31.2051 33.8314 30.6833 37.7811 30.4786 40.4824C30.3763 41.8637 30.4479 43.0814 30.6526 43.4088C30.7549 43.5623 30.7549 45.2199 30.6628 45.1278C30.2228 44.6878 30.0489 40.2471 30.3149 36.5634C30.407 35.3253 30.4991 34.077 30.5298 33.8007L30.5707 33.2891L30.4377 33.8314C30.3558 34.1179 30.2228 34.9979 30.1307 35.7756C30.0386 36.543 29.9363 37.4025 29.8954 37.689L29.834 38.2006L29.6907 37.7913C29.4145 37.0034 29.4145 35.0593 29.7112 32.8287L29.7624 32.4705L29.66 32.7775C29.4759 33.2994 29.1484 34.9774 29.1484 35.3765C29.1484 35.97 28.9949 36.0723 28.8517 35.5812C28.6982 35.0695 28.688 33.5859 28.8312 32.5729C28.9745 31.6008 28.9642 31.3552 28.7903 31.8157C28.5959 32.3478 28.4322 33.1766 28.3503 34.1179L28.2787 34.9263L28.0843 34.6398C27.808 34.2305 27.7568 33.1049 27.9615 31.9589C28.0433 31.4473 28.1457 30.8743 28.1764 30.6799L28.2275 30.3218L28.0638 30.6799C27.7773 31.2938 27.5113 32.3375 27.4396 33.1356L27.3782 33.9031L27.1838 33.4938C26.9178 32.931 26.9894 31.4064 27.3476 30.0353C27.6545 28.8893 27.6648 28.7869 27.4601 29.1451C27.2657 29.4827 26.7336 31.1301 26.6415 31.7031L26.5597 32.1636L26.4573 31.8055C26.3039 31.2427 26.4471 30.025 26.8359 28.6335C27.0304 27.9274 27.1224 27.4465 27.0406 27.5591C26.8155 27.866 26.2732 29.3292 26.1299 30.0455C25.9253 31.0176 25.8434 30.9562 25.9048 29.8613C25.956 28.879 26.4471 27.1089 26.8871 26.2903L27.0713 25.9424L27.1429 26.2903C27.2248 26.6382 27.2248 26.6382 27.368 26.0345C27.4499 25.707 27.7466 24.9192 28.0229 24.2848C28.3094 23.6504 28.5345 23.0671 28.5447 22.9955C28.5447 22.8829 28.5652 22.8829 28.6061 22.975C28.6266 23.0466 28.688 23.108 28.7391 23.108C28.8312 23.108 29.394 21.8188 29.5066 21.3379C29.5986 21.0002 29.7317 20.9797 29.7828 21.2867C29.8135 21.4709 29.8545 21.4197 29.9568 21.0616C30.2023 20.2021 29.9261 19.4244 29.3633 19.4244C29.1587 19.4244 28.8824 19.6495 28.1764 20.3965C27.1634 21.4607 26.6313 21.7779 25.8741 21.7676H25.4137L25.8434 21.6346C26.5392 21.4095 26.9178 21.123 27.9308 20.0281C29.3735 18.4626 29.8851 18.3296 30.7754 19.2914ZM11.2113 18.8207C11.3648 18.8719 12.0503 19.4961 12.7257 20.1816C13.8205 21.3072 14.0149 21.4709 14.5675 21.6551C15.0791 21.829 15.1303 21.8699 14.8642 21.8699C14.6903 21.8802 14.3014 21.8085 13.9945 21.7165C13.5136 21.5732 13.3191 21.4197 12.4596 20.5397C11.6308 19.6905 11.4262 19.5268 11.1601 19.5268C10.7304 19.5268 10.5257 19.844 10.5257 20.4988C10.5257 20.7751 10.5564 21.123 10.5974 21.256L10.6588 21.4913L10.7815 21.2662C10.9043 21.0309 10.9146 21.0411 11.0374 21.43C11.2829 22.2281 11.7843 23.2206 11.8662 23.0876C11.9276 22.9955 11.9685 23.016 12.0196 23.1592C12.0606 23.2718 12.2857 23.8038 12.521 24.3359C12.9406 25.2773 13.0838 25.6866 13.2373 26.3312L13.3191 26.6382L13.4419 26.3414C13.5647 26.0549 13.5647 26.0549 13.9228 26.9554C14.5265 28.4595 14.8335 30.0762 14.6391 30.7311C14.5572 31.0176 14.547 30.9971 14.4856 30.4753C14.4038 29.7897 14.0354 28.6642 13.6568 27.9684C13.5033 27.6819 13.401 27.5386 13.4317 27.6409C13.9842 29.4623 14.2503 30.9562 14.148 31.611C14.0763 32.0408 13.9024 32.1636 13.9024 31.7748C13.9024 31.3348 13.2066 29.2372 12.9815 29.012C12.9406 28.9609 13.0326 29.4623 13.1964 30.1274C13.575 31.6827 13.6568 32.4603 13.4931 33.1152C13.3089 33.9031 13.1452 33.9542 13.1043 33.2584C13.0736 32.5626 12.7666 31.3041 12.4699 30.6799C12.3573 30.4241 12.2857 30.3115 12.3062 30.4241C12.5517 31.5189 12.7871 33.371 12.7359 33.7803C12.6643 34.251 12.388 34.9774 12.2755 34.9774C12.2448 34.9774 12.2038 34.6705 12.1834 34.2817C12.1527 33.3608 11.7229 31.2938 11.5899 31.4269C11.5694 31.4473 11.6206 31.9896 11.7127 32.6343C11.8969 33.9542 11.8662 35.397 11.6308 35.837C11.4773 36.1337 11.4773 36.1235 11.4057 35.4481C11.3239 34.6602 10.9657 32.8184 10.8736 32.7366C10.8327 32.7059 10.8327 32.9719 10.8736 33.3301C11.1499 35.8063 11.1294 37.1569 10.8225 37.8936C10.669 38.2518 10.6997 38.4053 10.4746 36.2565C10.3109 34.7933 10.0448 33.2584 10.0244 33.6984C10.0141 33.811 10.0858 34.7626 10.1778 35.796C10.3927 38.2108 10.4234 42.6926 10.2392 43.8079C10.1574 44.2479 10.0346 44.7799 9.96297 44.9846C9.82995 45.3632 9.81972 45.3529 9.81972 44.5753C9.80948 44.1455 9.88111 43.5009 9.9732 43.1428C10.1676 42.3958 10.1267 40.3494 9.86064 37.9448C9.69693 36.4407 9.29787 33.9235 9.22625 33.9952C9.20578 34.0156 9.27741 35.2026 9.38996 36.6248C9.79925 41.6079 9.81972 42.0991 9.656 42.9484C9.58437 43.3781 9.47182 44.2786 9.41043 44.9539C9.26717 46.6729 9.01137 47.3073 8.84765 46.3659C8.80672 46.1511 8.74533 45.8953 8.71463 45.7827C8.68394 45.6701 8.7044 45.619 8.76579 45.6599C8.92951 45.7622 9.00114 45.3529 9.12392 43.7772C9.27741 41.6591 9.24671 40.1652 9.00114 38.3029C8.7044 36.0007 8.43836 34.384 8.39743 34.5989C8.37697 34.7012 8.47929 36.2155 8.63278 37.9755C8.81696 40.1038 8.88858 41.4238 8.83742 41.9354C8.80672 42.3549 8.77603 42.9074 8.77603 43.1632C8.78626 43.7465 8.68394 44.9334 8.62254 44.8823C8.42813 44.6776 6.82167 28.7255 6.98538 28.5618C7.00585 28.5311 7.06724 28.7358 7.09794 29.012C7.28212 30.3422 7.76303 31.9078 7.97791 31.9078C8.01884 31.9078 8.11093 31.7134 8.17232 31.4678C8.39743 30.6083 8.36674 30.6287 8.69417 31.1301C8.85788 31.3859 9.03183 31.6008 9.08299 31.6008C9.17508 31.6008 9.29787 31.1097 9.29787 30.7004V30.4343L9.61507 30.7413C9.92204 31.0278 9.93227 31.0278 10.0755 30.8436C10.1574 30.7311 10.2188 30.4446 10.2188 30.199C10.2188 29.7385 10.3109 29.6567 10.5257 29.9125C10.9043 30.3627 11.109 29.7897 10.9964 28.5925C10.9657 28.1935 10.8736 27.6307 10.7918 27.3544C10.6485 26.853 10.6485 26.853 10.6997 27.8763C10.7713 29.1348 10.7099 29.5032 10.4337 29.3599C10.2904 29.2781 10.229 29.0734 10.1574 28.5107L10.0755 27.7637L10.0141 28.9609C9.9425 30.3934 9.84018 30.5776 9.45135 29.9636C9.3081 29.7283 9.14439 29.4418 9.10346 29.319C9.04206 29.1655 9.01137 29.3395 9.01137 29.8511C9.01137 30.8641 8.87835 30.9562 8.50999 30.1785L8.20302 29.5441L8.08023 30.1171C8.00861 30.4241 7.91652 30.6799 7.87559 30.6799C7.76303 30.6799 7.497 29.6771 7.35374 28.746C7.28212 28.2753 7.1798 27.9377 7.07747 27.866C6.81144 27.6614 6.94445 25.0726 7.29235 23.8755C7.95745 21.563 9.85041 18.7286 10.7508 18.7082C10.8429 18.7082 11.0476 18.7593 11.2113 18.8207ZM27.9717 23.1183C27.8796 23.3945 27.7773 23.6197 27.7466 23.6197C27.6648 23.6197 27.808 22.5146 27.9513 22.0337L28.074 21.6244L28.1047 22.1155C28.1252 22.3918 28.0638 22.8318 27.9717 23.1183ZM12.7768 23.1592C12.7666 23.4764 12.7461 23.5276 12.6643 23.3945C12.5108 23.1285 12.3471 22.0848 12.4289 21.9006C12.521 21.6755 12.7768 22.5964 12.7768 23.1592ZM25.956 23.2001C25.9764 23.5276 25.9457 23.8857 25.8843 23.988C25.7923 24.1517 25.782 24.1313 25.7718 23.8243C25.7718 23.6299 25.7411 23.2104 25.7104 22.9034C25.6592 22.4429 25.6695 22.3611 25.782 22.4634C25.8536 22.535 25.9355 22.8625 25.956 23.2001ZM27.2555 23.9369C27.0201 25.134 26.8769 25.3694 26.9485 24.4587C27.0201 23.5992 27.3271 22.5043 27.3885 22.8829C27.4089 23.016 27.3476 23.4866 27.2555 23.9369ZM13.3703 23.1797C13.4317 23.3945 13.5136 23.7629 13.5443 23.9982C13.575 24.2438 13.6159 24.6326 13.6466 24.868C13.6773 25.1033 13.6773 25.2773 13.6466 25.2364C13.4624 25.0522 13.0326 22.8011 13.1861 22.8011C13.2271 22.8011 13.3089 22.975 13.3703 23.1797ZM26.222 25.7173C26.089 26.28 25.8843 27.3544 25.7718 28.1116C25.6592 28.8688 25.5467 29.5134 25.5057 29.5441C25.3727 29.6669 25.5569 26.8326 25.7206 26.2289C25.8741 25.6866 26.3755 24.602 26.4471 24.6633C26.4573 24.6838 26.355 25.1545 26.222 25.7173ZM14.7312 25.9731C15.0075 26.8735 15.1814 28.6539 15.0484 29.2474C14.9665 29.6158 14.9461 29.6464 14.9358 29.4111C14.9154 28.8074 14.5982 26.9144 14.3526 25.9219C14.2196 25.3591 14.107 24.8475 14.107 24.7964C14.107 24.5508 14.5368 25.3694 14.7312 25.9731ZM16.0819 30.2399C16.2149 30.4548 16.3581 30.7208 16.399 30.8334C16.4604 31.0073 16.4297 30.9971 16.2046 30.7822C15.9898 30.5571 15.6726 29.8613 15.8056 29.8613C15.826 29.8613 15.9488 30.0353 16.0819 30.2399ZM15.9181 31.5189C16.0716 31.8668 16.1023 31.8873 16.266 31.7543C16.4195 31.611 16.44 31.6213 16.5628 31.9078C16.6344 32.0817 16.8288 32.4092 17.0028 32.6445C17.2893 33.0436 17.32 33.0538 17.4427 32.8798C17.5655 32.7059 17.5962 32.7366 17.7804 33.1766C17.893 33.4324 18.0567 33.9133 18.1488 34.2407C18.3329 34.9161 18.466 36.7579 18.3636 37.1774C18.292 37.4434 18.2818 37.4537 18.1385 37.2695C17.9953 37.0955 17.985 37.1365 18.0157 37.7606C18.0464 38.2313 18.0157 38.4564 17.9441 38.4564C17.8725 38.4564 17.5962 38.3439 17.32 38.2006C17.0437 38.0574 16.8083 37.9448 16.7981 37.9448C16.7879 37.9448 16.7469 38.1085 16.706 38.3029C16.6549 38.569 16.6958 38.7122 16.8595 38.9271C17.1051 39.2443 17.1255 39.4592 16.9209 39.715C16.7879 39.8992 16.7776 39.8992 16.6651 39.6945C16.5628 39.4899 16.2558 39.3875 16.2558 39.5513C16.2558 39.6024 16.1637 40.1857 16.0512 40.8508C15.867 41.9865 15.7647 42.2321 15.4781 42.2423C15.4168 42.2423 15.3861 42.3754 15.4168 42.5493C15.4679 42.9381 15.2633 42.9586 15.1712 42.5698C15.1405 42.4163 15.0791 42.1912 15.0279 42.0786C14.9665 41.9251 15.0177 41.6386 15.1916 41.1577C15.6112 39.9401 15.4475 39.6024 14.854 40.4824C14.5061 40.9838 14.4345 41.2191 14.6289 41.2191C14.7107 41.2191 14.7107 41.2703 14.6186 41.3726C14.547 41.4545 14.4549 41.4954 14.4038 41.4647C14.3526 41.434 14.3117 41.4545 14.3117 41.5056C14.3117 41.7307 13.9535 41.741 13.7796 41.5261C13.5545 41.2396 13.667 40.8712 14.1991 40.1959C14.4345 39.9094 14.6186 39.5717 14.6186 39.4592C14.6186 39.2648 14.5675 39.2545 13.9535 39.2955C13.2578 39.3364 13.0429 39.4285 13.2884 39.5922C13.4215 39.674 13.4215 39.6945 13.2884 39.7866C13.0531 39.9401 12.7564 39.9094 12.4699 39.6945C12.2243 39.5001 12.2243 39.4899 12.4187 39.2852C12.521 39.1624 12.9201 38.9783 13.3089 38.8657C13.6875 38.7531 14.3219 38.569 14.7005 38.4564C15.4577 38.2415 15.7033 38.0471 15.8465 37.5457C15.9284 37.249 15.9181 37.2285 15.6828 37.2899C15.4475 37.3513 15.4372 37.3309 15.4168 36.7579C15.3963 35.9802 15.4372 35.1821 15.5088 34.9468C15.5498 34.7728 15.5293 34.7728 15.3247 34.8751L15.0996 34.9979L15.1609 33.944C15.2019 33.3608 15.2633 32.757 15.294 32.5933C15.3451 32.358 15.3349 32.3273 15.1916 32.3785C15.0382 32.4398 15.0279 32.3682 15.0791 31.7441C15.12 31.3552 15.1712 30.9255 15.1916 30.7925L15.2428 30.5367L15.4884 30.8436C15.6316 31.0073 15.8158 31.3143 15.9181 31.5189ZM25.1681 30.7004C25.1681 30.772 25.209 31.1915 25.2397 31.6213C25.3113 32.3171 25.2909 32.4194 25.1476 32.4194C25.0044 32.4194 24.9941 32.491 25.1067 33.1049C25.3318 34.3021 25.3727 34.9979 25.2192 34.9468C25.076 34.8854 24.9532 35.7346 24.9532 36.8602C24.9532 37.3513 24.9225 37.4434 24.7997 37.3923C24.7179 37.3616 24.5746 37.3002 24.4928 37.2695C24.37 37.2183 24.37 37.2695 24.4416 37.5355C24.5848 38.0369 24.7997 38.2108 25.5774 38.4462C25.9662 38.569 26.6006 38.7531 26.9894 38.8759C27.3885 38.9987 27.7875 39.1829 27.8899 39.2955C28.0638 39.4899 28.0638 39.5001 27.8182 39.6945C27.5317 39.9094 27.235 39.9401 26.9997 39.7866C26.8666 39.6945 26.8666 39.674 26.9997 39.5922C27.2043 39.4489 26.7132 39.275 26.1197 39.275C25.5262 39.275 25.5262 39.4796 26.089 40.1959C26.6313 40.8815 26.7439 41.2396 26.488 41.5465C26.3141 41.7614 26.2936 41.7717 26.1095 41.6182C26.0071 41.5261 25.8332 41.4238 25.7206 41.3726C25.5876 41.3214 25.5671 41.2805 25.649 41.2498C25.8434 41.1782 25.8025 41.0145 25.4444 40.4824C24.8407 39.6024 24.6769 39.9094 25.1067 41.127C25.2397 41.5363 25.3318 41.9047 25.2909 41.9661C25.2499 42.0275 25.1988 42.2423 25.1681 42.4368C25.0965 42.8767 24.8816 42.9791 24.902 42.5595C24.9123 42.3242 24.8713 42.2423 24.6872 42.2014C24.5132 42.1503 24.4314 42.0479 24.3904 41.7512C24.3597 41.5465 24.2779 41.0759 24.2267 40.7075C24.0425 39.5615 24.0221 39.4796 23.8584 39.4796C23.7765 39.4796 23.6844 39.5717 23.6537 39.6843C23.5821 39.9401 23.5309 39.9401 23.357 39.7047C23.1626 39.4592 23.183 39.2443 23.4286 38.9271C23.5923 38.7122 23.6332 38.569 23.5821 38.3029C23.5412 38.1085 23.49 37.9448 23.4593 37.9448C23.4286 37.9448 23.2854 38.0369 23.1319 38.1494C22.9784 38.2518 22.743 38.3746 22.5896 38.4053L22.3338 38.4666L22.3747 37.7709C22.4156 37.1467 22.3951 37.0955 22.2724 37.2695C22.1291 37.4537 22.1189 37.4332 22.0575 37.0034C21.9756 36.4407 22.1291 34.8956 22.3338 34.2407C22.4054 33.9747 22.6919 33.4733 22.9579 33.1152C23.2137 32.7673 23.5514 32.2864 23.6946 32.0408C23.9402 31.611 23.9607 31.6008 24.1449 31.7645C24.329 31.9282 24.3393 31.9282 24.3393 31.7543C24.3393 31.5496 24.9532 30.5878 25.0862 30.5776C25.1272 30.5776 25.1579 30.639 25.1681 30.7004ZM18.8139 34.7421C18.8139 34.9365 18.6297 34.9058 18.5069 34.6807C18.3329 34.343 18.3841 34.21 18.6092 34.4147C18.7218 34.517 18.8139 34.6602 18.8139 34.7421ZM21.6277 35.5812C21.4435 35.9597 20.5533 36.6555 20.5533 36.4304C20.5533 36.2872 21.2798 35.4891 21.3719 35.5402C21.4128 35.5709 21.5049 35.5198 21.5766 35.4379C21.7812 35.1923 21.8017 35.2537 21.6277 35.5812ZM19.8064 36.2667C19.7041 36.369 19.1208 35.796 19.1208 35.6016C19.1208 35.4993 19.2538 35.5709 19.4994 35.8165C19.7041 36.0314 19.8473 36.236 19.8064 36.2667ZM20.0622 37.382C20.2668 37.5764 20.3385 37.5969 20.3794 37.4843C20.451 37.3206 21.6789 36.4816 21.6789 36.6044C21.6789 36.7272 21.157 37.1774 20.6761 37.4741L20.2361 37.7504L19.7859 37.4332C19.3357 37.1262 18.9162 36.6658 18.9162 36.4816C18.9162 36.3997 19.3357 36.7272 20.0622 37.382ZM14.3628 37.5355V38.2518L14.0149 38.3541C13.8205 38.4053 13.6363 38.4359 13.6159 38.4155C13.5954 38.3848 13.5545 38.1801 13.5238 37.955C13.4931 37.7197 13.4215 37.5355 13.3805 37.5355C13.3294 37.5355 13.1145 37.689 12.9099 37.8732C12.2857 38.4053 12.0913 38.528 12.4187 38.1597C12.8178 37.7197 14.0149 36.8193 14.2093 36.8193C14.3321 36.8193 14.3628 36.9625 14.3628 37.5355ZM26.7029 37.1467C27.3169 37.5867 27.8285 38.0369 28.074 38.3439C28.1866 38.4973 28.0638 38.4257 27.808 38.1904C27.542 37.955 27.2452 37.7095 27.1224 37.6481C26.928 37.5457 26.9076 37.5764 26.8462 37.9448C26.7643 38.4462 26.7132 38.4769 26.2629 38.3439L25.8946 38.2518L25.9969 37.8425C26.0685 37.5662 26.0685 37.3411 25.9969 37.1262C25.8946 36.8602 25.9048 36.8193 26.0685 36.8193C26.1708 36.8193 26.4573 36.9625 26.7029 37.1467ZM20.8194 38.395C20.7273 38.5383 20.5533 38.7122 20.4306 38.7736C20.2464 38.8657 20.2771 38.8043 20.5533 38.4871C20.9422 38.0471 21.0854 37.996 20.8194 38.395ZM19.8473 38.3746C19.9599 38.5894 19.9599 38.5997 19.8064 38.4666C19.7041 38.395 19.6324 38.2927 19.6324 38.2415C19.6324 38.0881 19.7245 38.1392 19.8473 38.3746ZM18.4864 39.5001C18.4148 39.7354 18.292 39.8889 18.1692 39.9299C18.0464 39.9606 17.9441 39.9708 17.9339 39.9606C17.9032 39.9299 18.5478 39.0806 18.5785 39.1113C18.5888 39.1215 18.5478 39.2955 18.4864 39.5001ZM21.8221 39.5308C22.0779 39.8582 22.0779 39.8889 21.8938 39.8889C21.771 39.8889 21.6584 39.7764 21.5868 39.5717C21.4026 39.0396 21.4435 39.0396 21.8221 39.5308ZM19.172 39.848C19.1208 40.1857 19.0697 40.288 18.998 40.2164C18.9162 40.1345 18.9162 39.981 19.0083 39.674C19.172 39.1317 19.2641 39.2341 19.172 39.848ZM21.1263 40.4517C20.9933 40.7996 20.8603 40.5745 20.8705 40.0117L20.8808 39.4285L21.0343 39.8685C21.1161 40.1038 21.157 40.3698 21.1263 40.4517ZM20.4919 40.6359C20.5431 40.9019 20.5124 41.0861 20.3999 41.2396C20.2566 41.4545 20.2464 41.4238 20.2464 40.7075C20.2566 39.9196 20.3589 39.8889 20.4919 40.6359ZM19.0492 40.9224L19.6529 41.5363L18.9571 42.1707C18.5683 42.5186 17.8623 43.1632 17.3916 43.593C16.9107 44.033 16.4809 44.3911 16.4297 44.3911C16.3786 44.3911 16.2558 44.2888 16.1432 44.1558L15.9488 43.9307L17.3609 42.58C18.4762 41.5159 18.7218 41.2191 18.5888 41.168C18.3841 41.0861 18.2511 41.1884 16.7162 42.58C15.9386 43.286 15.5805 43.5521 15.5088 43.4804C15.427 43.3986 15.7544 42.9995 16.6139 42.1298C17.9748 40.7587 17.985 40.7075 16.9414 40.7075C16.5014 40.7075 16.3581 40.6768 16.3888 40.5745C16.4195 40.4926 16.6139 40.4619 16.9823 40.4824C17.2893 40.4926 17.6781 40.4619 17.8418 40.4108C18.3636 40.2471 18.425 40.2778 19.0492 40.9224ZM19.7552 40.6563C19.7859 40.9633 19.7757 40.994 19.6529 40.8712C19.5608 40.7894 19.5403 40.6461 19.5813 40.5131C19.6734 40.2164 19.7041 40.2471 19.7552 40.6563ZM23.3979 40.4619C23.8174 40.4108 23.93 40.4312 23.93 40.5438C23.93 40.7382 23.7049 40.8098 23.1012 40.8098C22.8249 40.8098 22.5998 40.8405 22.5998 40.8917C22.5998 40.9326 23.1114 41.4749 23.7253 42.0889C24.3495 42.7028 24.8509 43.2963 24.8509 43.3884C24.8509 43.4907 24.8202 43.5725 24.7895 43.5725C24.7076 43.5725 23.6435 42.6414 22.6816 41.741C22.2417 41.3317 21.9347 41.1168 21.8324 41.1577C21.7505 41.1884 21.6789 41.2498 21.6789 41.301C21.6789 41.3419 22.2928 41.9558 23.05 42.6516L24.4211 43.9307L24.1551 44.2069L23.8993 44.4832L22.9784 43.6442C22.477 43.1837 21.7505 42.5186 21.3822 42.1707L20.7068 41.5363L21.331 40.9224L21.9552 40.3084L22.4054 40.421C22.651 40.4722 23.1012 40.4926 23.3979 40.4619ZM27.675 42.1707C28.8108 43.7056 30.1 45.9362 29.9363 46.0897C29.8135 46.2125 29.2712 46.0078 28.9131 45.7111C28.7084 45.5371 28.1661 44.9027 27.7057 44.2786C27.2452 43.6646 26.8564 43.1632 26.8359 43.1632C26.7541 43.1632 27.1122 43.9307 27.542 44.6878C27.7773 45.1074 28.2582 45.7622 28.5959 46.1408C29.4656 47.0822 29.6089 47.5631 28.9131 47.2357C28.3298 46.9594 27.542 46.1511 26.8359 45.1074C26.4573 44.5446 26.1197 44.1046 26.0992 44.1353C25.9457 44.2786 27.3169 46.6524 27.808 47.0924C28.2685 47.5017 27.9922 47.5222 27.2145 47.1231C26.4471 46.7241 26.396 46.6729 25.9662 45.9157C25.7206 45.4757 25.5057 45.1278 25.4955 45.1483C25.4751 45.1585 25.5569 45.445 25.6695 45.7725C25.782 46.0999 25.8536 46.3864 25.8332 46.4069C25.7616 46.4785 23.8891 45.7213 23.49 45.4553C23.1114 45.2097 23.1012 45.1892 23.2649 45.005C23.4081 44.8413 23.4798 44.8311 23.6946 44.9334C23.9198 45.0357 23.9914 44.9948 24.6053 44.3809C25.1988 43.7874 25.2704 43.6646 25.3113 43.2553C25.3318 43.0098 25.4034 42.5902 25.4751 42.3242L25.5978 41.8433L26.0481 41.9047C26.5085 41.9661 26.8973 41.7614 26.8973 41.4545C26.8973 41.1884 27.061 41.3317 27.675 42.1707ZM13.575 41.7921C13.6977 41.9149 13.8512 41.9456 14.2298 41.9047C14.6493 41.8535 14.721 41.874 14.721 42.0172C14.7312 42.1093 14.8028 42.3754 14.8847 42.6005C14.9768 42.8256 15.0382 43.1428 15.0382 43.2963C15.0279 43.5214 15.1609 43.7465 15.6009 44.2172C16.307 44.9846 16.399 45.046 16.6753 44.8925C16.8595 44.8004 16.9311 44.8106 17.0948 44.9846L17.3097 45.1892L16.9107 45.445C16.5116 45.7111 14.9256 46.3762 14.8642 46.3045C14.8437 46.2841 14.9154 46.0283 15.0279 45.7418C15.3554 44.8823 15.2633 44.8925 14.7619 45.7725C14.2912 46.5808 14.281 46.591 13.4317 47.0106C12.961 47.2357 12.5722 47.4096 12.5722 47.3892C12.5722 47.3687 12.8075 47.072 13.094 46.7241C13.5545 46.1511 14.6186 44.2069 14.6186 43.9307C14.6186 43.8795 14.3117 44.2888 13.9331 44.8516C13.1554 46.018 12.388 46.8264 11.7741 47.1436C11.2318 47.4199 11.2011 47.4096 11.2932 47.0822C11.3239 46.9287 11.6308 46.5194 11.9583 46.1613C12.6029 45.4757 13.2168 44.5241 13.6466 43.5214C13.974 42.7847 13.9638 42.7949 12.8587 44.2888C11.9992 45.4553 11.4671 45.9362 10.9043 46.0692C10.6383 46.1306 10.6178 46.1204 10.6792 45.9055C10.7918 45.5371 11.5285 44.2172 12.0913 43.3679C12.654 42.5186 13.3089 41.6284 13.3703 41.6284C13.3908 41.6284 13.4829 41.7 13.575 41.7921ZM21.2389 43.7772C22.0677 44.6265 22.9579 45.4757 23.2137 45.6701C23.4798 45.8646 24.3597 46.3045 25.1681 46.6422C27.2043 47.5119 29.0461 48.5249 28.8722 48.6989C28.5652 48.9956 25.3011 49.0877 23.8993 48.8421C21.6891 48.4533 20.318 47.6347 18.0464 45.3222L17.2381 44.4934L17.6269 44.0944L18.026 43.6851L19.3664 44.9232C21.5356 46.9287 22.344 47.5017 23.4491 47.8598C24.4518 48.177 26.3857 48.5454 26.6108 48.4533C26.6927 48.4226 26.662 48.3919 26.5392 48.3919C26.2425 48.3715 23.6435 47.6143 23.1012 47.3789C22.5384 47.1334 21.5766 46.3455 19.7655 44.6367L18.4046 43.3577L18.998 42.8051C19.3152 42.4981 19.612 42.2526 19.6529 42.2423C19.7041 42.2423 20.4101 42.9381 21.2389 43.7772ZM21.3208 42.8051C21.8733 43.3065 21.9142 43.3679 21.7812 43.5111C21.638 43.6544 21.5663 43.6135 21.024 43.0712C20.6966 42.7335 20.4613 42.4163 20.4919 42.3549C20.6045 42.1809 20.6659 42.2116 21.3208 42.8051ZM22.743 44.1046C23.1012 44.4218 23.1114 44.4525 22.9682 44.6469C22.8249 44.8516 22.8044 44.8413 22.4054 44.4525C22.0882 44.1455 22.0166 44.0125 22.0984 43.9102C22.2621 43.7158 22.3133 43.7362 22.743 44.1046ZM18.0771 45.9566L18.599 46.4887L18.0362 46.898C17.3916 47.3687 16.6958 47.645 14.9768 48.1259C13.575 48.5249 13.6977 48.5761 15.2837 48.2794C16.7265 47.9929 17.6781 47.6654 18.3022 47.2152C18.5785 47.0106 18.8446 46.8469 18.8957 46.8469C18.9366 46.8469 19.1515 47.0106 19.3766 47.1947C19.7757 47.5426 19.7757 47.5529 19.5813 47.7064C19.172 48.0133 18.0567 48.5045 17.2893 48.7091C16.6958 48.8728 16.0921 48.9342 14.7721 48.9649C13.2066 49.0161 11.6206 48.8933 11.4569 48.7296C11.2932 48.5659 13.2578 47.4813 15.1303 46.6934C15.8874 46.3659 16.7162 45.9566 16.9721 45.7725C17.2279 45.5781 17.453 45.4246 17.4837 45.4246C17.5144 45.4143 17.7804 45.6599 18.0771 45.9566ZM19.8985 48.6068C19.7143 49.0877 19.3664 49.5891 19.2845 49.497C19.2538 49.4663 19.1618 49.2821 19.0697 49.0775L18.9162 48.6989L19.4585 48.4022C19.745 48.2487 20.011 48.1259 20.0315 48.1463C20.052 48.1566 19.9906 48.3715 19.8985 48.6068ZM21.4742 48.7807C21.4742 48.9649 21.2389 49.5072 21.1673 49.5072C21.0343 49.5072 20.6659 48.8524 20.5943 48.4942L20.5329 48.177L21.0036 48.4431C21.2594 48.5863 21.4742 48.7398 21.4742 48.7807Z" fill="white"/>
<path d="M19.4892 5.36533C19.4585 5.44719 19.4482 5.62114 19.4687 5.74392C19.4994 5.86671 19.5403 6.276 19.5813 6.64436L19.6324 7.32992L18.6399 7.39131C17.0948 7.50387 14.9358 7.75967 14.2707 7.90293L13.6773 8.04618L13.3601 7.68805C13.1963 7.49364 12.9201 7.26853 12.7461 7.18667C12.4698 7.03319 12.4391 7.04342 12.214 7.24806C11.948 7.50387 11.6513 8.05641 11.6513 8.31222C11.6513 8.42477 11.7434 8.47593 11.9889 8.47593C12.1629 8.47593 12.388 8.52709 12.4698 8.57825C12.6847 8.71127 11.7741 9.1001 11.242 9.11033C10.5462 9.12056 10.3415 8.72151 10.6792 8.06664C10.8941 7.65735 10.7304 7.67782 10.4541 8.09734C10.1267 8.57825 10.055 9.02847 10.2597 9.34567C10.4029 9.57078 10.495 9.60148 11.0169 9.60148C11.3648 9.60148 11.7638 9.51962 12.0094 9.40707C12.4494 9.21265 13.0838 8.67034 13.0838 8.4964C13.0838 8.34291 12.6643 8.06664 12.4391 8.06664C12.214 8.06664 12.255 7.87223 12.5005 7.71875C12.6336 7.63689 12.7359 7.67782 12.9815 7.91316C13.1554 8.07687 13.3191 8.32245 13.3498 8.44523C13.4214 8.72151 13.3907 8.72151 14.281 8.53733C15.6521 8.25082 17.7804 8.05641 20.2157 7.99502C22.9681 7.92339 22.8044 7.98478 22.8044 7.18667C22.8044 6.35786 21.7198 6.2453 20.185 6.90017C20.1031 6.93086 20.0417 6.78761 20.0212 6.51134C19.9803 6.15321 20.011 6.04066 20.1747 5.90764C20.3896 5.73369 20.3794 5.73369 20.0826 5.46765C19.7347 5.17092 19.5813 5.14022 19.4892 5.36533ZM21.9244 6.94109C22.0677 6.99226 22.1905 7.10481 22.1905 7.1969C22.1905 7.31969 22.0165 7.35038 21.198 7.35038C20.1133 7.34015 20.0929 7.26853 21.0854 7.00249C21.3821 6.92063 21.6379 6.849 21.6482 6.849C21.6584 6.83877 21.7812 6.8797 21.9244 6.94109Z" fill="white"/>
<path d="M21.1162 5.46765C20.9115 5.62113 20.9115 5.62113 21.1469 5.81555C21.3822 6.00996 21.4027 6.00996 21.6278 5.83601C21.8426 5.67229 21.8529 5.65183 21.7096 5.47788C21.5152 5.263 21.3822 5.263 21.1162 5.46765Z" fill="white"/>
<path d="M24.3802 6.84901C24.0835 6.95133 23.6026 7.60619 23.6435 7.8313C23.6639 7.93362 23.8277 8.08711 24.0221 8.1792L24.3597 8.34291L24.0425 8.47593C23.8584 8.54756 23.4593 8.63965 23.1319 8.68058C22.5486 8.7522 22.5486 8.7522 22.8556 8.87499C23.0295 8.94662 23.3672 9.02847 23.623 9.05917C24.0323 9.1001 24.1346 9.0694 24.5746 8.73174L25.076 8.35315L25.9253 8.51686C26.396 8.60895 27.1634 8.80337 27.6341 8.93638C28.3912 9.16149 28.4936 9.16149 28.647 9.02847C28.9642 8.74197 29.0768 8.32245 28.9438 7.92339C28.8108 7.5141 28.6982 7.47317 28.3401 7.74944C28.1047 7.92339 28.1047 7.94386 28.2787 8.19966C28.3708 8.35315 28.4117 8.47593 28.3605 8.47593C28.2992 8.47593 27.7364 8.34291 27.0917 8.1792C26.4471 8.01548 25.7513 7.85177 25.5467 7.81084C25.209 7.75968 25.1579 7.71875 25.1579 7.46294C25.1579 6.98203 24.7895 6.68529 24.3802 6.84901ZM24.6258 7.48341C24.6462 7.59596 24.5951 7.65735 24.4518 7.65735C24.2165 7.65735 24.0937 7.50387 24.1858 7.34015C24.2881 7.18667 24.5848 7.27876 24.6258 7.48341Z" fill="white"/>
<path d="M29.9261 7.38108C29.7931 7.48341 29.7624 7.5448 29.8544 7.59596C29.9158 7.63689 29.9465 7.71875 29.9158 7.76991C29.8749 7.82107 30.0386 7.862 30.2637 7.862C30.4888 7.862 30.7037 7.81084 30.7344 7.75968C30.7651 7.69828 30.714 7.65735 30.6116 7.65735C30.5093 7.65735 30.3558 7.60619 30.274 7.55503C30.1512 7.47317 30.1614 7.45271 30.3251 7.47317C30.4377 7.49364 30.54 7.45271 30.5605 7.40155C30.6014 7.23783 30.141 7.2276 29.9261 7.38108Z" fill="white"/>
<path d="M29.9773 8.14849C29.6908 8.29174 29.5475 8.48615 29.2405 9.16148C28.954 9.78565 28.8926 10.0108 28.995 10.0108C29.261 10.0108 29.8238 9.41729 30.1512 8.79312C30.6219 7.92338 30.5912 7.83129 29.9773 8.14849Z" fill="white"/>
<path d="M25.3113 8.82383C25.1169 8.96708 25.1169 8.97732 25.3011 9.18196C25.4852 9.38661 25.5057 9.38661 25.782 9.22289C26.0583 9.05917 26.0583 9.03871 25.9048 8.86476C25.7104 8.63965 25.5671 8.62942 25.3113 8.82383Z" fill="white"/>
<path d="M13.9535 8.98755C13.7489 9.21266 13.7489 9.21266 14.0866 9.38661C14.2912 9.49917 14.3424 9.4787 14.5163 9.27406C14.7005 9.03872 14.7005 9.03872 14.4856 8.91593C14.1889 8.75221 14.1684 8.75221 13.9535 8.98755Z" fill="white"/>
<path d="M12.5108 9.43776C12.4698 9.55032 12.3777 9.58101 12.2243 9.54009C12.0503 9.49916 11.948 9.55032 11.8252 9.7345C11.6615 9.9903 11.6615 10.0005 11.9582 10.0926C12.1833 10.1745 12.2754 10.1643 12.3777 10.0517C12.4391 9.96984 12.6029 9.90845 12.7359 9.90845C12.8689 9.90845 13.0224 9.81636 13.0838 9.69357C13.227 9.44799 13.2168 9.43776 12.8587 9.34567C12.6438 9.29451 12.5619 9.31498 12.5108 9.43776Z" fill="white"/>
<path d="M17.5963 14.9632C17.2995 15.2804 17.3916 15.4441 17.7088 15.1678C17.893 15.0041 17.9135 15.0041 17.8623 15.1371C17.7804 15.3827 18.067 15.7408 18.3432 15.7408C18.64 15.7408 18.9162 15.4441 18.9162 15.1269C18.9162 14.9018 18.9367 14.8916 19.5609 14.9529C20.0725 15.0041 20.1543 14.9939 19.9906 14.9018C19.8781 14.8302 19.346 14.7585 18.8139 14.7381C17.8725 14.6971 17.8316 14.7074 17.5963 14.9632Z" fill="white"/>
<path d="M20.1543 15.485C20.3282 15.6692 20.5022 15.7511 20.6659 15.7204L20.9012 15.6897L20.6557 15.526C20.5124 15.4339 20.2873 15.3315 20.1441 15.2804L19.8882 15.2088L20.1543 15.485Z" fill="white"/>
<path d="M20.6557 15.2701C20.6557 15.2804 20.891 15.4441 21.1673 15.618C21.4538 15.792 21.6789 15.8943 21.6789 15.8329C21.6789 15.6283 21.1673 15.2292 20.9115 15.2292C20.7683 15.2292 20.6557 15.2497 20.6557 15.2701Z" fill="white"/>
<path d="M16.8698 15.4339C16.8698 15.485 16.9414 15.5362 17.0232 15.5362C17.1051 15.5362 17.1767 15.485 17.1767 15.4339C17.1767 15.3725 17.1051 15.3315 17.0232 15.3315C16.9414 15.3315 16.8698 15.3725 16.8698 15.4339Z" fill="white"/>
<path d="M21.331 16.4059C21.464 16.6106 21.4743 16.672 21.3617 16.7027C20.9422 16.8357 20.9626 16.8561 21.4538 16.8357C21.7505 16.8254 21.9961 16.7641 22.0063 16.7129C22.0268 16.6106 21.4129 16.1501 21.2491 16.1501C21.198 16.1501 21.2389 16.2627 21.331 16.4059Z" fill="white"/>
<path d="M21.4742 17.6543C21.4742 17.7054 21.7096 17.8589 21.9859 18.0022C22.5486 18.3091 22.7021 18.1659 22.2314 17.7975C21.9654 17.5929 21.4742 17.5008 21.4742 17.6543Z" fill="white"/>
<path d="M21.3924 18.2477C21.4027 18.35 21.6175 18.5854 21.8631 18.79C22.2519 19.1072 22.2929 19.1277 22.2929 18.9333C22.2929 18.6672 21.9143 18.2375 21.5971 18.1454C21.4027 18.084 21.3617 18.1147 21.3924 18.2477Z" fill="white"/>
<path d="M22.9068 18.9435C22.9068 19.1584 23.5514 19.9974 23.6026 19.8542C23.664 19.6496 23.4082 19.0152 23.2138 18.9128C22.958 18.7798 22.9068 18.7798 22.9068 18.9435Z" fill="white"/>
<path d="M17.3609 20.2123C16.972 20.6318 16.7674 21.1025 16.7674 21.5425L16.7776 21.9313L16.9618 21.4709C17.0539 21.2151 17.2688 20.816 17.4223 20.5704C17.7599 20.0281 17.7292 19.8235 17.3609 20.2123Z" fill="white"/>
<path d="M20.3692 20.2942C20.2259 20.6011 20.2054 21.0309 20.3385 21.1025C20.4613 21.1844 20.7887 20.5295 20.7478 20.2942C20.6864 20.0077 20.5022 20.0077 20.3692 20.2942Z" fill="white"/>
<path d="M21.8221 20.6932C21.7709 20.9081 22.0165 22.1564 22.1393 22.2792C22.3439 22.4736 22.4667 21.1844 22.2928 20.7546C22.1393 20.3863 21.9142 20.3556 21.8221 20.6932Z" fill="white"/>
<path d="M18.5273 21.0104C18.2101 21.4095 18.159 21.696 18.3022 22.1462C18.4557 22.6067 18.5478 22.4839 18.7115 21.6141C18.865 20.7956 18.8138 20.6421 18.5273 21.0104Z" fill="white"/>
<path d="M24.2369 21.1435C24.2369 21.389 24.6258 22.4941 24.7588 22.6374C24.8099 22.6988 24.8509 22.535 24.8509 22.2588C24.8509 21.7574 24.6769 21.2969 24.4007 21.0718C24.2574 20.949 24.2369 20.9695 24.2369 21.1435Z" fill="white"/>
<path d="M15.7135 21.8495C15.6112 22.0439 15.5396 22.3816 15.5498 22.6681V23.1592L15.7544 22.6578C15.867 22.3816 15.9489 22.0132 15.9284 21.8393L15.8977 21.5221L15.7135 21.8495Z" fill="white"/>
<path d="M20.2055 22.5146C20.0111 22.975 20.0111 23.0876 20.1543 23.681C20.2362 23.988 20.3078 24.1108 20.3794 24.0392C20.5227 23.8959 20.5943 22.5555 20.4715 22.3304C20.3692 22.1564 20.3487 22.1769 20.2055 22.5146Z" fill="white"/>
<path d="M23.8482 22.7704C23.7765 22.9955 23.6333 23.2922 23.531 23.4252L23.3468 23.6606L23.0193 23.3127C22.7431 23.0057 22.7021 22.9853 22.7021 23.1694C22.7021 23.4457 23.224 24.4689 23.3979 24.5201C23.4696 24.5406 23.6333 24.3257 23.7868 23.988C23.9812 23.5583 24.0323 23.2922 24.0119 22.8829L23.9812 22.3406L23.8482 22.7704Z" fill="white"/>
<path d="M18.2101 23.1899C18.1487 23.3024 18.0975 23.4969 18.0975 23.6196C18.0975 23.855 18.4454 24.5917 18.6091 24.694C18.8138 24.8168 18.6398 23.3024 18.425 23.0876C18.3533 23.0159 18.2817 23.0466 18.2101 23.1899Z" fill="white"/>
<path d="M24.4006 23.5685C24.3699 23.6606 24.3392 24.0187 24.3392 24.3666C24.3495 25.001 24.3495 25.001 24.5029 24.7043C24.6974 24.3564 24.7485 23.5071 24.5848 23.4457C24.5234 23.4252 24.4416 23.4764 24.4006 23.5685Z" fill="white"/>
<path d="M21.8529 24.4894C21.638 24.7452 21.4129 24.9498 21.3515 24.9498C21.2799 24.9498 21.0957 24.8271 20.932 24.6633L20.625 24.3871L20.6966 24.735C20.7273 24.9294 20.9013 25.308 21.0752 25.5842C21.4436 26.147 21.5357 26.1266 21.8733 25.4205C22.0473 25.0829 22.3236 24.0289 22.2519 24.0289C22.2417 24.0289 22.0575 24.2336 21.8529 24.4894Z" fill="white"/>
<path d="M15.4372 24.3564C15.4372 24.6633 15.7135 25.7377 15.8465 25.9628C15.9693 26.1573 15.8874 25.2364 15.7339 24.6224C15.6214 24.1722 15.4372 24.0187 15.4372 24.3564Z" fill="white"/>
<path d="M17.1869 24.8475C17.1767 25.1033 17.1358 25.3796 17.0744 25.4615C17.0027 25.5842 16.9516 25.5842 16.7776 25.4205C16.3274 25.0112 16.6958 25.7787 17.1665 26.2186L17.4837 26.5256V25.7582C17.4734 25.3387 17.412 24.8578 17.3302 24.694L17.1972 24.3871L17.1869 24.8475Z" fill="white"/>
<path d="M24.7179 25.1545C24.5951 25.6047 24.4518 26.321 24.4825 26.3517C24.5746 26.454 24.8611 25.5433 24.8304 25.2466C24.7895 24.9191 24.7895 24.9191 24.7179 25.1545Z" fill="white"/>
<path d="M19.6325 25.5024C19.5711 25.6866 19.4278 25.9321 19.3255 26.0242C19.1209 26.2084 19.1106 26.1982 18.8446 25.9628L18.5786 25.7173L18.6502 26.0754C18.7218 26.4437 19.1618 27.2009 19.305 27.2009C19.479 27.2009 19.7655 26.4131 19.8167 25.7889C19.8678 25.0829 19.8064 24.9805 19.6325 25.5024Z" fill="white"/>
<path d="M23.2956 25.9526C23.2035 26.1061 23.0091 26.3414 22.8556 26.4847L22.5793 26.7405L22.2826 26.4028L21.9858 26.0754V26.4028C21.9858 26.761 22.303 27.5386 22.4872 27.6512C22.6509 27.7535 23.1932 26.9247 23.3774 26.3005C23.5616 25.6763 23.5309 25.5433 23.2956 25.9526Z" fill="white"/>
<path d="M16.4604 26.3926C16.4604 26.8428 16.6549 27.3544 16.9721 27.7126L17.279 28.0707L17.2176 27.6614C17.0846 26.8735 16.4604 25.8196 16.4604 26.3926Z" fill="white"/>
<path d="M24.1448 27.16C24.0221 27.4465 23.7151 28.7665 23.7663 28.8176C23.8379 28.8893 24.2676 27.7228 24.3188 27.3237C24.37 26.8326 24.3188 26.7814 24.1448 27.16Z" fill="white"/>
<path d="M21.3924 27.6205C21.2185 28.1014 20.8092 28.5721 20.6557 28.48C20.5943 28.439 20.4511 28.2651 20.3385 28.0809L20.1441 27.7637V28.1014C20.1441 28.5107 20.3794 29.053 20.6659 29.3088C20.8706 29.493 20.8808 29.493 21.0752 29.2474C21.3515 28.879 21.5971 28.0911 21.5562 27.6512L21.5255 27.2623L21.3924 27.6205Z" fill="white"/>
<path d="M23.2445 27.8149C23.1217 28.0707 22.9887 28.4902 22.958 28.7358C22.917 28.9916 22.8659 29.3088 22.8454 29.4418C22.7636 29.8511 23.0501 29.5339 23.3059 28.9302C23.4696 28.5721 23.5208 28.2651 23.5003 27.8865L23.4696 27.3544L23.2445 27.8149Z" fill="white"/>
<path d="M16.4604 27.7944C16.4604 28.0707 16.8186 28.8279 17.146 29.2576C17.3507 29.5339 17.5348 29.7385 17.5553 29.7181C17.6065 29.6669 16.6856 27.8456 16.573 27.7637C16.5116 27.733 16.4604 27.7432 16.4604 27.7944Z" fill="white"/>
<path d="M19.4278 28.4083C19.4278 28.6641 19.1209 29.5543 19.0288 29.5543C18.9878 29.5543 18.8037 29.3906 18.6093 29.1962C18.4251 29.0018 18.2511 28.8586 18.2204 28.879C18.0976 29.012 19.1106 30.4753 19.3255 30.4753C19.5813 30.4753 19.7757 28.4288 19.5302 28.2753C19.479 28.2446 19.4278 28.2958 19.4278 28.4083Z" fill="white"/>
<path d="M21.6993 29.2986C21.5663 29.5851 21.3412 30.8845 21.4026 30.9562C21.4742 31.0278 21.8631 29.9432 21.9347 29.4725C22.0063 28.9916 21.8835 28.8995 21.6993 29.2986Z" fill="white"/>
<path d="M18.2 31.1301C18.2 31.5189 18.7218 32.6547 18.7934 32.4296C18.8446 32.2761 18.5172 31.1915 18.3432 30.9459C18.2102 30.7515 18.2 30.7618 18.2 31.1301Z" fill="white"/>
<path d="M19.7962 30.9357C19.6837 31.2427 19.7348 32.0715 19.8883 32.2761C20.0213 32.4501 20.0316 32.4092 20.0418 31.7543C20.0418 31.0073 19.9292 30.6083 19.7962 30.9357Z" fill="white"/>
<path d="M21.638 31.8157C21.5459 32.0408 21.4436 32.5115 21.4129 32.8594L21.3617 33.4938L21.5868 33.0845C21.7914 32.7263 21.9961 31.3962 21.8528 31.3962C21.8324 31.3962 21.7301 31.5803 21.638 31.8157Z" fill="white"/>
<path d="M20.4509 33.2789C20.4509 33.6473 20.4919 33.9645 20.543 33.9952C20.6658 34.077 20.7681 33.3301 20.6965 32.9412C20.5839 32.3989 20.4509 32.5933 20.4509 33.2789Z" fill="white"/>
<path d="M30.6833 21.389C30.5196 21.9416 30.1308 22.7294 29.9364 22.8829C29.8136 22.9853 29.7726 22.9648 29.7215 22.7806C29.6908 22.6476 29.6601 22.402 29.6499 22.2383L29.6396 21.9313L29.5373 22.2895C29.435 22.6476 29.4657 23.6708 29.5885 23.7834C29.7931 23.9982 30.5912 22.5555 30.7856 21.6141C30.9289 20.9286 30.8675 20.7853 30.6833 21.389Z" fill="white"/>
<path d="M31.2972 22.2895C31.1335 23.0466 30.6219 24.1722 30.4787 24.0801C30.4275 24.0494 30.3763 23.8243 30.3661 23.589C30.3661 23.2513 30.3456 23.2001 30.274 23.3638C30.1512 23.6503 30.1512 24.3768 30.2842 24.7145L30.3866 25.001L30.581 24.7452L30.7856 24.4894V24.7554C30.7856 25.0931 30.98 25.6661 31.0926 25.6661C31.3996 25.6661 31.8702 24.2847 31.9521 23.1592C31.993 22.4941 31.993 22.4736 31.8907 22.9034C31.6861 23.8038 31.4098 24.694 31.2665 24.8884C31.1233 25.0829 31.1131 25.0829 30.9596 24.7759C30.8061 24.4894 30.8163 24.4382 31.0414 23.8652C31.2768 23.282 31.5735 21.8188 31.4712 21.7165C31.4507 21.696 31.3689 21.9518 31.2972 22.2895Z" fill="white"/>
<path d="M32.1875 24.4894C32.0954 25.2261 31.9112 25.8708 31.7986 25.8708C31.7577 25.8708 31.6656 25.7889 31.6144 25.6866C31.5224 25.5433 31.5121 25.5638 31.5019 25.8298C31.5019 25.9935 31.5735 26.2289 31.6554 26.3414C31.8089 26.5359 31.8089 26.5359 31.9623 26.3414C32.167 26.0652 32.3409 25.1647 32.3 24.4689L32.2693 23.8755L32.1875 24.4894Z" fill="white"/>
<path d="M28.3093 25.0112C28.0945 25.4922 27.9103 27.0986 28.074 27.0986C28.2582 27.0986 28.5447 26.853 28.6879 26.587C28.8312 26.3107 28.7391 26.1368 28.5856 26.3824C28.5549 26.4335 28.4833 26.4847 28.4219 26.4847C28.2786 26.4847 28.3093 25.7991 28.4833 25.1545C28.5651 24.8475 28.6061 24.5815 28.5856 24.5508C28.5549 24.5303 28.4321 24.735 28.3093 25.0112Z" fill="white"/>
<path d="M32.7809 25.4308C32.6479 26.1982 32.4944 26.5972 32.3511 26.5461C32.167 26.4744 32.1772 26.8326 32.3614 26.9861C32.5865 27.1805 32.8321 26.6177 32.9037 25.7582C32.9651 25.001 32.9037 24.8066 32.7809 25.4308Z" fill="white"/>
<path d="M33.3641 26.0038C33.3232 26.5972 33.1185 27.2112 32.9753 27.16C32.8934 27.1293 32.832 27.1293 32.832 27.16C32.832 27.2828 33.0469 27.6102 33.139 27.6102C33.3027 27.6102 33.4664 26.8633 33.4255 26.28C33.3948 25.9731 33.3743 25.8503 33.3641 26.0038Z" fill="white"/>
<path d="M28.9029 26.6893C28.6266 27.4363 28.5448 28.4288 28.729 28.7255C28.8108 28.8586 28.8517 28.8586 28.995 28.7358C29.1587 28.6028 29.4554 28.1014 29.4554 27.9581C29.4554 27.9172 29.3736 27.9581 29.2713 28.0502C29.1689 28.1525 29.0462 28.1935 29.0155 28.1525C28.9029 28.04 28.9336 27.3954 29.0973 26.6996C29.1894 26.3414 29.2406 26.0242 29.2201 26.0038C29.1894 25.9833 29.0564 26.2903 28.9029 26.6893Z" fill="white"/>
<path d="M30.4888 27.774C30.4888 27.8865 30.5195 27.9172 30.5502 27.8353C30.5809 27.7637 30.5707 27.6716 30.54 27.6409C30.5093 27.6 30.4786 27.6614 30.4888 27.774Z" fill="white"/>
<path d="M31.3176 33.9031C31.3176 34.0668 31.3381 34.1282 31.3688 34.0258C31.3893 33.9338 31.3893 33.7905 31.3688 33.7189C31.3381 33.6575 31.3176 33.7291 31.3176 33.9031Z" fill="white"/>
<path d="M9.71737 21.3276C9.6969 21.8904 10.3825 23.4969 10.7713 23.8141C10.8941 23.9164 10.935 23.8857 10.9964 23.7015C11.0987 23.3843 11.068 22.3918 10.9452 22.0848C10.8634 21.8699 10.8429 21.9416 10.8327 22.4941L10.8224 23.1592L10.5257 22.8113C10.362 22.6271 10.1164 22.1667 9.97317 21.7881C9.82992 21.4197 9.71737 21.2048 9.71737 21.3276Z" fill="white"/>
<path d="M9.10344 22.1871C9.08298 22.9136 9.82993 24.9498 10.1164 24.9498C10.2904 24.9498 10.4234 24.1927 10.3313 23.722C10.2597 23.3331 10.2392 23.3127 10.2188 23.5685C10.2085 23.7322 10.1676 23.9675 10.1267 24.0699C10.055 24.2438 10.0243 24.2234 9.84016 23.9164C9.65598 23.6094 9.28762 22.5862 9.16483 22.0337C9.13414 21.9211 9.11367 21.9927 9.10344 22.1871Z" fill="white"/>
<path d="M8.63273 23.4355C8.6839 24.2131 8.91924 25.0317 9.2569 25.5331C9.42062 25.7889 9.43085 25.7991 9.56387 25.6149C9.64573 25.5126 9.70712 25.2363 9.69689 25.0112C9.69689 24.6531 9.67642 24.6224 9.6048 24.8168C9.55364 24.9498 9.47178 25.0522 9.42062 25.0522C9.27737 25.0522 8.98063 24.3257 8.77599 23.4662L8.58157 22.6476L8.63273 23.4355Z" fill="white"/>
<path d="M8.18259 24.1824C8.17236 24.8782 8.34631 25.9321 8.54072 26.3107C8.67374 26.5665 8.7249 26.587 8.83745 26.4745C8.91931 26.3926 9.0114 26.147 9.0421 25.9219C9.11372 25.5126 9.11372 25.5126 8.93978 25.7582C8.77606 25.9731 8.74536 25.9833 8.6635 25.8196C8.60211 25.7275 8.47932 25.2057 8.377 24.6531C8.21329 23.7834 8.19282 23.722 8.18259 24.1824Z" fill="white"/>
<path d="M11.9173 24.5917C12.0708 25.1238 12.2652 26.0447 12.2652 26.2698C12.2652 26.4745 12.2243 26.4949 12.0094 26.4438C11.6615 26.3517 11.6922 26.5051 12.081 26.894L12.4085 27.2214L12.5005 26.9861C12.654 26.5768 12.5005 25.6968 12.1731 25.0215C11.9992 24.6736 11.8764 24.4792 11.9173 24.5917Z" fill="white"/>
<path d="M7.68119 25.6149C7.66072 26.2186 7.77328 26.8019 7.96769 27.0986C8.04955 27.2316 8.08025 27.2214 8.21326 27.0475C8.41791 26.7814 8.41791 26.5461 8.2235 26.6279C8.11094 26.6689 8.03932 26.5461 7.92676 26.147C7.8449 25.8503 7.75281 25.4717 7.73235 25.308C7.71188 25.134 7.68119 25.2773 7.68119 25.6149Z" fill="white"/>
<path d="M11.2419 25.8708C11.2419 25.9015 11.3136 26.1777 11.3954 26.4847C11.5591 27.0884 11.6001 28.2242 11.467 28.2242C11.4261 28.2242 11.334 28.173 11.2624 28.1014C11.1703 28.0093 11.1396 28.0195 11.1396 28.1628C11.1396 28.2651 11.2829 28.4902 11.467 28.6642L11.7945 28.9916L11.8661 28.7358C12.0094 28.2344 11.9582 27.6921 11.6922 26.9144C11.467 26.2187 11.2522 25.7275 11.2419 25.8708Z" fill="white"/>
<path d="M7.09793 26.6382C7.13886 26.9656 7.21049 27.3544 7.26165 27.4874C7.34351 27.6921 7.38443 27.7126 7.50722 27.6102C7.67094 27.4772 7.7221 27.1498 7.56861 27.2419C7.46629 27.3135 7.25141 26.7712 7.25141 26.4233C7.25141 26.2903 7.20025 26.1573 7.13886 26.1163C7.04677 26.0652 7.03654 26.2084 7.09793 26.6382Z" fill="white"/>
<path d="M9.92202 33.2994C9.92202 33.4119 9.95272 33.4426 9.98341 33.3607C10.0141 33.2891 10.0039 33.197 9.97318 33.1663C9.94248 33.1254 9.91179 33.1868 9.92202 33.2994Z" fill="white"/>
<path d="M15.9693 32.7468C15.8976 32.9924 15.8055 33.2482 15.7748 33.3301C15.7339 33.4324 15.7748 33.4631 15.9283 33.4221C16.0818 33.3812 16.1637 33.4324 16.2558 33.6268C16.3172 33.77 16.5013 34.0565 16.6753 34.2714C16.839 34.4761 17.013 34.7523 17.0641 34.8854C17.279 35.4174 17.1767 34.3737 16.9516 33.6882C16.7674 33.1152 16.7162 33.0333 16.6037 33.1766C16.4809 33.3505 16.5013 33.3812 16.1637 32.491C16.1125 32.3478 16.0716 32.4092 15.9693 32.7468Z" fill="white"/>
<path d="M24.0528 32.8798C23.93 33.3505 23.7663 33.4733 23.7049 33.1561C23.6537 32.9003 23.2137 34.2305 23.2137 34.65V35.0081L23.5309 34.5579C23.7049 34.3123 23.93 33.9644 24.0426 33.7905C24.1858 33.5552 24.2984 33.4835 24.4416 33.5142C24.636 33.5654 24.636 33.5552 24.4518 33.0435C24.3495 32.757 24.2472 32.5012 24.2267 32.4705C24.196 32.4501 24.1244 32.6343 24.0528 32.8798Z" fill="white"/>
<path d="M108.039 16.3241C107.691 16.498 107.681 16.5287 107.681 17.0915C107.681 17.6747 107.681 17.685 107.405 17.685C107.19 17.685 107.118 17.7361 107.118 17.8896C107.118 18.084 107.19 18.0943 108.244 18.0943C109.277 18.0943 109.369 18.0738 109.369 17.8998C109.369 17.7566 109.267 17.6952 108.888 17.644C108.377 17.5724 108.039 17.3473 108.039 17.071C108.039 16.7641 108.315 16.631 108.806 16.6924C109.185 16.7538 109.277 16.7231 109.369 16.5594C109.482 16.3445 109.42 16.3138 108.755 16.2013C108.51 16.1604 108.285 16.2013 108.039 16.3241Z" fill="white"/>
<path d="M160.275 18.1249C158.105 19.2709 156.816 20.5295 156.223 22.0746L156.038 22.576L156.571 22.709C158.279 23.1183 159.139 24.0699 159.077 25.4717L159.047 26.1265H150.912H142.777L142.747 23.6401C142.726 21.7574 142.696 21.1639 142.593 21.1639C142.225 21.1741 141.11 21.5118 140.578 21.7778C139.769 22.1871 139.258 22.6578 138.879 23.3331C138.623 23.8038 138.582 23.9778 138.582 24.7043C138.582 25.4308 138.613 25.574 138.859 25.9424C139.258 26.5461 140.025 26.894 141.099 26.9656L141.938 27.027L141.877 27.8149C141.775 29.053 141.478 29.5953 140.813 29.7181C140.485 29.7795 140.475 29.7999 140.475 30.2399V30.7004L140.915 30.6287C141.529 30.5366 142.102 30.1069 142.399 29.5134C142.593 29.1348 142.655 28.7972 142.696 28.0093L142.757 26.9963H151.27H159.783L159.896 26.3414C159.968 25.9833 160.019 25.5126 160.019 25.2977C160.019 25.001 160.05 24.9396 160.121 25.0522C160.234 25.2261 160.459 25.9014 160.633 26.5563L160.745 26.9963H164.306H167.877L167.939 26.6382C168.031 26.1879 167.98 26.1163 167.601 26.0447C167.427 26.0038 167.243 25.881 167.181 25.7684C167.11 25.6456 166.997 24.9703 166.915 24.254C166.823 23.4866 166.68 22.7704 166.547 22.4736C166.179 21.6141 165.462 21.1639 164.46 21.1639C163.989 21.1639 163.129 21.4095 162.843 21.6141C162.669 21.7574 162.669 21.7778 162.925 22.1155L163.201 22.4736L163.569 22.2792C164.03 22.0439 164.828 22.0234 165.227 22.2383C165.667 22.4634 165.861 23.0057 166.015 24.4075C166.097 25.1033 166.209 25.7684 166.26 25.881C166.342 26.0345 166.332 26.0959 166.22 26.1368C166.138 26.1675 165.043 26.1777 163.795 26.1572L161.513 26.1265L161.277 25.4717C160.735 23.9573 159.937 23.0773 158.402 22.3304C157.86 22.0643 157.389 21.829 157.369 21.8188C157.287 21.7471 158.126 20.7342 158.566 20.3658C159.088 19.9258 160.264 19.1175 160.367 19.1175C160.397 19.1175 160.428 19.2812 160.428 19.4756C160.428 19.8337 160.428 19.8337 160.889 19.8337H161.349V18.7593C161.349 17.9714 161.318 17.6849 161.226 17.6849C161.155 17.6849 160.725 17.8896 160.275 18.1249ZM141.887 24.2029L141.857 26.1265L141.294 26.0959C140.567 26.0652 139.912 25.8196 139.657 25.4922C139.411 25.175 139.38 24.3973 139.595 23.8959C139.851 23.2718 141.151 22.2997 141.734 22.2895C141.898 22.2895 141.908 22.4327 141.887 24.2029Z" fill="white"/>
<path d="M72.8401 22.1258V26.1573L64.4804 26.147L56.1104 26.1266L56.0797 23.9471L56.0593 21.7779H55.65H55.2407L55.2202 23.9471L55.1895 26.1266L54.7291 26.1573C54.4733 26.1675 54.2072 26.1368 54.1356 26.0856C54.0537 26.0447 53.6342 24.8578 53.1942 23.4559L52.3961 20.9081L52.0994 20.9388C51.2706 21.0411 50.2371 21.7779 49.879 22.5453C49.173 24.0289 49.5822 25.5229 50.9943 26.6177C51.5878 27.0679 51.6492 27.2419 51.4138 27.6921C50.9431 28.6028 49.5106 29.0325 48.5897 28.5414C47.986 28.2242 47.7711 27.8046 47.7711 26.9349V26.1777H47.3005H46.8298L46.8707 27.0884C46.9219 28.2549 47.2288 28.8074 48.0781 29.2883C48.5897 29.5748 48.7227 29.6055 49.5106 29.6055C50.2576 29.6055 50.4622 29.5646 50.9636 29.319C51.7822 28.92 52.304 28.2344 52.4677 27.3544C52.5598 26.8633 52.4473 26.587 52.0278 26.28C51.4752 25.8912 50.7897 25.1647 50.6259 24.7964C50.3497 24.2131 50.3804 23.6504 50.718 22.9955C50.9841 22.4532 51.6185 21.8904 51.7719 22.0541C51.8026 22.1053 52.1812 23.2308 52.5905 24.561L53.3477 26.9963H66.6803H80.0027V24.121V21.2355L79.0716 21.2969C77.0968 21.4402 75.7666 22.003 74.5592 23.2308L73.761 24.0187V21.0616V18.0942H73.3006H72.8401V22.1258ZM79.1637 24.2438L79.133 26.1266L76.5033 26.1573C74.4261 26.1777 73.8634 26.1573 73.8634 26.0549C73.8634 25.9833 73.9964 25.6354 74.1703 25.2773C74.7331 24.0903 75.9303 23.0671 77.3116 22.6067C78.0484 22.3611 78.9897 22.1871 79.1125 22.2895C79.1534 22.3304 79.1739 23.2001 79.1637 24.2438Z" fill="white"/>
<path d="M107.732 22.9034V26.9963H108.193H108.653V22.9034V18.8105H108.193H107.732V22.9034Z" fill="white"/>
<path d="M113.851 19.0254C113.636 19.1482 113.605 19.7314 113.79 19.9156C113.963 20.0895 114.444 20.0691 114.629 19.8747C115.109 19.404 114.444 18.6775 113.851 19.0254Z" fill="white"/>
<path d="M115.672 19.1379C115.355 19.5881 115.58 20.0384 116.112 20.0384C116.481 20.0384 116.634 19.8644 116.634 19.4551C116.634 18.923 115.979 18.6979 115.672 19.1379Z" fill="white"/>
<path d="M75.3368 19.5063C75.1014 19.6598 74.9786 20.0281 75.0912 20.243C75.2037 20.4477 75.5005 20.6523 75.6949 20.6523C75.8791 20.6523 76.2167 20.2532 76.2167 20.0384C76.2167 19.6291 75.654 19.2914 75.3368 19.5063Z" fill="white"/>
<path d="M115.611 21.2969C114.27 21.8802 113.257 22.7499 112.838 23.6504C112.603 24.1824 112.572 25.4308 112.787 25.8605C113.135 26.5154 114.178 27.0986 115.007 27.0986C115.253 27.0986 115.283 27.0577 115.324 26.6893C115.365 26.2596 115.283 26.1777 114.864 26.1777C114.741 26.1777 114.444 26.0856 114.199 25.9731C113.728 25.7582 113.462 25.3182 113.462 24.7759C113.472 24.3564 113.8 23.7015 114.219 23.282C114.557 22.9443 115.549 22.2895 115.734 22.2895C115.775 22.2895 115.815 23.2411 115.836 24.3973L115.867 26.5051L116.153 26.7507L116.44 26.9963H126.928H137.406V24.1313V21.256L137.027 21.3174C135.594 21.5527 134.274 22.2588 133.681 23.0876C133.405 23.4764 133.364 23.6401 133.333 24.3359C133.302 24.9703 133.333 25.2261 133.507 25.6149C133.63 25.881 133.722 26.1163 133.722 26.1368C133.722 26.1879 117.013 26.1573 116.869 26.1061C116.767 26.0652 116.736 25.5433 116.736 23.5071C116.736 20.5602 116.839 20.7649 115.611 21.2969ZM136.485 24.2438V26.1061L135.901 26.0345C134.725 25.9014 134.193 25.4205 134.193 24.4996C134.193 23.855 134.5 23.3741 135.175 22.9443C135.543 22.709 136.198 22.4225 136.413 22.402C136.454 22.3918 136.485 23.2308 136.485 24.2438Z" fill="white"/>
<path d="M84.6584 21.2662C83.2259 21.563 82.0696 22.3509 81.5171 23.415C81.1692 24.1006 81.1385 25.267 81.4557 25.8196C81.8752 26.5358 82.8575 26.9963 83.9626 26.9963H84.5049V27.7432C84.5049 28.9916 84.2082 29.585 83.5124 29.7181C83.1849 29.7795 83.1747 29.7999 83.1747 30.2399V30.7004L83.5635 30.6287C84.8221 30.3934 85.4258 29.3906 85.4258 27.5284V26.9963H95.8627H106.3V24.3871V21.7778H105.839H105.379V23.9675V26.1675L95.4022 26.1572H85.4258V23.6606C85.4258 20.8672 85.4974 21.1025 84.6584 21.2662ZM84.5049 24.2438V26.1982L84.0956 26.1368C83.8705 26.1061 83.5021 26.0447 83.277 26.014C82.4994 25.9014 81.9468 25.1545 82.1003 24.4075C82.2026 23.9164 82.6119 23.2718 83.011 22.9648C83.3998 22.6783 84.1672 22.2997 84.3821 22.2895C84.4742 22.2895 84.5049 22.7499 84.5049 24.2438Z" fill="white"/>
<path d="M55.2407 28.4288C55.1281 28.5414 55.036 28.7256 55.036 28.8381C55.036 29.0939 55.3839 29.452 55.6295 29.452C56.1206 29.452 56.3457 28.6744 55.9364 28.3879C55.6295 28.173 55.4862 28.1832 55.2407 28.4288Z" fill="white"/>
<path d="M105.501 28.3879C105.174 28.613 105.194 29.0939 105.542 29.319C105.788 29.4725 105.839 29.4725 106.085 29.3395C106.453 29.1348 106.504 28.613 106.177 28.3879C105.89 28.1832 105.788 28.1832 105.501 28.3879Z" fill="white"/>
<path d="M48.0985 30.639C47.6687 30.9357 47.9246 31.7031 48.4566 31.7031C48.6613 31.7031 48.9989 31.3143 48.9989 31.0892C48.9989 30.8641 48.6613 30.4753 48.4566 30.4753C48.385 30.4753 48.2213 30.5469 48.0985 30.639Z" fill="white"/>
<path d="M49.9301 30.6697C49.8074 30.7925 49.7153 30.9766 49.7153 31.0892C49.7153 31.3757 50.0939 31.7236 50.3497 31.6827C50.4725 31.6622 50.6566 31.5292 50.7692 31.3655L50.9841 31.0892L50.7692 30.8027C50.5134 30.4548 50.1962 30.4036 49.9301 30.6697Z" fill="white"/>
<path d="M47.9757 35.3356C47.5357 35.5402 47.1878 35.8574 46.9729 36.2565C46.8399 36.502 46.799 36.9523 46.7683 38.4666C46.7171 41.2191 46.9115 41.9354 47.8734 42.4163C48.4873 42.7335 49.6026 42.7335 50.5338 42.4163L51.1989 42.1912L51.2295 40.421L51.25 38.661H50.1245H48.9989V39.0192V39.3773H49.6129H50.2268V40.4926V41.6079L49.9403 41.7205C49.4491 41.9251 48.6203 41.8944 48.3031 41.6591C47.771 41.2703 47.7199 41.0349 47.7199 38.9169C47.7199 36.7988 47.771 36.5634 48.3031 36.1746C48.4873 36.0416 48.7431 35.97 49.0501 35.97C49.6742 35.97 50.0426 36.2462 50.1654 36.7988L50.2677 37.2285H50.7691H51.2807L51.2091 36.7476C51.1272 36.1337 50.8714 35.7039 50.4314 35.4481C49.9607 35.1719 48.4975 35.1105 47.9757 35.3356Z" fill="white"/>
<path d="M54.0332 35.397C53.0816 35.8677 52.8361 36.7067 52.9077 39.2852C52.9588 40.8201 52.9793 41.0349 53.2146 41.5465C53.5728 42.314 53.9923 42.5698 55.036 42.6312C56.4276 42.713 57.1541 42.1707 57.3996 40.861C57.461 40.5029 57.4917 39.5001 57.4713 38.4564C57.4406 36.8704 57.4099 36.6146 57.2155 36.2565C57.1029 36.0314 56.9187 35.7653 56.8062 35.6732C56.2229 35.1412 54.8211 35.0081 54.0332 35.397ZM55.9569 36.1951C56.4685 36.5532 56.5197 36.8192 56.5197 38.8657C56.5094 40.9326 56.4276 41.3521 55.916 41.6796C55.5578 41.9149 54.7699 41.9047 54.4323 41.6489C53.9923 41.3317 53.9207 40.9224 53.9207 38.8043C53.9104 36.9318 53.9207 36.8397 54.1458 36.502C54.5448 35.9086 55.3634 35.7756 55.9569 36.1951Z" fill="white"/>
<path d="M110.474 35.2844C110.004 35.4277 109.605 35.7756 109.369 36.2565C109.165 36.6862 109.154 36.8295 109.185 38.9885C109.216 41.1987 109.226 41.2805 109.472 41.7103C109.84 42.3651 110.259 42.58 111.252 42.6312C111.968 42.6619 112.142 42.6312 112.541 42.4265C113.094 42.14 113.411 41.7 113.554 41.0042C113.697 40.3391 113.697 37.1978 113.554 36.6658C113.288 35.6937 112.551 35.1821 111.416 35.1923C111.047 35.1923 110.628 35.2333 110.474 35.2844ZM112.101 36.1644C112.654 36.5123 112.695 36.7067 112.695 38.8657C112.695 41.0247 112.644 41.2703 112.122 41.6489C111.764 41.9149 110.965 41.9149 110.618 41.6591C110.178 41.3317 110.106 40.9122 110.096 38.8862C110.085 36.5532 110.198 36.1951 111.037 36.0007C111.426 35.9086 111.784 35.97 112.101 36.1644Z" fill="white"/>
<path d="M58.4638 35.5095C58.5048 35.6425 58.9754 37.2592 59.528 39.1215L60.5205 42.4981L61.0833 42.5288L61.6461 42.5595L62.6897 38.9885C63.2628 37.0341 63.7334 35.397 63.7334 35.356C63.7334 35.223 62.833 35.2844 62.7818 35.4174C62.7511 35.4891 62.3725 36.9011 61.9326 38.5485C61.38 40.6461 61.114 41.4954 61.0526 41.3624C61.0117 41.26 60.6535 39.9196 60.2545 38.4052C59.8554 36.8806 59.5075 35.5607 59.4768 35.4584C59.4359 35.3253 59.3131 35.2844 58.914 35.2844C58.4434 35.2844 58.4127 35.2946 58.4638 35.5095Z" fill="white"/>
<path d="M64.6544 38.9169V42.5493H66.5473H68.4403V42.14V41.7307H67.0078H65.565L65.5957 40.4722L65.6264 39.2238L66.9361 39.1931L68.2356 39.1624V38.8145V38.4666L66.9361 38.4359L65.6264 38.4052L65.5957 37.249L65.565 36.103H67.0078H68.4403V35.6937V35.2844H66.5473H64.6544V38.9169Z" fill="white"/>
<path d="M69.6682 38.9066V42.5493H70.1286H70.5891V40.861V39.1727H71.1314C71.9192 39.1727 72.4104 39.3364 72.5741 39.6638C72.6457 39.8173 72.7378 40.4415 72.7788 41.0554C72.8708 42.4572 72.9118 42.5493 73.5257 42.5493C73.9555 42.5493 73.9862 42.5288 73.9248 42.314C73.8941 42.1912 73.8122 41.5568 73.7508 40.9121C73.628 39.541 73.4745 39.1113 73.0448 38.9271L72.7378 38.8043L73.1164 38.5485C73.6792 38.1904 73.8838 37.7299 73.8429 36.9523C73.802 36.2667 73.628 35.9393 73.1062 35.5505C72.8606 35.356 72.6457 35.3356 71.2439 35.2946L69.6682 35.264V38.9066ZM72.5127 36.3588C73.1369 36.8806 73.0039 38.0062 72.2876 38.3029C72.083 38.3848 71.6225 38.4564 71.2541 38.4564H70.5891V37.2797V36.103H71.3974C72.1137 36.103 72.2467 36.1337 72.5127 36.3588Z" fill="white"/>
<path d="M75.2958 38.9169V42.5493H75.7051H76.1144L76.1349 39.4796L76.1656 36.41L77.5572 39.4489L78.9487 42.4981L79.5729 42.5288L80.2073 42.5595V38.9169V35.2844H79.798H79.3887L79.3683 38.3029L79.3376 41.3214L77.9665 38.3029L76.5851 35.2844H75.9405H75.2958V38.9169Z" fill="white"/>
<path d="M81.9468 38.9169V42.5493H82.3561H82.7654V39.4592C82.7654 37.7606 82.7961 36.3997 82.8268 36.4407C82.8574 36.4714 83.3077 37.8425 83.8295 39.5001L84.7811 42.4981H85.2313H85.6713L86.1625 41.0145C86.4183 40.1959 86.8685 38.8145 87.155 37.9448L87.6666 36.3588V39.4489L87.6768 42.5493H88.1373H88.5977V38.9169V35.2844H87.8815C87.3085 35.2844 87.155 35.3151 87.0834 35.4584C87.0322 35.5607 86.6127 36.9011 86.142 38.4359C85.6713 39.9606 85.2723 41.1987 85.2416 41.168C85.2109 41.1475 84.7913 39.8173 84.3104 38.2313L83.4202 35.3356L82.6835 35.3049L81.9468 35.2742V38.9169Z" fill="white"/>
<path d="M90.2349 38.9169V42.5493H92.1279H94.0209V42.14V41.7307H92.5883H91.1456L91.1763 40.4722L91.207 39.2238L92.5167 39.1931L93.8162 39.1624V38.8145V38.4666L92.5167 38.4359L91.207 38.4052L91.1763 37.249L91.1456 36.103H92.5883H94.0209V35.6937V35.2844H92.1279H90.2349V38.9169Z" fill="white"/>
<path d="M95.2487 38.9169V42.5493H95.7092H96.1696L96.1901 39.5206L96.2208 36.4918L97.6021 39.5001L98.9835 42.4981L99.6281 42.5288L100.263 42.5595V38.9169V35.2844H99.8532H99.4439V38.3746V41.4749L98.0319 38.4052L96.6301 35.3356L95.9343 35.3049L95.2487 35.2742V38.9169Z" fill="white"/>
<path d="M101.286 35.6937V36.103H102.207H103.128V39.3262V42.5493H103.588H104.048L104.069 39.3466L104.1 36.1542L105.051 36.1235L105.993 36.0928V35.6937V35.2844H103.639H101.286V35.6937Z" fill="white"/>
<path d="M115.202 38.9169V42.5493H115.662H116.123L116.143 40.8815L116.174 39.2238L117.432 39.1931L118.681 39.1624V38.8145V38.4666L117.432 38.4359L116.174 38.4052L116.143 37.249L116.112 36.103H117.453H118.783V35.6937V35.2844H116.992H115.202V38.9169Z" fill="white"/>
<path d="M122.528 38.4769C121.965 40.2368 121.453 41.874 121.382 42.1196L121.249 42.5595L121.73 42.5288L122.2 42.4981L122.466 41.6591L122.722 40.8098H124.114H125.505L125.761 41.6489L126.007 42.4981L126.539 42.5288C126.836 42.5493 127.071 42.5391 127.071 42.5288C127.071 42.5084 126.549 40.8815 125.905 38.9169L124.748 35.3356L124.134 35.3049L123.531 35.2742L122.528 38.4769ZM124.677 38.0983C124.943 38.9987 125.178 39.7968 125.209 39.8582C125.239 39.9605 124.984 39.9912 124.104 39.9912C123.234 39.9912 122.968 39.9605 123.009 39.8582C123.029 39.7968 123.275 38.968 123.551 38.0267C123.827 37.0853 124.083 36.3486 124.114 36.3895C124.155 36.4304 124.4 37.1978 124.677 38.0983Z" fill="white"/>
<path d="M128.094 38.9169V42.5493H129.424C131.082 42.5493 131.676 42.4265 132.126 42.007C133.129 41.0554 132.77 39.1215 131.532 38.8043L131.246 38.7327L131.532 38.6099C131.696 38.5383 131.942 38.3541 132.085 38.2006C132.32 37.955 132.341 37.8425 132.341 37.0546V36.1849L131.962 35.8472C131.461 35.3765 131.031 35.2844 129.455 35.2844H128.094V38.9169ZM130.898 36.2462C131.317 36.4202 131.522 36.8704 131.44 37.4537C131.348 38.1494 131.103 38.2927 130.038 38.3336L129.117 38.3746V37.2388V36.103H129.834C130.233 36.103 130.703 36.1644 130.898 36.2462ZM131.051 39.3057C131.624 39.6024 131.89 40.4722 131.573 41.0554C131.328 41.5159 130.98 41.6693 130.018 41.7103L129.117 41.7512V40.4619V39.1727H129.967C130.427 39.1727 130.918 39.2341 131.051 39.3057Z" fill="white"/>
<path d="M134.131 37.8936C134.131 39.3569 134.182 40.7177 134.244 41.0042C134.479 42.1093 135.185 42.6516 136.382 42.6516C137.487 42.6414 138.285 42.1298 138.531 41.2396C138.582 41.0247 138.633 39.6741 138.633 38.0676V35.2844H138.173H137.712V38.0164C137.712 40.4824 137.692 40.7996 137.518 41.1884C137.405 41.4238 137.221 41.6693 137.099 41.7307C136.74 41.9149 135.983 41.874 135.676 41.6489C135.134 41.2498 135.103 41.0861 135.073 38.0676L135.042 35.2844H134.581H134.131V37.8936Z" fill="white"/>
<path d="M142.522 38.9066V42.5493H143.586C145.53 42.5493 146.338 42.2423 146.748 41.3419C146.932 40.9326 146.973 40.6052 147.003 39.2136C147.065 36.8193 146.86 36.0825 145.95 35.5709C145.581 35.3663 145.377 35.3356 144.036 35.3049L142.522 35.264V38.9066ZM145.356 36.2769C145.97 36.5634 146.103 37.0137 146.103 38.8248C146.103 40.4312 146.021 40.9019 145.663 41.2907C145.428 41.5568 144.599 41.7614 143.954 41.7103L143.494 41.6796L143.463 39.0192C143.453 37.556 143.463 36.3076 143.494 36.236C143.565 36.0314 144.916 36.0621 145.356 36.2769Z" fill="white"/>
<path d="M148.661 38.9169V42.5493H149.121H149.582L149.602 40.8815L149.633 39.2238H150.861H152.089L152.12 40.8815L152.14 42.5493H152.6H153.061V38.9169V35.2844H152.6H152.15L152.12 36.8397L152.089 38.4052H150.861H149.633L149.602 36.8397L149.572 35.2844H149.121H148.661V38.9169Z" fill="white"/>
<path d="M156.039 36.2258C155.537 37.7709 154.084 42.4163 154.084 42.4879C154.084 42.5186 154.289 42.5493 154.545 42.5493H154.995L155.271 41.6796L155.547 40.7996L156.939 40.8303L158.331 40.861L158.576 41.7L158.822 42.5493H159.323C159.64 42.5493 159.814 42.5084 159.814 42.4265C159.814 42.3549 159.303 40.7177 158.668 38.7941L157.522 35.2844H156.939H156.356L156.039 36.2258ZM157.461 38.0574C157.737 38.9783 157.972 39.7968 157.972 39.8582C157.972 39.9606 157.686 39.9912 156.898 39.9912C156.305 39.9912 155.824 39.9606 155.824 39.9299C155.824 39.8787 156.55 37.3411 156.806 36.4816C156.837 36.3793 156.888 36.3076 156.908 36.3383C156.929 36.3588 157.185 37.1365 157.461 38.0574Z" fill="white"/>
<path d="M160.94 38.9169V42.5698L162.556 42.5288C164.02 42.4982 164.204 42.4777 164.582 42.2526C165.248 41.874 165.473 41.3828 165.421 40.4005C165.391 39.6741 165.36 39.5615 165.094 39.2852C164.92 39.1113 164.634 38.9169 164.449 38.8452L164.112 38.7225L164.501 38.5076C165.043 38.2108 165.258 37.7402 165.217 36.9523C165.176 36.2258 164.971 35.8677 164.408 35.5402C164.112 35.3663 163.835 35.3356 162.505 35.2947L160.94 35.264V38.9169ZM163.948 36.3997C164.275 36.7067 164.378 37.1978 164.214 37.689C164.05 38.1801 163.641 38.3541 162.628 38.3541H161.861V37.2183V36.0825L162.771 36.1235C163.569 36.1542 163.723 36.1849 163.948 36.3997ZM163.856 39.3159C164.316 39.5103 164.562 39.9913 164.49 40.5745C164.398 41.3931 163.856 41.7307 162.628 41.7307H161.861V40.4517V39.1727H162.679C163.16 39.1727 163.651 39.2341 163.856 39.3159Z" fill="white"/>
<path d="M167.079 38.9169V42.5493H167.54H168V38.9169V35.2844H167.54H167.079V38.9169Z" fill="white"/>
</svg>
