<svg width="22" height="16" viewBox="0 0 22 16" fill="none" xmlns="http://www.w3.org/2000/svg">
<path fill-rule="evenodd" clip-rule="evenodd" d="M0 2.18182C0 1.60316 0.229869 1.04821 0.63904 0.63904C1.04821 0.22987 1.60316 0 2.18182 0H19.6364C20.215 0 20.77 0.22987 21.1791 0.63904C21.5883 1.04821 21.8182 1.60316 21.8182 2.18182V13.8182C21.8182 14.3968 21.5883 14.9518 21.1791 15.361C20.77 15.7701 20.215 16 19.6364 16H2.18182C1.60316 16 1.04821 15.7701 0.63904 15.361C0.229869 14.9518 0 14.3968 0 13.8182L0 2.18182ZM4.36364 5.81818C4.36364 5.04664 4.67013 4.3067 5.21569 3.76114C5.76125 3.21558 6.50119 2.90909 7.27273 2.90909C8.04427 2.90909 8.78421 3.21558 9.32977 3.76114C9.87533 4.3067 10.1818 5.04664 10.1818 5.81818C10.1818 6.58972 9.87533 7.32966 9.32977 7.87522C8.78421 8.42078 8.04427 8.72727 7.27273 8.72727C6.50119 8.72727 5.76125 8.42078 5.21569 7.87522C4.67013 7.32966 4.36364 6.58972 4.36364 5.81818ZM17.4545 5.81818H13.0909V4.36364H17.4545V5.81818ZM17.4545 10.1818H13.0909V8.72727H17.4545V10.1818ZM7.27273 10.1818C6.48217 10.1823 5.70733 10.4027 5.03485 10.8183C4.36236 11.2339 3.81872 11.8284 3.46473 12.5353L2.98473 13.4924C2.92911 13.6034 2.90283 13.7267 2.90839 13.8507C2.91395 13.9748 2.95116 14.0953 3.01649 14.2009C3.08181 14.3064 3.17307 14.3935 3.28157 14.4538C3.39008 14.5142 3.51222 14.5457 3.63636 14.5455H10.9091C11.0331 14.5455 11.1551 14.5137 11.2634 14.4533C11.3717 14.3929 11.4627 14.3058 11.5279 14.2002C11.593 14.0947 11.6301 13.9743 11.6356 13.8504C11.6411 13.7265 11.6148 13.6032 11.5593 13.4924L11.0807 12.5353C10.7267 11.8284 10.1831 11.2339 9.51061 10.8183C8.83812 10.4027 8.06328 10.1823 7.27273 10.1818Z" fill="#B2B7BB"/>
</svg>
