<svg width="15" height="17" viewBox="0 0 15 17" fill="none" xmlns="http://www.w3.org/2000/svg">
<path d="M1.53108 0.052308C1.1277 0.197526 0.845332 0.487962 0.708181 0.887312C0.651707 1.05673 0.64364 1.41978 0.64364 4.09018V7.09942L0.48632 7.26884C0.292696 7.4786 0.13941 7.77307 0.0587335 8.08368C-0.203466 9.0881 0.437914 10.145 1.47058 10.4152C2.55971 10.6976 3.68112 9.93521 3.84247 8.79767C3.92315 8.25713 3.74163 7.66013 3.39068 7.27691L3.22933 7.09942L3.21723 4.01757L3.20513 0.935718L3.06798 0.681587C2.83401 0.254 2.4871 0.0321388 1.99901 0.00390197C1.79732 -0.00819954 1.66017 0.00793581 1.53108 0.052308ZM2.15633 2.83162L2.25717 2.92843V5.36084L2.26121 7.79324L2.41449 7.89812C2.62022 8.04334 2.72107 8.25713 2.72107 8.5637C2.72107 8.76136 2.69686 8.84204 2.61215 8.97112C2.44676 9.22122 2.24911 9.3261 1.93447 9.3261C1.61983 9.3261 1.42217 9.22122 1.25678 8.97112C1.17207 8.84204 1.14787 8.76136 1.14787 8.5637C1.14787 8.25713 1.24872 8.04334 1.45444 7.89812L1.60773 7.79324L1.61176 5.36084V2.92843L1.71261 2.83162C1.77311 2.76708 1.85782 2.73078 1.93447 2.73078C2.01111 2.73078 2.09582 2.76708 2.15633 2.83162Z" fill="white"/>
<path d="M7.60195 0.834856C7.23891 0.89133 6.71451 1.06478 6.35146 1.24631C4.52414 2.16199 3.61249 4.28379 4.2216 6.22003C4.70162 7.74885 5.98842 8.87026 7.56162 9.12439C10.3692 9.58425 12.8217 7.13167 12.3619 4.32412C12.0916 2.65008 10.8855 1.34715 9.21549 0.911499C8.84438 0.818721 7.9892 0.774349 7.60195 0.834856ZM7.32765 4.52985C7.42043 4.62263 7.4285 4.6549 7.40833 4.84852C7.35589 5.34469 6.98074 5.73193 6.47248 5.81261C6.15784 5.86102 5.95211 5.64319 6.06506 5.37696C6.11347 5.26401 6.15381 5.2277 6.29902 5.1914C6.39584 5.1672 6.50475 5.13493 6.54509 5.12686C6.64593 5.09459 6.77502 4.87676 6.77502 4.73558C6.77502 4.46127 7.12596 4.32816 7.32765 4.52985ZM9.57853 4.52582C9.63904 4.58229 9.67938 4.67103 9.67938 4.73558C9.67938 4.87676 9.80846 5.09459 9.90931 5.12686C9.94965 5.13493 10.0586 5.1672 10.1554 5.1914C10.3006 5.2277 10.3409 5.26401 10.3893 5.37696C10.4377 5.49394 10.4377 5.53831 10.3974 5.62705C10.2078 6.02237 9.43332 5.76824 9.14691 5.2156C9.10254 5.13089 9.05817 4.9655 9.04607 4.84852C9.0259 4.6549 9.03397 4.62263 9.12674 4.52985C9.26389 4.3927 9.44542 4.3927 9.57853 4.52582ZM8.64268 6.92595C8.99363 7.03486 9.2881 7.29303 9.2881 7.49069C9.2881 7.64397 9.13078 7.81339 8.98556 7.81339C8.93715 7.81339 8.80404 7.74885 8.68706 7.66818C8.34015 7.43018 8.0013 7.43825 7.6786 7.69641C7.49304 7.84163 7.33169 7.8497 7.19857 7.71255C7.04528 7.5633 7.06545 7.38984 7.24294 7.22042C7.61406 6.87351 8.11828 6.7646 8.64268 6.92595Z" fill="white"/>
<path d="M5.80691 9.85049C5.77463 9.85856 5.60925 9.8868 5.44386 9.911C3.57216 10.2135 2.01913 11.698 1.56331 13.6221C1.45843 14.0699 1.41002 15.9295 1.49473 16.2361C1.56331 16.4821 1.88198 16.8089 2.11998 16.8815C2.24906 16.9178 3.68107 16.9299 8.23527 16.9299C14.9597 16.9299 14.4191 16.9581 14.7338 16.6072C15 16.3087 15.0162 16.2159 14.992 15.0057C14.9758 14.1546 14.9556 13.9045 14.8911 13.6221C14.4514 11.7706 13.0839 10.3991 11.2122 9.93924C10.8855 9.8626 10.7484 9.85453 8.36839 9.84646C6.99285 9.84243 5.83918 9.84243 5.80691 9.85049Z" fill="white"/>
</svg>
