<svg width="26" height="25" viewBox="0 0 26 25" fill="none" xmlns="http://www.w3.org/2000/svg">
<path d="M11.8304 0.0308491C7.97934 0.430685 4.60487 2.52621 2.5542 5.79234C-0.35333 10.4169 0.190628 16.5301 3.86355 20.5574C5.89978 22.7878 8.44146 24.1222 11.4934 24.5557C12.0614 24.6376 13.9532 24.6328 14.5502 24.5557C17.3373 24.1703 19.8309 22.9323 21.7275 20.9957C22.3533 20.3599 22.4833 20.2105 22.8973 19.6614C24.1296 18.0187 24.9335 16.0147 25.2464 13.8276C25.3282 13.2592 25.3282 11.3611 25.2464 10.7927C25.0394 9.33306 24.6591 8.09019 24.0574 6.87142C23.4123 5.58038 22.7577 4.66028 21.7323 3.62456C19.8309 1.69764 17.4529 0.498127 14.7186 0.0934741C14.1265 0.00676263 12.4176 -0.0317758 11.8304 0.0308491ZM14.1506 4.40496C16.9137 4.93968 18.9018 7.20863 19.0992 10.046C19.2243 11.8236 17.8476 14.4683 14.8679 18.1632C14.2565 18.9195 13.0531 20.3069 13.0097 20.3069C12.9664 20.3069 11.763 18.9195 11.1516 18.1632C9.55344 16.1833 8.46071 14.5646 7.73865 13.105C6.9203 11.4479 6.75663 10.5229 7.04065 9.15482C7.53647 6.76062 9.41384 4.89632 11.8304 4.40978C12.4417 4.28453 13.5248 4.28453 14.1506 4.40496Z" fill="white"/>
<path d="M12.4371 8.05163C11.2192 8.37921 10.4634 9.64616 10.7715 10.8408C11.094 12.0741 12.3552 12.84 13.5635 12.5269C14.7958 12.2041 15.5612 10.942 15.2483 9.73287C15.0847 9.12107 14.5936 8.49001 14.0641 8.22987C13.5635 7.98419 12.9473 7.91193 12.4371 8.05163Z" fill="white"/>
</svg>
