<svg width="14" height="14" viewBox="0 0 14 14" fill="none" xmlns="http://www.w3.org/2000/svg">
<path fill-rule="evenodd" clip-rule="evenodd" d="M7.46667 0.950133V0H6.53333V0.950133C5.09042 1.06133 3.7348 1.68467 2.71114 2.70765C1.68748 3.73062 1.06323 5.08583 0.951067 6.52867H0V7.462H0.951067C1.06318 8.90566 1.68718 10.2618 2.71065 11.2862C3.73412 12.3105 5.08976 12.9356 6.53333 13.0489V14H7.46667V13.0489C8.91024 12.9356 10.2659 12.3105 11.2893 11.2862C12.3128 10.2618 12.9368 8.90566 13.0489 7.462H14V6.52867H13.0489C12.9368 5.08583 12.3125 3.73062 11.2889 2.70765C10.2652 1.68467 8.90958 1.06133 7.46667 0.950133ZM7.46667 2.8V6.52867H11.2V7.462H7.46667V11.2H6.53333V7.462H2.8V6.52867H6.53333V2.8H7.46667Z" fill="white"/>
</svg>
