<svg width="29" height="28" viewBox="0 0 29 28" fill="none" xmlns="http://www.w3.org/2000/svg">
<path fill-rule="evenodd" clip-rule="evenodd" d="M8.05556 6.15152C8.05556 4.52003 8.73452 2.95537 9.94309 1.80174C11.1517 0.648104 12.7908 0 14.5 0C16.2092 0 17.8483 0.648104 19.0569 1.80174C20.2655 2.95537 20.9444 4.52003 20.9444 6.15152C20.9444 7.783 20.2655 9.34766 19.0569 10.5013C17.8483 11.6549 16.2092 12.303 14.5 12.303C12.7908 12.303 11.1517 11.6549 9.94309 10.5013C8.73452 9.34766 8.05556 7.783 8.05556 6.15152ZM8.05556 15.3788C5.91909 15.3788 3.87013 16.1889 2.35942 17.631C0.848708 19.073 0 21.0288 0 23.0682C0 24.2918 0.509225 25.4653 1.41565 26.3305C2.32208 27.1957 3.55145 27.6818 4.83333 27.6818H24.1667C25.4485 27.6818 26.6779 27.1957 27.5844 26.3305C28.4908 25.4653 29 24.2918 29 23.0682C29 21.0288 28.1513 19.073 26.6406 17.631C25.1299 16.1889 23.0809 15.3788 20.9444 15.3788H8.05556Z" fill="white"/>
</svg>
