<svg width="87" height="73" viewBox="0 0 87 73" fill="none" xmlns="http://www.w3.org/2000/svg">
<path d="M43.384 8.58946C43.384 13.3332 39.5384 17.1789 34.7945 17.1789H26.2051V8.58946C26.2051 3.84563 30.0507 0 34.7945 0C39.5384 0 43.384 3.84563 43.384 8.58946Z" fill="white"/>
<path d="M43.3839 25.7684C43.3839 21.0246 47.2296 17.1789 51.9734 17.1789H60.5628V25.7684C60.5628 30.5121 56.7172 34.3578 51.9734 34.3578C47.2296 34.3578 43.3839 30.5121 43.3839 25.7684Z" fill="white"/>
<path d="M26.2051 25.7684C26.2051 30.5121 30.0507 34.3578 34.7945 34.3578H43.384V25.7684C43.384 21.0246 39.5384 17.1789 34.7945 17.1789C30.0507 17.1789 26.2051 21.0246 26.2051 25.7684Z" fill="white"/>
<path d="M60.5628 8.58946C60.5628 3.84563 56.7172 0 51.9734 0H43.3839V8.58946C43.3839 13.3332 47.2296 17.1789 51.9734 17.1789C56.7172 17.1789 60.5628 13.3332 60.5628 8.58946Z" fill="white"/>
<path d="M16.4421 51.7185C16.2223 51.7185 16.0486 51.6476 15.921 51.5058C15.7933 51.3711 15.7295 51.1867 15.7295 50.9528C15.7295 50.7188 15.7933 50.5309 15.921 50.3891C16.0415 50.2544 16.2152 50.1871 16.4421 50.1871C16.6618 50.1871 16.832 50.2544 16.9525 50.3891C17.0801 50.5238 17.1439 50.7117 17.1439 50.9528C17.1439 51.1867 17.0801 51.3711 16.9525 51.5058C16.8249 51.6476 16.6547 51.7185 16.4421 51.7185ZM15.0927 49.0598C14.4405 49.0598 13.9229 48.8719 13.5401 48.4962C13.1643 48.1133 12.9764 47.5887 12.9764 46.9223C12.9764 46.7379 12.9906 46.5501 13.019 46.3586C13.0473 46.1601 13.0863 45.9687 13.136 45.7844C13.1927 45.6 13.2529 45.437 13.3167 45.2952H14.7205C14.6709 45.522 14.6319 45.7525 14.6035 45.9864C14.5752 46.2204 14.561 46.4543 14.561 46.6883C14.561 47.0144 14.6531 47.2803 14.8375 47.4859C15.0218 47.6844 15.2629 47.7837 15.5606 47.7837H19.0169V43.7957H20.6014V47.7837H21.9839C22.0194 47.7837 22.0371 47.7978 22.0371 47.8262V49.0066C22.0371 49.0421 22.0194 49.0598 21.9839 49.0598H15.0927ZM23.8048 47.7837C23.8403 47.7837 23.858 47.7978 23.858 47.8262V49.0066C23.858 49.0421 23.8403 49.0598 23.8048 49.0598H21.88C21.8445 49.0598 21.8268 49.0421 21.8268 49.0066V47.8262C21.8268 47.7978 21.8445 47.7837 21.88 47.7837H23.8048ZM25.6223 47.7837C25.6577 47.7837 25.6754 47.7978 25.6754 47.8262V49.0066C25.6754 49.0421 25.6577 49.0598 25.6223 49.0598H23.6974C23.662 49.0598 23.6442 49.0421 23.6442 49.0066V47.8262C23.6442 47.7978 23.662 47.7837 23.6974 47.7837H25.6223ZM26.7847 51.7185C26.5649 51.7185 26.3912 51.6476 26.2636 51.5058C26.136 51.3711 26.0722 51.1867 26.0722 50.9528C26.0722 50.7188 26.136 50.5309 26.2636 50.3891C26.3912 50.2544 26.5649 50.1871 26.7847 50.1871C27.0044 50.1871 27.1781 50.2544 27.3058 50.3891C27.4263 50.5238 27.4865 50.7117 27.4865 50.9528C27.4865 51.1938 27.4227 51.3817 27.2951 51.5164C27.1675 51.6511 26.9974 51.7185 26.7847 51.7185ZM28.5925 51.7185C28.3728 51.7185 28.1991 51.6476 28.0714 51.5058C27.9438 51.3711 27.88 51.1867 27.88 50.9528C27.88 50.7188 27.9438 50.5309 28.0714 50.3891C28.1991 50.2544 28.3728 50.1871 28.5925 50.1871C28.8123 50.1871 28.9825 50.2544 29.103 50.3891C29.2306 50.5309 29.2944 50.7188 29.2944 50.9528C29.2944 51.1867 29.2306 51.3711 29.103 51.5058C28.9754 51.6476 28.8052 51.7185 28.5925 51.7185ZM25.5148 49.0598C25.4794 49.0598 25.4617 49.0421 25.4617 49.0066V47.8262C25.4617 47.7978 25.4794 47.7837 25.5148 47.7837H27.1632V43.7957H28.7477V47.7837H30.3429C30.3784 47.7837 30.3961 47.7978 30.3961 47.8262V49.0066C30.3961 49.0421 30.3784 49.0598 30.3429 49.0598H25.5148ZM32.165 47.7837C32.2005 47.7837 32.2182 47.7978 32.2182 47.8262V49.0066C32.2182 49.0421 32.2005 49.0598 32.165 49.0598H30.2402C30.2047 49.0598 30.187 49.0421 30.187 49.0066V47.8262C30.187 47.7978 30.2047 47.7837 30.2402 47.7837H32.165ZM33.9824 47.7837C34.0179 47.7837 34.0356 47.7978 34.0356 47.8262V49.0066C34.0356 49.0421 34.0179 49.0598 33.9824 49.0598H32.0576C32.0221 49.0598 32.0044 49.0421 32.0044 49.0066V47.8262C32.0044 47.7978 32.0221 47.7837 32.0576 47.7837H33.9824ZM35.7999 47.7837C35.8353 47.7837 35.853 47.7978 35.853 47.8262V49.0066C35.853 49.0421 35.8353 49.0598 35.7999 49.0598H33.875C33.8396 49.0598 33.8218 49.0421 33.8218 49.0066V47.8262C33.8218 47.7978 33.8396 47.7837 33.875 47.7837H35.7999ZM37.6173 47.7837C37.6527 47.7837 37.6705 47.7978 37.6705 47.8262V49.0066C37.6705 49.0421 37.6527 49.0598 37.6173 49.0598H35.6924C35.657 49.0598 35.6393 49.0421 35.6393 49.0066V47.8262C35.6393 47.7978 35.657 47.7837 35.6924 47.7837H37.6173ZM40.1621 51.7185C39.9423 51.7185 39.7686 51.6476 39.641 51.5058C39.5134 51.3711 39.4496 51.1867 39.4496 50.9528C39.4496 50.7188 39.5134 50.5309 39.641 50.3891C39.7616 50.2544 39.9352 50.1871 40.1621 50.1871C40.3819 50.1871 40.5521 50.2544 40.6726 50.3891C40.8002 50.5238 40.864 50.7117 40.864 50.9528C40.864 51.1867 40.8002 51.3711 40.6726 51.5058C40.545 51.6476 40.3748 51.7185 40.1621 51.7185ZM37.5099 49.0598C37.4744 49.0598 37.4567 49.0421 37.4567 49.0066V47.8262C37.4567 47.7978 37.4744 47.7837 37.5099 47.7837H41.8062C41.7141 47.6915 41.6255 47.5781 41.5404 47.4434C41.4624 47.3016 41.3915 47.1314 41.3277 46.9329C41.271 46.7344 41.2142 46.5111 41.1575 46.2629C41.1079 46.0148 41.0476 45.8092 40.9767 45.6461C40.9058 45.4831 40.8208 45.3519 40.7215 45.2526C40.6293 45.1463 40.5124 45.0719 40.3706 45.0293C40.2359 44.9868 40.0728 44.9655 39.8814 44.9655C39.6332 44.9655 39.3993 44.9974 39.1795 45.0612C38.9597 45.125 38.7222 45.2278 38.467 45.3696L37.9884 44.1998C38.3004 44.0297 38.6407 43.9021 39.0094 43.817C39.378 43.7319 39.7573 43.6894 40.1472 43.6894C40.3741 43.6894 40.5762 43.7 40.7534 43.7213C40.9378 43.7425 41.1044 43.7815 41.2532 43.8382C41.5085 43.9233 41.7283 44.0509 41.9126 44.2211C42.0969 44.3842 42.2493 44.5898 42.3699 44.8379C42.4975 45.086 42.5897 45.3873 42.6464 45.7418C42.7102 46.0892 42.7775 46.3976 42.8484 46.667C42.9264 46.9364 43.0115 47.1633 43.1037 47.3476C43.1958 47.532 43.2915 47.6773 43.3908 47.7837H44.082C44.1175 47.7837 44.1352 47.7978 44.1352 47.8262V49.0066C44.1352 49.0421 44.1175 49.0598 44.082 49.0598H37.5099ZM45.0942 41.8811C44.8745 41.8811 44.7008 41.8138 44.5731 41.6791C44.4455 41.5373 44.3817 41.3494 44.3817 41.1154C44.3817 40.8744 44.4455 40.6865 44.5731 40.5518C44.7008 40.4171 44.8745 40.3498 45.0942 40.3498C45.314 40.3498 45.4877 40.4171 45.6153 40.5518C45.7359 40.6865 45.7961 40.8744 45.7961 41.1154C45.7961 41.3565 45.7323 41.5444 45.6047 41.6791C45.4771 41.8138 45.3069 41.8811 45.0942 41.8811ZM46.9021 41.8811C46.6823 41.8811 46.5086 41.8138 46.381 41.6791C46.2534 41.5373 46.1896 41.3494 46.1896 41.1154C46.1896 40.8744 46.2534 40.6865 46.381 40.5518C46.5086 40.4171 46.6823 40.3498 46.9021 40.3498C47.1219 40.3498 47.292 40.4171 47.4126 40.5518C47.5402 40.6865 47.604 40.8744 47.604 41.1154C47.604 41.3494 47.5402 41.5373 47.4126 41.6791C47.285 41.8138 47.1148 41.8811 46.9021 41.8811ZM43.9799 49.0598C43.9445 49.0598 43.9268 49.0421 43.9268 49.0066V47.8262C43.9268 47.7978 43.9445 47.7837 43.9799 47.7837H45.6283V43.7957H47.2128V47.7837H48.808C48.8435 47.7837 48.8612 47.7978 48.8612 47.8262V49.0066C48.8612 49.0421 48.8435 49.0598 48.808 49.0598H43.9799ZM56.3196 49.0598C56.0147 49.0598 55.7241 48.9925 55.4476 48.8578C55.1711 48.7231 54.9052 48.5245 54.65 48.2622C54.4515 48.5245 54.2033 48.7231 53.9055 48.8578C53.6149 48.9925 53.271 49.0598 52.874 49.0598H48.7052C48.6698 49.0598 48.6521 49.0421 48.6521 49.0066V47.8262C48.6521 47.7978 48.6698 47.7837 48.7052 47.7837H50.0346V44.6252H51.6191V47.7837H52.5231C52.8775 47.7837 53.1363 47.688 53.2994 47.4965C53.4624 47.298 53.544 46.9825 53.544 46.5501V44.6252H55.1285V46.6777C55.1285 46.7627 55.125 46.8443 55.1179 46.9223C55.1179 47.0003 55.1108 47.0782 55.0966 47.1562C55.2739 47.3902 55.4476 47.5533 55.6177 47.6454C55.7879 47.7376 56.0112 47.7837 56.2877 47.7837H56.947V43.7957H58.5316V47.7837H59.9141C59.9495 47.7837 59.9673 47.7978 59.9673 47.8262V49.0066C59.9673 49.0421 59.9495 49.0598 59.9141 49.0598H56.3196ZM61.0089 47.7837C60.9167 47.5639 60.8458 47.3335 60.7962 47.0924C60.7465 46.8443 60.7217 46.5855 60.7217 46.3161C60.7217 46.0112 60.7714 45.6816 60.8706 45.3271C60.977 44.9655 61.1081 44.6571 61.2641 44.4019C61.6044 44.2034 61.966 44.0545 62.3488 43.9552C62.7387 43.8489 63.0791 43.7957 63.3697 43.7957C63.6108 43.7957 63.8412 43.8241 64.061 43.8808C64.2808 43.9304 64.4899 44.0049 64.6884 44.1041C65.0854 44.3097 65.3938 44.6039 65.6136 44.9868C65.8334 45.3625 65.9433 45.8021 65.9433 46.3055C65.9433 46.504 65.9256 46.6954 65.8901 46.8797C65.8618 47.057 65.8121 47.2307 65.7412 47.4008C65.8689 47.5426 66.0142 47.6419 66.1773 47.6986C66.3474 47.7553 66.5566 47.7837 66.8047 47.7837H66.8579C66.8933 47.7837 66.911 47.7978 66.911 47.8262V49.0066C66.911 49.0421 66.8933 49.0598 66.8579 49.0598H66.8047C66.4289 49.0598 66.1028 49.0066 65.8263 48.9003C65.5498 48.794 65.291 48.6096 65.05 48.3473C64.7806 48.5813 64.4686 48.7585 64.1142 48.879C63.7668 48.9996 63.4087 49.0598 63.0401 49.0598H59.8072C59.7717 49.0598 59.754 49.0421 59.754 49.0066V47.8262C59.754 47.7978 59.7717 47.7837 59.8072 47.7837H61.0089ZM62.1893 46.5394C62.1893 46.7167 62.2106 46.9116 62.2531 47.1243C62.2956 47.3299 62.3559 47.5497 62.4339 47.7837H62.838C63.1216 47.7837 63.3768 47.7199 63.6037 47.5922C63.8306 47.4575 64.0113 47.2768 64.1461 47.0499C64.2808 46.823 64.3481 46.5749 64.3481 46.3055C64.3481 45.9297 64.2559 45.6319 64.0716 45.4122C63.8873 45.1853 63.6427 45.0719 63.3378 45.0719C63.1819 45.0719 63.0188 45.0967 62.8486 45.1463C62.6856 45.1959 62.519 45.2704 62.3488 45.3696C62.2992 45.554 62.2602 45.7454 62.2318 45.9439C62.2035 46.1353 62.1893 46.3338 62.1893 46.5394ZM66.7549 49.0598C66.7195 49.0598 66.7018 49.0421 66.7018 49.0066V47.8262C66.7018 47.7978 66.7195 47.7837 66.7549 47.7837H68.0843V40.9775H69.6688V49.0598H66.7549ZM71.7972 40.9775H73.3818V49.0598H71.7972V40.9775ZM14.4625 68.7185C14.2427 68.7185 14.069 68.6476 13.9414 68.5058C13.8138 68.3711 13.75 68.1867 13.75 67.9528C13.75 67.7188 13.8138 67.5309 13.9414 67.3891C14.069 67.2544 14.2427 67.1871 14.4625 67.1871C14.6823 67.1871 14.856 67.2544 14.9836 67.3891C15.1041 67.5238 15.1644 67.7117 15.1644 67.9528C15.1644 68.1938 15.1006 68.3817 14.9729 68.5164C14.8453 68.6511 14.6752 68.7185 14.4625 68.7185ZM16.2704 68.7185C16.0506 68.7185 15.8769 68.6476 15.7493 68.5058C15.6217 68.3711 15.5578 68.1867 15.5578 67.9528C15.5578 67.7188 15.6217 67.5309 15.7493 67.3891C15.8769 67.2544 16.0506 67.1871 16.2704 67.1871C16.4901 67.1871 16.6603 67.2544 16.7808 67.3891C16.9084 67.5309 16.9722 67.7188 16.9722 67.9528C16.9722 68.1867 16.9084 68.3711 16.7808 68.5058C16.6532 68.6476 16.4831 68.7185 16.2704 68.7185ZM14.0079 66.6121C13.5755 66.6121 13.1997 66.5022 12.8807 66.2824C12.5616 66.0697 12.3135 65.7791 12.1363 65.4104C11.959 65.0488 11.8704 64.6412 11.8704 64.1874C11.8704 63.84 11.8988 63.4962 11.9555 63.1559C12.0122 62.8156 12.0973 62.4753 12.2107 62.135H13.6251C13.5329 62.4256 13.4727 62.7057 13.4443 62.9751C13.416 63.2374 13.4018 63.5635 13.4018 63.9535C13.4018 64.1945 13.4585 64.4214 13.5719 64.6341C13.6925 64.8468 13.8484 65.0169 14.0398 65.1445C14.2384 65.2722 14.4475 65.336 14.6673 65.336H16.5071C16.7907 65.336 17.0423 65.3218 17.2621 65.2934C17.489 65.2722 17.6662 65.2225 17.7938 65.1445C17.9286 65.0666 17.9959 64.9425 17.9959 64.7723C17.9959 64.6518 17.9356 64.5455 17.8151 64.4533C17.7017 64.3682 17.5174 64.2938 17.2621 64.23C16.8651 64.1307 16.5496 64.0102 16.3156 63.8684C16.0817 63.7195 15.9151 63.5423 15.8158 63.3367C15.7237 63.1311 15.6776 62.8865 15.6776 62.6029C15.6776 62.4185 15.7095 62.2271 15.7733 62.0286C15.8442 61.8301 15.947 61.6316 16.0817 61.4331C16.266 61.1637 16.4858 60.9191 16.741 60.6993C16.9963 60.4795 17.2621 60.3058 17.5386 60.1782C17.8222 60.0506 18.0916 59.9868 18.3468 59.9868C18.4603 59.9868 18.5702 59.9974 18.6765 60.0187C18.7829 60.0329 18.8857 60.0648 18.9849 60.1144C19.2189 60.2278 19.4422 60.4051 19.6549 60.6461C19.8676 60.8872 20.1264 61.2275 20.4312 61.667C20.5943 61.901 20.7396 62.0924 20.8672 62.2413C21.0019 62.3902 21.1189 62.5001 21.2182 62.571C21.3174 62.6419 21.4202 62.695 21.5266 62.7305C21.64 62.7659 21.7535 62.7837 21.8669 62.7837H21.9201C21.9555 62.7837 21.9732 62.7978 21.9732 62.8262V64.0066C21.9732 64.0421 21.9555 64.0598 21.9201 64.0598H21.8669C21.6117 64.0598 21.3812 64.0385 21.1756 63.996C20.9771 63.9464 20.7893 63.8648 20.612 63.7514C20.4348 63.638 20.2504 63.482 20.059 63.2835C20.0236 63.248 19.9598 63.1701 19.8676 63.0495C19.7754 62.9219 19.6584 62.7589 19.5166 62.5603C19.3536 62.3264 19.2047 62.1314 19.07 61.9754C18.9424 61.8195 18.8289 61.7025 18.7297 61.6245C18.6375 61.5465 18.5454 61.4898 18.4532 61.4543C18.361 61.4118 18.2724 61.3905 18.1873 61.3905C18.0952 61.3905 17.9888 61.426 17.8683 61.4969C17.7478 61.5607 17.6308 61.6458 17.5174 61.7521C17.411 61.8585 17.3224 61.9684 17.2515 62.0818C17.1806 62.1952 17.1451 62.2945 17.1451 62.3796C17.1451 62.4717 17.17 62.5603 17.2196 62.6454C17.2763 62.7234 17.3614 62.7978 17.4748 62.8687C17.5882 62.9326 17.7336 62.9928 17.9108 63.0495C18.1377 63.1204 18.3327 63.1949 18.4957 63.2729C18.6659 63.3438 18.8077 63.4147 18.9211 63.4855C19.1338 63.6203 19.2933 63.7869 19.3997 63.9854C19.5131 64.1839 19.5698 64.4178 19.5698 64.6873C19.5698 65.3111 19.3146 65.7862 18.8041 66.1123C18.3008 66.4455 17.5386 66.6121 16.5177 66.6121H14.0079ZM23.7373 62.7837C23.7728 62.7837 23.7905 62.7978 23.7905 62.8262V64.0066C23.7905 64.0421 23.7728 64.0598 23.7373 64.0598H21.8125C21.777 64.0598 21.7593 64.0421 21.7593 64.0066V62.8262C21.7593 62.7978 21.777 62.7837 21.8125 62.7837H23.7373ZM25.5548 62.7837C25.5902 62.7837 25.6079 62.7978 25.6079 62.8262V64.0066C25.6079 64.0421 25.5902 64.0598 25.5548 64.0598H23.6299C23.5944 64.0598 23.5767 64.0421 23.5767 64.0066V62.8262C23.5767 62.7978 23.5944 62.7837 23.6299 62.7837H25.5548ZM30.6264 64.0598C30.2931 64.0598 29.9457 64.0031 29.5842 63.8897C29.2226 63.7762 28.9142 63.6344 28.659 63.4643C28.3328 63.6628 28.0032 63.8117 27.67 63.9109C27.3438 64.0102 27.0142 64.0598 26.6809 64.0598H25.4473C25.4119 64.0598 25.3942 64.0421 25.3942 64.0066V62.8262C25.3942 62.7978 25.4119 62.7837 25.4473 62.7837H26.5108C26.6738 62.7837 26.8511 62.7659 27.0425 62.7305C27.2339 62.688 27.3899 62.6383 27.5104 62.5816C27.4041 62.5036 27.2942 62.4008 27.1808 62.2732C27.0744 62.1385 26.961 61.9825 26.8405 61.8053C26.6065 61.4508 26.4009 61.068 26.2237 60.6568C26.0535 60.2456 25.9365 59.8485 25.8727 59.4657C26.1563 59.2317 26.4647 59.0332 26.7979 58.8701C27.1382 58.7 27.4856 58.5724 27.8401 58.4873C28.1946 58.3951 28.5349 58.3491 28.861 58.3491C29.3644 58.3491 29.8394 58.4022 30.2861 58.5086C30.7327 58.6149 31.1475 58.7744 31.5303 58.9871C31.5303 59.4976 31.4594 59.9832 31.3176 60.4441C31.1758 60.9049 30.9738 61.3196 30.7114 61.6883C30.4562 62.0499 30.1514 62.3441 29.7969 62.571C29.9316 62.6419 30.0769 62.695 30.2329 62.7305C30.3959 62.7659 30.5696 62.7837 30.754 62.7837H31.977C32.0124 62.7837 32.0301 62.7978 32.0301 62.8262V64.0066C32.0301 64.0421 32.0124 64.0598 31.977 64.0598H30.6264ZM28.6802 61.9223C29.0985 61.6741 29.4176 61.3764 29.6373 61.029C29.8642 60.6745 29.9918 60.2704 30.0202 59.8166C29.8642 59.7528 29.687 59.7067 29.4885 59.6784C29.29 59.6429 29.0666 59.6252 28.8185 59.6252C28.6696 59.6252 28.5065 59.6429 28.3293 59.6784C28.1591 59.7138 27.9961 59.7635 27.8401 59.8273C27.6912 59.884 27.5636 59.9513 27.4573 60.0293C27.5282 60.2845 27.6239 60.5362 27.7444 60.7844C27.8649 61.0254 28.0032 61.2452 28.1591 61.4437C28.3222 61.6351 28.4959 61.7947 28.6802 61.9223ZM33.7903 62.7837C33.8258 62.7837 33.8435 62.7978 33.8435 62.8262V64.0066C33.8435 64.0421 33.8258 64.0598 33.7903 64.0598H31.8655C31.83 64.0598 31.8123 64.0421 31.8123 64.0066V62.8262C31.8123 62.7978 31.83 62.7837 31.8655 62.7837H33.7903ZM35.6077 62.7837C35.6432 62.7837 35.6609 62.7978 35.6609 62.8262V64.0066C35.6609 64.0421 35.6432 64.0598 35.6077 64.0598H33.6829C33.6474 64.0598 33.6297 64.0421 33.6297 64.0066V62.8262C33.6297 62.7978 33.6474 62.7837 33.6829 62.7837H35.6077ZM37.4252 62.7837C37.4606 62.7837 37.4783 62.7978 37.4783 62.8262V64.0066C37.4783 64.0421 37.4606 64.0598 37.4252 64.0598H35.5003C35.4649 64.0598 35.4471 64.0421 35.4471 64.0066V62.8262C35.4471 62.7978 35.4649 62.7837 35.5003 62.7837H37.4252ZM38.5195 62.7837C38.4273 62.5639 38.3564 62.3335 38.3068 62.0924C38.2571 61.8443 38.2323 61.5855 38.2323 61.3161C38.2323 61.0112 38.2819 60.6816 38.3812 60.3271C38.4875 59.9655 38.6187 59.6571 38.7747 59.4019C39.115 59.2034 39.4766 59.0545 39.8594 58.9552C40.2493 58.8489 40.5896 58.7957 40.8803 58.7957C41.1214 58.7957 41.3518 58.8241 41.5716 58.8808C41.7914 58.9304 42.0005 59.0049 42.199 59.1041C42.596 59.3097 42.9044 59.6039 43.1242 59.9868C43.344 60.3625 43.4539 60.8021 43.4539 61.3055C43.4539 61.504 43.4362 61.6954 43.4007 61.8797C43.3724 62.057 43.3227 62.2307 43.2518 62.4008C43.3794 62.5426 43.5248 62.6419 43.6878 62.6986C43.858 62.7553 44.0671 62.7837 44.3153 62.7837H44.3685C44.4039 62.7837 44.4216 62.7978 44.4216 62.8262V64.0066C44.4216 64.0421 44.4039 64.0598 44.3685 64.0598H44.3153C43.9395 64.0598 43.6134 64.0066 43.3369 63.9003C43.0604 63.794 42.8016 63.6096 42.5606 63.3473C42.2912 63.5813 41.9792 63.7585 41.6247 63.879C41.2773 63.9996 40.9193 64.0598 40.5507 64.0598H37.3177C37.2823 64.0598 37.2646 64.0421 37.2646 64.0066V62.8262C37.2646 62.7978 37.2823 62.7837 37.3177 62.7837H38.5195ZM39.6999 61.5394C39.6999 61.7167 39.7212 61.9116 39.7637 62.1243C39.8062 62.3299 39.8665 62.5497 39.9445 62.7837H40.3486C40.6322 62.7837 40.8874 62.7199 41.1143 62.5922C41.3412 62.4575 41.5219 62.2768 41.6566 62.0499C41.7914 61.823 41.8587 61.5749 41.8587 61.3055C41.8587 60.9297 41.7665 60.6319 41.5822 60.4122C41.3979 60.1853 41.1533 60.0719 40.8484 60.0719C40.6924 60.0719 40.5294 60.0967 40.3592 60.1463C40.1962 60.1959 40.0296 60.2704 39.8594 60.3696C39.8098 60.554 39.7708 60.7454 39.7424 60.9439C39.7141 61.1353 39.6999 61.3338 39.6999 61.5394ZM45.3798 56.8811C45.16 56.8811 44.9863 56.8138 44.8587 56.6791C44.7311 56.5373 44.6673 56.3494 44.6673 56.1154C44.6673 55.8744 44.7311 55.6865 44.8587 55.5518C44.9863 55.4171 45.16 55.3498 45.3798 55.3498C45.5996 55.3498 45.7733 55.4171 45.9009 55.5518C46.0214 55.6865 46.0817 55.8744 46.0817 56.1154C46.0817 56.3565 46.0179 56.5444 45.8903 56.6791C45.7627 56.8138 45.5925 56.8811 45.3798 56.8811ZM47.1877 56.8811C46.9679 56.8811 46.7942 56.8138 46.6666 56.6791C46.539 56.5373 46.4752 56.3494 46.4752 56.1154C46.4752 55.8744 46.539 55.6865 46.6666 55.5518C46.7942 55.4171 46.9679 55.3498 47.1877 55.3498C47.4075 55.3498 47.5776 55.4171 47.6982 55.5518C47.8258 55.6865 47.8896 55.8744 47.8896 56.1154C47.8896 56.3494 47.8258 56.5373 47.6982 56.6791C47.5705 56.8138 47.4004 56.8811 47.1877 56.8811ZM44.2655 64.0598C44.2301 64.0598 44.2123 64.0421 44.2123 64.0066V62.8262C44.2123 62.7978 44.2301 62.7837 44.2655 62.7837H45.9139V58.7957H47.4984V62.7837H49.0936C49.1291 62.7837 49.1468 62.7978 49.1468 62.8262V64.0066C49.1468 64.0421 49.1291 64.0598 49.0936 64.0598H44.2655ZM51.6431 66.7185C51.4233 66.7185 51.2496 66.6476 51.122 66.5058C50.9944 66.3711 50.9306 66.1867 50.9306 65.9528C50.9306 65.7188 50.9944 65.5309 51.122 65.3891C51.2425 65.2544 51.4162 65.1871 51.6431 65.1871C51.8629 65.1871 52.033 65.2544 52.1535 65.3891C52.2812 65.5238 52.345 65.7117 52.345 65.9528C52.345 66.1867 52.2812 66.3711 52.1535 66.5058C52.0259 66.6476 51.8558 66.7185 51.6431 66.7185ZM48.9908 64.0598C48.9554 64.0598 48.9377 64.0421 48.9377 64.0066V62.8262C48.9377 62.7978 48.9554 62.7837 48.9908 62.7837H53.2872C53.195 62.6915 53.1064 62.5781 53.0213 62.4434C52.9434 62.3016 52.8725 62.1314 52.8086 61.9329C52.7519 61.7344 52.6952 61.5111 52.6385 61.2629C52.5889 61.0148 52.5286 60.8092 52.4577 60.6461C52.3868 60.4831 52.3017 60.3519 52.2025 60.2526C52.1103 60.1463 51.9933 60.0719 51.8515 60.0293C51.7168 59.9868 51.5538 59.9655 51.3623 59.9655C51.1142 59.9655 50.8802 59.9974 50.6605 60.0612C50.4407 60.125 50.2032 60.2278 49.948 60.3696L49.4694 59.1998C49.7813 59.0297 50.1216 58.9021 50.4903 58.817C50.859 58.7319 51.2383 58.6894 51.6282 58.6894C51.8551 58.6894 52.0571 58.7 52.2344 58.7213C52.4187 58.7425 52.5853 58.7815 52.7342 58.8382C52.9894 58.9233 53.2092 59.0509 53.3936 59.2211C53.5779 59.3842 53.7303 59.5898 53.8508 59.8379C53.9785 60.086 54.0706 60.3873 54.1273 60.7418C54.1911 61.0892 54.2585 61.3976 54.3294 61.667C54.4074 61.9364 54.4925 62.1633 54.5846 62.3476C54.6768 62.532 54.7725 62.6773 54.8718 62.7837H55.563C55.5985 62.7837 55.6162 62.7978 55.6162 62.8262V64.0066C55.6162 64.0421 55.5985 64.0598 55.563 64.0598H48.9908ZM56.6626 62.7837C56.5704 62.5639 56.4995 62.3335 56.4499 62.0924C56.4003 61.8443 56.3755 61.5855 56.3755 61.3161C56.3755 61.0112 56.4251 60.6816 56.5243 60.3271C56.6307 59.9655 56.7619 59.6571 56.9178 59.4019C57.2581 59.2034 57.6197 59.0545 58.0026 58.9552C58.3925 58.8489 58.7328 58.7957 59.0235 58.7957C59.2645 58.7957 59.4949 58.8241 59.7147 58.8808C59.9345 58.9304 60.1436 59.0049 60.3422 59.1041C60.7392 59.3097 61.0476 59.6039 61.2674 59.9868C61.4871 60.3625 61.597 60.8021 61.597 61.3055C61.597 61.504 61.5793 61.6954 61.5439 61.8797C61.5155 62.057 61.4659 62.2307 61.395 62.4008C61.5226 62.5426 61.6679 62.6419 61.831 62.6986C62.0011 62.7553 62.2103 62.7837 62.4584 62.7837H62.5116C62.5471 62.7837 62.5648 62.7978 62.5648 62.8262V64.0066C62.5648 64.0421 62.5471 64.0598 62.5116 64.0598H62.4584C62.0827 64.0598 61.7566 64.0066 61.4801 63.9003C61.2036 63.794 60.9448 63.6096 60.7037 63.3473C60.4343 63.5813 60.1224 63.7585 59.7679 63.879C59.4205 63.9996 59.0625 64.0598 58.6938 64.0598H55.4609C55.4254 64.0598 55.4077 64.0421 55.4077 64.0066V62.8262C55.4077 62.7978 55.4254 62.7837 55.4609 62.7837H56.6626ZM57.843 61.5394C57.843 61.7167 57.8643 61.9116 57.9068 62.1243C57.9494 62.3299 58.0096 62.5497 58.0876 62.7837H58.4917C58.7753 62.7837 59.0306 62.7199 59.2574 62.5922C59.4843 62.4575 59.6651 62.2768 59.7998 62.0499C59.9345 61.823 60.0019 61.5749 60.0019 61.3055C60.0019 60.9297 59.9097 60.6319 59.7254 60.4122C59.541 60.1853 59.2964 60.0719 58.9916 60.0719C58.8356 60.0719 58.6725 60.0967 58.5024 60.1463C58.3393 60.1959 58.1727 60.2704 58.0026 60.3696C57.9529 60.554 57.9139 60.7454 57.8856 60.9439C57.8572 61.1353 57.843 61.3338 57.843 61.5394ZM64.3335 62.7837C64.369 62.7837 64.3867 62.7978 64.3867 62.8262V64.0066C64.3867 64.0421 64.369 64.0598 64.3335 64.0598H62.4087C62.3732 64.0598 62.3555 64.0421 62.3555 64.0066V62.8262C62.3555 62.7978 62.3732 62.7837 62.4087 62.7837H64.3335ZM66.151 62.7837C66.1864 62.7837 66.2041 62.7978 66.2041 62.8262V64.0066C66.2041 64.0421 66.1864 64.0598 66.151 64.0598H64.2261C64.1907 64.0598 64.1729 64.0421 64.1729 64.0066V62.8262C64.1729 62.7978 64.1907 62.7837 64.2261 62.7837H66.151ZM67.9684 62.7837C68.0038 62.7837 68.0216 62.7978 68.0216 62.8262V64.0066C68.0216 64.0421 68.0038 64.0598 67.9684 64.0598H66.0435C66.0081 64.0598 65.9904 64.0421 65.9904 64.0066V62.8262C65.9904 62.7978 66.0081 62.7837 66.0435 62.7837H67.9684ZM67.861 64.0598C67.8255 64.0598 67.8078 64.0421 67.8078 64.0066V62.8262C67.8078 62.7978 67.8255 62.7837 67.861 62.7837H69.1903V55.9775H70.7748V64.0598H67.861ZM72.9032 55.9775H74.4878V64.0598H72.9032V55.9775Z" fill="white"/>
</svg>
