<svg width="139" height="117" viewBox="0 0 139 117" fill="none" xmlns="http://www.w3.org/2000/svg">
<path d="M69.5333 13.7667C69.5333 21.3697 63.3698 27.5333 55.7667 27.5333H42V13.7667C42 6.16354 48.1635 0 55.7667 0C63.3698 0 69.5333 6.16354 69.5333 13.7667Z" fill="white"/>
<path d="M69.5333 41.3C69.5333 33.6969 75.6969 27.5333 83.2999 27.5333H97.0666V41.3C97.0666 48.903 90.9031 55.0667 83.2999 55.0667C75.6969 55.0667 69.5333 48.903 69.5333 41.3Z" fill="white"/>
<path d="M41.9999 41.3C41.9999 48.903 48.1635 55.0667 55.7666 55.0667H69.5333V41.3C69.5333 33.6969 63.3698 27.5333 55.7666 27.5333C48.1635 27.5333 41.9999 33.6969 41.9999 41.3Z" fill="white"/>
<path d="M97.0666 13.7667C97.0666 6.16354 90.9031 0 83.2999 0H69.5333V13.7667C69.5333 21.3697 75.6969 27.5333 83.2999 27.5333C90.9031 27.5333 97.0666 21.3697 97.0666 13.7667Z" fill="white"/>
<path d="M26.3523 83.2611C26.0001 83.2611 25.7217 83.1475 25.5172 82.9202C25.3126 82.7043 25.2104 82.4089 25.2104 82.0339C25.2104 81.6589 25.3126 81.3578 25.5172 81.1306C25.7103 80.9147 25.9887 80.8067 26.3523 80.8067C26.7046 80.8067 26.9773 80.9147 27.1705 81.1306C27.375 81.3465 27.4773 81.6476 27.4773 82.0339C27.4773 82.4089 27.375 82.7043 27.1705 82.9202C26.9659 83.1475 26.6932 83.2611 26.3523 83.2611ZM24.1897 79C23.1443 79 22.3148 78.6989 21.7012 78.0966C21.099 77.483 20.7978 76.6422 20.7978 75.5741C20.7978 75.2786 20.8206 74.9775 20.866 74.6707C20.9115 74.3525 20.974 74.0457 21.0535 73.7503C21.1444 73.4549 21.241 73.1935 21.3433 72.9663H23.5931C23.5136 73.3299 23.4511 73.6992 23.4056 74.0742C23.3602 74.4491 23.3375 74.8241 23.3375 75.1991C23.3375 75.7218 23.4852 76.1479 23.7806 76.4774C24.0761 76.7956 24.4624 76.9547 24.9396 76.9547H30.4791V70.563H33.0187V76.9547H35.2345C35.2913 76.9547 35.3197 76.9774 35.3197 77.0228V78.9148C35.3197 78.9716 35.2913 79 35.2345 79H24.1897ZM38.1529 76.9547C38.2098 76.9547 38.2382 76.9774 38.2382 77.0228V78.9148C38.2382 78.9716 38.2098 79 38.1529 79H35.0679C35.0111 79 34.9827 78.9716 34.9827 78.9148V77.0228C34.9827 76.9774 35.0111 76.9547 35.0679 76.9547H38.1529ZM41.0658 76.9547C41.1226 76.9547 41.151 76.9774 41.151 77.0228V78.9148C41.151 78.9716 41.1226 79 41.0658 79H37.9808C37.924 79 37.8955 78.9716 37.8955 78.9148V77.0228C37.8955 76.9774 37.924 76.9547 37.9808 76.9547H41.0658ZM42.9289 82.2611C42.5766 82.2611 42.2982 82.1475 42.0937 81.9202C41.8891 81.7043 41.7869 81.4089 41.7869 81.0339C41.7869 80.6589 41.8891 80.3578 42.0937 80.1306C42.2982 79.9147 42.5766 79.8067 42.9289 79.8067C43.2811 79.8067 43.5595 79.9147 43.764 80.1306C43.9572 80.3465 44.0538 80.6476 44.0538 81.0339C44.0538 81.4203 43.9515 81.7214 43.747 81.9373C43.5424 82.1532 43.2697 82.2611 42.9289 82.2611ZM45.8264 82.2611C45.4742 82.2611 45.1958 82.1475 44.9912 81.9202C44.7867 81.7043 44.6844 81.4089 44.6844 81.0339C44.6844 80.6589 44.7867 80.3578 44.9912 80.1306C45.1958 79.9147 45.4742 79.8067 45.8264 79.8067C46.1787 79.8067 46.4514 79.9147 46.6445 80.1306C46.8491 80.3578 46.9513 80.6589 46.9513 81.0339C46.9513 81.4089 46.8491 81.7043 46.6445 81.9202C46.44 82.1475 46.1673 82.2611 45.8264 82.2611ZM40.8936 79C40.8368 79 40.8084 78.9716 40.8084 78.9148V77.0228C40.8084 76.9774 40.8368 76.9547 40.8936 76.9547H43.5355V70.563H46.0751V76.9547H48.6318C48.6886 76.9547 48.717 76.9774 48.717 77.0228V78.9148C48.717 78.9716 48.6886 79 48.6318 79H40.8936ZM51.5521 76.9547C51.609 76.9547 51.6374 76.9774 51.6374 77.0228V78.9148C51.6374 78.9716 51.609 79 51.5521 79H48.4671C48.4103 79 48.3819 78.9716 48.3819 78.9148V77.0228C48.3819 76.9774 48.4103 76.9547 48.4671 76.9547H51.5521ZM54.465 76.9547C54.5218 76.9547 54.5502 76.9774 54.5502 77.0228V78.9148C54.5502 78.9716 54.5218 79 54.465 79H51.38C51.3232 79 51.2947 78.9716 51.2947 78.9148V77.0228C51.2947 76.9774 51.3232 76.9547 51.38 76.9547H54.465ZM57.3779 76.9547C57.4347 76.9547 57.4631 76.9774 57.4631 77.0228V78.9148C57.4631 78.9716 57.4347 79 57.3779 79H54.2928C54.236 79 54.2076 78.9716 54.2076 78.9148V77.0228C54.2076 76.9774 54.236 76.9547 54.2928 76.9547H57.3779ZM60.2907 76.9547C60.3476 76.9547 60.376 76.9774 60.376 77.0228V78.9148C60.376 78.9716 60.3476 79 60.2907 79H57.2057C57.1489 79 57.1205 78.9716 57.1205 78.9148V77.0228C57.1205 76.9774 57.1489 76.9547 57.2057 76.9547H60.2907ZM64.3694 83.2611C64.0172 83.2611 63.7388 83.1475 63.5342 82.9202C63.3297 82.7043 63.2274 82.4089 63.2274 82.0339C63.2274 81.6589 63.3297 81.3578 63.5342 81.1306C63.7274 80.9147 64.0058 80.8067 64.3694 80.8067C64.7217 80.8067 64.9944 80.9147 65.1876 81.1306C65.3921 81.3465 65.4944 81.6476 65.4944 82.0339C65.4944 82.4089 65.3921 82.7043 65.1876 82.9202C64.983 83.1475 64.7103 83.2611 64.3694 83.2611ZM60.1186 79C60.0618 79 60.0333 78.9716 60.0333 78.9148V77.0228C60.0333 76.9774 60.0618 76.9547 60.1186 76.9547H67.0045C66.8568 76.8069 66.7148 76.6251 66.5784 76.4092C66.4534 76.182 66.3398 75.9093 66.2375 75.5911C66.1466 75.2729 66.0557 74.915 65.9648 74.5173C65.8853 74.1196 65.7887 73.7901 65.6751 73.5287C65.5614 73.2674 65.4251 73.0572 65.266 72.8981C65.1183 72.7276 64.9308 72.6083 64.7035 72.5402C64.4876 72.472 64.2263 72.4379 63.9195 72.4379C63.5218 72.4379 63.1468 72.489 62.7945 72.5913C62.4423 72.6936 62.0616 72.8583 61.6526 73.0856L60.8856 71.2107C61.3855 70.938 61.931 70.7334 62.5218 70.5971C63.1127 70.4607 63.7206 70.3926 64.3456 70.3926C64.7092 70.3926 65.033 70.4096 65.3171 70.4437C65.6126 70.4778 65.8796 70.5403 66.1182 70.6312C66.5273 70.7675 66.8795 70.9721 67.175 71.2448C67.4704 71.5061 67.7147 71.8357 67.9079 72.2334C68.1124 72.6311 68.2601 73.114 68.351 73.6821C68.4533 74.2389 68.5612 74.7332 68.6749 75.165C68.7999 75.5968 68.9362 75.9604 69.0839 76.2558C69.2317 76.5513 69.3851 76.7842 69.5441 76.9547H70.652C70.7088 76.9547 70.7373 76.9774 70.7373 77.0228V78.9148C70.7373 78.9716 70.7088 79 70.652 79H60.1186ZM72.2743 67.0972C71.9221 67.0972 71.6437 66.9892 71.4391 66.7733C71.2346 66.5461 71.1323 66.245 71.1323 65.87C71.1323 65.4836 71.2346 65.1825 71.4391 64.9666C71.6437 64.7507 71.9221 64.6428 72.2743 64.6428C72.6266 64.6428 72.905 64.7507 73.1095 64.9666C73.3027 65.1825 73.3993 65.4836 73.3993 65.87C73.3993 66.2563 73.297 66.5574 73.0925 66.7733C72.8879 66.9892 72.6152 67.0972 72.2743 67.0972ZM75.1719 67.0972C74.8196 67.0972 74.5412 66.9892 74.3367 66.7733C74.1322 66.5461 74.0299 66.245 74.0299 65.87C74.0299 65.4836 74.1322 65.1825 74.3367 64.9666C74.5412 64.7507 74.8196 64.6428 75.1719 64.6428C75.5241 64.6428 75.7968 64.7507 75.99 64.9666C76.1945 65.1825 76.2968 65.4836 76.2968 65.87C76.2968 66.245 76.1945 66.5461 75.99 66.7733C75.7855 66.9892 75.5128 67.0972 75.1719 67.0972ZM70.4884 79C70.4316 79 70.4032 78.9716 70.4032 78.9148V77.0228C70.4032 76.9774 70.4316 76.9547 70.4884 76.9547H73.1303V70.563H75.6699V76.9547H78.2266C78.2834 76.9547 78.3118 76.9774 78.3118 77.0228V78.9148C78.3118 78.9716 78.2834 79 78.2266 79H70.4884ZM90.2657 79C89.777 79 89.3112 78.8921 88.868 78.6762C88.4249 78.4603 87.9987 78.1421 87.5897 77.7217C87.2715 78.1421 86.8738 78.4603 86.3966 78.6762C85.9307 78.8921 85.3796 79 84.7433 79H78.0618C78.005 79 77.9766 78.9716 77.9766 78.9148V77.0228C77.9766 76.9774 78.005 76.9547 78.0618 76.9547H80.1924V71.8925H82.732V76.9547H84.1808C84.7489 76.9547 85.1637 76.8013 85.425 76.4945C85.6864 76.1763 85.8171 75.6707 85.8171 74.9775V71.8925H88.3567V75.182C88.3567 75.3184 88.351 75.4491 88.3396 75.5741C88.3396 75.6991 88.3283 75.8241 88.3055 75.949C88.5896 76.324 88.868 76.5854 89.1407 76.7331C89.4134 76.8808 89.7714 76.9547 90.2145 76.9547H91.2713V70.563H93.8109V76.9547H96.0267C96.0835 76.9547 96.1119 76.9774 96.1119 77.0228V78.9148C96.1119 78.9716 96.0835 79 96.0267 79H90.2657ZM97.7813 76.9547C97.6336 76.6024 97.52 76.2331 97.4404 75.8468C97.3609 75.4491 97.3211 75.0343 97.3211 74.6025C97.3211 74.1139 97.4007 73.5855 97.5597 73.0174C97.7302 72.4379 97.9404 71.9436 98.1904 71.5345C98.7358 71.2164 99.3153 70.9778 99.9289 70.8187C100.554 70.6482 101.099 70.563 101.565 70.563C101.952 70.563 102.321 70.6085 102.673 70.6994C103.025 70.7789 103.361 70.8982 103.679 71.0573C104.315 71.3868 104.809 71.8584 105.162 72.472C105.514 73.0742 105.69 73.7787 105.69 74.5855C105.69 74.9037 105.662 75.2105 105.605 75.5059C105.559 75.79 105.48 76.0684 105.366 76.3411C105.571 76.5683 105.804 76.7274 106.065 76.8183C106.338 76.9092 106.673 76.9547 107.071 76.9547H107.156C107.213 76.9547 107.241 76.9774 107.241 77.0228V78.9148C107.241 78.9716 107.213 79 107.156 79H107.071C106.468 79 105.946 78.9148 105.502 78.7443C105.059 78.5739 104.645 78.2785 104.258 77.858C103.826 78.233 103.326 78.5171 102.758 78.7102C102.202 78.9034 101.628 79 101.037 79H95.8553C95.7985 79 95.7701 78.9716 95.7701 78.9148V77.0228C95.7701 76.9774 95.7985 76.9547 95.8553 76.9547H97.7813ZM99.6733 74.9605C99.6733 75.2445 99.7073 75.557 99.7755 75.8979C99.8437 76.2274 99.9403 76.5797 100.065 76.9547H100.713C101.167 76.9547 101.577 76.8524 101.94 76.6479C102.304 76.432 102.594 76.1422 102.809 75.7786C103.025 75.415 103.133 75.0173 103.133 74.5855C103.133 73.9833 102.986 73.506 102.69 73.1538C102.395 72.7901 102.003 72.6083 101.514 72.6083C101.264 72.6083 101.003 72.6481 100.73 72.7276C100.469 72.8072 100.202 72.9265 99.9289 73.0856C99.8494 73.381 99.7869 73.6878 99.7414 74.006C99.696 74.3128 99.6733 74.6309 99.6733 74.9605ZM106.991 79C106.934 79 106.906 78.9716 106.906 78.9148V77.0228C106.906 76.9774 106.934 76.9547 106.991 76.9547H109.121V66.0462H111.661V79H106.991ZM115.072 66.0462H117.612V79H115.072V66.0462ZM23.1796 110.261C22.8274 110.261 22.549 110.147 22.3444 109.92C22.1399 109.704 22.0376 109.409 22.0376 109.034C22.0376 108.659 22.1399 108.358 22.3444 108.131C22.549 107.915 22.8274 107.807 23.1796 107.807C23.5319 107.807 23.8102 107.915 24.0148 108.131C24.208 108.346 24.3045 108.648 24.3045 109.034C24.3045 109.42 24.2023 109.721 23.9977 109.937C23.7932 110.153 23.5205 110.261 23.1796 110.261ZM26.0772 110.261C25.7249 110.261 25.4465 110.147 25.242 109.92C25.0374 109.704 24.9352 109.409 24.9352 109.034C24.9352 108.659 25.0374 108.358 25.242 108.131C25.4465 107.915 25.7249 107.807 26.0772 107.807C26.4294 107.807 26.7021 107.915 26.8953 108.131C27.0998 108.358 27.2021 108.659 27.2021 109.034C27.2021 109.409 27.0998 109.704 26.8953 109.92C26.6908 110.147 26.418 110.261 26.0772 110.261ZM22.4511 107.091C21.7579 107.091 21.1557 106.915 20.6444 106.562C20.133 106.221 19.7353 105.756 19.4513 105.165C19.1672 104.585 19.0252 103.932 19.0252 103.205C19.0252 102.648 19.0706 102.097 19.1615 101.551C19.2524 101.006 19.3888 100.46 19.5706 99.915H21.8375C21.6898 100.381 21.5932 100.83 21.5477 101.261C21.5023 101.682 21.4796 102.205 21.4796 102.83C21.4796 103.216 21.5705 103.58 21.7523 103.92C21.9454 104.261 22.1954 104.534 22.5022 104.739C22.8204 104.943 23.1556 105.045 23.5078 105.045H26.4565C26.911 105.045 27.3144 105.023 27.6667 104.977C28.0303 104.943 28.3144 104.864 28.5189 104.739C28.7348 104.614 28.8428 104.415 28.8428 104.142C28.8428 103.949 28.7462 103.778 28.553 103.631C28.3712 103.494 28.0758 103.375 27.6667 103.273C27.0304 103.114 26.5247 102.92 26.1497 102.693C25.7748 102.455 25.5077 102.171 25.3486 101.841C25.2009 101.511 25.1271 101.119 25.1271 100.665C25.1271 100.369 25.1782 100.063 25.2805 99.7445C25.3941 99.4263 25.5589 99.1082 25.7748 98.79C26.0702 98.3582 26.4224 97.9662 26.8315 97.614C27.2406 97.2617 27.6667 96.9833 28.1098 96.7788C28.5644 96.5742 28.9962 96.472 29.4052 96.472C29.587 96.472 29.7632 96.489 29.9336 96.5231C30.104 96.5458 30.2688 96.597 30.4279 96.6765C30.8029 96.8583 31.1608 97.1424 31.5017 97.5287C31.8426 97.9151 32.2573 98.4605 32.7459 99.165C33.0073 99.54 33.2402 99.8468 33.4448 100.085C33.6606 100.324 33.8481 100.5 34.0072 100.614C34.1663 100.727 34.3311 100.813 34.5015 100.869C34.6833 100.926 34.8651 100.955 35.0469 100.955H35.1322C35.189 100.955 35.2174 100.977 35.2174 101.023V102.915C35.2174 102.972 35.189 103 35.1322 103H35.0469C34.6379 103 34.2686 102.966 33.939 102.898C33.6209 102.818 33.3198 102.688 33.0357 102.506C32.7516 102.324 32.4562 102.074 32.1494 101.756C32.0926 101.699 31.9903 101.574 31.8426 101.381C31.6949 101.176 31.5074 100.915 31.2801 100.597C31.0188 100.222 30.7801 99.9093 30.5642 99.6593C30.3597 99.4093 30.1779 99.2218 30.0188 99.0968C29.8711 98.9718 29.7234 98.8809 29.5757 98.8241C29.4279 98.7559 29.2859 98.7218 29.1496 98.7218C29.0018 98.7218 28.8314 98.7787 28.6382 98.8923C28.445 98.9946 28.2576 99.1309 28.0758 99.3014C27.9053 99.4718 27.7633 99.6479 27.6496 99.8297C27.536 100.012 27.4792 100.171 27.4792 100.307C27.4792 100.455 27.519 100.597 27.5985 100.733C27.6894 100.858 27.8258 100.977 28.0076 101.091C28.1894 101.193 28.4223 101.29 28.7064 101.381C29.07 101.494 29.3825 101.614 29.6438 101.739C29.9166 101.852 30.1438 101.966 30.3256 102.08C30.6665 102.295 30.9222 102.563 31.0926 102.881C31.2744 103.199 31.3653 103.574 31.3653 104.006C31.3653 105.006 30.9563 105.767 30.1381 106.29C29.3314 106.824 28.1098 107.091 26.4736 107.091H22.4511ZM38.0448 100.955C38.1016 100.955 38.13 100.977 38.13 101.023V102.915C38.13 102.972 38.1016 103 38.0448 103H34.9597C34.9029 103 34.8745 102.972 34.8745 102.915V101.023C34.8745 100.977 34.9029 100.955 34.9597 100.955H38.0448ZM40.9576 100.955C41.0144 100.955 41.0428 100.977 41.0428 101.023V102.915C41.0428 102.972 41.0144 103 40.9576 103H37.8726C37.8158 103 37.7874 102.972 37.7874 102.915V101.023C37.7874 100.977 37.8158 100.955 37.8726 100.955H40.9576ZM43.8705 100.955C43.9273 100.955 43.9557 100.977 43.9557 101.023V102.915C43.9557 102.972 43.9273 103 43.8705 103H40.7854C40.7286 103 40.7002 102.972 40.7002 102.915V101.023C40.7002 100.977 40.7286 100.955 40.7854 100.955H43.8705ZM51.999 103C51.4649 103 50.9081 102.909 50.3286 102.727C49.7491 102.545 49.2548 102.318 48.8457 102.046C48.323 102.364 47.7947 102.602 47.2606 102.761C46.7379 102.92 46.2095 103 45.6755 103H43.6983C43.6415 103 43.6131 102.972 43.6131 102.915V101.023C43.6131 100.977 43.6415 100.955 43.6983 100.955H45.4028C45.6641 100.955 45.9482 100.926 46.255 100.869C46.5618 100.801 46.8118 100.722 47.0049 100.631C46.8345 100.506 46.6584 100.341 46.4766 100.137C46.3061 99.9206 46.1243 99.6707 45.9311 99.3866C45.5562 98.8184 45.2266 98.2048 44.9426 97.5458C44.6698 96.8867 44.4824 96.2504 44.3801 95.6368C44.8346 95.2618 45.3289 94.9437 45.863 94.6823C46.4084 94.4096 46.9652 94.2051 47.5333 94.0687C48.1015 93.921 48.6469 93.8471 49.1696 93.8471C49.9763 93.8471 50.7377 93.9324 51.4535 94.1028C52.1694 94.2732 52.8341 94.5289 53.4477 94.8698C53.4477 95.6879 53.3341 96.4663 53.1068 97.2049C52.8796 97.9435 52.5557 98.6082 52.1353 99.1991C51.7262 99.7786 51.2376 100.25 50.6695 100.614C50.8854 100.727 51.1183 100.813 51.3683 100.869C51.6297 100.926 51.9081 100.955 52.2035 100.955H54.1636C54.2204 100.955 54.2488 100.977 54.2488 101.023V102.915C54.2488 102.972 54.2204 103 54.1636 103H51.999ZM48.8798 99.5741C49.5502 99.1764 50.0616 98.6991 50.4138 98.1423C50.7774 97.5742 50.982 96.9265 51.0274 96.1993C50.7774 96.097 50.4934 96.0231 50.1752 95.9777C49.857 95.9209 49.4991 95.8925 49.1014 95.8925C48.8628 95.8925 48.6014 95.9209 48.3174 95.9777C48.0446 96.0345 47.7833 96.114 47.5333 96.2163C47.2947 96.3072 47.0902 96.4152 46.9197 96.5402C47.0333 96.9492 47.1867 97.3526 47.3799 97.7503C47.5731 98.1367 47.7947 98.4889 48.0446 98.8071C48.306 99.1139 48.5844 99.3695 48.8798 99.5741ZM57.0699 100.955C57.1268 100.955 57.1552 100.977 57.1552 101.023V102.915C57.1552 102.972 57.1268 103 57.0699 103H53.9849C53.9281 103 53.8997 102.972 53.8997 102.915V101.023C53.8997 100.977 53.9281 100.955 53.9849 100.955H57.0699ZM59.9828 100.955C60.0396 100.955 60.068 100.977 60.068 101.023V102.915C60.068 102.972 60.0396 103 59.9828 103H56.8978C56.841 103 56.8125 102.972 56.8125 102.915V101.023C56.8125 100.977 56.841 100.955 56.8978 100.955H59.9828ZM61.7367 100.955C61.5889 100.602 61.4753 100.233 61.3958 99.8468C61.3162 99.4491 61.2765 99.0343 61.2765 98.6025C61.2765 98.1139 61.356 97.5855 61.5151 97.0174C61.6855 96.4379 61.8957 95.9436 62.1457 95.5345C62.6911 95.2164 63.2707 94.9778 63.8843 94.8187C64.5092 94.6482 65.0546 94.563 65.5205 94.563C65.9069 94.563 66.2762 94.6085 66.6284 94.6994C66.9807 94.7789 67.3159 94.8982 67.634 95.0573C68.2704 95.3868 68.7646 95.8584 69.1169 96.472C69.4692 97.0742 69.6453 97.7787 69.6453 98.5855C69.6453 98.9037 69.6169 99.2105 69.5601 99.5059C69.5146 99.79 69.4351 100.068 69.3214 100.341C69.526 100.568 69.7589 100.727 70.0203 100.818C70.293 100.909 70.6282 100.955 71.0259 100.955H71.1111C71.1679 100.955 71.1963 100.977 71.1963 101.023V102.915C71.1963 102.972 71.1679 103 71.1111 103H71.0259C70.4236 103 69.9009 102.915 69.4578 102.744C69.0146 102.574 68.5999 102.278 68.2135 101.858C67.7818 102.233 67.2818 102.517 66.7136 102.71C66.1568 102.903 65.583 103 64.9921 103H59.8106C59.7538 103 59.7254 102.972 59.7254 102.915V101.023C59.7254 100.977 59.7538 100.955 59.8106 100.955H61.7367ZM63.6286 98.9605C63.6286 99.2445 63.6627 99.557 63.7309 99.8979C63.799 100.227 63.8956 100.58 64.0206 100.955H64.6683C65.1228 100.955 65.5319 100.852 65.8955 100.648C66.2591 100.432 66.5489 100.142 66.7648 99.7786C66.9807 99.415 67.0886 99.0173 67.0886 98.5855C67.0886 97.9833 66.9409 97.506 66.6455 97.1538C66.35 96.7901 65.958 96.6083 65.4694 96.6083C65.2194 96.6083 64.9581 96.6481 64.6853 96.7276C64.424 96.8072 64.157 96.9265 63.8843 97.0856C63.8047 97.381 63.7422 97.6878 63.6968 98.006C63.6513 98.3128 63.6286 98.6309 63.6286 98.9605ZM72.7321 91.0972C72.3798 91.0972 72.1014 90.9892 71.8969 90.7733C71.6923 90.5461 71.5901 90.245 71.5901 89.87C71.5901 89.4836 71.6923 89.1825 71.8969 88.9666C72.1014 88.7507 72.3798 88.6428 72.7321 88.6428C73.0843 88.6428 73.3627 88.7507 73.5672 88.9666C73.7604 89.1825 73.857 89.4836 73.857 89.87C73.857 90.2563 73.7547 90.5574 73.5502 90.7733C73.3457 90.9892 73.0729 91.0972 72.7321 91.0972ZM75.6296 91.0972C75.2774 91.0972 74.999 90.9892 74.7944 90.7733C74.5899 90.5461 74.4876 90.245 74.4876 89.87C74.4876 89.4836 74.5899 89.1825 74.7944 88.9666C74.999 88.7507 75.2774 88.6428 75.6296 88.6428C75.9819 88.6428 76.2546 88.7507 76.4477 88.9666C76.6523 89.1825 76.7545 89.4836 76.7545 89.87C76.7545 90.245 76.6523 90.5461 76.4477 90.7733C76.2432 90.9892 75.9705 91.0972 75.6296 91.0972ZM70.9461 103C70.8893 103 70.8609 102.972 70.8609 102.915V101.023C70.8609 100.977 70.8893 100.955 70.9461 100.955H73.588V94.563H76.1276V100.955H78.6843C78.7411 100.955 78.7695 100.977 78.7695 101.023V102.915C78.7695 102.972 78.7411 103 78.6843 103H70.9461ZM82.7704 107.261C82.4182 107.261 82.1398 107.147 81.9353 106.92C81.7307 106.704 81.6285 106.409 81.6285 106.034C81.6285 105.659 81.7307 105.358 81.9353 105.131C82.1284 104.915 82.4068 104.807 82.7704 104.807C83.1227 104.807 83.3954 104.915 83.5886 105.131C83.7931 105.346 83.8954 105.648 83.8954 106.034C83.8954 106.409 83.7931 106.704 83.5886 106.92C83.384 107.147 83.1113 107.261 82.7704 107.261ZM78.5196 103C78.4628 103 78.4344 102.972 78.4344 102.915V101.023C78.4344 100.977 78.4628 100.955 78.5196 100.955H85.4055C85.2578 100.807 85.1158 100.625 84.9794 100.409C84.8544 100.182 84.7408 99.9093 84.6385 99.5911C84.5476 99.2729 84.4567 98.915 84.3658 98.5173C84.2863 98.1196 84.1897 97.7901 84.0761 97.5287C83.9624 97.2674 83.8261 97.0572 83.667 96.8981C83.5193 96.7276 83.3318 96.6083 83.1045 96.5402C82.8886 96.472 82.6273 96.4379 82.3205 96.4379C81.9228 96.4379 81.5478 96.489 81.1956 96.5913C80.8433 96.6936 80.4626 96.8583 80.0536 97.0856L79.2866 95.2107C79.7865 94.938 80.332 94.7334 80.9228 94.5971C81.5137 94.4607 82.1216 94.3926 82.7466 94.3926C83.1102 94.3926 83.4341 94.4096 83.7181 94.4437C84.0136 94.4778 84.2806 94.5403 84.5192 94.6312C84.9283 94.7675 85.2805 94.9721 85.576 95.2448C85.8714 95.5061 86.1157 95.8357 86.3089 96.2334C86.5134 96.6311 86.6611 97.114 86.752 97.6821C86.8543 98.2389 86.9623 98.7332 87.0759 99.165C87.2009 99.5968 87.3372 99.9604 87.485 100.256C87.6327 100.551 87.7861 100.784 87.9452 100.955H89.053C89.1099 100.955 89.1383 100.977 89.1383 101.023V102.915C89.1383 102.972 89.1099 103 89.053 103H78.5196ZM90.8154 100.955C90.6677 100.602 90.5541 100.233 90.4745 99.8468C90.395 99.4491 90.3552 99.0343 90.3552 98.6025C90.3552 98.1139 90.4347 97.5855 90.5938 97.0174C90.7643 96.4379 90.9745 95.9436 91.2245 95.5345C91.7699 95.2164 92.3494 94.9778 92.963 94.8187C93.588 94.6482 94.1334 94.563 94.5993 94.563C94.9856 94.563 95.3549 94.6085 95.7072 94.6994C96.0594 94.7789 96.3946 94.8982 96.7128 95.0573C97.3491 95.3868 97.8434 95.8584 98.1956 96.472C98.5479 97.0742 98.724 97.7787 98.724 98.5855C98.724 98.9037 98.6956 99.2105 98.6388 99.5059C98.5933 99.79 98.5138 100.068 98.4002 100.341C98.6047 100.568 98.8377 100.727 99.099 100.818C99.3717 100.909 99.7069 100.955 100.105 100.955H100.19C100.247 100.955 100.275 100.977 100.275 101.023V102.915C100.275 102.972 100.247 103 100.19 103H100.105C99.5024 103 98.9797 102.915 98.5365 102.744C98.0934 102.574 97.6786 102.278 97.2923 101.858C96.8605 102.233 96.3605 102.517 95.7924 102.71C95.2356 102.903 94.6618 103 94.0709 103H88.8894C88.8326 103 88.8042 102.972 88.8042 102.915V101.023C88.8042 100.977 88.8326 100.955 88.8894 100.955H90.8154ZM92.7073 98.9605C92.7073 99.2445 92.7414 99.557 92.8096 99.8979C92.8778 100.227 92.9744 100.58 93.0994 100.955H93.747C94.2016 100.955 94.6106 100.852 94.9742 100.648C95.3379 100.432 95.6276 100.142 95.8435 99.7786C96.0594 99.415 96.1674 99.0173 96.1674 98.5855C96.1674 97.9833 96.0196 97.506 95.7242 97.1538C95.4288 96.7901 95.0367 96.6083 94.5481 96.6083C94.2981 96.6083 94.0368 96.6481 93.7641 96.7276C93.5027 96.8072 93.2357 96.9265 92.963 97.0856C92.8835 97.381 92.821 97.6878 92.7755 98.006C92.7301 98.3128 92.7073 98.6309 92.7073 98.9605ZM103.11 100.955C103.167 100.955 103.195 100.977 103.195 101.023V102.915C103.195 102.972 103.167 103 103.11 103H100.025C99.968 103 99.9396 102.972 99.9396 102.915V101.023C99.9396 100.977 99.968 100.955 100.025 100.955H103.11ZM106.023 100.955C106.08 100.955 106.108 100.977 106.108 101.023V102.915C106.108 102.972 106.08 103 106.023 103H102.938C102.881 103 102.853 102.972 102.853 102.915V101.023C102.853 100.977 102.881 100.955 102.938 100.955H106.023ZM108.936 100.955C108.992 100.955 109.021 100.977 109.021 101.023V102.915C109.021 102.972 108.992 103 108.936 103H105.851C105.794 103 105.765 102.972 105.765 102.915V101.023C105.765 100.977 105.794 100.955 105.851 100.955H108.936ZM108.763 103C108.707 103 108.678 102.972 108.678 102.915V101.023C108.678 100.977 108.707 100.955 108.763 100.955H110.894V90.0462H113.434V103H108.763ZM116.845 90.0462H119.385V103H116.845V90.0462Z" fill="white"/>
</svg>
