<svg width="179" height="83" viewBox="0 0 179 83" fill="none" xmlns="http://www.w3.org/2000/svg">
<path d="M12.9801 77L12.094 74.1032H7.6636L6.77752 77H4L8.29408 64.7823H11.4465L15.7576 77H12.9801ZM10.5945 69.1105C10.5377 68.9174 10.4638 68.6731 10.373 68.3778C10.2821 68.0824 10.1912 67.7814 10.1003 67.4746C10.0094 67.1679 9.9356 66.901 9.8788 66.6738C9.822 66.901 9.74248 67.185 9.64024 67.5258C9.54936 67.8552 9.45848 68.1733 9.3676 68.48C9.28808 68.7754 9.2256 68.9855 9.18016 69.1105L8.31112 71.9391H11.4806L10.5945 69.1105ZM27.8974 70.7974C27.8974 72.1606 27.6361 73.3023 27.1136 74.2225C26.591 75.1426 25.8299 75.8356 24.8302 76.3014C23.8419 76.7671 22.6491 77 21.2518 77H17.8097V64.8334H21.6267C22.899 64.8334 24.0009 65.0606 24.9324 65.515C25.8753 65.9694 26.6024 66.6397 27.1136 67.5258C27.6361 68.4005 27.8974 69.491 27.8974 70.7974ZM25.2221 70.8656C25.2221 69.5138 24.9268 68.5254 24.336 67.9006C23.7453 67.2645 22.8876 66.9464 21.763 66.9464H20.3828V74.87H21.4904C22.7513 74.87 23.6885 74.5349 24.302 73.8646C24.9154 73.1944 25.2221 72.1947 25.2221 70.8656ZM36.0976 66.8101C35.4388 66.8101 34.8821 66.9805 34.4277 67.3213C33.9733 67.6507 33.6268 68.1278 33.3883 68.7526C33.1611 69.3661 33.0475 70.0988 33.0475 70.9508C33.0475 71.8142 33.1497 72.5526 33.3542 73.166C33.57 73.7681 33.9052 74.2282 34.3596 74.5462C34.814 74.8643 35.3933 75.0234 36.0976 75.0234C36.5975 75.0234 37.0916 74.9666 37.5801 74.853C38.08 74.7394 38.6196 74.5803 39.1989 74.3758V76.5399C38.665 76.7558 38.1368 76.9148 37.6142 77.017C37.0916 77.1193 36.5066 77.1704 35.8591 77.1704C34.6095 77.1704 33.5757 76.9148 32.7578 76.4036C31.9512 75.881 31.3548 75.154 30.9686 74.2225C30.5824 73.2796 30.3892 72.1834 30.3892 70.9338C30.3892 69.7069 30.6108 68.622 31.0538 67.6791C31.4968 66.7362 32.1387 65.9978 32.9793 65.4639C33.8313 64.93 34.8708 64.663 36.0976 64.663C36.6997 64.663 37.3018 64.7426 37.9039 64.9016C38.5173 65.0493 39.1024 65.2538 39.659 65.515L38.824 67.611C38.3696 67.3951 37.9096 67.2077 37.4438 67.0486C36.9894 66.8896 36.5407 66.8101 36.0976 66.8101ZM52.3831 70.7974C52.3831 72.1606 52.1218 73.3023 51.5992 74.2225C51.0767 75.1426 50.3156 75.8356 49.3159 76.3014C48.3276 76.7671 47.1348 77 45.7375 77H42.2954V64.8334H46.1124C47.3847 64.8334 48.4866 65.0606 49.4181 65.515C50.361 65.9694 51.088 66.6397 51.5992 67.5258C52.1218 68.4005 52.3831 69.491 52.3831 70.7974ZM49.7078 70.8656C49.7078 69.5138 49.4124 68.5254 48.8217 67.9006C48.231 67.2645 47.3733 66.9464 46.2487 66.9464H44.8684V74.87H45.976C47.237 74.87 48.1742 74.5349 48.7876 73.8646C49.4011 73.1944 49.7078 72.1947 49.7078 70.8656ZM62.5339 77L61.6478 74.1032H57.2174L56.3313 77H53.5538L57.8479 64.7823H61.0003L65.3114 77H62.5339ZM60.1483 69.1105C60.0915 68.9174 60.0176 68.6731 59.9267 68.3778C59.8359 68.0824 59.745 67.7814 59.6541 67.4746C59.5632 67.1679 59.4894 66.901 59.4326 66.6738C59.3758 66.901 59.2963 67.185 59.194 67.5258C59.1031 67.8552 59.0123 68.1733 58.9214 68.48C58.8419 68.7754 58.7794 68.9855 58.7339 69.1105L57.8649 71.9391H61.0343L60.1483 69.1105ZM83.2081 64.8334L79.0673 77H76.2557L72.132 64.8334H74.7392L77.0225 72.0754C77.068 72.2004 77.1304 72.4333 77.21 72.7741C77.3009 73.1035 77.3917 73.4557 77.4826 73.8306C77.5735 74.1941 77.636 74.5008 77.6701 74.7507C77.7041 74.5008 77.7609 74.1941 77.8405 73.8306C77.9313 73.4557 78.0222 73.1035 78.1131 72.7741C78.204 72.4333 78.2665 72.2004 78.3005 72.0754L80.6009 64.8334H83.2081ZM96.135 70.8997C96.135 72.1606 95.9249 73.2626 95.5045 74.2054C95.0956 75.137 94.4651 75.864 93.6131 76.3866C92.7611 76.9091 91.6705 77.1704 90.3414 77.1704C89.0237 77.1704 87.9331 76.9091 87.0697 76.3866C86.2177 75.864 85.5816 75.1313 85.1613 74.1884C84.7523 73.2455 84.5478 72.1436 84.5478 70.8826C84.5478 69.6217 84.7523 68.5254 85.1613 67.5939C85.5816 66.6624 86.2177 65.941 87.0697 65.4298C87.9331 64.9073 89.0293 64.646 90.3585 64.646C91.6762 64.646 92.7611 64.9073 93.6131 65.4298C94.4651 65.941 95.0956 66.6681 95.5045 67.611C95.9249 68.5425 96.135 69.6387 96.135 70.8997ZM87.2572 70.8997C87.2572 71.7517 87.3651 72.4844 87.5809 73.0978C87.7968 73.7113 88.1319 74.1827 88.5863 74.5122C89.0407 74.8416 89.6257 75.0063 90.3414 75.0063C91.0798 75.0063 91.6705 74.8416 92.1136 74.5122C92.568 74.1827 92.8974 73.7113 93.1019 73.0978C93.3177 72.4844 93.4257 71.7517 93.4257 70.8997C93.4257 69.616 93.1871 68.6106 92.71 67.8836C92.2329 67.1566 91.449 66.793 90.3585 66.793C89.6314 66.793 89.0407 66.9578 88.5863 67.2872C88.1319 67.6166 87.7968 68.0881 87.5809 68.7015C87.3651 69.315 87.2572 70.0477 87.2572 70.8997ZM99.1664 77V64.8334H101.739V74.87H106.681V77H99.1664ZM119.046 72.7059C119.046 73.5466 118.859 74.3077 118.484 74.9893C118.121 75.6595 117.564 76.1934 116.814 76.591C116.076 76.9773 115.139 77.1704 114.003 77.1704C112.389 77.1704 111.163 76.7614 110.322 75.9435C109.481 75.1142 109.061 74.0237 109.061 72.6718V64.8334H111.634V72.2799C111.634 73.2796 111.838 73.9839 112.247 74.3929C112.656 74.8018 113.264 75.0063 114.071 75.0063C114.911 75.0063 115.519 74.7848 115.894 74.3418C116.28 73.8987 116.473 73.2058 116.473 72.2629V64.8334H119.046V72.7059ZM133.323 77H130.052L124.752 67.7984H124.684C124.707 68.1846 124.724 68.5709 124.735 68.9571C124.758 69.3434 124.775 69.7296 124.786 70.1158C124.809 70.5021 124.826 70.8883 124.838 71.2746V77H122.537V64.8334H125.792L131.074 73.9498H131.125C131.114 73.575 131.103 73.2001 131.091 72.8252C131.08 72.4503 131.063 72.0811 131.04 71.7176C131.029 71.3427 131.017 70.9678 131.006 70.593V64.8334H133.323V77ZM141.596 77H139.023V66.9805H135.717V64.8334H144.902V66.9805H141.596V77ZM154.293 77H147.289V64.8334H154.293V66.9464H149.862V69.6217H153.986V71.7346H149.862V74.87H154.293V77ZM164.339 77H157.335V64.8334H164.339V66.9464H159.908V69.6217H164.032V71.7346H159.908V74.87H164.339V77ZM170.926 64.8334C172.028 64.8334 172.937 64.9698 173.652 65.2424C174.368 65.5037 174.902 65.907 175.254 66.4522C175.606 66.9862 175.782 67.6621 175.782 68.48C175.782 69.0366 175.674 69.5251 175.459 69.9454C175.254 70.3544 174.976 70.7066 174.624 71.0019C174.283 71.2859 173.914 71.5188 173.516 71.7006L177.094 77H174.232L171.335 72.331H169.955V77H167.382V64.8334H170.926ZM170.739 66.9464H169.955V70.2351H170.79C171.642 70.2351 172.249 70.0931 172.613 69.8091C172.988 69.5251 173.175 69.1048 173.175 68.5482C173.175 68.1619 173.084 67.8552 172.903 67.628C172.732 67.3894 172.465 67.219 172.102 67.1168C171.75 67.0032 171.295 66.9464 170.739 66.9464Z" fill="white"/>
<path d="M150.533 13.7667C150.533 21.3697 144.37 27.5333 136.767 27.5333H123V13.7667C123 6.16354 129.164 0 136.767 0C144.37 0 150.533 6.16354 150.533 13.7667Z" fill="white"/>
<path d="M150.533 41.3C150.533 33.6969 156.697 27.5333 164.3 27.5333H178.067V41.3C178.067 48.903 171.903 55.0667 164.3 55.0667C156.697 55.0667 150.533 48.903 150.533 41.3Z" fill="white"/>
<path d="M123 41.3C123 48.903 129.163 55.0667 136.767 55.0667H150.533V41.3C150.533 33.6969 144.37 27.5333 136.767 27.5333C129.163 27.5333 123 33.6969 123 41.3Z" fill="white"/>
<path d="M178.067 13.7667C178.067 6.16354 171.903 0 164.3 0H150.533V13.7667C150.533 21.3697 156.697 27.5333 164.3 27.5333C171.903 27.5333 178.067 21.3697 178.067 13.7667Z" fill="white"/>
<path d="M13.3523 26.2611C13.0001 26.2611 12.7217 26.1475 12.5172 25.9202C12.3126 25.7043 12.2104 25.4089 12.2104 25.0339C12.2104 24.6589 12.3126 24.3578 12.5172 24.1306C12.7103 23.9147 12.9887 23.8067 13.3523 23.8067C13.7046 23.8067 13.9773 23.9147 14.1705 24.1306C14.375 24.3465 14.4773 24.6476 14.4773 25.0339C14.4773 25.4089 14.375 25.7043 14.1705 25.9202C13.9659 26.1475 13.6932 26.2611 13.3523 26.2611ZM11.1897 22C10.1443 22 9.3148 21.6989 8.7012 21.0966C8.09896 20.483 7.79785 19.6422 7.79785 18.5741C7.79785 18.2786 7.82057 17.9775 7.86602 17.6707C7.91147 17.3525 7.97397 17.0457 8.05351 16.7503C8.14442 16.4549 8.241 16.1935 8.34327 15.9663H10.5931C10.5136 16.3299 10.4511 16.6992 10.4056 17.0742C10.3602 17.4491 10.3375 17.8241 10.3375 18.1991C10.3375 18.7218 10.4852 19.1479 10.7806 19.4774C11.0761 19.7956 11.4624 19.9547 11.9396 19.9547H17.4791V13.563H20.0187V19.9547H22.2345C22.2913 19.9547 22.3197 19.9774 22.3197 20.0228V21.9148C22.3197 21.9716 22.2913 22 22.2345 22H11.1897ZM25.1529 19.9547C25.2098 19.9547 25.2382 19.9774 25.2382 20.0228V21.9148C25.2382 21.9716 25.2098 22 25.1529 22H22.0679C22.0111 22 21.9827 21.9716 21.9827 21.9148V20.0228C21.9827 19.9774 22.0111 19.9547 22.0679 19.9547H25.1529ZM28.0658 19.9547C28.1226 19.9547 28.151 19.9774 28.151 20.0228V21.9148C28.151 21.9716 28.1226 22 28.0658 22H24.9808C24.924 22 24.8955 21.9716 24.8955 21.9148V20.0228C24.8955 19.9774 24.924 19.9547 24.9808 19.9547H28.0658ZM29.9289 25.2611C29.5766 25.2611 29.2982 25.1475 29.0937 24.9202C28.8891 24.7043 28.7869 24.4089 28.7869 24.0339C28.7869 23.6589 28.8891 23.3578 29.0937 23.1306C29.2982 22.9147 29.5766 22.8067 29.9289 22.8067C30.2811 22.8067 30.5595 22.9147 30.764 23.1306C30.9572 23.3465 31.0538 23.6476 31.0538 24.0339C31.0538 24.4203 30.9515 24.7214 30.747 24.9373C30.5425 25.1532 30.2697 25.2611 29.9289 25.2611ZM32.8264 25.2611C32.4742 25.2611 32.1958 25.1475 31.9912 24.9202C31.7867 24.7043 31.6844 24.4089 31.6844 24.0339C31.6844 23.6589 31.7867 23.3578 31.9912 23.1306C32.1958 22.9147 32.4742 22.8067 32.8264 22.8067C33.1787 22.8067 33.4514 22.9147 33.6445 23.1306C33.8491 23.3578 33.9513 23.6589 33.9513 24.0339C33.9513 24.4089 33.8491 24.7043 33.6445 24.9202C33.44 25.1475 33.1673 25.2611 32.8264 25.2611ZM27.8936 22C27.8368 22 27.8084 21.9716 27.8084 21.9148V20.0228C27.8084 19.9774 27.8368 19.9547 27.8936 19.9547H30.5355V13.563H33.0751V19.9547H35.6318C35.6886 19.9547 35.717 19.9774 35.717 20.0228V21.9148C35.717 21.9716 35.6886 22 35.6318 22H27.8936ZM38.5521 19.9547C38.609 19.9547 38.6374 19.9774 38.6374 20.0228V21.9148C38.6374 21.9716 38.609 22 38.5521 22H35.4671C35.4103 22 35.3819 21.9716 35.3819 21.9148V20.0228C35.3819 19.9774 35.4103 19.9547 35.4671 19.9547H38.5521ZM41.465 19.9547C41.5218 19.9547 41.5502 19.9774 41.5502 20.0228V21.9148C41.5502 21.9716 41.5218 22 41.465 22H38.38C38.3232 22 38.2947 21.9716 38.2947 21.9148V20.0228C38.2947 19.9774 38.3232 19.9547 38.38 19.9547H41.465ZM44.3779 19.9547C44.4347 19.9547 44.4631 19.9774 44.4631 20.0228V21.9148C44.4631 21.9716 44.4347 22 44.3779 22H41.2928C41.236 22 41.2076 21.9716 41.2076 21.9148V20.0228C41.2076 19.9774 41.236 19.9547 41.2928 19.9547H44.3779ZM47.2907 19.9547C47.3476 19.9547 47.376 19.9774 47.376 20.0228V21.9148C47.376 21.9716 47.3476 22 47.2907 22H44.2057C44.1489 22 44.1205 21.9716 44.1205 21.9148V20.0228C44.1205 19.9774 44.1489 19.9547 44.2057 19.9547H47.2907ZM51.3694 26.2611C51.0172 26.2611 50.7388 26.1475 50.5342 25.9202C50.3297 25.7043 50.2274 25.4089 50.2274 25.0339C50.2274 24.6589 50.3297 24.3578 50.5342 24.1306C50.7274 23.9147 51.0058 23.8067 51.3694 23.8067C51.7217 23.8067 51.9944 23.9147 52.1876 24.1306C52.3921 24.3465 52.4944 24.6476 52.4944 25.0339C52.4944 25.4089 52.3921 25.7043 52.1876 25.9202C51.983 26.1475 51.7103 26.2611 51.3694 26.2611ZM47.1186 22C47.0618 22 47.0333 21.9716 47.0333 21.9148V20.0228C47.0333 19.9774 47.0618 19.9547 47.1186 19.9547H54.0045C53.8568 19.8069 53.7148 19.6251 53.5784 19.4092C53.4534 19.182 53.3398 18.9093 53.2375 18.5911C53.1466 18.2729 53.0557 17.915 52.9648 17.5173C52.8853 17.1196 52.7887 16.7901 52.6751 16.5287C52.5614 16.2674 52.4251 16.0572 52.266 15.8981C52.1183 15.7276 51.9308 15.6083 51.7035 15.5402C51.4876 15.472 51.2263 15.4379 50.9195 15.4379C50.5218 15.4379 50.1468 15.489 49.7945 15.5913C49.4423 15.6936 49.0616 15.8583 48.6526 16.0856L47.8856 14.2107C48.3855 13.938 48.931 13.7334 49.5218 13.5971C50.1127 13.4607 50.7206 13.3926 51.3456 13.3926C51.7092 13.3926 52.033 13.4096 52.3171 13.4437C52.6126 13.4778 52.8796 13.5403 53.1182 13.6312C53.5273 13.7675 53.8795 13.9721 54.175 14.2448C54.4704 14.5061 54.7147 14.8357 54.9079 15.2334C55.1124 15.6311 55.2601 16.114 55.351 16.6821C55.4533 17.2389 55.5612 17.7332 55.6749 18.165C55.7999 18.5968 55.9362 18.9604 56.0839 19.2558C56.2317 19.5513 56.3851 19.7842 56.5441 19.9547H57.652C57.7088 19.9547 57.7373 19.9774 57.7373 20.0228V21.9148C57.7373 21.9716 57.7088 22 57.652 22H47.1186ZM59.2743 10.0972C58.9221 10.0972 58.6437 9.98923 58.4391 9.77334C58.2346 9.54608 58.1323 9.24496 58.1323 8.86998C58.1323 8.48364 58.2346 8.18252 58.4391 7.96663C58.6437 7.75073 58.9221 7.64278 59.2743 7.64278C59.6266 7.64278 59.905 7.75073 60.1095 7.96663C60.3027 8.18252 60.3993 8.48364 60.3993 8.86998C60.3993 9.25632 60.297 9.55744 60.0925 9.77334C59.8879 9.98923 59.6152 10.0972 59.2743 10.0972ZM62.1719 10.0972C61.8196 10.0972 61.5412 9.98923 61.3367 9.77334C61.1322 9.54608 61.0299 9.24496 61.0299 8.86998C61.0299 8.48364 61.1322 8.18252 61.3367 7.96663C61.5412 7.75073 61.8196 7.64278 62.1719 7.64278C62.5241 7.64278 62.7968 7.75073 62.99 7.96663C63.1945 8.18252 63.2968 8.48364 63.2968 8.86998C63.2968 9.24496 63.1945 9.54608 62.99 9.77334C62.7855 9.98923 62.5128 10.0972 62.1719 10.0972ZM57.4884 22C57.4316 22 57.4032 21.9716 57.4032 21.9148V20.0228C57.4032 19.9774 57.4316 19.9547 57.4884 19.9547H60.1303V13.563H62.6699V19.9547H65.2266C65.2834 19.9547 65.3118 19.9774 65.3118 20.0228V21.9148C65.3118 21.9716 65.2834 22 65.2266 22H57.4884ZM77.2657 22C76.777 22 76.3112 21.8921 75.868 21.6762C75.4249 21.4603 74.9987 21.1421 74.5897 20.7217C74.2715 21.1421 73.8738 21.4603 73.3966 21.6762C72.9307 21.8921 72.3796 22 71.7433 22H65.0618C65.005 22 64.9766 21.9716 64.9766 21.9148V20.0228C64.9766 19.9774 65.005 19.9547 65.0618 19.9547H67.1924V14.8925H69.732V19.9547H71.1808C71.7489 19.9547 72.1637 19.8013 72.425 19.4945C72.6864 19.1763 72.8171 18.6707 72.8171 17.9775V14.8925H75.3567V18.182C75.3567 18.3184 75.351 18.4491 75.3396 18.5741C75.3396 18.6991 75.3283 18.8241 75.3055 18.949C75.5896 19.324 75.868 19.5854 76.1407 19.7331C76.4134 19.8808 76.7714 19.9547 77.2145 19.9547H78.2713V13.563H80.8109V19.9547H83.0267C83.0835 19.9547 83.1119 19.9774 83.1119 20.0228V21.9148C83.1119 21.9716 83.0835 22 83.0267 22H77.2657ZM84.7813 19.9547C84.6336 19.6024 84.52 19.2331 84.4404 18.8468C84.3609 18.4491 84.3211 18.0343 84.3211 17.6025C84.3211 17.1139 84.4007 16.5855 84.5597 16.0174C84.7302 15.4379 84.9404 14.9436 85.1904 14.5345C85.7358 14.2164 86.3153 13.9778 86.9289 13.8187C87.5539 13.6482 88.0993 13.563 88.5652 13.563C88.9515 13.563 89.3208 13.6085 89.6731 13.6994C90.0253 13.7789 90.3605 13.8982 90.6787 14.0573C91.315 14.3868 91.8093 14.8584 92.1616 15.472C92.5138 16.0742 92.6899 16.7787 92.6899 17.5855C92.6899 17.9037 92.6615 18.2105 92.6047 18.5059C92.5593 18.79 92.4797 19.0684 92.3661 19.3411C92.5706 19.5683 92.8036 19.7274 93.0649 19.8183C93.3376 19.9092 93.6728 19.9547 94.0705 19.9547H94.1558C94.2126 19.9547 94.241 19.9774 94.241 20.0228V21.9148C94.241 21.9716 94.2126 22 94.1558 22H94.0705C93.4683 22 92.9456 21.9148 92.5025 21.7443C92.0593 21.5739 91.6445 21.2785 91.2582 20.858C90.8264 21.233 90.3264 21.5171 89.7583 21.7102C89.2015 21.9034 88.6277 22 88.0368 22H82.8553C82.7985 22 82.7701 21.9716 82.7701 21.9148V20.0228C82.7701 19.9774 82.7985 19.9547 82.8553 19.9547H84.7813ZM86.6733 17.9605C86.6733 18.2445 86.7073 18.557 86.7755 18.8979C86.8437 19.2274 86.9403 19.5797 87.0653 19.9547H87.713C88.1675 19.9547 88.5765 19.8524 88.9402 19.6479C89.3038 19.432 89.5935 19.1422 89.8094 18.7786C90.0253 18.415 90.1333 18.0173 90.1333 17.5855C90.1333 16.9833 89.9856 16.506 89.6901 16.1538C89.3947 15.7901 89.0027 15.6083 88.5141 15.6083C88.2641 15.6083 88.0027 15.6481 87.73 15.7276C87.4687 15.8072 87.2016 15.9265 86.9289 16.0856C86.8494 16.381 86.7869 16.6878 86.7414 17.006C86.696 17.3128 86.6733 17.6309 86.6733 17.9605ZM93.9908 22C93.934 22 93.9056 21.9716 93.9056 21.9148V20.0228C93.9056 19.9774 93.934 19.9547 93.9908 19.9547H96.1213V9.04623H98.661V22H93.9908ZM102.072 9.04623H104.612V22H102.072V9.04623ZM8.72317 53.2611C8.37092 53.2611 8.09253 53.1475 7.88799 52.9202C7.68346 52.7043 7.58119 52.4089 7.58119 52.0339C7.58119 51.6589 7.68346 51.3578 7.88799 51.1306C8.09253 50.9147 8.37092 50.8067 8.72317 50.8067C9.07542 50.8067 9.35382 50.9147 9.55835 51.1306C9.75152 51.3465 9.84811 51.6476 9.84811 52.0339C9.84811 52.4203 9.74584 52.7214 9.54131 52.9373C9.33677 53.1532 9.06406 53.2611 8.72317 53.2611ZM11.6207 53.2611C11.2685 53.2611 10.9901 53.1475 10.7855 52.9202C10.581 52.7043 10.4787 52.4089 10.4787 52.0339C10.4787 51.6589 10.581 51.3578 10.7855 51.1306C10.9901 50.9147 11.2685 50.8067 11.6207 50.8067C11.973 50.8067 12.2457 50.9147 12.4389 51.1306C12.6434 51.3578 12.7457 51.6589 12.7457 52.0339C12.7457 52.4089 12.6434 52.7043 12.4389 52.9202C12.2343 53.1475 11.9616 53.2611 11.6207 53.2611ZM7.99466 50.0907C7.30151 50.0907 6.69928 49.9145 6.18794 49.5623C5.67661 49.2214 5.27891 48.7555 4.99483 48.1646C4.71076 47.5851 4.56872 46.9318 4.56872 46.2045C4.56872 45.6477 4.61417 45.0966 4.70508 44.5512C4.79598 44.0058 4.93234 43.4604 5.11415 42.915H7.38106C7.23334 43.3808 7.13675 43.8297 7.0913 44.2615C7.04585 44.6819 7.02312 45.2046 7.02312 45.8296C7.02312 46.2159 7.11403 46.5795 7.29583 46.9204C7.489 47.2613 7.73899 47.534 8.04579 47.7385C8.36395 47.9431 8.69916 48.0453 9.05141 48.0453H12.0001C12.4546 48.0453 12.858 48.0226 13.2103 47.9772C13.5739 47.9431 13.8579 47.8635 14.0625 47.7385C14.2784 47.6135 14.3863 47.4147 14.3863 47.142C14.3863 46.9488 14.2897 46.7784 14.0966 46.6306C13.9148 46.4943 13.6193 46.375 13.2103 46.2727C12.5739 46.1136 12.0683 45.9205 11.6933 45.6932C11.3183 45.4546 11.0513 45.1705 10.8922 44.841C10.7445 44.5115 10.6706 44.1194 10.6706 43.6649C10.6706 43.3695 10.7218 43.0627 10.824 42.7445C10.9377 42.4263 11.1024 42.1082 11.3183 41.79C11.6138 41.3582 11.966 40.9662 12.3751 40.614C12.7841 40.2617 13.2103 39.9833 13.6534 39.7788C14.1079 39.5742 14.5397 39.472 14.9488 39.472C15.1306 39.472 15.3067 39.489 15.4772 39.5231C15.6476 39.5458 15.8124 39.597 15.9715 39.6765C16.3464 39.8583 16.7044 40.1424 17.0453 40.5287C17.3861 40.9151 17.8009 41.4605 18.2895 42.165C18.5508 42.54 18.7838 42.8468 18.9883 43.0854C19.2042 43.324 19.3917 43.5001 19.5508 43.6138C19.7099 43.7274 19.8746 43.8126 20.0451 43.8694C20.2269 43.9263 20.4087 43.9547 20.5905 43.9547H20.6757C20.7325 43.9547 20.7609 43.9774 20.7609 44.0228V45.9148C20.7609 45.9716 20.7325 46 20.6757 46H20.5905C20.1814 46 19.8121 45.9659 19.4826 45.8977C19.1644 45.8182 18.8633 45.6875 18.5793 45.5057C18.2952 45.3239 17.9997 45.0739 17.6929 44.7558C17.6361 44.6989 17.5339 44.5739 17.3861 44.3808C17.2384 44.1762 17.0509 43.9149 16.8237 43.5967C16.5623 43.2218 16.3237 42.9093 16.1078 42.6593C15.9033 42.4093 15.7215 42.2218 15.5624 42.0968C15.4147 41.9718 15.2669 41.8809 15.1192 41.8241C14.9715 41.7559 14.8295 41.7218 14.6931 41.7218C14.5454 41.7218 14.375 41.7787 14.1818 41.8923C13.9886 41.9946 13.8011 42.1309 13.6193 42.3014C13.4489 42.4718 13.3068 42.6479 13.1932 42.8297C13.0796 43.0115 13.0228 43.1706 13.0228 43.307C13.0228 43.4547 13.0625 43.5967 13.1421 43.7331C13.233 43.8581 13.3693 43.9774 13.5511 44.091C13.733 44.1933 13.9659 44.2899 14.25 44.3808C14.6136 44.4944 14.9261 44.6137 15.1874 44.7387C15.4601 44.8523 15.6874 44.966 15.8692 45.0796C16.2101 45.2955 16.4657 45.5625 16.6362 45.8807C16.818 46.1989 16.9089 46.5738 16.9089 47.0056C16.9089 48.0056 16.4998 48.7669 15.6817 49.2896C14.8749 49.8236 13.6534 50.0907 12.0171 50.0907H7.99466ZM23.5883 43.9547C23.6451 43.9547 23.6735 43.9774 23.6735 44.0228V45.9148C23.6735 45.9716 23.6451 46 23.5883 46H20.5033C20.4465 46 20.4181 45.9716 20.4181 45.9148V44.0228C20.4181 43.9774 20.4465 43.9547 20.5033 43.9547H23.5883ZM26.5012 43.9547C26.558 43.9547 26.5864 43.9774 26.5864 44.0228V45.9148C26.5864 45.9716 26.558 46 26.5012 46H23.4161C23.3593 46 23.3309 45.9716 23.3309 45.9148V44.0228C23.3309 43.9774 23.3593 43.9547 23.4161 43.9547H26.5012ZM29.4141 43.9547C29.4709 43.9547 29.4993 43.9774 29.4993 44.0228V45.9148C29.4993 45.9716 29.4709 46 29.4141 46H26.329C26.2722 46 26.2438 45.9716 26.2438 45.9148V44.0228C26.2438 43.9774 26.2722 43.9547 26.329 43.9547H29.4141ZM37.5425 46C37.0085 46 36.4517 45.9091 35.8722 45.7273C35.2927 45.5455 34.7984 45.3182 34.3893 45.0455C33.8666 45.3637 33.3382 45.6023 32.8042 45.7614C32.2815 45.9205 31.7531 46 31.219 46H29.2419C29.1851 46 29.1567 45.9716 29.1567 45.9148V44.0228C29.1567 43.9774 29.1851 43.9547 29.2419 43.9547H30.9463C31.2077 43.9547 31.4917 43.9263 31.7985 43.8694C32.1053 43.8013 32.3553 43.7217 32.5485 43.6308C32.3781 43.5058 32.2019 43.3411 32.0201 43.1365C31.8497 42.9206 31.6679 42.6707 31.4747 42.3866C31.0997 41.8184 30.7702 41.2048 30.4861 40.5458C30.2134 39.8867 30.0259 39.2504 29.9237 38.6368C30.3782 38.2618 30.8725 37.9437 31.4065 37.6823C31.9519 37.4096 32.5087 37.2051 33.0769 37.0687C33.645 36.921 34.1904 36.8471 34.7131 36.8471C35.5199 36.8471 36.2812 36.9324 36.9971 37.1028C37.713 37.2732 38.3777 37.5289 38.9913 37.8698C38.9913 38.6879 38.8777 39.4663 38.6504 40.2049C38.4232 40.9435 38.0993 41.6082 37.6789 42.1991C37.2698 42.7786 36.7812 43.2502 36.2131 43.6138C36.429 43.7274 36.6619 43.8126 36.9119 43.8694C37.1732 43.9263 37.4516 43.9547 37.7471 43.9547H39.7072C39.764 43.9547 39.7924 43.9774 39.7924 44.0228V45.9148C39.7924 45.9716 39.764 46 39.7072 46H37.5425ZM34.4234 42.5741C35.0938 42.1764 35.6051 41.6991 35.9574 41.1423C36.321 40.5742 36.5255 39.9265 36.571 39.1993C36.321 39.097 36.0369 39.0231 35.7188 38.9777C35.4006 38.9209 35.0427 38.8925 34.645 38.8925C34.4063 38.8925 34.145 38.9209 33.8609 38.9777C33.5882 39.0345 33.3269 39.114 33.0769 39.2163C32.8383 39.3072 32.6337 39.4152 32.4633 39.5402C32.5769 39.9492 32.7303 40.3526 32.9235 40.7503C33.1166 41.1367 33.3382 41.4889 33.5882 41.8071C33.8496 42.1139 34.128 42.3695 34.4234 42.5741ZM42.6135 43.9547C42.6703 43.9547 42.6987 43.9774 42.6987 44.0228V45.9148C42.6987 45.9716 42.6703 46 42.6135 46H39.5285C39.4717 46 39.4432 45.9716 39.4432 45.9148V44.0228C39.4432 43.9774 39.4717 43.9547 39.5285 43.9547H42.6135ZM45.5264 43.9547C45.5832 43.9547 45.6116 43.9774 45.6116 44.0228V45.9148C45.6116 45.9716 45.5832 46 45.5264 46H42.4413C42.3845 46 42.3561 45.9716 42.3561 45.9148V44.0228C42.3561 43.9774 42.3845 43.9547 42.4413 43.9547H45.5264ZM48.4392 43.9547C48.4961 43.9547 48.5245 43.9774 48.5245 44.0228V45.9148C48.5245 45.9716 48.4961 46 48.4392 46H45.3542C45.2974 46 45.269 45.9716 45.269 45.9148V44.0228C45.269 43.9774 45.2974 43.9547 45.3542 43.9547H48.4392ZM50.1931 43.9547C50.0454 43.6024 49.9317 43.2331 49.8522 42.8468C49.7727 42.4491 49.7329 42.0343 49.7329 41.6025C49.7329 41.1139 49.8124 40.5855 49.9715 40.0174C50.142 39.4379 50.3522 38.9436 50.6022 38.5345C51.1476 38.2164 51.7271 37.9778 52.3407 37.8187C52.9657 37.6482 53.5111 37.563 53.977 37.563C54.3633 37.563 54.7326 37.6085 55.0848 37.6994C55.4371 37.7789 55.7723 37.8982 56.0905 38.0573C56.7268 38.3868 57.2211 38.8584 57.5733 39.472C57.9256 40.0742 58.1017 40.7787 58.1017 41.5855C58.1017 41.9037 58.0733 42.2105 58.0165 42.5059C57.971 42.79 57.8915 43.0684 57.7779 43.3411C57.9824 43.5683 58.2153 43.7274 58.4767 43.8183C58.7494 43.9092 59.0846 43.9547 59.4823 43.9547H59.5675C59.6243 43.9547 59.6528 43.9774 59.6528 44.0228V45.9148C59.6528 45.9716 59.6243 46 59.5675 46H59.4823C58.8801 46 58.3574 45.9148 57.9142 45.7443C57.4711 45.5739 57.0563 45.2785 56.67 44.858C56.2382 45.233 55.7382 45.5171 55.1701 45.7102C54.6133 45.9034 54.0395 46 53.4486 46H48.2671C48.2103 46 48.1818 45.9716 48.1818 45.9148V44.0228C48.1818 43.9774 48.2103 43.9547 48.2671 43.9547H50.1931ZM52.085 41.9605C52.085 42.2445 52.1191 42.557 52.1873 42.8979C52.2555 43.2274 52.3521 43.5797 52.477 43.9547H53.1247C53.5793 43.9547 53.9883 43.8524 54.3519 43.6479C54.7155 43.432 55.0053 43.1422 55.2212 42.7786C55.4371 42.415 55.545 42.0173 55.545 41.5855C55.545 40.9833 55.3973 40.506 55.1019 40.1538C54.8065 39.7901 54.4144 39.6083 53.9258 39.6083C53.6758 39.6083 53.4145 39.6481 53.1418 39.7276C52.8804 39.8072 52.6134 39.9265 52.3407 40.0856C52.2611 40.381 52.1987 40.6878 52.1532 41.006C52.1077 41.3128 52.085 41.6309 52.085 41.9605ZM61.1885 34.0972C60.8362 34.0972 60.5578 33.9892 60.3533 33.7733C60.1488 33.5461 60.0465 33.245 60.0465 32.87C60.0465 32.4836 60.1488 32.1825 60.3533 31.9666C60.5578 31.7507 60.8362 31.6428 61.1885 31.6428C61.5407 31.6428 61.8191 31.7507 62.0237 31.9666C62.2168 32.1825 62.3134 32.4836 62.3134 32.87C62.3134 33.2563 62.2112 33.5574 62.0066 33.7733C61.8021 33.9892 61.5294 34.0972 61.1885 34.0972ZM64.086 34.0972C63.7338 34.0972 63.4554 33.9892 63.2509 33.7733C63.0463 33.5461 62.9441 33.245 62.9441 32.87C62.9441 32.4836 63.0463 32.1825 63.2509 31.9666C63.4554 31.7507 63.7338 31.6428 64.086 31.6428C64.4383 31.6428 64.711 31.7507 64.9042 31.9666C65.1087 32.1825 65.211 32.4836 65.211 32.87C65.211 33.245 65.1087 33.5461 64.9042 33.7733C64.6996 33.9892 64.4269 34.0972 64.086 34.0972ZM59.4025 46C59.3457 46 59.3173 45.9716 59.3173 45.9148V44.0228C59.3173 43.9774 59.3457 43.9547 59.4025 43.9547H62.0444V37.563H64.5841V43.9547H67.1407C67.1975 43.9547 67.2259 43.9774 67.2259 44.0228V45.9148C67.2259 45.9716 67.1975 46 67.1407 46H59.4025ZM71.2269 50.2611C70.8746 50.2611 70.5962 50.1475 70.3917 49.9202C70.1871 49.7043 70.0849 49.4089 70.0849 49.0339C70.0849 48.6589 70.1871 48.3578 70.3917 48.1306C70.5848 47.9147 70.8632 47.8067 71.2269 47.8067C71.5791 47.8067 71.8518 47.9147 72.045 48.1306C72.2495 48.3465 72.3518 48.6476 72.3518 49.0339C72.3518 49.4089 72.2495 49.7043 72.045 49.9202C71.8405 50.1475 71.5677 50.2611 71.2269 50.2611ZM66.976 46C66.9192 46 66.8908 45.9716 66.8908 45.9148V44.0228C66.8908 43.9774 66.9192 43.9547 66.976 43.9547H73.862C73.7142 43.8069 73.5722 43.6251 73.4359 43.4092C73.3109 43.182 73.1972 42.9093 73.095 42.5911C73.0041 42.2729 72.9132 41.915 72.8223 41.5173C72.7427 41.1196 72.6461 40.7901 72.5325 40.5287C72.4189 40.2674 72.2825 40.0572 72.1234 39.8981C71.9757 39.7276 71.7882 39.6083 71.561 39.5402C71.3451 39.472 71.0837 39.4379 70.7769 39.4379C70.3792 39.4379 70.0042 39.489 69.652 39.5913C69.2997 39.6936 68.9191 39.8583 68.51 40.0856L67.743 38.2107C68.243 37.938 68.7884 37.7334 69.3793 37.5971C69.9702 37.4607 70.5781 37.3926 71.203 37.3926C71.5666 37.3926 71.8905 37.4096 72.1746 37.4437C72.47 37.4778 72.737 37.5403 72.9757 37.6312C73.3847 37.7675 73.737 37.9721 74.0324 38.2448C74.3278 38.5061 74.5722 38.8357 74.7653 39.2334C74.9699 39.6311 75.1176 40.114 75.2085 40.6821C75.3107 41.2389 75.4187 41.7332 75.5323 42.165C75.6573 42.5968 75.7937 42.9604 75.9414 43.2558C76.0891 43.5513 76.2425 43.7842 76.4016 43.9547H77.5095C77.5663 43.9547 77.5947 43.9774 77.5947 44.0228V45.9148C77.5947 45.9716 77.5663 46 77.5095 46H66.976ZM79.2718 43.9547C79.1241 43.6024 79.0105 43.2331 78.9309 42.8468C78.8514 42.4491 78.8116 42.0343 78.8116 41.6025C78.8116 41.1139 78.8912 40.5855 79.0503 40.0174C79.2207 39.4379 79.4309 38.9436 79.6809 38.5345C80.2263 38.2164 80.8058 37.9778 81.4194 37.8187C82.0444 37.6482 82.5898 37.563 83.0557 37.563C83.442 37.563 83.8113 37.6085 84.1636 37.6994C84.5158 37.7789 84.851 37.8982 85.1692 38.0573C85.8055 38.3868 86.2998 38.8584 86.6521 39.472C87.0043 40.0742 87.1805 40.7787 87.1805 41.5855C87.1805 41.9037 87.152 42.2105 87.0952 42.5059C87.0498 42.79 86.9702 43.0684 86.8566 43.3411C87.0611 43.5683 87.2941 43.7274 87.5554 43.8183C87.8281 43.9092 88.1633 43.9547 88.5611 43.9547H88.6463C88.7031 43.9547 88.7315 43.9774 88.7315 44.0228V45.9148C88.7315 45.9716 88.7031 46 88.6463 46H88.5611C87.9588 46 87.4361 45.9148 86.993 45.7443C86.5498 45.5739 86.1351 45.2785 85.7487 44.858C85.3169 45.233 84.817 45.5171 84.2488 45.7102C83.692 45.9034 83.1182 46 82.5273 46H77.3458C77.289 46 77.2606 45.9716 77.2606 45.9148V44.0228C77.2606 43.9774 77.289 43.9547 77.3458 43.9547H79.2718ZM81.1638 41.9605C81.1638 42.2445 81.1979 42.557 81.266 42.8979C81.3342 43.2274 81.4308 43.5797 81.5558 43.9547H82.2035C82.658 43.9547 83.0671 43.8524 83.4307 43.6479C83.7943 43.432 84.084 43.1422 84.2999 42.7786C84.5158 42.415 84.6238 42.0173 84.6238 41.5855C84.6238 40.9833 84.4761 40.506 84.1806 40.1538C83.8852 39.7901 83.4932 39.6083 83.0046 39.6083C82.7546 39.6083 82.4932 39.6481 82.2205 39.7276C81.9592 39.8072 81.6921 39.9265 81.4194 40.0856C81.3399 40.381 81.2774 40.6878 81.2319 41.006C81.1865 41.3128 81.1638 41.6309 81.1638 41.9605ZM91.5663 43.9547C91.6231 43.9547 91.6516 43.9774 91.6516 44.0228V45.9148C91.6516 45.9716 91.6231 46 91.5663 46H88.4813C88.4245 46 88.3961 45.9716 88.3961 45.9148V44.0228C88.3961 43.9774 88.4245 43.9547 88.4813 43.9547H91.5663ZM94.4792 43.9547C94.536 43.9547 94.5644 43.9774 94.5644 44.0228V45.9148C94.5644 45.9716 94.536 46 94.4792 46H91.3942C91.3373 46 91.3089 45.9716 91.3089 45.9148V44.0228C91.3089 43.9774 91.3373 43.9547 91.3942 43.9547H94.4792ZM97.3921 43.9547C97.4489 43.9547 97.4773 43.9774 97.4773 44.0228V45.9148C97.4773 45.9716 97.4489 46 97.3921 46H94.307C94.2502 46 94.2218 45.9716 94.2218 45.9148V44.0228C94.2218 43.9774 94.2502 43.9547 94.307 43.9547H97.3921ZM97.2199 46C97.1631 46 97.1347 45.9716 97.1347 45.9148V44.0228C97.1347 43.9774 97.1631 43.9547 97.2199 43.9547H99.3504V33.0462H101.89V46H97.2199ZM105.301 33.0462H107.841V46H105.301V33.0462Z" fill="white"/>
</svg>
