<svg width="35" height="35" viewBox="0 0 35 35" fill="none" xmlns="http://www.w3.org/2000/svg">
<path d="M17.384 8.58946C17.384 13.3332 13.5384 17.1789 8.79453 17.1789H0.205078V8.58946C0.205078 3.84563 4.05071 0 8.79453 0C13.5384 0 17.384 3.84563 17.384 8.58946Z" fill="white"/>
<path d="M17.3839 25.7684C17.3839 21.0246 21.2296 17.1789 25.9734 17.1789H34.5628V25.7684C34.5628 30.5121 30.7172 34.3578 25.9734 34.3578C21.2296 34.3578 17.3839 30.5121 17.3839 25.7684Z" fill="white"/>
<path d="M0.205078 25.7684C0.205078 30.5121 4.05071 34.3578 8.79453 34.3578H17.384V25.7684C17.384 21.0246 13.5384 17.1789 8.79453 17.1789C4.05071 17.1789 0.205078 21.0246 0.205078 25.7684Z" fill="white"/>
<path d="M34.5628 8.58946C34.5628 3.84563 30.7172 0 25.9734 0H17.3839V8.58946C17.3839 13.3332 21.2296 17.1789 25.9734 17.1789C30.7172 17.1789 34.5628 13.3332 34.5628 8.58946Z" fill="white"/>
</svg>
