<svg width="26" height="25" viewBox="0 0 26 25" fill="none" xmlns="http://www.w3.org/2000/svg">
<path d="M25.1108 8.05051L25.0001 7.60482C24.8533 7.17192 24.6593 6.7567 24.4216 6.36679C23.8812 5.45911 23.1073 4.7149 22.1816 4.21261L15.7201 0.696602C14.8656 0.239213 13.9126 0 12.9447 0C11.9768 0 11.0237 0.239213 10.1693 0.696602L3.70777 4.21261C2.78205 4.7149 2.00819 5.45911 1.46777 6.36679C1.2271 6.75337 1.03683 7.16945 0.901614 7.60482V7.77815C0.763771 8.27389 0.693387 8.78615 0.692383 9.30093V18.7347C0.695635 20.2934 1.31261 21.7872 2.40827 22.8894C3.50394 23.9915 4.98904 24.6121 6.53854 24.6154H19.4616C20.2293 24.6154 20.9896 24.4633 21.6988 24.1677C22.4081 23.8722 23.0526 23.4391 23.5955 22.893C24.1383 22.3469 24.569 21.6986 24.8628 20.9852C25.1566 20.2717 25.3078 19.507 25.3078 18.7347V9.28855C25.2857 8.87004 25.2197 8.45505 25.1108 8.05051ZM14.9447 12.1979C14.3346 12.5451 13.6456 12.7276 12.9447 12.7276C12.2438 12.7276 11.5548 12.5451 10.9447 12.1979L2.90777 7.51816C2.94469 7.42324 2.98982 7.33245 3.04315 7.24579C3.41461 6.62421 3.94617 6.11518 4.58161 5.77253L11.0432 2.25652C11.6246 1.93788 12.2764 1.77182 12.9385 1.77369C13.6045 1.77186 14.2604 1.93786 14.8462 2.25652L21.3078 5.77253C22.0681 6.18599 22.6732 6.83813 23.0308 7.62958L14.9447 12.1979Z" fill="white"/>
</svg>
