<svg width="14" height="14" viewBox="0 0 14 14" fill="none" xmlns="http://www.w3.org/2000/svg">
<path d="M4.375 14C3.16342 14 2.1315 13.5739 1.27925 12.7216C0.427 11.8694 0.000583333 10.8372 0 9.625V4.375C0 3.16342 0.426417 2.1315 1.27925 1.27925C2.13208 0.427 3.164 0.000583333 4.375 0H9.625C10.8366 0 11.8688 0.426417 12.7216 1.27925C13.5745 2.13208 14.0006 3.164 14 4.375V9.625C14 10.8366 13.5739 11.8688 12.7216 12.7216C11.8694 13.5745 10.8372 14.0006 9.625 14H4.375ZM6.125 8.6555L4.50975 7.04025C4.42808 6.95858 4.32775 6.91483 4.20875 6.909C4.08975 6.90317 3.98358 6.94692 3.89025 7.04025C3.79692 7.13358 3.75025 7.23683 3.75025 7.35C3.75025 7.46317 3.79692 7.56642 3.89025 7.65975L5.62975 9.39925C5.7715 9.54042 5.93658 9.611 6.125 9.611C6.31342 9.611 6.4785 9.54042 6.62025 9.39925L10.4598 5.55975C10.5414 5.47808 10.5852 5.37775 10.591 5.25875C10.5968 5.13975 10.5531 5.03358 10.4598 4.94025C10.3664 4.84692 10.2632 4.80025 10.15 4.80025C10.0368 4.80025 9.93358 4.84692 9.84025 4.94025L6.125 8.6555Z" fill="white"/>
</svg>
