<svg width="26" height="25" viewBox="0 0 26 25" fill="none" xmlns="http://www.w3.org/2000/svg">
<path fill-rule="evenodd" clip-rule="evenodd" d="M13.1143 1.34987e-10C14.7277 -7.56261e-06 16.3253 0.317765 17.8158 0.935175C19.3064 1.55259 20.6608 2.45754 21.8016 3.59837C22.9425 4.73921 23.8474 6.09357 24.4648 7.58414C25.0823 9.07472 25.4 10.6723 25.4 12.2857C25.4 19.0709 19.8995 24.5714 13.1143 24.5714C6.32913 24.5714 0.828613 19.0709 0.828613 12.2857C0.828613 5.50052 6.32913 1.34987e-10 13.1143 1.34987e-10ZM14.3429 13.5143H11.8857C8.84417 13.5143 6.2329 15.3564 5.10663 17.986C6.88867 20.4848 9.81121 22.1143 13.1143 22.1143C16.4174 22.1143 19.3399 20.4848 21.122 17.9858C19.9958 15.3564 17.3845 13.5143 14.3429 13.5143ZM13.1143 3.68571C11.0787 3.68571 9.42859 5.33587 9.42859 7.37142C9.42859 9.40697 11.0787 11.0571 13.1143 11.0571C15.1498 11.0571 16.8 9.40697 16.8 7.37142C16.8 5.33587 15.1499 3.68571 13.1143 3.68571Z" fill="white"/>
</svg>
