<svg width="26" height="25" viewBox="0 0 26 25" fill="none" xmlns="http://www.w3.org/2000/svg">
<path d="M7.21712 0.113709C6.69409 0.379628 6.4265 0.957714 6.5603 1.51268C6.63328 1.8075 6.70018 1.88265 8.31183 3.42036C9.23625 4.30483 9.97822 5.03322 9.95998 5.04478C9.94781 5.05634 9.67414 5.10259 9.35789 5.13728C7.63676 5.35117 5.8609 5.81942 4.7297 6.35704C3.16061 7.10855 2.12064 8.33409 1.403 10.2938C0.67319 12.2651 0.484657 15.2075 0.934704 17.5314C1.40908 19.9767 2.50379 21.8555 3.99989 22.8036C5.41085 23.6881 8.00775 24.3471 11.0243 24.5725C12.1737 24.6592 15.0625 24.6072 16.1086 24.48C19.3745 24.0927 21.6004 23.3354 22.7924 22.2024C24.027 21.0289 24.8784 19.0923 25.2129 16.7106C25.3285 15.8839 25.3406 13.8375 25.2373 13.0339C24.8602 10.0915 23.7107 7.82538 22.0748 6.79638C20.8767 6.04487 19.0886 5.47835 17.0148 5.19508C16.4978 5.11993 16.066 5.05634 16.0539 5.04478C16.0356 5.03322 16.7776 4.30483 17.702 3.42036C19.3137 1.88265 19.3806 1.8075 19.4535 1.51268C19.5934 0.946153 19.3137 0.373848 18.7785 0.113709C18.4926 -0.0308125 17.9453 -0.0365934 17.6716 0.0905855C17.5621 0.142613 16.4735 1.13692 15.245 2.29887L13.0069 4.42045L10.7749 2.29887C9.54034 1.13692 8.45171 0.142613 8.34224 0.0905855C8.06856 -0.0365934 7.50296 -0.0250317 7.21712 0.113709ZM13.9313 12.6986C16.2728 13.8201 16.7046 14.0456 16.8202 14.2132C17.0938 14.6005 17.0573 15.0688 16.735 15.433C16.6195 15.5717 15.8714 15.9533 13.907 16.884C11.5534 17.9997 11.2067 18.15 10.9513 18.15C10.5742 18.15 10.2215 17.9534 10.0451 17.6586C9.90524 17.4274 9.90524 17.4158 9.90524 14.8087C9.90524 11.9587 9.90524 11.9703 10.2519 11.6581C10.4526 11.4847 10.6776 11.3979 10.9817 11.3922C11.1216 11.3864 11.9548 11.7564 13.9313 12.6986Z" fill="white"/>
</svg>
