<svg width="64" height="29" viewBox="0 0 64 29" fill="none" xmlns="http://www.w3.org/2000/svg">
<path d="M5.44206 11.7185C5.22227 11.7185 5.04858 11.6476 4.92096 11.5058C4.79335 11.3711 4.72954 11.1867 4.72954 10.9528C4.72954 10.7188 4.79335 10.5309 4.92096 10.3891C5.04149 10.2544 5.21518 10.1871 5.44206 10.1871C5.66184 10.1871 5.83199 10.2544 5.95251 10.3891C6.08013 10.5238 6.14394 10.7117 6.14394 10.9528C6.14394 11.1867 6.08013 11.3711 5.95251 11.5058C5.8249 11.6476 5.65475 11.7185 5.44206 11.7185ZM4.09271 9.05981C3.44046 9.05981 2.92291 8.87194 2.54007 8.49618C2.16431 8.11334 1.97643 7.5887 1.97643 6.92227C1.97643 6.73793 1.99061 6.55006 2.01897 6.35864C2.04733 6.16012 2.08632 5.9687 2.13595 5.78437C2.19267 5.60004 2.25293 5.43697 2.31674 5.29518H3.7205C3.67087 5.52205 3.63188 5.75246 3.60352 5.98643C3.57516 6.22039 3.56098 6.45435 3.56098 6.68831C3.56098 7.01443 3.65315 7.2803 3.83748 7.4859C4.02181 7.68441 4.26286 7.78367 4.56063 7.78367H8.01687V3.7957H9.60142V7.78367H10.9839C11.0194 7.78367 11.0371 7.79785 11.0371 7.8262V9.00664C11.0371 9.04209 11.0194 9.05981 10.9839 9.05981H4.09271ZM12.8048 7.78367C12.8403 7.78367 12.858 7.79785 12.858 7.8262V9.00664C12.858 9.04209 12.8403 9.05981 12.8048 9.05981H10.88C10.8445 9.05981 10.8268 9.04209 10.8268 9.00664V7.8262C10.8268 7.79785 10.8445 7.78367 10.88 7.78367H12.8048ZM14.6223 7.78367C14.6577 7.78367 14.6754 7.79785 14.6754 7.8262V9.00664C14.6754 9.04209 14.6577 9.05981 14.6223 9.05981H12.6974C12.662 9.05981 12.6442 9.04209 12.6442 9.00664V7.8262C12.6442 7.79785 12.662 7.78367 12.6974 7.78367H14.6223ZM15.7847 11.7185C15.5649 11.7185 15.3912 11.6476 15.2636 11.5058C15.136 11.3711 15.0722 11.1867 15.0722 10.9528C15.0722 10.7188 15.136 10.5309 15.2636 10.3891C15.3912 10.2544 15.5649 10.1871 15.7847 10.1871C16.0044 10.1871 16.1781 10.2544 16.3058 10.3891C16.4263 10.5238 16.4865 10.7117 16.4865 10.9528C16.4865 11.1938 16.4227 11.3817 16.2951 11.5164C16.1675 11.6511 15.9974 11.7185 15.7847 11.7185ZM17.5925 11.7185C17.3728 11.7185 17.1991 11.6476 17.0714 11.5058C16.9438 11.3711 16.88 11.1867 16.88 10.9528C16.88 10.7188 16.9438 10.5309 17.0714 10.3891C17.1991 10.2544 17.3728 10.1871 17.5925 10.1871C17.8123 10.1871 17.9825 10.2544 18.103 10.3891C18.2306 10.5309 18.2944 10.7188 18.2944 10.9528C18.2944 11.1867 18.2306 11.3711 18.103 11.5058C17.9754 11.6476 17.8052 11.7185 17.5925 11.7185ZM14.5148 9.05981C14.4794 9.05981 14.4617 9.04209 14.4617 9.00664V7.8262C14.4617 7.79785 14.4794 7.78367 14.5148 7.78367H16.1632V3.7957H17.7477V7.78367H19.3429C19.3784 7.78367 19.3961 7.79785 19.3961 7.8262V9.00664C19.3961 9.04209 19.3784 9.05981 19.3429 9.05981H14.5148ZM21.165 7.78367C21.2005 7.78367 21.2182 7.79785 21.2182 7.8262V9.00664C21.2182 9.04209 21.2005 9.05981 21.165 9.05981H19.2402C19.2047 9.05981 19.187 9.04209 19.187 9.00664V7.8262C19.187 7.79785 19.2047 7.78367 19.2402 7.78367H21.165ZM22.9824 7.78367C23.0179 7.78367 23.0356 7.79785 23.0356 7.8262V9.00664C23.0356 9.04209 23.0179 9.05981 22.9824 9.05981H21.0576C21.0221 9.05981 21.0044 9.04209 21.0044 9.00664V7.8262C21.0044 7.79785 21.0221 7.78367 21.0576 7.78367H22.9824ZM24.7999 7.78367C24.8353 7.78367 24.853 7.79785 24.853 7.8262V9.00664C24.853 9.04209 24.8353 9.05981 24.7999 9.05981H22.875C22.8396 9.05981 22.8218 9.04209 22.8218 9.00664V7.8262C22.8218 7.79785 22.8396 7.78367 22.875 7.78367H24.7999ZM26.6173 7.78367C26.6527 7.78367 26.6705 7.79785 26.6705 7.8262V9.00664C26.6705 9.04209 26.6527 9.05981 26.6173 9.05981H24.6924C24.657 9.05981 24.6393 9.04209 24.6393 9.00664V7.8262C24.6393 7.79785 24.657 7.78367 24.6924 7.78367H26.6173ZM29.1621 11.7185C28.9423 11.7185 28.7686 11.6476 28.641 11.5058C28.5134 11.3711 28.4496 11.1867 28.4496 10.9528C28.4496 10.7188 28.5134 10.5309 28.641 10.3891C28.7616 10.2544 28.9352 10.1871 29.1621 10.1871C29.3819 10.1871 29.5521 10.2544 29.6726 10.3891C29.8002 10.5238 29.864 10.7117 29.864 10.9528C29.864 11.1867 29.8002 11.3711 29.6726 11.5058C29.545 11.6476 29.3748 11.7185 29.1621 11.7185ZM26.5099 9.05981C26.4744 9.05981 26.4567 9.04209 26.4567 9.00664V7.8262C26.4567 7.79785 26.4744 7.78367 26.5099 7.78367H30.8062C30.7141 7.6915 30.6255 7.57807 30.5404 7.44336C30.4624 7.30157 30.3915 7.13141 30.3277 6.9329C30.271 6.73439 30.2142 6.51106 30.1575 6.26292C30.1079 6.01478 30.0476 5.80918 29.9767 5.64612C29.9058 5.48306 29.8208 5.3519 29.7215 5.25264C29.6293 5.14629 29.5124 5.07185 29.3706 5.02931C29.2359 4.98678 29.0728 4.96551 28.8814 4.96551C28.6332 4.96551 28.3993 4.99741 28.1795 5.06122C27.9597 5.12503 27.7222 5.22783 27.467 5.36962L26.9884 4.19982C27.3004 4.02967 27.6407 3.90205 28.0094 3.81697C28.378 3.7319 28.7573 3.68936 29.1472 3.68936C29.3741 3.68936 29.5762 3.69999 29.7534 3.72126C29.9378 3.74253 30.1044 3.78153 30.2532 3.83824C30.5085 3.92332 30.7283 4.05093 30.9126 4.22109C31.0969 4.38415 31.2493 4.58975 31.3699 4.83789C31.4975 5.08603 31.5897 5.38734 31.6464 5.74183C31.7102 6.08923 31.7775 6.39763 31.8484 6.66704C31.9264 6.93645 32.0115 7.16332 32.1037 7.34765C32.1958 7.53198 32.2915 7.67732 32.3908 7.78367H33.082C33.1175 7.78367 33.1352 7.79785 33.1352 7.8262V9.00664C33.1352 9.04209 33.1175 9.05981 33.082 9.05981H26.5099ZM34.0942 1.88113C33.8745 1.88113 33.7008 1.81378 33.5731 1.67908C33.4455 1.53728 33.3817 1.3494 33.3817 1.11544C33.3817 0.874393 33.4455 0.686516 33.5731 0.551812C33.7008 0.417107 33.8745 0.349755 34.0942 0.349755C34.314 0.349755 34.4877 0.417107 34.6153 0.551812C34.7359 0.686516 34.7961 0.874393 34.7961 1.11544C34.7961 1.35649 34.7323 1.54437 34.6047 1.67908C34.4771 1.81378 34.3069 1.88113 34.0942 1.88113ZM35.9021 1.88113C35.6823 1.88113 35.5086 1.81378 35.381 1.67908C35.2534 1.53728 35.1896 1.3494 35.1896 1.11544C35.1896 0.874393 35.2534 0.686516 35.381 0.551812C35.5086 0.417107 35.6823 0.349755 35.9021 0.349755C36.1219 0.349755 36.292 0.417107 36.4126 0.551812C36.5402 0.686516 36.604 0.874393 36.604 1.11544C36.604 1.3494 36.5402 1.53728 36.4126 1.67908C36.285 1.81378 36.1148 1.88113 35.9021 1.88113ZM32.9799 9.05981C32.9445 9.05981 32.9268 9.04209 32.9268 9.00664V7.8262C32.9268 7.79785 32.9445 7.78367 32.9799 7.78367H34.6283V3.7957H36.2128V7.78367H37.808C37.8435 7.78367 37.8612 7.79785 37.8612 7.8262V9.00664C37.8612 9.04209 37.8435 9.05981 37.808 9.05981H32.9799ZM45.3196 9.05981C45.0147 9.05981 44.7241 8.99246 44.4476 8.85776C44.1711 8.72305 43.9052 8.52454 43.65 8.26222C43.4515 8.52454 43.2033 8.72305 42.9055 8.85776C42.6149 8.99246 42.271 9.05981 41.874 9.05981H37.7052C37.6698 9.05981 37.6521 9.04209 37.6521 9.00664V7.8262C37.6521 7.79785 37.6698 7.78367 37.7052 7.78367H39.0346V4.6252H40.6191V7.78367H41.5231C41.8775 7.78367 42.1363 7.68796 42.2994 7.49653C42.4624 7.29802 42.544 6.98253 42.544 6.55006V4.6252H44.1285V6.67767C44.1285 6.76275 44.125 6.84428 44.1179 6.92227C44.1179 7.00025 44.1108 7.07824 44.0966 7.15623C44.2739 7.39019 44.4476 7.55325 44.6177 7.64542C44.7879 7.73758 45.0112 7.78367 45.2877 7.78367H45.947V3.7957H47.5316V7.78367H48.9141C48.9495 7.78367 48.9673 7.79785 48.9673 7.8262V9.00664C48.9673 9.04209 48.9495 9.05981 48.9141 9.05981H45.3196ZM50.0089 7.78367C49.9167 7.56389 49.8458 7.33347 49.7962 7.09242C49.7465 6.84428 49.7217 6.58551 49.7217 6.3161C49.7217 6.01124 49.7714 5.68157 49.8706 5.32708C49.977 4.96551 50.1081 4.6571 50.2641 4.40187C50.6044 4.20336 50.966 4.05448 51.3488 3.95522C51.7387 3.84888 52.0791 3.7957 52.3697 3.7957C52.6108 3.7957 52.8412 3.82406 53.061 3.88078C53.2808 3.93041 53.4899 4.00485 53.6884 4.10411C54.0854 4.30971 54.3938 4.60393 54.6136 4.98678C54.8334 5.36253 54.9433 5.80209 54.9433 6.30546C54.9433 6.50397 54.9256 6.6954 54.8901 6.87973C54.8618 7.05697 54.8121 7.23067 54.7412 7.40082C54.8689 7.54262 55.0142 7.64187 55.1773 7.69859C55.3474 7.75531 55.5566 7.78367 55.8047 7.78367H55.8579C55.8933 7.78367 55.911 7.79785 55.911 7.8262V9.00664C55.911 9.04209 55.8933 9.05981 55.8579 9.05981H55.8047C55.4289 9.05981 55.1028 9.00664 54.8263 8.9003C54.5498 8.79395 54.291 8.60962 54.05 8.3473C53.7806 8.58126 53.4686 8.7585 53.1142 8.87903C52.7668 8.99955 52.4087 9.05981 52.0401 9.05981H48.8072C48.7717 9.05981 48.754 9.04209 48.754 9.00664V7.8262C48.754 7.79785 48.7717 7.78367 48.8072 7.78367H50.0089ZM51.1893 6.53942C51.1893 6.71667 51.2106 6.91163 51.2531 7.12432C51.2956 7.32993 51.3559 7.54971 51.4339 7.78367H51.838C52.1216 7.78367 52.3768 7.71986 52.6037 7.59224C52.8306 7.45754 53.0113 7.27675 53.1461 7.04988C53.2808 6.82301 53.3481 6.57487 53.3481 6.30546C53.3481 5.92971 53.2559 5.63194 53.0716 5.41216C52.8873 5.18529 52.6427 5.07185 52.3378 5.07185C52.1819 5.07185 52.0188 5.09667 51.8486 5.14629C51.6856 5.19592 51.519 5.27036 51.3488 5.36962C51.2992 5.55395 51.2602 5.74538 51.2318 5.94389C51.2035 6.13531 51.1893 6.33382 51.1893 6.53942ZM55.7549 9.05981C55.7195 9.05981 55.7018 9.04209 55.7018 9.00664V7.8262C55.7018 7.79785 55.7195 7.78367 55.7549 7.78367H57.0843V0.977545H58.6688V9.05981H55.7549ZM60.7972 0.977545H62.3818V9.05981H60.7972V0.977545ZM3.46249 28.7185C3.24271 28.7185 3.06901 28.6476 2.94139 28.5058C2.81378 28.3711 2.74997 28.1867 2.74997 27.9528C2.74997 27.7188 2.81378 27.5309 2.94139 27.3891C3.06901 27.2544 3.24271 27.1871 3.46249 27.1871C3.68227 27.1871 3.85597 27.2544 3.98358 27.3891C4.10411 27.5238 4.16437 27.7117 4.16437 27.9528C4.16437 28.1938 4.10056 28.3817 3.97295 28.5164C3.84533 28.6511 3.67518 28.7185 3.46249 28.7185ZM5.27036 28.7185C5.05058 28.7185 4.87688 28.6476 4.74927 28.5058C4.62166 28.3711 4.55785 28.1867 4.55785 27.9528C4.55785 27.7188 4.62166 27.5309 4.74927 27.3891C4.87688 27.2544 5.05058 27.1871 5.27036 27.1871C5.49014 27.1871 5.6603 27.2544 5.78082 27.3891C5.90844 27.5309 5.97225 27.7188 5.97225 27.9528C5.97225 28.1867 5.90844 28.3711 5.78082 28.5058C5.65321 28.6476 5.48305 28.7185 5.27036 28.7185ZM3.00794 26.6121C2.57547 26.6121 2.19972 26.5022 1.88068 26.2824C1.56164 26.0697 1.3135 25.7791 1.13626 25.4104C0.959018 25.0488 0.870396 24.6412 0.870396 24.1874C0.870396 23.84 0.898755 23.4962 0.955473 23.1559C1.01219 22.8156 1.09727 22.4753 1.2107 22.135H2.6251C2.53293 22.4256 2.47267 22.7057 2.44431 22.9751C2.41595 23.2374 2.40177 23.5635 2.40177 23.9535C2.40177 24.1945 2.45849 24.4214 2.57193 24.6341C2.69245 24.8468 2.84843 25.0169 3.03985 25.1445C3.23836 25.2722 3.44751 25.336 3.66729 25.336H5.50707C5.79066 25.336 6.04234 25.3218 6.26212 25.2934C6.48899 25.2722 6.66623 25.2225 6.79385 25.1445C6.92855 25.0666 6.99591 24.9425 6.99591 24.7723C6.99591 24.6518 6.93564 24.5455 6.81512 24.4533C6.70168 24.3682 6.51735 24.2938 6.26212 24.23C5.8651 24.1307 5.5496 24.0102 5.31564 23.8684C5.08168 23.7195 4.91508 23.5423 4.81582 23.3367C4.72365 23.1311 4.67757 22.8865 4.67757 22.6029C4.67757 22.4185 4.70947 22.2271 4.77328 22.0286C4.84418 21.8301 4.94698 21.6316 5.08168 21.4331C5.26602 21.1637 5.4858 20.9191 5.74103 20.6993C5.99626 20.4795 6.26212 20.3058 6.53862 20.1782C6.82221 20.0506 7.09162 19.9868 7.34685 19.9868C7.46028 19.9868 7.57017 19.9974 7.67652 20.0187C7.78286 20.0329 7.88566 20.0648 7.98492 20.1144C8.21888 20.2278 8.44221 20.4051 8.6549 20.6461C8.86759 20.8872 9.12636 21.2275 9.43122 21.667C9.59428 21.901 9.73962 22.0924 9.86724 22.2413C10.0019 22.3902 10.1189 22.5001 10.2182 22.571C10.3174 22.6419 10.4202 22.695 10.5266 22.7305C10.64 22.7659 10.7535 22.7837 10.8669 22.7837H10.9201C10.9555 22.7837 10.9732 22.7978 10.9732 22.8262V24.0066C10.9732 24.0421 10.9555 24.0598 10.9201 24.0598H10.8669C10.6117 24.0598 10.3812 24.0385 10.1756 23.996C9.97713 23.9464 9.78925 23.8648 9.61201 23.7514C9.43477 23.638 9.25043 23.482 9.05901 23.2835C9.02356 23.248 8.95976 23.1701 8.86759 23.0495C8.77542 22.9219 8.65844 22.7589 8.51665 22.5603C8.35359 22.3264 8.2047 22.1314 8.07 21.9754C7.94238 21.8195 7.82895 21.7025 7.72969 21.6245C7.63752 21.5465 7.54536 21.4898 7.45319 21.4543C7.36103 21.4118 7.2724 21.3905 7.18733 21.3905C7.09516 21.3905 6.98882 21.426 6.86829 21.4969C6.74777 21.5607 6.63079 21.6458 6.51735 21.7521C6.411 21.8585 6.32238 21.9684 6.25149 22.0818C6.18059 22.1952 6.14514 22.2945 6.14514 22.3796C6.14514 22.4717 6.16995 22.5603 6.21958 22.6454C6.2763 22.7234 6.36138 22.7978 6.47481 22.8687C6.58825 22.9326 6.73359 22.9928 6.91083 23.0495C7.1377 23.1204 7.33267 23.1949 7.49573 23.2729C7.66588 23.3438 7.80768 23.4147 7.92111 23.4855C8.1338 23.6203 8.29332 23.7869 8.39967 23.9854C8.5131 24.1839 8.56982 24.4178 8.56982 24.6873C8.56982 25.3111 8.31459 25.7862 7.80413 26.1123C7.30076 26.4455 6.53862 26.6121 5.5177 26.6121H3.00794ZM12.7373 22.7837C12.7728 22.7837 12.7905 22.7978 12.7905 22.8262V24.0066C12.7905 24.0421 12.7728 24.0598 12.7373 24.0598H10.8125C10.777 24.0598 10.7593 24.0421 10.7593 24.0066V22.8262C10.7593 22.7978 10.777 22.7837 10.8125 22.7837H12.7373ZM14.5548 22.7837C14.5902 22.7837 14.6079 22.7978 14.6079 22.8262V24.0066C14.6079 24.0421 14.5902 24.0598 14.5548 24.0598H12.6299C12.5944 24.0598 12.5767 24.0421 12.5767 24.0066V22.8262C12.5767 22.7978 12.5944 22.7837 12.6299 22.7837H14.5548ZM19.6264 24.0598C19.2931 24.0598 18.9457 24.0031 18.5842 23.8897C18.2226 23.7762 17.9142 23.6344 17.659 23.4643C17.3328 23.6628 17.0032 23.8117 16.67 23.9109C16.3438 24.0102 16.0142 24.0598 15.6809 24.0598H14.4473C14.4119 24.0598 14.3942 24.0421 14.3942 24.0066V22.8262C14.3942 22.7978 14.4119 22.7837 14.4473 22.7837H15.5108C15.6738 22.7837 15.8511 22.7659 16.0425 22.7305C16.2339 22.688 16.3899 22.6383 16.5104 22.5816C16.4041 22.5036 16.2942 22.4008 16.1808 22.2732C16.0744 22.1385 15.961 21.9825 15.8405 21.8053C15.6065 21.4508 15.4009 21.068 15.2237 20.6568C15.0535 20.2456 14.9365 19.8485 14.8727 19.4657C15.1563 19.2317 15.4647 19.0332 15.7979 18.8701C16.1382 18.7 16.4856 18.5724 16.8401 18.4873C17.1946 18.3951 17.5349 18.3491 17.861 18.3491C18.3644 18.3491 18.8394 18.4022 19.2861 18.5086C19.7327 18.6149 20.1475 18.7744 20.5303 18.9871C20.5303 19.4976 20.4594 19.9832 20.3176 20.4441C20.1758 20.9049 19.9738 21.3196 19.7114 21.6883C19.4562 22.0499 19.1514 22.3441 18.7969 22.571C18.9316 22.6419 19.0769 22.695 19.2329 22.7305C19.3959 22.7659 19.5696 22.7837 19.754 22.7837H20.977C21.0124 22.7837 21.0301 22.7978 21.0301 22.8262V24.0066C21.0301 24.0421 21.0124 24.0598 20.977 24.0598H19.6264ZM17.6802 21.9223C18.0985 21.6741 18.4176 21.3764 18.6373 21.029C18.8642 20.6745 18.9918 20.2704 19.0202 19.8166C18.8642 19.7528 18.687 19.7067 18.4885 19.6784C18.29 19.6429 18.0666 19.6252 17.8185 19.6252C17.6696 19.6252 17.5065 19.6429 17.3293 19.6784C17.1591 19.7138 16.9961 19.7635 16.8401 19.8273C16.6912 19.884 16.5636 19.9513 16.4573 20.0293C16.5282 20.2845 16.6239 20.5362 16.7444 20.7844C16.8649 21.0254 17.0032 21.2452 17.1591 21.4437C17.3222 21.6351 17.4959 21.7947 17.6802 21.9223ZM22.7903 22.7837C22.8258 22.7837 22.8435 22.7978 22.8435 22.8262V24.0066C22.8435 24.0421 22.8258 24.0598 22.7903 24.0598H20.8655C20.83 24.0598 20.8123 24.0421 20.8123 24.0066V22.8262C20.8123 22.7978 20.83 22.7837 20.8655 22.7837H22.7903ZM24.6077 22.7837C24.6432 22.7837 24.6609 22.7978 24.6609 22.8262V24.0066C24.6609 24.0421 24.6432 24.0598 24.6077 24.0598H22.6829C22.6474 24.0598 22.6297 24.0421 22.6297 24.0066V22.8262C22.6297 22.7978 22.6474 22.7837 22.6829 22.7837H24.6077ZM26.4252 22.7837C26.4606 22.7837 26.4783 22.7978 26.4783 22.8262V24.0066C26.4783 24.0421 26.4606 24.0598 26.4252 24.0598H24.5003C24.4649 24.0598 24.4471 24.0421 24.4471 24.0066V22.8262C24.4471 22.7978 24.4649 22.7837 24.5003 22.7837H26.4252ZM27.5195 22.7837C27.4273 22.5639 27.3564 22.3335 27.3068 22.0924C27.2571 21.8443 27.2323 21.5855 27.2323 21.3161C27.2323 21.0112 27.2819 20.6816 27.3812 20.3271C27.4875 19.9655 27.6187 19.6571 27.7747 19.4019C28.115 19.2034 28.4766 19.0545 28.8594 18.9552C29.2493 18.8489 29.5896 18.7957 29.8803 18.7957C30.1214 18.7957 30.3518 18.8241 30.5716 18.8808C30.7914 18.9304 31.0005 19.0049 31.199 19.1041C31.596 19.3097 31.9044 19.6039 32.1242 19.9868C32.344 20.3625 32.4539 20.8021 32.4539 21.3055C32.4539 21.504 32.4362 21.6954 32.4007 21.8797C32.3724 22.057 32.3227 22.2307 32.2518 22.4008C32.3794 22.5426 32.5248 22.6419 32.6878 22.6986C32.858 22.7553 33.0671 22.7837 33.3153 22.7837H33.3685C33.4039 22.7837 33.4216 22.7978 33.4216 22.8262V24.0066C33.4216 24.0421 33.4039 24.0598 33.3685 24.0598H33.3153C32.9395 24.0598 32.6134 24.0066 32.3369 23.9003C32.0604 23.794 31.8016 23.6096 31.5606 23.3473C31.2912 23.5813 30.9792 23.7585 30.6247 23.879C30.2773 23.9996 29.9193 24.0598 29.5507 24.0598H26.3177C26.2823 24.0598 26.2646 24.0421 26.2646 24.0066V22.8262C26.2646 22.7978 26.2823 22.7837 26.3177 22.7837H27.5195ZM28.6999 21.5394C28.6999 21.7167 28.7212 21.9116 28.7637 22.1243C28.8062 22.3299 28.8665 22.5497 28.9445 22.7837H29.3486C29.6322 22.7837 29.8874 22.7199 30.1143 22.5922C30.3412 22.4575 30.5219 22.2768 30.6566 22.0499C30.7914 21.823 30.8587 21.5749 30.8587 21.3055C30.8587 20.9297 30.7665 20.6319 30.5822 20.4122C30.3979 20.1853 30.1533 20.0719 29.8484 20.0719C29.6924 20.0719 29.5294 20.0967 29.3592 20.1463C29.1962 20.1959 29.0296 20.2704 28.8594 20.3696C28.8098 20.554 28.7708 20.7454 28.7424 20.9439C28.7141 21.1353 28.6999 21.3338 28.6999 21.5394ZM34.3798 16.8811C34.16 16.8811 33.9863 16.8138 33.8587 16.6791C33.7311 16.5373 33.6673 16.3494 33.6673 16.1154C33.6673 15.8744 33.7311 15.6865 33.8587 15.5518C33.9863 15.4171 34.16 15.3498 34.3798 15.3498C34.5996 15.3498 34.7733 15.4171 34.9009 15.5518C35.0214 15.6865 35.0817 15.8744 35.0817 16.1154C35.0817 16.3565 35.0179 16.5444 34.8903 16.6791C34.7627 16.8138 34.5925 16.8811 34.3798 16.8811ZM36.1877 16.8811C35.9679 16.8811 35.7942 16.8138 35.6666 16.6791C35.539 16.5373 35.4752 16.3494 35.4752 16.1154C35.4752 15.8744 35.539 15.6865 35.6666 15.5518C35.7942 15.4171 35.9679 15.3498 36.1877 15.3498C36.4075 15.3498 36.5776 15.4171 36.6982 15.5518C36.8258 15.6865 36.8896 15.8744 36.8896 16.1154C36.8896 16.3494 36.8258 16.5373 36.6982 16.6791C36.5705 16.8138 36.4004 16.8811 36.1877 16.8811ZM33.2655 24.0598C33.2301 24.0598 33.2123 24.0421 33.2123 24.0066V22.8262C33.2123 22.7978 33.2301 22.7837 33.2655 22.7837H34.9139V18.7957H36.4984V22.7837H38.0936C38.1291 22.7837 38.1468 22.7978 38.1468 22.8262V24.0066C38.1468 24.0421 38.1291 24.0598 38.0936 24.0598H33.2655ZM40.6431 26.7185C40.4233 26.7185 40.2496 26.6476 40.122 26.5058C39.9944 26.3711 39.9306 26.1867 39.9306 25.9528C39.9306 25.7188 39.9944 25.5309 40.122 25.3891C40.2425 25.2544 40.4162 25.1871 40.6431 25.1871C40.8629 25.1871 41.033 25.2544 41.1535 25.3891C41.2812 25.5238 41.345 25.7117 41.345 25.9528C41.345 26.1867 41.2812 26.3711 41.1535 26.5058C41.0259 26.6476 40.8558 26.7185 40.6431 26.7185ZM37.9908 24.0598C37.9554 24.0598 37.9377 24.0421 37.9377 24.0066V22.8262C37.9377 22.7978 37.9554 22.7837 37.9908 22.7837H42.2872C42.195 22.6915 42.1064 22.5781 42.0213 22.4434C41.9434 22.3016 41.8725 22.1314 41.8086 21.9329C41.7519 21.7344 41.6952 21.5111 41.6385 21.2629C41.5889 21.0148 41.5286 20.8092 41.4577 20.6461C41.3868 20.4831 41.3017 20.3519 41.2025 20.2526C41.1103 20.1463 40.9933 20.0719 40.8515 20.0293C40.7168 19.9868 40.5538 19.9655 40.3623 19.9655C40.1142 19.9655 39.8802 19.9974 39.6605 20.0612C39.4407 20.125 39.2032 20.2278 38.948 20.3696L38.4694 19.1998C38.7813 19.0297 39.1216 18.9021 39.4903 18.817C39.859 18.7319 40.2383 18.6894 40.6282 18.6894C40.8551 18.6894 41.0571 18.7 41.2344 18.7213C41.4187 18.7425 41.5853 18.7815 41.7342 18.8382C41.9894 18.9233 42.2092 19.0509 42.3936 19.2211C42.5779 19.3842 42.7303 19.5898 42.8508 19.8379C42.9785 20.086 43.0706 20.3873 43.1273 20.7418C43.1911 21.0892 43.2585 21.3976 43.3294 21.667C43.4074 21.9364 43.4925 22.1633 43.5846 22.3476C43.6768 22.532 43.7725 22.6773 43.8718 22.7837H44.563C44.5985 22.7837 44.6162 22.7978 44.6162 22.8262V24.0066C44.6162 24.0421 44.5985 24.0598 44.563 24.0598H37.9908ZM45.6626 22.7837C45.5704 22.5639 45.4995 22.3335 45.4499 22.0924C45.4003 21.8443 45.3755 21.5855 45.3755 21.3161C45.3755 21.0112 45.4251 20.6816 45.5243 20.3271C45.6307 19.9655 45.7619 19.6571 45.9178 19.4019C46.2581 19.2034 46.6197 19.0545 47.0026 18.9552C47.3925 18.8489 47.7328 18.7957 48.0235 18.7957C48.2645 18.7957 48.4949 18.8241 48.7147 18.8808C48.9345 18.9304 49.1436 19.0049 49.3422 19.1041C49.7392 19.3097 50.0476 19.6039 50.2674 19.9868C50.4871 20.3625 50.597 20.8021 50.597 21.3055C50.597 21.504 50.5793 21.6954 50.5439 21.8797C50.5155 22.057 50.4659 22.2307 50.395 22.4008C50.5226 22.5426 50.6679 22.6419 50.831 22.6986C51.0011 22.7553 51.2103 22.7837 51.4584 22.7837H51.5116C51.5471 22.7837 51.5648 22.7978 51.5648 22.8262V24.0066C51.5648 24.0421 51.5471 24.0598 51.5116 24.0598H51.4584C51.0827 24.0598 50.7566 24.0066 50.4801 23.9003C50.2036 23.794 49.9448 23.6096 49.7037 23.3473C49.4343 23.5813 49.1224 23.7585 48.7679 23.879C48.4205 23.9996 48.0625 24.0598 47.6938 24.0598H44.4609C44.4254 24.0598 44.4077 24.0421 44.4077 24.0066V22.8262C44.4077 22.7978 44.4254 22.7837 44.4609 22.7837H45.6626ZM46.843 21.5394C46.843 21.7167 46.8643 21.9116 46.9068 22.1243C46.9494 22.3299 47.0096 22.5497 47.0876 22.7837H47.4917C47.7753 22.7837 48.0306 22.7199 48.2574 22.5922C48.4843 22.4575 48.6651 22.2768 48.7998 22.0499C48.9345 21.823 49.0019 21.5749 49.0019 21.3055C49.0019 20.9297 48.9097 20.6319 48.7254 20.4122C48.541 20.1853 48.2964 20.0719 47.9916 20.0719C47.8356 20.0719 47.6725 20.0967 47.5024 20.1463C47.3393 20.1959 47.1727 20.2704 47.0026 20.3696C46.9529 20.554 46.9139 20.7454 46.8856 20.9439C46.8572 21.1353 46.843 21.3338 46.843 21.5394ZM53.3335 22.7837C53.369 22.7837 53.3867 22.7978 53.3867 22.8262V24.0066C53.3867 24.0421 53.369 24.0598 53.3335 24.0598H51.4087C51.3732 24.0598 51.3555 24.0421 51.3555 24.0066V22.8262C51.3555 22.7978 51.3732 22.7837 51.4087 22.7837H53.3335ZM55.151 22.7837C55.1864 22.7837 55.2041 22.7978 55.2041 22.8262V24.0066C55.2041 24.0421 55.1864 24.0598 55.151 24.0598H53.2261C53.1907 24.0598 53.1729 24.0421 53.1729 24.0066V22.8262C53.1729 22.7978 53.1907 22.7837 53.2261 22.7837H55.151ZM56.9684 22.7837C57.0038 22.7837 57.0216 22.7978 57.0216 22.8262V24.0066C57.0216 24.0421 57.0038 24.0598 56.9684 24.0598H55.0435C55.0081 24.0598 54.9904 24.0421 54.9904 24.0066V22.8262C54.9904 22.7978 55.0081 22.7837 55.0435 22.7837H56.9684ZM56.861 24.0598C56.8255 24.0598 56.8078 24.0421 56.8078 24.0066V22.8262C56.8078 22.7978 56.8255 22.7837 56.861 22.7837H58.1903V15.9775H59.7748V24.0598H56.861ZM61.9032 15.9775H63.4878V24.0598H61.9032V15.9775Z" fill="white"/>
</svg>
