<svg width="28" height="28" viewBox="0 0 28 28" fill="none" xmlns="http://www.w3.org/2000/svg">
<path d="M3.39526 0.0896034C3.13825 0.191096 2.94888 0.519453 3.00975 0.770198C3.0368 0.877661 3.44936 1.28363 4.18656 1.9284C5.2484 2.86571 5.33632 2.92542 5.57303 2.92542C5.77593 2.92542 5.87738 2.88362 6.06675 2.71646C6.28318 2.52542 6.30347 2.48363 6.26965 2.25676C6.23584 2.03587 6.12762 1.92243 5.19429 1.08662C4.29477 0.286618 3.88221 -0.00591874 3.67255 5.14984e-05C3.6455 0.0060215 3.51699 0.0418425 3.39526 0.0896034Z" fill="white"/>
<path d="M24.0435 0.0836329C23.9353 0.131394 23.3739 0.579154 22.8058 1.08661C21.8725 1.92243 21.7643 2.03587 21.7304 2.25676C21.6966 2.48363 21.7169 2.52542 21.9333 2.71646C22.1227 2.88362 22.2242 2.92542 22.4271 2.92542C22.6638 2.92542 22.7517 2.86571 23.8135 1.9284C24.5507 1.28363 24.9633 0.87766 24.9903 0.770198C25.058 0.513482 24.8618 0.191095 24.5913 0.0896032C24.3073 -0.0178592 24.3005 -0.0178592 24.0435 0.0836329Z" fill="white"/>
<path d="M13.1748 2.57322C12.4985 2.65083 11.5381 2.94934 10.9024 3.26575C10.2463 3.58814 9.33327 4.32247 8.89366 4.86575C8.49462 5.3553 8.08206 6.12545 7.90622 6.71649C7.68979 7.42097 7.68303 8.72842 7.89946 9.42693C8.21733 10.4598 8.67047 11.1523 9.62409 12.0538C10.5304 12.9075 10.6859 13.218 10.855 14.5135C10.9091 14.9015 11.2608 15.3911 11.6531 15.6239C12.0589 15.8627 12.3565 15.9403 12.9043 15.9403H13.3236V13.9045V11.8687L13.5197 11.6956C13.797 11.4508 14.2028 11.4508 14.4801 11.6956L14.6763 11.8687V13.9105V15.9583L15.2376 15.9284C16.4212 15.8687 17.0502 15.3135 17.1787 14.2209C17.2937 13.2359 17.4966 12.8777 18.3825 12.0418C19.3159 11.1702 19.7825 10.4478 20.0937 9.4329C20.2966 8.78216 20.3168 7.48067 20.1342 6.8538C19.5526 4.78217 17.8347 3.21799 15.5893 2.7165C14.8589 2.54934 13.8309 2.48964 13.1748 2.57322ZM14.6222 4.59112C15.285 4.74038 15.711 4.93739 16.1642 5.2956C16.942 5.91052 17.111 6.34037 16.712 6.69261C16.5565 6.82992 16.455 6.86574 16.2251 6.86574C15.9613 6.86574 15.9072 6.83589 15.4946 6.4538C14.9536 5.95231 14.6289 5.80306 13.9458 5.73142C13.4859 5.68963 13.4048 5.65978 13.2425 5.49858C12.9449 5.20605 13.0125 4.78217 13.3777 4.57918C13.6212 4.44784 13.9999 4.45381 14.6222 4.59112Z" fill="white"/>
<path d="M1.96135 8.24484C0.96715 8.29857 0.114976 8.41797 0.0541063 8.50155C0.0270531 8.53737 0 12.7403 0 17.8388V27.1164L0.189372 27.0806C1.36618 26.8597 4.64638 26.7463 6.42512 26.8597C8.48792 26.997 10.4831 27.3075 12.3633 27.7851C12.8232 27.9045 13.229 28 13.2628 28C13.2966 28 13.3237 26.5015 13.3237 24.2806V20.5552L13.0396 20.4836C12.5256 20.3463 11.9507 20.0358 11.5517 19.6836C10.8551 19.0567 10.5507 18.2926 10.5507 17.1105V16.4657L10.2599 16.1851C9.75266 15.6836 9.40097 14.8896 9.40097 14.2388C9.3942 13.809 9.20483 13.4866 8.61642 12.9374C7.35845 11.7553 6.62802 10.4418 6.40483 8.95528L6.31691 8.38812L5.98551 8.34633C5.44444 8.28066 3.68599 8.17916 3.19227 8.18513C2.94203 8.1911 2.38744 8.21498 1.96135 8.24484ZM6.43188 13.4866C6.58744 13.6239 6.62802 13.7135 6.62802 13.9105C6.62802 14.1075 6.58744 14.1971 6.43188 14.3344L6.23575 14.5075H4.68696C2.96908 14.5075 2.91498 14.4956 2.73237 14.1135C2.65121 13.9403 2.65121 13.8806 2.73237 13.7075C2.91498 13.3254 2.96908 13.3135 4.68696 13.3135H6.23575L6.43188 13.4866ZM8.46087 17.9582C8.68406 18.1732 8.71111 18.4179 8.55556 18.6806C8.38647 18.9791 8.27826 18.9911 5.55942 18.9732C3.13816 18.9553 3.04348 18.9493 2.90821 18.8358C2.56328 18.5314 2.63092 18.0179 3.04348 17.8329C3.2599 17.7373 3.50338 17.7314 5.76908 17.7433L8.26473 17.7612L8.46087 17.9582ZM9.60386 22C9.84734 22.1075 9.95555 22.2806 9.95555 22.5373C9.95555 22.794 9.84734 22.9672 9.60386 23.0746C9.43478 23.1523 8.94106 23.1642 6.31014 23.1642C3.3343 23.1642 3.2058 23.1582 2.98937 23.0448C2.84734 22.9672 2.75266 22.8597 2.73237 22.7463C2.65121 22.3881 2.7256 22.1732 2.98937 22.0299C3.2058 21.9164 3.3343 21.9105 6.31014 21.9105C8.94106 21.9105 9.43478 21.9224 9.60386 22Z" fill="white"/>
<path d="M23.2656 8.24484C22.799 8.27469 22.2511 8.31648 22.0482 8.34036C21.6966 8.38812 21.6763 8.40006 21.656 8.56723C21.4666 10.2807 20.77 11.612 19.3565 12.9612C18.7545 13.5403 18.626 13.7732 18.5719 14.4239C18.5111 15.1165 18.1999 15.7493 17.6859 16.2388L17.4627 16.4478L17.4222 17.2956C17.3816 18.2567 17.2598 18.6687 16.8676 19.2C16.4347 19.809 15.7178 20.2866 14.9671 20.4836L14.6763 20.5552V24.2806C14.6763 27.4209 14.6898 28 14.771 28C14.8251 28 15.055 27.9463 15.2917 27.8806C16.6714 27.5104 18.7207 27.1463 20.5603 26.9493C21.94 26.8 25.254 26.8 26.6811 26.9433C27.2425 27.003 27.7632 27.0687 27.8511 27.0866L27.9999 27.1164V17.8448C27.9999 12.7403 27.9729 8.53738 27.9458 8.50155C27.8782 8.412 27.0193 8.30454 25.7681 8.23887C24.598 8.1732 24.4695 8.1732 23.2656 8.24484ZM25.0782 13.7493C25.3217 13.9583 25.3825 14.1732 25.2608 14.4239C25.085 14.7941 25.0173 14.806 23.313 14.806H21.7642L21.5681 14.6329C21.4193 14.4956 21.3719 14.4 21.3719 14.2209C21.3719 13.9463 21.6154 13.6359 21.8656 13.5941C21.9468 13.5762 22.6569 13.5702 23.4482 13.5762L24.8821 13.5821L25.0782 13.7493ZM24.9565 17.8388C25.369 18.0179 25.4367 18.5314 25.0917 18.8358C24.9565 18.9493 24.8618 18.9553 22.4405 18.9732C19.7217 18.9911 19.6135 18.9791 19.4444 18.6806C19.2415 18.3463 19.4038 17.9224 19.7758 17.7911C19.8502 17.7612 20.9999 17.7373 22.3188 17.7373C24.4763 17.7314 24.7468 17.7433 24.9565 17.8388ZM24.5236 22.1135C24.828 22.3821 24.8415 22.6627 24.5574 22.9373L24.3613 23.1343L21.4598 23.1523C18.6869 23.1642 18.5584 23.1582 18.3487 23.0508C17.9294 22.8179 17.9294 22.2508 18.3555 22.0239C18.5516 21.9164 18.7342 21.9105 21.426 21.9105H24.2937L24.5236 22.1135Z" fill="white"/>
<path d="M11.9913 17.618C12.0318 18.1612 12.2347 18.5612 12.6405 18.8836C13.114 19.2597 13.2831 19.3135 14 19.3135C14.5748 19.3135 14.6763 19.2956 14.9536 19.1523C15.5961 18.818 15.9478 18.2986 16.0087 17.5941L16.0492 17.1642H14H11.9507L11.9913 17.618Z" fill="white"/>
</svg>
