<svg width="24" height="24" viewBox="0 0 24 24" fill="none" xmlns="http://www.w3.org/2000/svg">
<path d="M6.11195 0.0114841C5.19896 0.112394 4.15142 0.496813 3.397 1.00136C2.99817 1.27045 2.87804 1.37136 2.42154 1.81825C1.59504 2.63033 1.01361 3.71151 0.749319 4.92723C0.662825 5.31646 0.65802 5.66243 0.65802 11.5104C0.65802 17.3584 0.662825 17.7043 0.749319 18.0936C1.29231 20.5683 3.10869 22.3846 5.58338 22.9276C5.9726 23.0141 6.31858 23.0189 12.1665 23.0189C18.0145 23.0189 18.3605 23.0141 18.7497 22.9276C21.2244 22.3846 23.0408 20.5683 23.5838 18.0936C23.6703 17.7043 23.6751 17.3584 23.6751 11.5104C23.6751 4.64853 23.6943 5.081 23.3531 4.11034C22.7188 2.30838 21.2628 0.876425 19.4945 0.294992C18.5479 -0.0125427 19.0332 0.00667763 12.3588 0.00187302C9.01431 -0.00293159 6.20325 0.00187302 6.11195 0.0114841ZM6.31377 7.34426C6.54442 7.44517 10.4895 11.0347 10.5616 11.2077C10.6481 11.4047 10.6481 11.6161 10.5616 11.8131C10.4847 12.0005 6.53001 15.5852 6.28975 15.6861C6.09273 15.7678 5.75637 15.7294 5.59299 15.6093C5.28545 15.3834 5.17013 15.0038 5.30468 14.6818C5.35753 14.5617 5.86208 14.0812 7.03936 13.024C7.95236 12.2023 8.70197 11.5248 8.70197 11.5104C8.70197 11.496 7.95236 10.8184 7.03936 9.99675C5.35753 8.49271 5.24701 8.37258 5.24701 8.05544C5.24701 7.51245 5.82364 7.12803 6.31377 7.34426ZM18.7305 14.3263C18.9852 14.5137 19.062 14.6674 19.062 14.9702C19.062 15.2729 18.9852 15.4267 18.7305 15.6141C18.6007 15.715 18.5431 15.715 15.3476 15.7294C13.1516 15.739 12.0368 15.7294 11.9167 15.6909C11.4313 15.5516 11.2439 14.8837 11.5755 14.4848C11.8206 14.1917 11.6956 14.2013 15.2996 14.2157C18.5479 14.2254 18.6007 14.2254 18.7305 14.3263Z" fill="white"/>
</svg>
