<svg width="14" height="14" viewBox="0 0 14 14" fill="none" xmlns="http://www.w3.org/2000/svg">
<path d="M0.841389 0.021724C0.525868 0.0988174 0.238394 0.337106 0.0876447 0.638471L0 0.813683V3.07392V5.33416L0.0806332 5.49185C0.203336 5.74416 0.343567 5.89134 0.585467 6.02099L0.806332 6.14014H3.06757H5.3288L5.54966 6.02099C5.79507 5.88783 5.90024 5.7792 6.04048 5.51288L6.13513 5.33416V3.07392V0.813683L6.01593 0.592916C5.88622 0.351123 5.73898 0.210953 5.48656 0.0883047L5.3288 0.00770702L3.13768 0.000698529C1.93169 -0.00280572 0.900988 0.00770702 0.841389 0.021724Z" fill="white"/>
<path d="M8.69442 0.021724C8.3789 0.0988174 8.09142 0.337106 7.94067 0.638471L7.85303 0.813683V3.07392V5.33416L7.93366 5.49185C8.05636 5.74416 8.19659 5.89134 8.43849 6.02099L8.65936 6.14014H10.9206H13.1818L13.4027 6.02099C13.6481 5.88783 13.7533 5.7792 13.8935 5.51288L13.9882 5.33416V3.07392V0.813683L13.869 0.592916C13.7392 0.351123 13.592 0.210953 13.3396 0.0883047L13.1818 0.00770702L10.9907 0.000698529C9.78472 -0.00280572 8.75402 0.00770702 8.69442 0.021724Z" fill="white"/>
<path d="M0.841389 7.87121C0.525868 7.9483 0.238394 8.18659 0.0876447 8.48796L0 8.66317V10.9234V13.1836L0.0806332 13.3413C0.203336 13.5936 0.343567 13.7408 0.585467 13.8705L0.806332 13.9896H3.06757H5.3288L5.54966 13.8705C5.79507 13.7373 5.90024 13.6287 6.04048 13.3624L6.13513 13.1836V10.9234V8.66317L6.01593 8.4424C5.88622 8.20061 5.73898 8.06044 5.48656 7.93779L5.3288 7.85719L3.13768 7.85019C1.93169 7.84668 0.900988 7.85719 0.841389 7.87121Z" fill="white"/>
<path d="M10.5172 7.86419C10.3069 7.89222 9.8827 8.01136 9.67936 8.10247C8.21745 8.75076 7.49526 10.4013 8.01061 11.9291C8.29808 12.7912 9.05183 13.5446 9.91425 13.8319C11.8705 14.4907 13.8758 13.1381 13.995 11.0811C14.0826 9.54622 12.9818 8.15854 11.4638 7.89222C11.1798 7.84316 10.7697 7.83265 10.5172 7.86419Z" fill="white"/>
</svg>
