<svg width="399" height="116" viewBox="0 0 399 116" fill="none" xmlns="http://www.w3.org/2000/svg">
<path opacity="0.2" fill-rule="evenodd" clip-rule="evenodd" d="M399 88.6761L389.358 90.9531C380.048 93.2301 361.095 97.784 342.143 100.061C322.858 102.338 303.905 102.338 284.952 88.6761C266 75.0141 247.047 47.6901 228.095 27.1971C209.142 6.70411 189.857 -6.95788 170.905 4.42711C151.952 15.8121 133 52.2441 114.047 65.9061C95.095 79.5681 76.1425 70.4601 56.8575 56.7981C37.905 43.1361 18.9525 24.9201 9.64252 15.8121L0 6.70411V108C0 112.418 3.58173 116 8 116H9.64252C18.9525 116 37.905 116 56.8575 116C76.1425 116 95.095 116 114.047 116C133 116 151.952 116 170.905 116C189.857 116 209.142 116 228.095 116C247.047 116 266 116 284.952 116C303.905 116 322.858 116 342.143 116C361.095 116 380.048 116 389.358 116H391C395.418 116 399 112.418 399 108V88.6761Z" fill="url(#paint0_linear_3_1872)"/>
<defs>
<linearGradient id="paint0_linear_3_1872" x1="418.404" y1="149.375" x2="10.1433" y2="-52.9814" gradientUnits="userSpaceOnUse">
<stop stop-color="#C5B9AC" stop-opacity="0.12"/>
<stop offset="1" stop-color="#5F5953" stop-opacity="0.52"/>
</linearGradient>
</defs>
</svg>
