<svg width="395" height="116" viewBox="0 0 395 116" fill="none" xmlns="http://www.w3.org/2000/svg">
<path opacity="0.2" fill-rule="evenodd" clip-rule="evenodd" d="M0 99.8727H11.306C22.9546 99.8727 45.5667 99.8727 68.5213 83.7454C91.4759 67.618 114.088 35.3633 137.043 32.6754C159.997 29.9876 182.609 56.8665 205.564 48.8028C228.518 40.7391 251.13 -2.26712 274.085 0.420768C297.04 3.10866 319.652 51.4907 342.606 78.3696C365.561 105.248 381.894 110.624 393.543 113.312C394.594 113.795 394.701 115.248 393.73 115.878L393.543 116C381.894 116 365.561 116 342.606 116C319.652 116 297.04 116 274.085 116C251.13 116 228.518 116 205.564 116C182.609 116 159.997 116 137.043 116C114.088 116 91.4759 116 68.5213 116C45.5667 116 22.9546 116 11.306 116H8C3.58172 116 0 112.418 0 108V99.8727Z" fill="url(#paint0_linear_3_1781)"/>
<defs>
<linearGradient id="paint0_linear_3_1781" x1="-2.03005e-06" y1="-60.3312" x2="415.24" y2="162.813" gradientUnits="userSpaceOnUse">
<stop stop-color="#C5B9AC" stop-opacity="0.63"/>
<stop offset="1" stop-color="#C8C9C7" stop-opacity="0.51"/>
</linearGradient>
</defs>
</svg>
