<svg width="178" height="24" viewBox="0 0 178 24" fill="none" xmlns="http://www.w3.org/2000/svg">
<path d="M29.8889 1.58L24.4289 23H19.2689L16.3589 11.75C16.2989 11.53 16.2189 11.2 16.1189 10.76C16.0389 10.32 15.9389 9.84 15.8189 9.32C15.7189 8.8 15.6289 8.31 15.5489 7.85C15.4689 7.37 15.4089 7 15.3689 6.74C15.3489 7 15.2889 7.37 15.1889 7.85C15.1089 8.31 15.0189 8.8 14.9189 9.32C14.8189 9.82 14.7189 10.3 14.6189 10.76C14.5189 11.2 14.4389 11.54 14.3789 11.78L11.4989 23H6.33891L0.878906 1.58H5.34891L8.07891 13.28C8.15891 13.62 8.24891 14.04 8.34891 14.54C8.44891 15.02 8.54891 15.53 8.64891 16.07C8.74891 16.59 8.83891 17.1 8.91891 17.6C9.01891 18.1 9.08891 18.53 9.12891 18.89C9.16891 18.51 9.22891 18.08 9.30891 17.6C9.38891 17.1 9.47891 16.6 9.57891 16.1C9.67891 15.58 9.76891 15.1 9.84891 14.66C9.94891 14.2 10.0389 13.84 10.1189 13.58L13.2389 1.58H17.5289L20.6489 13.58C20.7089 13.84 20.7889 14.2 20.8889 14.66C20.9889 15.1 21.0889 15.58 21.1889 16.1C21.2889 16.62 21.3789 17.13 21.4589 17.63C21.5389 18.11 21.5989 18.53 21.6389 18.89C21.6989 18.39 21.7889 17.8 21.9089 17.12C22.0289 16.42 22.1589 15.72 22.2989 15.02C22.4589 14.32 22.5889 13.74 22.6889 13.28L25.4189 1.58H29.8889ZM38.3869 6.32C39.9069 6.32 41.2069 6.61 42.2869 7.19C43.3869 7.77 44.2369 8.61 44.8369 9.71C45.4369 10.81 45.7369 12.16 45.7369 13.76V15.92H35.1769C35.2169 17.18 35.5869 18.17 36.2869 18.89C37.0069 19.61 37.9969 19.97 39.2569 19.97C40.3169 19.97 41.2769 19.87 42.1369 19.67C42.9969 19.45 43.8869 19.12 44.8069 18.68V22.13C44.0069 22.53 43.1569 22.82 42.2569 23C41.3769 23.2 40.3069 23.3 39.0469 23.3C37.4069 23.3 35.9569 23 34.6969 22.4C33.4369 21.78 32.4469 20.85 31.7269 19.61C31.0069 18.37 30.6469 16.81 30.6469 14.93C30.6469 13.01 30.9669 11.42 31.6069 10.16C32.2669 8.88 33.1769 7.92 34.3369 7.28C35.4969 6.64 36.8469 6.32 38.3869 6.32ZM38.4169 9.5C37.5569 9.5 36.8369 9.78 36.2569 10.34C35.6969 10.9 35.3669 11.77 35.2669 12.95H41.5369C41.5169 11.95 41.2569 11.13 40.7569 10.49C40.2569 9.83 39.4769 9.5 38.4169 9.5ZM53.8315 23H49.3615V0.199998H53.8315V23ZM65.1621 23.3C63.5421 23.3 62.1621 23.01 61.0221 22.43C59.8821 21.83 59.0121 20.91 58.4121 19.67C57.8121 18.43 57.5121 16.84 57.5121 14.9C57.5121 12.9 57.8521 11.27 58.5321 10.01C59.2121 8.75 60.1521 7.82 61.3521 7.22C62.5721 6.62 63.9721 6.32 65.5521 6.32C66.6721 6.32 67.6421 6.43 68.4621 6.65C69.3021 6.87 70.0321 7.13 70.6521 7.43L69.3321 10.88C68.6321 10.6 67.9721 10.37 67.3521 10.19C66.7521 10.01 66.1521 9.92 65.5521 9.92C64.7721 9.92 64.1221 10.11 63.6021 10.49C63.0821 10.85 62.6921 11.4 62.4321 12.14C62.1921 12.86 62.0721 13.77 62.0721 14.87C62.0721 15.95 62.2021 16.85 62.4621 17.57C62.7421 18.27 63.1421 18.8 63.6621 19.16C64.1821 19.5 64.8121 19.67 65.5521 19.67C66.4921 19.67 67.3221 19.55 68.0421 19.31C68.7621 19.05 69.4621 18.7 70.1421 18.26V22.07C69.4621 22.51 68.7421 22.82 67.9821 23C67.2421 23.2 66.3021 23.3 65.1621 23.3ZM88.7923 14.78C88.7923 16.6 88.4623 18.15 87.8023 19.43C87.1623 20.69 86.2423 21.65 85.0423 22.31C83.8623 22.97 82.4523 23.3 80.8123 23.3C79.2923 23.3 77.9323 22.97 76.7323 22.31C75.5523 21.65 74.6223 20.69 73.9423 19.43C73.2623 18.15 72.9223 16.6 72.9223 14.78C72.9223 12.06 73.6323 9.97 75.0523 8.51C76.4723 7.05 78.4223 6.32 80.9023 6.32C82.4423 6.32 83.8023 6.65 84.9823 7.31C86.1623 7.97 87.0923 8.93 87.7723 10.19C88.4523 11.43 88.7923 12.96 88.7923 14.78ZM77.4823 14.78C77.4823 15.86 77.5923 16.77 77.8123 17.51C78.0523 18.23 78.4223 18.78 78.9223 19.16C79.4223 19.52 80.0723 19.7 80.8723 19.7C81.6723 19.7 82.3123 19.52 82.7923 19.16C83.2923 18.78 83.6523 18.23 83.8723 17.51C84.1123 16.77 84.2323 15.86 84.2323 14.78C84.2323 13.7 84.1123 12.8 83.8723 12.08C83.6523 11.36 83.2923 10.82 82.7923 10.46C82.2923 10.1 81.6423 9.92 80.8423 9.92C79.6623 9.92 78.8023 10.33 78.2623 11.15C77.7423 11.95 77.4823 13.16 77.4823 14.78ZM111.716 6.32C113.576 6.32 114.976 6.8 115.916 7.76C116.876 8.7 117.356 10.22 117.356 12.32V23H112.886V13.43C112.886 12.25 112.686 11.37 112.286 10.79C111.886 10.19 111.266 9.89 110.426 9.89C109.246 9.89 108.406 10.31 107.906 11.15C107.406 11.99 107.156 13.2 107.156 14.78V23H102.686V13.43C102.686 12.25 102.486 11.37 102.086 10.79C101.686 10.19 101.066 9.89 100.226 9.89C99.4065 9.89 98.7565 10.1 98.2765 10.52C97.7965 10.94 97.4565 11.55 97.2565 12.35C97.0565 13.15 96.9565 14.13 96.9565 15.29V23H92.4865V6.62H95.9065L96.5065 8.72H96.7465C97.0865 8.16 97.5065 7.71 98.0065 7.37C98.5065 7.01 99.0565 6.75 99.6565 6.59C100.276 6.41 100.896 6.32 101.516 6.32C102.716 6.32 103.736 6.52 104.576 6.92C105.416 7.3 106.056 7.9 106.496 8.72H106.886C107.386 7.88 108.076 7.27 108.956 6.89C109.856 6.51 110.776 6.32 111.716 6.32ZM128.709 6.32C130.229 6.32 131.529 6.61 132.609 7.19C133.709 7.77 134.559 8.61 135.159 9.71C135.759 10.81 136.059 12.16 136.059 13.76V15.92H125.499C125.539 17.18 125.909 18.17 126.609 18.89C127.329 19.61 128.319 19.97 129.579 19.97C130.639 19.97 131.599 19.87 132.459 19.67C133.319 19.45 134.209 19.12 135.129 18.68V22.13C134.329 22.53 133.479 22.82 132.579 23C131.699 23.2 130.629 23.3 129.369 23.3C127.729 23.3 126.279 23 125.019 22.4C123.759 21.78 122.769 20.85 122.049 19.61C121.329 18.37 120.969 16.81 120.969 14.93C120.969 13.01 121.289 11.42 121.929 10.16C122.589 8.88 123.499 7.92 124.659 7.28C125.819 6.64 127.169 6.32 128.709 6.32ZM128.739 9.5C127.879 9.5 127.159 9.78 126.579 10.34C126.019 10.9 125.689 11.77 125.589 12.95H131.859C131.839 11.95 131.579 11.13 131.079 10.49C130.579 9.83 129.799 9.5 128.739 9.5ZM156.779 19.73C157.279 19.73 157.759 19.68 158.219 19.58C158.679 19.48 159.139 19.36 159.599 19.22V22.55C159.119 22.75 158.519 22.92 157.799 23.06C157.099 23.22 156.329 23.3 155.489 23.3C154.509 23.3 153.629 23.14 152.849 22.82C152.089 22.5 151.479 21.95 151.019 21.17C150.579 20.37 150.359 19.27 150.359 17.87V9.98H148.229V8.09L150.689 6.59L151.979 3.14H154.829V6.62H159.419V9.98H154.829V17.87C154.829 18.49 155.009 18.96 155.369 19.28C155.729 19.58 156.199 19.73 156.779 19.73ZM177.767 14.78C177.767 16.6 177.437 18.15 176.777 19.43C176.137 20.69 175.217 21.65 174.017 22.31C172.837 22.97 171.427 23.3 169.787 23.3C168.267 23.3 166.907 22.97 165.707 22.31C164.527 21.65 163.597 20.69 162.917 19.43C162.237 18.15 161.897 16.6 161.897 14.78C161.897 12.06 162.607 9.97 164.027 8.51C165.447 7.05 167.397 6.32 169.877 6.32C171.417 6.32 172.777 6.65 173.957 7.31C175.137 7.97 176.067 8.93 176.747 10.19C177.427 11.43 177.767 12.96 177.767 14.78ZM166.457 14.78C166.457 15.86 166.567 16.77 166.787 17.51C167.027 18.23 167.397 18.78 167.897 19.16C168.397 19.52 169.047 19.7 169.847 19.7C170.647 19.7 171.287 19.52 171.767 19.16C172.267 18.78 172.627 18.23 172.847 17.51C173.087 16.77 173.207 15.86 173.207 14.78C173.207 13.7 173.087 12.8 172.847 12.08C172.627 11.36 172.267 10.82 171.767 10.46C171.267 10.1 170.617 9.92 169.817 9.92C168.637 9.92 167.777 10.33 167.237 11.15C166.717 11.95 166.457 13.16 166.457 14.78Z" fill="white"/>
</svg>
